<svg xmlns="http://www.w3.org/2000/svg" xml:space="preserve" width="300" height="72" viewBox="0 0 79.375 19.05"><path d="M.24 1.812h78.895" style="fill:#241d15;stroke:#241d15;stroke-width:.480565;stroke-linecap:round;stroke-linejoin:round;stroke-dasharray:none;stop-color:#000"/><path d="M27.276 5.765c.065-.133.182-.46.27-.754.067-.246.543-1.101.665-.647-.015.69-.408 1.769-.136 2.362.061.108.122.218.179.328.119.233.44.4.977.507.629.191 1.243.815 1.413 1.479.02.094.047.186.077.278.057.168.059.331.007.549-.196.822.208 1.307 1.115 1.34.235.01.469.025.703.047.464.045.553.018.592-.186.144-.516.647-1.004 1.113-1.117.111-.013.222-.028.332-.044.221-.034.649.305.806.638.163.349.275.413.495.285.499-.17 2.263-.935 2.135-1.503-.01-.031-.207-.195-.437-.364-.23-.17-.499-.4-.598-.513a3.241 3.241 0 0 0-.394-.364c-.56-.421-.885-1.027-.869-1.616.018-.624-.215-.805-.492-.384-.524.668-1.405 1.292-2.113 1.488-.953.33-1.414-.07-.497-.432.457-.18.516-.33.526-1.338.009-.885.013-.9.417-1.332.333-.355.323-.398-.107-.477a5.714 5.714 0 0 1-.533-.139 3.097 3.097 0 0 0-.374-.1c-.106-.004-.502-.317-.676-.534-.312-.39-.434-.56-.432-.608 0-.062-.184-.238-.33-.315-.3-.158-.437-.218-.5-.22-.15-.004-.362-.089-.38-.154-.071-.257.399-.371 1.094-.265.632.097 1 .12 1.254.08.13-.02.47-.042.755-.049 1.376-.022.836-.09 2.98-.037.633.016.93.01.98-.017.048-.026.31-.037.743-.033.37.004.798 0 .955-.008.687-.04 1.386-.03 1.64.021.1.02.371.034.601.033.23-.002.72-.004 1.088-.004.37 0 .765-.018.881-.039.167-.03.418-.024 1.171.029 1.386-.099 1.502-.023 2.409 0 .216.003.64.039.94.078.45.059.58.065.752.033.225-.042.885-.035 1.219.013.166.023.237.017.343-.03.385-.173 1.183.058 1.025.296-.055.083-.498.264-.645.263a.781.781 0 0 0-.275.08.918.918 0 0 1-.21.083c-.024 0-.1.051-.17.114a.88.88 0 0 1-.186.136.458.458 0 0 0-.141.153 1.039 1.039 0 0 1-.215.233 4.73 4.73 0 0 0-.353.316c-.803.785-1.036.858-2.122.668-.5-.087-.527.01-.13.457.39.44.489.815.406 1.55-.029.26.133.536.46.789.376.29.41.369.235.539-.136.132-.604.135-.884.005-.45-.151-.811-.535-1.1-.747-.015 0-.125-.114-.245-.254-.342-.4-.373-.376-.41.32-.4 1.43-1.296 2.081-2.164 2.828-.153.28-.109.351.075.5.091.08.188.154.29.22.233.152.976.704 1.109.826.239.216.381.196.66-.094.507-.53 1.433-.36 1.557.285.108.563.243.703.692.715.635.018 1.31-.445 1.446-.99.02-.076.22-.607.45-1.187.25-.427.582-.524.98-.631l.295-.13c.148-.064.298-.193.704-.6.566-.57.61-.65.532-.973-.11-.46.054-.956.257-.774.242.217.252.513.035 1.016-.128.53-.314 1.08-.475 1.54-.404.903-.986 2.063-1.863 2.525a3.32 3.32 0 0 0-.422.24 1.101 1.101 0 0 1-.28.145l-.371.134c-.606.218-.695.36-.412.658.108.119.203.247.283.384 1.106 1.346-.184 3.75-1.444 3.84a.842.842 0 0 0-.218.032c-.41.123-.725.079-.688-.097.03-.142.103-.193.309-.216.3-.031.345-.047.63-.22.556-.338.64-.623.333-1.134-.203-.34-.194-.865.023-1.182.487-1.125.243-1.144-.235-1.673-.391-.436-.751-.46-.953-.061-.343.396-1.148.18-1.33-.36-.125-.424-.15-.447-.61-.57-.617-.357-1.137-.748-1.567-1.228-.43-.484-.523-.507-.741-.189-.062.09-.197.27-.3.4-.243.302-.32.418-.444.665-.056.11-.117.22-.136.244-.092.117-.222.696-.228 1.02-.008.422.001.433.502.618.387.143.387.143.756.542.641.694.9.837 1.512.842.37.002.47.051.467.226 0 .062-.134.212-.186.21-.016 0-.111.038-.212.086a1.621 1.621 0 0 1-.386.116c-.277.038-.55.102-.814.19-.234.08-.391.042-.72-.176-.678-.451-.853-.423-.572.094.07.129.136.285.146.347.023.113.05.226.08.339.071.27.068.641-.006.836-.03.081-.058.164-.081.247-.232.53-.676.961-.84 1.57-.254 1.007-.611-.618-.716-1.04a2.657 2.657 0 0 0-.228-.576c-.253-.467-.152-.846.207-1.47.22-.381.158-.492-.241-.427a4.448 4.448 0 0 1-.41.049l-.468.024a1.314 1.314 0 0 1-.897-.263.644.644 0 0 0-.16-.102c-.04-.001-.615-.479-.694-.576-.158-.196.149-.284.55-.157.52.163.878.115 1.135-.15.486-.504 1.032-.907 1.224-.903.694-.428-.017-2.045-.33-2.367a2.981 2.981 0 0 1-.284-.333c-.124-.187-.61-.727-.655-.728-.618 1.612-2.39 1.148-3.227 2.276-.111.235-.2.308-.473.39-.4.198-.756.088-1.073-.037-.126-.029-.287-.163-.548-.456-.36-.402-1.21.53-1.055 1.155.126.498.187.596.46.735.644.328.837.845.547 1.466-.298.635.081 1.3.853 1.495.275.07.395.167.288.235-.53-.002-1.233-.276-1.66-.632-.439-.483-1.122-1.096-1.212-1.697a4.897 4.897 0 0 1 .028-1.178c.077-.616.126-.781.381-1.273.165-.318.123-.392-.243-.437-.628-.076-.69-.09-.897-.212a1.347 1.347 0 0 0-.361-.147 4.798 4.798 0 0 1-.645-.24c-.229-.11-.33-.185-.58-.433a4.603 4.603 0 0 0-.238-.217c-.544-.462-.89-1.063-1.285-1.629-.294-.685-.452-2.42-.317-3.106Zm7.274-1.93c.332.524 1.252.09 1.147-.54-.035-.213-.625-.49-.836-.393-.252.114-.45.713-.311.933Zm3.536 2.127c.196.78.488 1.528.893 1.653.116-.027.151-.092.247-.195.34-.352.262-.514.407-1.065.084-.496.046-.871.113-1.394.016-.027.044-.21.061-.405.049-.554.187-.74.429-.574.097.067.13.074.22.043.315-.107.372-.005.413.725.025.428.047.578.107.728.042.102.073.208.096.316.229.624.253 1.41.534 1.888.108.094.244-.012.334-.262.33-.904.313-.811.341-1.814.029-1.014.036-.965-.199-1.355-.228-.378-1.04-.813-1.35-.723-.086.025-.196.023-.372-.007l-.386-.064a.676.676 0 0 0-.515.136.794.794 0 0 1-.214.122c-.348.115-.88.67-1.005 1.047-.115.24-.188.466-.175.652.013.182.02.365.021.548zm1.1 2.859c.33.739.73 1.663 1.173 2.285.234.308.318.221.604-.628.244-.495.29-.892.412-1.405-.316-1.042-.602-2.044-.784-2.889a9.668 9.668 0 0 1-.103-.548c-.05-.34-.12-.312-.17.069-.018.133-.076.44-.13.681-.119.777-.44 1.568-.886 2.113-.133.149-.18.277-.115.322zm1.057 5.487c.156.232.526.184.617-.08.178-.52-.26-.925-.64-.591-.089.078-.073.528.023.671zm4.62-10.21c.141.243.54.401.747.295.77-.395.422-1.352-.4-1.095-.267.084-.381.212-.411.465-.04.138.008.228.064.334z" style="fill:#241d15;fill-opacity:1;stroke-width:.0344094"/></svg>