<?xml version="1.0" encoding="UTF-8" standalone="no"?>
<svg
   xml:space="preserve"
   width="500"
   height="53"
   viewBox="0 0 132.292 14.023"
   version="1.1"
   id="svg3"
   sodipodi:docname="title_4.svg"
   inkscape:version="1.3.2 (091e20ef0f, 2023-11-25, custom)"
   xmlns:inkscape="http://www.inkscape.org/namespaces/inkscape"
   xmlns:sodipodi="http://sodipodi.sourceforge.net/DTD/sodipodi-0.dtd"
   xmlns="http://www.w3.org/2000/svg"
   xmlns:svg="http://www.w3.org/2000/svg"><defs
     id="defs3" /><sodipodi:namedview
     id="namedview3"
     pagecolor="#ffffff"
     bordercolor="#999999"
     borderopacity="1"
     inkscape:showpageshadow="2"
     inkscape:pageopacity="0"
     inkscape:pagecheckerboard="0"
     inkscape:deskcolor="#d1d1d1"
     inkscape:zoom="1.88"
     inkscape:cx="250"
     inkscape:cy="26.595745"
     inkscape:window-width="1920"
     inkscape:window-height="1052"
     inkscape:window-x="0"
     inkscape:window-y="0"
     inkscape:window-maximized="1"
     inkscape:current-layer="svg3" /><path
     d="M.264 39.088h131.763M4.268 37.644h123.527"
     style="fill:none;stroke:#98a280;stroke-width:0.396875;stroke-linecap:round;stroke-linejoin:round;stroke-dasharray:none;stroke-dashoffset:0;stroke-opacity:1;stop-color:#000;fill-opacity:1"
     transform="matrix(1.00101 0 0 .99105 -.001 -37.11)"
     id="path1" /><path
     d="M9.508 67.246c.031.001.02.134.002.408-.03.464.03.59.176.357.06-.096.178-.113.178-.026 0 .032.043.087.095.124.087.06.088.065.013.068-.224.006-.821.451-.821.612 0 .149-.267.561-.314.485-.013-.022-.006-.124.017-.227.11-.485.054-.93-.15-1.21-.132-.182-.175-.288-.116-.288.036 0 .363.259.42.331.037.049.09-.01.269-.303.134-.22.201-.333.23-.331zm22.498.235c.06 0 .132.051.21.162.29.344.555.744.757 1.095.24.322.212.038.396-.18.613-.565.932.49.531 1.754-.088.279-.164.326-.563.356-.305.023-.454.072-.821.272-.35.23-.442-.001-.677-.234-.253-.251-.473-.502-.49-.557a.893.893 0 0 0-.115-.21c-.13-.3-.135-.563-.064-.867.051-.063.393-.071.465-.01.404.34.45.26.26-.442-.17-.624-.087-1.143.111-1.14zm-25.714.084c.189-.002.452.259.742.81.25.477.27.49.369.265.089-.202.353-.389.522-.37.318.037.42 1.641.144 2.25-.06.133-.07.137-.324.137-.322 0-.513.054-.962.273-.135.066-.255.144-.266.175-.036.093-.076.068-.4-.249-.72-.703-1.144-1.524-.866-1.672.105-.057.523-.02.611.052.263-.051.192-.029.195-.26-.141-.913-.023-1.408.235-1.41Zm13.534.019c.328.003.622.041.87.113.687.2.955.297 1.266.46.29.154.369.193.515.257.295.13.173.164-.582.165-.39 0-.985.031-1.32.069-.718.08-.968.083-1.365.011-.585-.102-1.202-.286-1.684-.54-.317-.145-.31-.262.015-.24.136.008.39-.027.671-.094a6.796 6.796 0 0 1 1.614-.201zm-7.172.076c.122 0 .237.007.34.018.651.083 1.689.432 1.869.629a4.759 4.759 0 0 1 .514.425c.801.748 1.396.937 2.225.707.338-.093.45-.062.302.086-.08.079-.483.203-1.172.359-.534.12-1.24.193-1.49.153-.656-.102-1.478-.453-1.845-.785a3.976 3.976 0 0 0-.404-.323c-.5-.322-.584-.372-.627-.372-.025 0-.16-.056-.297-.125a2.403 2.403 0 0 0-.713-.22c-.202-.405.639-.558 1.298-.552zm25.65.077c1.067-.005 1.982.375 2.863.901.148.092.298.206.43.295.68.403 1.264.592 1.96.586.738-.103-.068.26-.314.325-.12.027-.33.08-.469.12-.466.132-1.14.17-1.806.102-.455-.047-1.276-.244-1.414-.34-.276-.16-.49-.394-.673-.57l-.61-.588c-.302-.206-.574-.395-.805-.431-.245-.037-.333-.241-.097-.3.325-.067.636-.099.935-.1zm6.685.064a7.43 7.43 0 0 1 1.08.084c.194.027.44.087.545.134.474.21.886.43 1.155.612.267.182.333.206.791.29.536.098.578.114.501.191-.038.039-.12.038-.354-.003a6.611 6.611 0 0 0-1.67-.05c-.86.074-1.17.084-1.47.045-.39-.05-1.06-.203-1.11-.253-.188-.058-.36-.15-.518-.231-.11-.041-.303-.131-.43-.201s-.284-.155-.35-.188c-.29-.15-.2-.246.287-.304.208-.025.51-.061.672-.082.283-.032.579-.046.871-.044zm-17.131.002c.16 0 .208.122.102.34-.167.344-.245.606-.245.83 0 .204 0 .204-.23.32-.303.18-.565.388-.8.655-.093.178-.203.154-.36-.079-.126-.184-.203-.262-.55-.557-.141-.12-.135-.255.018-.419.233-.25.151-.505-.222-.694-.324-.164-.155-.36.32-.37.247-.007.276.002.407.13.084.081.184.136.249.136.192 0 .85-.128.973-.19a.809.809 0 0 1 .338-.102zm25.541.376c.228.003.212.057.169.693-.043.378-.15.449-.45.525-.266.073-.475.236-.685.399a1.16 1.16 0 0 0-.245.41c-.037.156-.104.144-.279-.052a1.356 1.356 0 0 0-.317-.253c-.407-.212-.418-.23-.418-.741 0-.409-.01-.47-.097-.592-.325-.456.006-.523.607-.122.174.115.174.116.459-.036.302-.16.637-.228 1.144-.23h.112zm-30.52.623c2.223.028 3.778 1.04 3.9 2.632.066.877-.22 1.463-.987 2.025-.201.148-.422.314-.491.371a.759.759 0 0 1-.215.128c-.167.926.346 1.968.955 2.644.095.03.172.197.136.292-.232.055-.474-.046-.687-.104a5.301 5.301 0 0 1-1.221-.389c-.296-.312-.4-.745-.54-1.093-.216-.473-.316-.969-.36-1.774-.039-.735-.355-1.337-.827-1.579-.211-.107-.263-.21-.201-.398.059-.178.235-.396.321-.396.449.178.807.522 1.105.901.067.146.082.158.106.086.078-.233.127-.358.237-.601.065-.146.12-.275.12-.286 0-.011.065-.124.146-.25.121-.28.339-.466.561-.648.108 0 .513.44.634.688.146.3.15.328.07.481-.156.293-.32.666-.32.727a.807.807 0 0 1-.062.218c-.091.218-.265.91-.229.91.017 0 .27-.13.452-.4 1.793-3.116-1.722-3.566-3.458-3.562-.323.01-.644.028-.714.038-.069.01-.277.035-.462.057-.553.066-2.106.401-2.394.518a4.916 4.916 0 0 1-.483.158 7.48 7.48 0 0 0-1.522.527c-.144.081-.33.18-.41.22a1.035 1.035 0 0 0-.168.094 2.05 2.05 0 0 1-.168.125c-.873.604-1.506 1.3-1.982 2.176-.226.417-.294.48-.402.371-.167-.167.604-1.318 1.432-2.138.228-.225.405-.41.394-.41-.043 0-1.108.366-1.248.429-.424.19-.923.304-1 .227-.098-.098-.034-.174.23-.276l.329-.128a68.138 68.138 0 0 1 1.552-.501c.014-.023-.118-.039-.323-.038a4.08 4.08 0 0 1-.767-.09 11.09 11.09 0 0 0-.562-.108 2.129 2.129 0 0 1-.4-.127 6.207 6.207 0 0 0-.33-.13c-.094-.03-.097-.217-.004-.253.038-.015.279.041.536.125.794.259.785.258 1.705.256.753-.001.893-.013 1.113-.088.139-.047.337-.11.441-.14.188-.073.384-.15.557-.202.272-.12 2.397-.76 3.035-.913a5.09 5.09 0 0 0 .503-.14c.17-.076.26-.096.62-.133l.756-.08a8.2 8.2 0 0 1 .991-.05zm7.53.031c.023.015.03.058.014.096-.091.22-.093.348-.008.522.126.255.124.253.26.434.12.16.2.231.62.548.185.139.225.226.104.223a.76.76 0 0 1-.218-.126c-.501-.353-1.357-.637-1.772-.377-.123 0-.04-.09.218-.24.326-.187.323-.176.073-.377a7.084 7.084 0 0 1-.22-.181 8.224 8.224 0 0 0-.242-.204c-.353-.291-.272-.37.095-.094.608.52.752.208 1.076-.224zm-20.436.084c.204 0 .37.083.279.228-.052.083-.072.427-.028.471.368-.16.81-.369 1.169-.44.51 0 .536.21.104.837-.076.171-.203.3-.312.409-.218.181-.204.214.137.312.742.337-.156.847-.523 1.034-.11.04-.237.088-.284.107-.098.042-.243.073-.58.128a1.47 1.47 0 0 0-.322.082c-.413-.065-.613-.852-.908-1.12-.234-.198-.216-.407.08-.96a9.13 9.13 0 0 0 .107-.21 3.66 3.66 0 0 1 .64-.718c.102-.11.283-.16.441-.16zm25.75.09c.548.015.147.889.719.612.17-.101.369-.158.547-.218.868-.457.944.176.134 1.124-.189.222-.187.253.02.309.223.07.33.187.454.356-.035.154-.263.287-.4.409a3.64 3.64 0 0 1-.49.234c-.407.186-.93.262-1.315.212a.334.334 0 0 1-.074-.18c-.001-.231-.515-.956-.677-.956-.629 0 .083-1.458.92-1.885a.725.725 0 0 1 .162-.016zm-32.907.081c.035 0 .186.073.37.183.906.54 1.202.607 1.213.275.004-.127.023-.274.042-.326.041-.11.042-.107.133.303.068.308.362.859.504.947.184.113.044.115-.38.004a3.28 3.28 0 0 1-.406-.123c-.19.04-.431.021-.654.038-.046.013-.074 0-.074-.037.187-.046.32-.155.452-.224.069-.052.069-.058-.01-.115a26.755 26.755 0 0 1-.638-.487 3.696 3.696 0 0 0-.272-.178c-.219-.132-.286-.192-.287-.255 0-.003.002-.005.007-.005zm44.875.158c1.012 0 2.087.11 2.601.302.755.232 1.44.812 1.828 1.361.08.122.13.27.178.387.241.46.132 1.711-.192 2.196a4.57 4.57 0 0 1-.877.872 1.094 1.094 0 0 1-.123.094c-.384.246-.404.267-.386.386.059.4.113.629.18.763.042.084.13.276.195.426.1.232.302.53.51.749.116.122-.016.254-.139.137-.042-.04-.164-.059-.832-.128-.584-.06-1.162-.506-1.16-.897 0-.106-.187-.685-.253-.785a1.614 1.614 0 0 1-.14-.382c-.064-.263-.087-.428-.13-.962-.032-.383-.074-.553-.192-.775a2.324 2.324 0 0 0-1.243-1.157c-.107 0-.103-.086.008-.189.371-.344 1.512.337 1.679 1.002.036.146.101.143.105-.004.005-.221.541-1.161.872-1.529.248-.276.355-.263.725.094.44.424.49.598.272.94-.098.119-.138.272-.192.4-.094.17-.15.368-.21.537-.076.159-.25.797-.251.922 0 .088.682-.337.867-.54.385-.422.507-1.315.255-1.85-.389-.662-.942-1.008-1.575-1.282-.308-.147-.58-.22-1.396-.379-.443-.086-2.236-.098-2.877-.018-.903.111-1.095.14-1.176.174-.046.02-.26.077-.473.128-.535.156-1.1.347-1.554.592a12.96 12.96 0 0 1-.44.26c-.182.127-.337.228-.494.363-.104.08-.218.175-.252.212a1.737 1.737 0 0 1-.21.168c-.204.141-.248.177-.329.266-.117.13-.44.434-.564.53-.325.357-.673.738-1.035 1.033-.072-.045-.055-.189.036-.303.427-.543 1.77-1.882 2.095-2.09.324-.205.197-.18-.392.078-.39.126-2.486.968-1.903.401.1-.025.256-.081.349-.125.092-.043.224-.09.292-.105.069-.016.23-.076.357-.134.569-.26.67-.3.968-.393.207-.065.283-.105.222-.115-.662.093-1.385.162-2.052.062a3.288 3.288 0 0 0-.36-.09c-.227-.039-.415-.143-.387-.215.028-.073.072-.075.267-.017.758.135 1.585.193 2.29.062.58-.071.768-.103 1.007-.17.228-.08.474-.168.67-.227.668-.214 1.219-.445 1.85-.61.223-.074.705-.18.966-.214a9.57 9.57 0 0 0 .525-.088c.428-.085 1.012-.124 1.62-.124zm-25.578.547c.279.004.446.059.369.181-.025.04-.114.086-.198.103-.656.136-1.18.823-1.18 1.546 0 .558.086.793.512 1.407.235.34.26.41.342.983.045.313-.052.711-.223.916-.14.299-.406.453-.644.63-.692.535-1.449.757-2.605.765-.399.003-.431-.003-.431-.078 0-.044.037-.092.083-.107.046-.015.225-.128.398-.253 1.13-.81 1.377-1.424 1.094-2.713-.106-.482-.136-.582-.28-.91.023-.774.278-1.711.865-2.068.427-.235 1.366-.41 1.898-.402zm25.827.378c.142.003.232.02.232.059-.145.208-.387.209-.61.3-.699.315-1.247 1.11-1.075 1.681.03.104.099.26.155.346a.796.796 0 0 1 .101.191c0 .02.113.26.251.535.356.709.41 1.105.22 1.595-.32.566-.874.862-1.4 1.1-.11.029-.28.09-.38.136-.233.106-.99.242-1.224.219-.065-.007-.14.005-.168.025-.028.02-.097.03-.155.023-.239-.031-.294-.057-.294-.136a.12.12 0 0 1 .08-.105c1.295-.805 1.716-1.554 1.268-2.725-.27-.481-.319-.666-.304-1.16.024-.76.501-1.347 1.371-1.681.047-.018.17-.071.273-.119.341-.156 1.234-.29 1.66-.284zm-29.373.024c.102 0 .008.17-.165.298l-.431.319c-.491.363-.893.835-.976 1.147-.143.538-.132 1.086.03 1.453.04.09.088.202.107.248.713 1.71-.117 2.625-2.38 2.625-1.087 0-1.472.093-1.865.448-.14.127-.17.139-.192.079-.04-.104.05-.36.176-.505.06-.07.141-.165.18-.213.407-.454.92-.714 1.413-.94.825-.35.88-.448.881-1.557.001-1.074.075-1.252.797-1.937.695-.678 1.534-1.086 2.425-1.465zm25.561.255c.033.001.059.014.074.039.04.066-.033.162-.255.332-.155.17-.301.309-.483.434-.455.446-.964 1.39-.835 2.012.134.97.436 2.097-.106 2.689-.57.53-1.237.667-2.206.453-.604-.133-1.283-.129-1.632.01-.272.082-.531.254-.717.384-.187.172-.255.193-.255.075.282-.323.586-.722.966-.887.121-.07.266-.12.387-.16.076-.043.327-.139.558-.215.4-.131.474-.16.82-.315.435-.195.627-.507.631-1.025.006-.772.114-1.306.34-1.68.066-.196.194-.326.296-.459.094-.155.302-.371.578-.599.125-.103.27-.233.324-.288.053-.055.177-.142.276-.192.099-.051.326-.171.505-.268.178-.083.372-.181.535-.26a.325.325 0 0 1 .2-.08zm-13.779.244c.52.003.931.197 1.413.535.254.115.208.187.223.36-.14.436-.164.591-.14.906.043.189.083.422.111.54-.084.22-.212.306-.901.604-.219.095-.856.138-1.063.073-.36-.115-.26-.584.175-.819.132-.07.132-.07-.175-.099a2.357 2.357 0 0 1-.42-.07c-.062-.023-.25-.083-.418-.134-.312-.093-.472-.265-.472-.507.3-.244.684-.337 1.017-.394.375-.038.511-.053.532-.06.009-.004-.032-.044-.09-.09-.261-.205-.412-.673-.258-.8a2.45 2.45 0 0 1 .466-.045zm-26.02.178c.414.003 1.019.101 1.251.23.058.032.206.11.33.174.23.119.278.368.126.653-.071.133-.055.789.025.996.15.39.15.39-.195.616-.823.536-1.483.73-1.73.508-.181-.162-.137-.609.078-.787.112-.093.071-.115-.266-.145-.589-.051-1.266-.357-1.266-.572 0-.235.951-.67 1.465-.67.127 0 .11-.08-.062-.273-.26-.292-.314-.598-.12-.686.07-.032.203-.045.364-.044zm3.47.388c.933.017 1.41 1.49.575 1.935-.338.174-.603.229-.882.143-.944-.2-1.2-1.96.216-2.076a.879.879 0 0 1 .091-.002zm25.802.08c.033 0 .067 0 .101.003.38.032.556.107.746.317.806.892-.134 2.135-1.209 1.598-.967-.483-.655-1.914.362-1.919zm-21.032.082c.024 0 .044.035.068.099.036.251-.103.272-.07.55.202-.016 1.08.067 1.103.105.045.073-.024.095-.352.108l-.577.026c-.4.018-.432.061-.21.297.082.086.148.174.148.195-.031.078-.138-.007-.15-.008-.036-.058-.399-.22-.744-.332a2.863 2.863 0 0 1-.335-.125c-.04-.023-.186-.042-.325-.042-.36 0-.313-.05.128-.138.346-.069.582-.145.754-.244.035-.02.122-.064.196-.097a.612.612 0 0 0 .231-.23c.064-.113.103-.166.135-.164zm25.877.082h.002c.04.042-.083.378-.153.416-.204.11-.03.174.552.205.465.025.59.098.2.119-.268.014-.75.081-.776.109-.011.01.03.106.092.21.132.226.14.476.011.332-.04-.045-.073-.1-.073-.121 0-.135-.91-.452-1.461-.51-.43-.044-.318-.113.257-.157.181-.015.36-.043.399-.064.038-.021.181-.069.318-.106a.817.817 0 0 0 .433-.258.974.974 0 0 1 .199-.175zm-28.433.897c.498.012 1.154.233 1.519.597.279.28.282.407.013.531a2.879 2.879 0 0 0-.169.09.512.512 0 0 1-.213.061c-.19.001-.17.048.162.375.858.845.816 1.41-.08 1.073a2.021 2.021 0 0 0-.326-.092 1.498 1.498 0 0 1-.362-.137c-.219-.115-.219-.115-.243.265-.027.408-.094.537-.26.502-.693-.301-1.15-.74-1.404-1.355a2.607 2.607 0 0 0-.118-.326c-.066-.14-.026-.26.088-.263.211-.004.632-.595.737-1.032.049-.207.316-.297.656-.289zm25.458.19c.045.001.107.006.192.014.942.088 1.793.622 1.797 1.128 0 .045-.578.211-.628.18-.216-.133-.06.176.305.603a1.4 1.4 0 0 1 .238.394c.03.098.073.231.097.296.2.548-.82.338-1.543-.317-.146-.132-.215-.15-.167-.042.17.377-.045.957-.318.86-.179-.063-.614-.47-.753-.703-.492-.826-.519-.965-.223-1.137.434-.252.656-.561.869-1.21.016-.05.035-.067.134-.065zm-3.32.964c.136.072.248.168.372.25.146.137.694.338.926.34.361.002.394.074.427.939.02.5.007.576-.147.907-.08.173-.255.378-.32.378-.129 0-.522-.302-.548-.42-.035-.16-.09-.193-.128-.076-.027.084-.162.274-.463.651-.244.307-.51.426-.721.323-.24-.405-.103-.745-.033-1.106.117-.332.084-.364-.398-.387-.168-.008-.378-.174-.378-.298.327-.663.817-1.183 1.412-1.5zm-25.688.024a.362.362 0 0 1 .156.062c.514.306.654.35 1.071.34.323-.008.324-.007.35.109.014.064.052.187.085.275.16.619.24 1.553-.212 2.003-.147.122-.486-.094-.68-.434-.044-.079-.052-.074-.13.08-.2.388-.437.725-.715 1.06-.098.075-.196.064-.282-.032-.076-.084-.074-1.278.003-1.544.031-.11-.067-.133-.149-.034-.137.165-.7.165-.742 0-.09-.359.363-1.24.816-1.59.063-.047.14-.111.172-.142.114-.11.182-.157.257-.153zm24.445.373c.064.002.002.124-.188.31-.254.25-.544.785-.593 1.09-.055.352-.167.211-.125-.159.013-.123.006-.21-.018-.21-.146 0-.826.41-1.145.692-.067.059-.073.057-.073-.02.03-.123.172-.194.254-.264.103-.1.224-.208.27-.241.168-.173.315-.316.493-.487-.024-.044-.149-.116-.278-.16-.13-.044-.235-.103-.235-.13 0-.07.172-.111.237-.057.171.142.828-.002 1.197-.262.102-.072.17-.103.204-.102zm-26.06.834c.045-.004.008.13-.087.281-.205.374-.228.778-.172 1.187.051.111-.047.091-.163-.035a.605.605 0 0 1-.128-.234c-.062-.282-.258-.19-.925.44-.186.175-.315.268-.333.24.199-.357.414-.528.65-.884l.209-.301c.085-.092.078-.16-.017-.16-.088 0-.444-.169-.444-.21 0-.074.081-.085.265-.036.158.042.225.038.433-.025.369-.11.619-.201.678-.246.014-.011.025-.017.033-.017zm29.482.468c.034.008.091.108.244.409.043.085.123.202.177.261.055.059.13.16.169.225.088.15.347.325.478.325.056 0 .11.021.118.047.021.064-.327.107-.397.05-.124-.104-.188.333-.08.543.076.146.009.27-.091.17a.178.178 0 0 1-.05-.106c0-.076-.215-.515-.252-.515-.016 0-.063.038-.105.085-.12.132-.441.27-.441.189 0-.012.076-.1.168-.195.203-.208.227-.524.087-1.108-.045-.185-.065-.352-.045-.372.006-.007.012-.01.02-.008z"
     style="fill:#98a280;fill-opacity:1;stroke-width:0.0420031"
     transform="matrix(-1.17556 0 0 1.1651 128.802 -76.065)"
     id="path2" /><path
     d="M9.508 67.246c-.03-.002-.097.112-.23.33-.18.294-.233.353-.27.304-.056-.072-.385-.331-.42-.331-.06 0-.017.106.116.288.204.28.26.725.15 1.21-.022.103-.03.205-.016.227.046.076.312-.336.312-.485 0-.16.598-.606.822-.612.075-.002.074-.008-.013-.068-.052-.037-.094-.092-.094-.124 0-.087-.119-.07-.178.026-.146.233-.208.107-.177-.357.018-.274.03-.407-.002-.408zm22.486.235c-.19.016-.266.528-.1 1.139.192.702.145.781-.26.441-.072-.06-.413-.052-.464.01-.072.305-.066.569.064.868a.893.893 0 0 1 .114.21c.017.055.238.306.49.557.236.233.328.464.678.234.366-.2.516-.25.821-.272.4-.03.475-.077.563-.356.4-1.264.082-2.319-.53-1.754-.184.218-.156.502-.398.18a7.74 7.74 0 0 0-.756-1.095c-.083-.118-.159-.168-.222-.162zm-25.702.084c-.258.003-.377.498-.235 1.412-.003.23.068.208-.195.26-.088-.073-.506-.11-.611-.053-.278.148.147.97.866 1.672.324.317.364.342.4.249.011-.03.131-.11.267-.175.448-.219.639-.273.96-.273.255 0 .264-.004.325-.137.277-.609.174-2.213-.144-2.25-.17-.019-.433.168-.522.37-.1.225-.119.212-.37-.264-.29-.552-.552-.813-.74-.81Zm13.458.019c-.461.002-.986.07-1.538.2-.28.068-.536.103-.671.094-.325-.02-.332.096-.015.241.482.254 1.098.438 1.684.54.396.072.647.07 1.365-.011a14.6 14.6 0 0 1 1.32-.069c.755-.001.877-.036.583-.165a6.739 6.739 0 0 1-.517-.257c-.31-.163-.578-.26-1.265-.46a3.377 3.377 0 0 0-.946-.113zm-7.17.076c-.647.006-1.419.162-1.225.553.225.034.481.101.713.22.138.068.272.124.298.124.042 0 .127.05.628.372.092.06.273.205.403.323.366.332 1.189.683 1.844.785.252.04.958-.033 1.491-.153.69-.156 1.092-.28 1.171-.359.148-.148.037-.18-.3-.086-.83.23-1.425.04-2.227-.707a4.775 4.775 0 0 0-.513-.425c-.18-.197-1.217-.546-1.87-.629a3.576 3.576 0 0 0-.414-.018zm25.724.077c-.299.001-.61.033-.935.1-.235.058-.148.263.097.3.231.036.502.225.804.431l.61.587c.183.177.398.411.674.571.137.096.96.293 1.414.34.666.067 1.34.03 1.806-.102.138-.04.35-.093.47-.12.246-.065 1.05-.428.314-.325-.696.007-1.281-.183-1.962-.586-.131-.089-.281-.203-.43-.295-.88-.526-1.795-.906-2.862-.901zm6.559.064a7.142 7.142 0 0 0-.745.044l-.672.082c-.486.058-.577.154-.287.304.065.033.223.118.35.188.127.07.32.16.43.2.159.082.33.174.52.232.049.05.717.202 1.108.253.3.039.61.029 1.47-.045a6.61 6.61 0 0 1 1.67.05c.234.04.315.042.354.003.077-.077.035-.093-.5-.19-.458-.085-.525-.11-.792-.29a7.878 7.878 0 0 0-1.154-.613 2.554 2.554 0 0 0-.547-.134 7.518 7.518 0 0 0-1.205-.084zm-17.006.002a.809.809 0 0 0-.337.102c-.124.062-.781.19-.973.19-.065 0-.165-.055-.25-.137-.13-.127-.16-.136-.406-.13-.476.012-.643.207-.32.37.374.19.454.445.221.695-.152.164-.158.3-.017.42.347.294.424.372.549.556.158.233.268.257.36.079.235-.267.498-.475.801-.654.231-.117.23-.117.23-.32 0-.225.078-.487.245-.831.107-.218.058-.34-.103-.34zm25.543.376-.114.001c-.507.002-.84.07-1.143.23-.285.152-.285.151-.459.036-.601-.4-.931-.334-.606.122.087.122.097.183.097.592 0 .51.01.53.417.74.094.05.237.164.318.254.174.196.24.208.278.052.026-.11.15-.317.245-.41.21-.163.42-.326.685-.399.3-.076.407-.147.45-.525.044-.636.06-.69-.168-.693zm-30.521.623a8.2 8.2 0 0 0-.991.048c-.214.024-.554.06-.756.08-.36.038-.449.058-.62.135-.046.02-.273.083-.504.139-.638.153-2.762.793-3.034.912a8.74 8.74 0 0 0-.557.203c-.104.03-.303.093-.441.14-.22.075-.36.086-1.113.088-.92.002-.911.003-1.706-.256-.256-.084-.497-.14-.535-.125-.093.036-.09.223.004.252.04.013.19.071.331.13.142.06.321.117.4.128.077.01.33.06.56.109.245.052.566.09.768.09.204-.002.337.014.323.037-.498.156-1.045.328-1.552.501-.046.019-.195.076-.33.128-.264.102-.327.178-.229.276.077.077.577-.037 1-.227a20.61 20.61 0 0 1 1.247-.429c.012 0-.165.184-.392.41-.829.82-1.6 1.971-1.433 2.138.108.108.175.046.401-.37.476-.877 1.11-1.573 1.983-2.177a1.99 1.99 0 0 0 .168-.125c.011-.013.087-.055.168-.095.08-.04.265-.138.41-.219a7.57 7.57 0 0 1 1.522-.528c.15-.04.368-.11.483-.157.289-.117 1.842-.452 2.394-.518.185-.022.393-.048.463-.058.069-.01.39-.026.713-.037 1.737-.004 5.252.446 3.458 3.562-.182.27-.434.4-.452.4-.036 0 .137-.692.229-.91a.815.815 0 0 0 .063-.218c0-.06.163-.435.318-.727.082-.153.078-.18-.069-.481-.12-.247-.526-.688-.633-.688-.223.182-.44.369-.562.648a2.17 2.17 0 0 0-.147.25c0 .011-.053.14-.12.286a5.37 5.37 0 0 0-.235.6c-.024.073-.04.06-.107-.085-.298-.38-.657-.723-1.105-.9-.086 0-.263.217-.322.395-.062.187-.01.29.202.398.473.241.788.844.827 1.58.043.804.144 1.3.36 1.773.139.348.244.78.54 1.093.35.17.791.302 1.22.389.214.058.456.16.688.104.037-.095-.041-.262-.136-.292-.609-.676-1.122-1.718-.956-2.644a.759.759 0 0 0 .215-.128c.07-.057.291-.224.492-.37.768-.563 1.053-1.15.986-2.026-.121-1.591-1.677-2.604-3.9-2.632zm7.53.031c-.324.432-.468.745-1.076.224-.367-.277-.448-.197-.095.094.121.1.23.192.242.204.011.012.11.093.22.181.25.201.253.19-.073.378-.258.148-.34.239-.219.239.416-.26 1.271.024 1.773.377.092.068.19.125.218.126.121.003.081-.084-.103-.223-.42-.317-.5-.387-.62-.548-.137-.181-.135-.179-.26-.434-.086-.174-.084-.302.007-.522.016-.038.01-.081-.014-.096zm-20.435.084c-.159 0-.34.05-.443.16a3.653 3.653 0 0 0-.64.719 7.87 7.87 0 0 1-.106.21c-.296.552-.314.761-.08.959.294.268.495 1.055.908 1.12.044-.024.189-.06.323-.082.337-.055.482-.086.58-.128.046-.02.173-.068.282-.107.368-.187 1.265-.697.524-1.034-.34-.098-.355-.13-.137-.313.11-.108.237-.237.312-.408.433-.628.406-.836-.105-.836-.357.07-.8.28-1.168.44-.044-.045-.024-.39.028-.472.09-.145-.075-.228-.278-.228zm25.72.09a.773.773 0 0 0-.132.017c-.838.427-1.55 1.885-.921 1.885.162 0 .675.725.677.955 0 .052.033.133.074.18.386.051.908-.025 1.315-.21.162-.064.33-.144.49-.235.137-.122.366-.255.4-.41-.123-.168-.23-.285-.453-.355-.208-.056-.21-.088-.021-.309.81-.948.733-1.581-.135-1.124-.177.06-.375.117-.546.218-.581.282-.157-.627-.749-.611zm-32.881.081c-.003 0-.004.002-.004.005.001.063.068.122.286.255.124.075.247.156.274.178.06.052.523.405.636.487.08.057.08.063.01.115-.131.069-.265.178-.451.224 0 .036.028.05.073.037.224-.017.464.002.654-.038.028.017.21.072.407.123.423.11.564.109.38-.004-.142-.088-.435-.64-.504-.947-.09-.41-.092-.413-.133-.303-.02.052-.038.199-.043.326-.01.332-.306.265-1.212-.275-.19-.114-.346-.19-.373-.183Zm44.878.158c-.607 0-1.192.04-1.62.124a9.57 9.57 0 0 1-.525.088 6.8 6.8 0 0 0-.966.214c-.632.165-1.182.396-1.85.61-.196.06-.442.148-.67.227-.239.067-.427.099-1.008.17-.705.13-1.531.073-2.29-.062-.194-.058-.238-.056-.266.017-.028.072.16.176.386.214.085.014.247.055.36.091.668.1 1.391.03 2.054-.062.06.01-.015.05-.223.115-.297.093-.4.133-.968.393a2.426 2.426 0 0 1-.357.134c-.068.015-.2.062-.292.105-.093.044-.25.1-.35.125-.582.567 1.514-.275 1.904-.4.589-.259.715-.284.392-.078-.326.207-1.668 1.546-2.095 2.089-.09.114-.108.258-.036.303.362-.295.71-.676 1.035-1.032.123-.097.447-.401.564-.53.081-.09.125-.126.329-.267.08-.056.175-.132.21-.168.035-.037.148-.132.252-.212.157-.135.311-.236.493-.363.087-.048.285-.164.44-.26.455-.245 1.02-.436 1.555-.592.214-.05.427-.108.473-.128.08-.034.272-.063 1.176-.175.64-.079 2.434-.067 2.877.019.816.159 1.088.232 1.396.38.633.273 1.186.618 1.574 1.282.253.534.13 1.427-.254 1.848-.186.204-.867.629-.867.541 0-.125.175-.763.251-.922.061-.169.116-.367.21-.536.054-.129.094-.282.192-.402.219-.341.169-.515-.272-.94-.37-.356-.476-.37-.725-.093-.33.368-.867 1.308-.872 1.529-.003.147-.07.15-.106.004-.167-.665-1.307-1.346-1.678-1.002-.111.103-.115.19-.008.19.57.237.963.604 1.243 1.156.118.222.16.392.192.775.044.534.066.7.131.962.038.153.1.324.138.382.067.1.254.679.254.785-.001.39.575.836 1.16.897.667.07.79.088.833.128.122.117.254-.015.138-.137a2.844 2.844 0 0 1-.51-.749c-.065-.15-.152-.342-.194-.426-.068-.134-.122-.363-.181-.763-.018-.12.002-.14.385-.386.036-.023.092-.065.123-.094.311-.231.627-.542.878-.872.324-.485.433-1.737.192-2.196-.048-.117-.098-.265-.178-.387-.388-.55-1.073-1.129-1.827-1.36-.515-.193-1.59-.303-2.602-.303zm-25.656.547c-.542.009-1.414.178-1.82.402-.587.357-.842 1.294-.866 2.069.144.327.176.427.281.909.283 1.29.036 1.903-1.093 2.713a2.835 2.835 0 0 1-.399.253c-.045.015-.083.063-.083.107 0 .075.032.081.43.078 1.158-.008 1.914-.23 2.606-.765.238-.177.504-.331.644-.63.171-.205.268-.603.223-.916-.082-.573-.106-.644-.342-.983-.426-.614-.511-.85-.511-1.407 0-.723.524-1.41 1.179-1.546.084-.017.173-.063.198-.103.084-.133-.122-.186-.447-.181zm25.85.378c-.444.005-1.277.135-1.604.284a6.77 6.77 0 0 1-.273.119c-.87.334-1.348.92-1.371 1.682-.015.493.034.678.304 1.16.449 1.17.027 1.919-1.268 2.724a.12.12 0 0 0-.08.105c0 .08.055.105.294.136.057.007.127-.003.155-.023.027-.02.103-.032.168-.025.234.023.992-.113 1.224-.22a2.8 2.8 0 0 1 .38-.134c.525-.24 1.08-.535 1.399-1.1.191-.491.137-.887-.22-1.596a6.101 6.101 0 0 1-.25-.535.796.796 0 0 0-.102-.191 1.505 1.505 0 0 1-.154-.346c-.173-.571.376-1.366 1.075-1.68.223-.092.464-.093.61-.301 0-.043-.115-.06-.288-.059zm-29.317.024c-.892.38-1.732.787-2.426 1.465-.723.685-.796.863-.797 1.937 0 1.11-.056 1.208-.881 1.558-.494.225-1.006.485-1.413.94a8.442 8.442 0 0 1-.18.212c-.126.144-.217.401-.177.505.023.06.052.048.193-.079.393-.355.778-.448 1.865-.448 2.263 0 3.094-.915 2.38-2.625a12.896 12.896 0 0 0-.107-.248c-.162-.367-.173-.915-.03-1.453.083-.312.485-.784.976-1.147l.43-.32c.173-.127.268-.297.167-.297zm25.543.255a.348.348 0 0 0-.182.08c-.162.079-.357.177-.536.26-.179.097-.406.217-.504.268-.099.05-.223.137-.276.192a5.2 5.2 0 0 1-.325.288c-.275.228-.483.444-.576.6-.103.132-.23.262-.296.458-.226.374-.335.908-.341 1.68-.004.518-.195.83-.63 1.025a6.19 6.19 0 0 1-.822.315 4.687 4.687 0 0 0-.557.215c-.122.04-.265.09-.387.16-.38.165-.684.564-.967.887 0 .118.069.097.255-.075.187-.13.446-.302.719-.384.348-.139 1.027-.143 1.63-.01.97.214 1.637.077 2.207-.453.542-.592.24-1.72.105-2.69-.129-.622.381-1.565.836-2.01a2.74 2.74 0 0 0 .482-.435c.222-.17.297-.266.256-.332-.018-.029-.05-.042-.09-.04zm-13.761.244c-.146 0-.3.014-.468.044-.153.128-.002.596.259.801.058.046.1.086.09.09a7.618 7.618 0 0 1-.532.06c-.334.057-.717.15-1.017.394 0 .242.16.414.472.507.167.05.356.11.418.133.062.023.252.055.42.071.307.029.307.028.176.1-.436.234-.537.703-.176.817v.001c.207.065.845.022 1.063-.073.69-.298.818-.384.901-.604-.028-.118-.068-.351-.112-.54-.023-.315 0-.47.14-.906-.015-.173.031-.245-.223-.36-.481-.338-.891-.532-1.411-.535Zm-26.074.178a.876.876 0 0 0-.311.044c-.194.088-.14.394.12.686.171.193.19.273.062.273-.514 0-1.465.435-1.465.67 0 .215.678.52 1.266.572.337.03.378.052.266.145-.214.178-.26.625-.079.787.248.222.908.028 1.73-.508.346-.226.347-.225.197-.616-.08-.207-.097-.863-.026-.996.152-.285.103-.534-.127-.653a17.398 17.398 0 0 1-.329-.174c-.243-.134-.89-.235-1.304-.23Zm3.478.388-.046.002c-1.416.116-1.16 1.877-.215 2.076.279.085.543.03.88-.143.85-.452.344-1.966-.619-1.935Zm25.848.08c-1.018.004-1.33 1.435-.363 1.918 1.075.537 2.015-.706 1.209-1.598-.19-.21-.366-.285-.746-.317a1.106 1.106 0 0 0-.1-.004zm-21.04.082c-.03.004-.068.057-.128.163a.611.611 0 0 1-.231.231 2.953 2.953 0 0 0-.196.097c-.173.099-.408.175-.753.244-.441.087-.489.138-.129.138.14 0 .286.019.326.042.04.022.19.079.334.125.346.112.708.274.744.332.012 0 .118.086.15.008 0-.021-.067-.109-.148-.195-.222-.236-.191-.28.21-.297l.576-.026c.328-.013.399-.035.353-.108-.023-.038-.901-.121-1.104-.105-.032-.278.107-.299.072-.55-.026-.07-.048-.103-.075-.1zm25.883.082a.972.972 0 0 0-.198.175.815.815 0 0 1-.433.258c-.137.037-.28.085-.318.106-.038.02-.218.05-.4.064-.575.044-.686.113-.256.158.551.057 1.46.374 1.46.509 0 .022.033.076.074.121.13.144.12-.106-.011-.332-.062-.104-.103-.2-.092-.21.027-.028.508-.095.776-.109.39-.02.265-.094-.2-.119-.582-.03-.756-.096-.552-.205.07-.038.194-.374.153-.415h-.003zm-28.508.897c-.303.007-.535.098-.58.289-.104.437-.526 1.028-.737 1.032-.114.002-.153.122-.087.263.035.076.087.222.116.326.254.616.712 1.054 1.404 1.355.167.035.234-.094.26-.502.025-.38.025-.38.245-.265.12.064.283.125.361.137.078.012.226.054.327.092.896.336.937-.228.079-1.073-.332-.327-.352-.374-.162-.375.06 0 .156-.027.214-.06.057-.034.133-.075.168-.09.27-.125.266-.252-.013-.532-.384-.383-1.09-.607-1.595-.597zm25.51.19c-.078.002-.096.021-.11.066-.213.649-.435.958-.87 1.21-.295.172-.267.311.224 1.137.14.234.574.64.753.704.273.096.487-.484.318-.861-.048-.107.021-.09.167.042.723.655 1.743.865 1.542.317a6.512 6.512 0 0 1-.097-.296 1.383 1.383 0 0 0-.237-.394c-.364-.427-.52-.736-.305-.603.05.031.629-.135.628-.18-.004-.506-.856-1.04-1.798-1.128a2.172 2.172 0 0 0-.216-.013zm-3.295.964c-.595.318-1.086.838-1.412 1.5 0 .125.21.29.378.299.483.023.516.055.399.387-.071.36-.207.7.031 1.106.211.103.478-.016.722-.323.301-.377.436-.567.463-.65.037-.118.093-.086.128.075.026.118.42.42.548.42.065 0 .24-.205.32-.378.154-.331.167-.407.147-.907-.033-.865-.066-.937-.427-.94-.232 0-.78-.202-.927-.34-.123-.081-.235-.177-.37-.249zm-25.711.024c-.067.006-.132.054-.235.153-.032.03-.11.095-.172.143-.453.35-.905 1.23-.815 1.589.041.165.605.165.742 0 .081-.099.18-.076.148.034-.077.266-.079 1.46-.003 1.544.086.096.185.107.282.031a5.76 5.76 0 0 0 .714-1.058c.078-.155.087-.16.132-.081.193.34.532.556.68.434.451-.45.372-1.384.211-2.003a2.512 2.512 0 0 1-.085-.275c-.025-.116-.027-.117-.35-.109-.417.01-.556-.034-1.07-.34-.074-.044-.127-.066-.18-.062zm24.466.373c-.033-.001-.1.03-.202.102-.37.26-1.027.404-1.198.262-.065-.054-.237-.013-.237.056 0 .028.105.087.235.131.129.044.254.116.278.16-.178.171-.324.314-.492.487a3.768 3.768 0 0 0-.27.24c-.083.07-.225.142-.255.265 0 .077.007.079.074.02.318-.281.998-.691 1.145-.691.023 0 .03.086.016.21-.041.37.07.51.126.158.048-.305.34-.84.593-1.09.19-.186.251-.308.187-.31zm-26.06.834a.074.074 0 0 0-.034.017c-.058.045-.308.135-.676.246-.208.063-.277.067-.434.025-.184-.049-.265-.038-.265.036 0 .041.356.21.444.21.095 0 .102.068.016.16-.06.09-.137.2-.208.301-.236.356-.451.527-.65.884.017.028.146-.065.332-.24.668-.63.863-.722.925-.44a.607.607 0 0 0 .129.234c.116.126.215.146.163.035-.056-.409-.032-.813.172-1.187.096-.15.132-.285.087-.281zm29.476.468a.024.024 0 0 0-.013.008c-.02.02 0 .187.045.372.14.584.115.9-.087 1.108a1.25 1.25 0 0 0-.168.195c0 .08.32-.057.44-.19.043-.046.09-.084.106-.084.037 0 .253.44.253.515 0 .031.022.079.049.106.1.1.167-.024.091-.17-.108-.21-.044-.647.08-.544.07.058.418.015.396-.049-.008-.026-.06-.047-.116-.047-.132 0-.391-.176-.48-.325a1.59 1.59 0 0 0-.168-.225 1.379 1.379 0 0 1-.177-.261c-.165-.325-.218-.414-.251-.409z"
     style="fill:#98a280;fill-opacity:1;stroke-width:0.0420031"
     transform="matrix(1.17556 0 0 1.1651 3.622 -76.065)"
     id="path3" /></svg>
