<svg xmlns="http://www.w3.org/2000/svg" xml:space="preserve" width="875" height="500" viewBox="0 0 231.51 132.292"><defs><linearGradient id="a" gradientTransform="translate(-16.102 16.62)"><stop offset="0" style="stop-color:#241d15;stop-opacity:1"/></linearGradient></defs><path d="M213.78 50.509c.397 0 .81 1.203.727 2.117-.045.49-.037.496.44.27 1.017-.484 1.814-.165 1.63.652-.053.233-.123.57-.156.75-.12.658-.712 1.51-1.634 2.349-.359.326-.389.33-.785.076l-.43-.274a25.79 25.79 0 0 1-.427-.278c-.407-.271-1.182-.433-2.064-.431-.982.001-1.392-.822-1.392-2.79 0-2.047.837-2.508 1.786-.984.316.507.507.62.561.335.131-.679 1.214-1.792 1.744-1.792zm-7.064 1.94c1.238.52 2.014 1.753 2.565 2.597.609.94.606.903.096 1.218-.693.427-1.362 1.357-1.587 2.206-.14.532-.23.743-.37.884-.252.252-2.051.054-2.564-.282-1.5-.607-2.453-2.056-.449-2.286.795-.059.815-.083.417-.502-1.054-1.114-1.522-2.006-1.194-2.278.434-.374 1.666.236 2.51.32.023-.022.04-.384.04-.805 0-.742.205-1.125.536-1.072zm11.295 3.638c1.129-.009 1.778.509 1.217 1.244-.189.392-.427.613-.6.993-.166.294 2.403.623 2.452 1.33-.142.767-.827.881-1.415 1.06-.24.073-.552.153-.692.177-.639.11-.645.238-.041.854.766.78.786 1.112.086 1.452-.668.324-1.687.067-3.46-.871-.351-.153-1.427-.581-.921-1.017.533-.42.688-2.267.266-3.163-.127-.27-.23-.537-.23-.593 0-.304 1.138-1 2.077-1.27a4.745 4.745 0 0 1 1.261-.196zm-5.736.009c.959-.002 1.358 1.125.671 1.895-.334.375-.336.376-.753.363-1.612-.051-1.532-2.255.082-2.258zm-13.628 8.517c-.054-.2-.14-.53-.191-.734-.051-.203-.168-.5-.26-.659-.288-.503.597-1.421 1.803-1.87.897-.334 2.581-.153 2.692.29.05.199.196.186.235-.021.039-.207.15-.319.594-.601.22-.14.417-.274.437-.298.587-.688 3.79-.784 3.79-.113 0 .089.047.2.104.248.084.07.097.06.065-.06-.1-.385.963-1.09 1.347-.894.363.185.655.02.8-.452.132-.426.138-.682.013-.48-.232.377-1.475.035-1.681-.463-.526-1.424 1.422-1.95 2.048-1.038.219.354.2.887-.04 1.167-.235.274-.118.325.287.126.592-.292 1.14-.216 1.596.222.302.29.303.29.37.081.356-1.11 2.243-.82 2.3.355-.107 1.116-1.51 1.733-2.252.737-.69-.065-.32.482-.363.669.57.122.933.43.982 1 .35.655-.78 1.62-1.681 1.406-1.194-.198-1.021-1.355-.906-1.761.156-.263.155-.268.053-.424-.278-.182-.446-.124-.47.162-.027.336-.215.587-.56.75-.515.239-.809.215-1.137.089-.417-.03.27.644 1.033 1.013.367.178.396.333.166.876-.106.252-.236.61-.289.796-.44 1.56-1.546 2.615-2.738 2.615-.47 0-.57-.758-.239-1.84.108-.352.181-.654.163-.671-.89.14-1.73.337-2.576.433-.734.17-.886.761-1.46 1.048-.33.119-.328.126.153.595.981.956.744 1.348-.81 1.342-1.824-.007-3.747-.869-3.514-1.575.218-.72.297-1.427.136-2.066zm4.196-2.513c-.04-.022-.134.067-.232.236-.076.13-.353.46-.615.732-.52.543-.52.631.008.633.357.002 1.52.29 1.667.414.163.138.325.12.402-.043.149-.318 1.22-1.317 1.412-1.317.155 0 .07-.146-.089-.151-.73-.022-1.382-.079-1.657-.145-.339-.06-.694-.181-.897-.36zm11.484.269c.113.006.246.107.51.308 2.714 2.068 3.06 5.435.37 3.61-.445-.302-.519-.167-.395.724.115.821-.062 1.484-.464 1.748-.286.187-.224.264.215.264 1.488-.347 1.9.203 1.673-1.146-.275-1.639 2.319-.137 3.673 2.126.397.663.396.668-.268 1.224-.633.53-1.001 1.036-1.236 1.696-.189.778-.298 1.721-.2 2.242.08 1.568 2.813 2.687 2.62 3.321-.111.6-.398 1.126-.621 1.644-.27.629-.65 1.104-1.245 1.555-1.076.816-1.498.38-1.263-1.305.137-.98.193-.929-.59-.543-1.043.515-1.756.776-2.119.776-.285 0-.323.018-.278.128.028.07.07.415.09.765.022.351.042.638.047.637.072-.007.735-.234.945-.324 1.18-.504 1.543.532.75 2.139-.296.775-.907 1.371-1.56 1.866-1.337-.713-2.322-.907-4.204-.663-.057-.022-.17-.226-.251-.453-.081-.227-.234-.643-.34-.924a45.04 45.04 0 0 1-.482-1.385c-.16-.481-.336-.967-.394-1.08a19.864 19.864 0 0 1-.87-2.419c-.013-.08-.124-.37-.248-.644-.156-.511-.406-1.029-.556-1.47-.4-1.176-.578-1.143-3.576.66-.518.311-.99.607-1.05.657-.061.05-.274.18-.475.29-.2.111-.545.319-.765.462-.22.143-.597.36-.838.484-.24.123-.576.312-.746.42-.17.11-.327.198-.35.198-.024 0-.148.077-.276.171-.44.325-1.254.698-1.366.627a.637.637 0 0 0-.28-.067c-.587-2.31.62-4.179-.398-5.963.24-4.94-.722-5.579 2.232-6.445.21.173.673.495 1.029.717.355.221.847.543 1.093.714.246.172.594.386.775.477.8.401 2.737 1.688 3.616 2.401.85.69 1.47.114 1.858-1.725l.13-.62c.037-.17.152-.635.257-1.033.21-1.288.826-2.521 1.132-3.686.241-.575.274-1.402.725-1.735a1.3 1.3 0 0 0 .228-.17c.02-.028.448-.062.95-.076 1.052-.028 1.738-.291 2.397-.919.184-.175.276-.263.39-.256zm9.706 2.694c.432.069.762.815.793 2.132.017.723.07.768.46.39 1.708-1.657 2.53.129 1.128 2.45-.29.646-.536.87-1.036 1.212-.483.332-.573.324-1.2-.11-.29-.2-.564-.364-.609-.364-.045 0-.164-.054-.264-.12-.25-.163-.333-.048-.092.128.446.325.514.409.569.71.073.399-.158.912-.557 1.242h-.001c-.31.255-.396.221-.79.115-.32-.116-.41.01-.763-.468-.403-.754.228-1.749 1.11-1.752.11 0 .201-.033.201-.073 0-.088-.242-.104-1.204-.08-.86.022-.89.003-1.137-.725-.088-.26-.2-.57-.25-.69-.38-.913-.444-1.82-.18-2.588.088-.495.47-.793.901-.801.3 0 .47.188.83.92.715 1.441.692.262.993-.41.365-.816.762-1.172 1.098-1.118zm-11.841 2.01c-.095-.004-.205.161-.395.535-.701 1.381-1.394 1.471-1.797.235-.174-.533-.174-.533-.224-.023-.027.281-.12.72-.205.975-.229 1.335-1.957 5.18.472 5.368.886-.075 1.29-.077 2.443-.01 1.457.083 2.091.093 2.24.033.07-.027.227-.053.347-.056.49-.014.413-.123-.354-.51-1.76-.884-1.634-2.118.215-2.118.343 0 .317-.12-.119-.55-.477-.469-.967-1.361-.929-1.69.016-.131.005-.238-.022-.238-.028 0-.2-.123-.382-.274-.42-.348-.755-.794-1.121-1.494-.06-.116-.112-.18-.17-.182zm-11.318 2.883c-.07.008-.012.165.149.475.606 1.17.114 1.617-1.22 1.109-.68-.259-.745-.247-.692.117.025.175.056.76.068 1.302.023.963.027.984.196 1.031.095.027.205.047.245.045l.984-.06a90.701 90.701 0 0 1 1.895-.093c1.234-.046 2.692-.164 2.864-.232.173-.07.111-.136-.78-.836-.382-.301-.687-.593-.678-.649.009-.057-.052-.108-.14-.114-.15-.013-.995-.636-2.264-1.669-.357-.29-.556-.433-.627-.426zm27.788.471c.107-.004.212-.003.313.003 1.267.082 1.434.727.446 1.715-.42.42-.404.443.49.67 1.247.319 1.6.531 1.6.965-.001.423-.718.98-1.424 1.104-1.155.204-1.191.232-.708.543 1.255.806 1.41 1.744.309 1.868-.39.044-1.654-.165-1.954-.322a6.953 6.953 0 0 0-.378-.174c-1.647-.703-1.915-.927-1.707-1.425.06-.142.102-.395.093-.563-.02-.367-.068-.36-.65.092-.499.384-1.133.31-1.555-.228-.176-.236-.246-.233-.352.016-.047.11-.15.274-.23.364-.08.09-.13.167-.113.17.017.004.096.015.176.025 1.397.18 1.774 2.003.465 2.25-.925.173-1.223-.698-1.293-1.622-.119-.625-1.064-.648-1.096.065-.01.254-.066.467-.157.594-1.468 1.42-3.038-1.572-.48-1.718.115.06.221.109.237.109.055 0 .005-1.1-.053-1.136-.283.205-.407.173-.72.128-.979-.039-1.354-1.432-.554-2.061.672-.53 1.896.037 1.846.855-.017.282-.017.282.435.259.59-.031 1.016.151 1.305.559.228.322.37.378.445.175.225-.604 1.136-.99 1.65-.699.37.21.623.541.668.878.072.535.096.54.103.016a2.93 2.93 0 0 0-.359-1.416c-.416-.749 1.606-1.993 3.202-2.059zm-29.258 4.426a4.321 4.321 0 0 0-.074.512c-.028.26-.097.64-.154.841-.092.324-.185.981-.14.981.01 0 .275-.082.59-.182 1.321-.419 2.104.236 1.403 1.173-.033.044-.038.101-.011.128.073.073.143.057.235-.054.046-.055.408-.32.804-.588.514-.34 1.02-.8 1.51-1.071.853-.707 2.82-1.511 1.043-1.514-.522 0-.973-.014-1.002-.031-.028-.018-.675-.055-1.437-.083a76.865 76.865 0 0 1-2.065-.1c-.374-.027-.69-.033-.702-.012zm15.376.275c-.318-.007-.951.022-1.857.089-1.52.11-2.676.174-3.333.18-.946.01-1.033.22-.608 1.467.384 1.245.576 2.505 1.064 3.557.09.227.22.52.317.703.077 0 .152-.255.153-.521.004-.771.74-.608 1.45.322.776 1.377 1.452-1.873 2.383-.96.178.289.328.21.28-.148.047-.644.362-1.147.738-1.59.508-.596.47-.675-.321-.676-1.46-.003-2.066-.573-1.511-1.42.159-.242.957-.82 1.21-.875.355-.078.353-.121.035-.128zm10.512 1.538c.229 0 .415.145.606.23 1.746.673 3.185 4.162 1.54 3.737-.457-.012-1.03-.448-1.028-.002.07 2.893-.998 3.35-2.3.985-.229-.415-.344-.295-.718.747-.065.18-.214.43-.332.555-.719.765-1.703-.934-1.716-2.96-.01-1.745 0-1.767.808-1.869 1.254-.158 2.343-.65 2.907-1.316.051-.06.14-.096.233-.107zm-24.379 3.667c.188-.012.366-.009.525.013 1.934.264 2.216.974.77 1.944-.997.669-.993.63-.082.986 2.214.867 2.037 2.169-.283 2.079-.47-.018-1.031-.024-1.085-.01-.016.003.116.147.292.318 1.102 1.072 1.448 2.046.777 2.192-.562.122-1.204-.034-2.134-.517-.282-.147-1.127-.822-1.64-1.31-.22-.21-.425-.383-.454-.384-.23-.007-.28-.463-.077-.72.335-.425.53-.804.53-1.03 0-.116.058-.254.128-.306.234-.175.169-1.416-.096-1.845-.303-.491 1.515-1.325 2.83-1.41zm6.044 1.266c.393.018 1.004.393 1.756 1.121.36.273.514.687.71 1.018.254.527.644 1.176.401 1.577-.145.076-.33.227-.828.676-.265.238-.264.239-.046.182 1.028-.265 1.72.216 1.65 1.147-.163 1.46-2.202 1.124-2.27-.033 0-.511-.216-.12-.441.798-.04.16-.111.369-.16.463-.29.568-3.873-.43-4.438-1.238-.452-.645-.117-.923 1.486-1.232.431-.083.519-.189.305-.367-1.754-1.455-1.44-3.003.442-2.183.2.088.542.178.758.2.443.048.43.118.223-1.108-.118-.7.058-1.039.452-1.02zm10.875 3.51c.838-.019 1.724.22 1.724.625 0 .15-.457.996-.621 1.15-.226.212-.071.326.84.619.22.07.432.157.47.191a.373.373 0 0 0 .212.063c.216 0 .732.328.843.535.25.468-.839 1.237-2.127 1.503-.526.108-.526.154.019.805.594.711.6 1.064.023 1.238-.93.279-3.27-.194-3.86-.78-.273-.272-.288-.591-.069-1.515.286-1.206.206-1.744-.403-2.72-.11-.176.063-.418.43-.6a2.18 2.18 0 0 0 .344-.22c.08-.066.293-.198.473-.292.18-.095.381-.216.446-.268.267-.218.753-.322 1.256-.334zm-5.753.232c.115-.015.236-.016.363.002 1.131.158 1.255 1.578.184 2.108-.287.142-.287.142-.032.337.14.108.256.239.256.292 0 .053.049.137.109.187.281.025.53-.609.905-.727.896-.068 1.687.766 1.28 1.656-.351.705-1.564.851-1.948.235-.132-.21-.315-.175-.422.082-.17.29-.575.423-.213.578 1.042.432 1.112 1.8.108 2.123-1.152.371-1.957-.758-1.264-1.77.174-.254.174-.255-.118-.393-.627.085-.365.303-.956.689-.352.308-1.095.388-1.437.153-1.076-.74-.478-2.097.912-2.069.492.01.493.01.493-.227 0-.43.469-.98.965-1.128.33-.1.329-.085.045-.48-.496-.691-.032-1.541.77-1.648zm-5.064 4.146c.763-.017.763-.017 1.12.704.244.492.482.846.747 1.116.214.217.41.459.434.537 1.267 1.186-.03 4.018-1.361 4.713-.88.3-1.118.021-1.073-1.264.026-.743-.055-.85-.509-.663-1.951.8-2.457.848-2.445.234.015-.722.37-1.704.894-2.465.219-.317.225-.341.085-.341-.188 0-1.047-.237-1.387-.383-1.608-.687.687-2.124 3.495-2.188zm7.85 1.864c.239.004.541.255 1.143.845 2.412 2.365 2.413 4.039.003 2.894-.556-.264-.557-.264-.508.01.225 1.26.084 2.644-.284 2.793-.33.135-.578-.028-1.583-1.04-.713-.719-.755-.712-1.18.178-.543 1.14-1.36.646-1.752-1.064-.21-.916.122-3.069.475-3.077.29-.028.593-.082.84-.087.719-.014 1.796-.552 2.431-1.213.15-.156.27-.242.414-.24z" style="fill:#241d15;stroke-width:.0728929;opacity:1;fill-opacity:1"/><path d="m93.79 112.089.451.17c.324.12.243.211-.483.54-1.001.454-1.626.91-1.786 1.306-.172.571.55.734.995.81.429.065.46.065 1.076-.026 1.129-.166 1.142-.156.672.53-.691 1.01-.706 1.418-.054 1.549.356.07 1.18-.11 1.57-.345.19-.116.36-.21.376-.21.104 0 .913-.618 1.443-1.103.645-.595.983-.433.489-.96-.388-.437-.58-.89-.768-1.37-.257-3.65-7.992-2.997-3.98-.891zm4.165-.032c.07 1.236 1.717 1.566 2.268.454.177-.358.177-.358.329-.179.083.099.242.236.352.305.272.17.253.248-.08.338-.988.266-.937 1.865.07 2.197 1.313.434 2.074-1.372.893-2.12-.334-.213-.334-.212-.125-.264.116-.03.35-.131.521-.226.33-.184.456-.09.456.337 0 1.016 1.692 1.178 2.188.21-.005-2.3-6.894-2.869-6.872-1.052zm6.902 1.623c-.095.14-.173.275-.173.3 0 .024-.124.164-.274.312-.737.72-.715.664-.45 1.143.292.526.879 1.174 1.271 1.404.658.385.924.522 1.011.522.05 0 .36.133.685.295.327.162.71.304.854.315 1.01.552 3.434 3.801 4.272 2.794.145-.246.32-.463.468-.674.293-.468 1.001-1.004 1.001-.757-.307.317-.497.942-.303 1.33.163.482.457.514.874.644.229.053.426.103.438.111.02.014-.102.591-.174.824-.02.068-.125.027-.355-.138-1.062-.64-2.139.36-1.726 1.448.46 1.075 2.263.596 2.27-.601 0-.116.046-.088.232.137.127.154.341.327.475.382.284.12.316.284.066.347-1.15.289-.613 2.43.543 2.171 1.234-.277 1.344-2.006.142-2.247-.211-.042-.307-.171-.127-.171.172 0 .789-.473.75-.574-.026-.068 0-.085.079-.055a.677.677 0 0 0 .183.044c.037 0 .067.067.067.148 0 .79 1.526 1.19 2.04.536.975-1.239-.82-2.685-1.862-1.501-.17.193-.174.194-.176.032 0-.09-.092-.326-.203-.524-.209-.375-.185-.538.057-.386.624.39 1.582-.338 1.432-1.089-.074-.37.193-.154.817.659.135.175.135.175.642-.018 1.164-.386 2.933-.915 3.426-2.093.45-.44.098-1.24-.2-1.388a1.02 1.02 0 0 0-.91-.065c-.112.044-.37.124-.57.176-.201.053-.44.12-.53.147-.339-.421.037-1.021.337-1.475.369-.545 1.549.25 2.523-.168.482-.207.487.055.016.864-.185.318-.353 1.252-.247 1.38.3.366.796.319 1.955-.184.378-.165 1.498-1.219 1.764-1.661.54-.9.508-1.271-.173-1.98-.68-.708-.99-1.425-1.015-2.333-.197-2.635-5.25-.363-4.994.453.19.351 1.362.901 1.923.901.205 0 .285.156.129.251-.24.147-.884.638-1.083.826-.33.189-.798.386-.94.34-.172-.206-.378-.239-.651-.103-.141.07-.376.15-.523.176-.147.027-.514.212-.817.411-.661.436-.776.394-.78-.286 0-.217-.191-.8-.306-.938-.26-.314-1.008.005-1.561.667-.255.305-.289.324-.403.221-.125-.113-.223-.507-.145-.585.023-.023.061-1 .085-2.172-.947-4.772-1.003 1.644-.99 2.397.058 3.739.096 3.988.604 3.967.24-.01.464.042.745.174.22.103.476.21.567.238.199.061.146.186-.078.19-.563.007-1.007.952-.744 1.58.137.328.113.353-.22.243-.146-.049-.329-.071-.406-.05-.205.053-.239-.057-.137-.453.17-.662-.386-1.468-1.014-1.47-.221.064-.308.116-.561.183-.08.032-.028-.024.117-.125.145-.102.429-.24.63-.306.914-.304.4-3.608-.677-4.345-.515-.353-.857-.18-1.305.658-.341.639-.355.654-.507.545a3.699 3.699 0 0 0-.397-.233c-.693-.581-1.635-.9-2.28-1.348-.473-.32-.975-.724-1.456-.975-.097-.117-.117-.108.67-.3.27-.066.68-.212.912-.325.934-.354.429-.91-.163-1.225-5.196-2.191-3.09.278-4.466 2.435zm21.82-1.44c-.08.282.046.748.26 1.052.612.87 1.892.57 2.031-.476.045-.34.057-.357.175-.25.07.064.283.185.475.27.347.153.347.153.134.395-.55.626-.202 1.694.633 1.945.433.142 1.32-.265 1.343-1.19-.012-.538-.333-.895-1.003-1.12-.135-.14.369-.468.562-.617.084.181.17.39.283.558.18.475 1.155.622 1.571.237.306-.281.21.251-.183 1.022-.24.472.063.85 1.274 1.59 2.754 1.68 4.47 1.291 2.623-.594-.667-.664 2.386-.078 2.698-1.216.106-.402-.554-.995-1.114-1.232-2.56-1.084-7.888-3.767-11.338-.51-.228.158-.347-.066-.424.136zm5.518 2.638c-.068 0-.279.142-.468.317-.424.39-.85.521-1.491.459-.938-.091-1.56-.174-1.683-.226-.768.575-1.004 1.874-1.08 2.7-.096.66-.077 1.435.134 1.933.455.907 1.3.131 1.592-.472.143-.301.295-.548.337-.548.092 0 .271.221.274.338.01.338 1.11 2.215 1.385 2.362.503.27.96-.634 1.177-2.328.086-.67.076-.66.424-.362 1.49 1.275 2.475.678 1.616-.98-.08-.151-.144-.328-.144-.391 0-.503-1.701-2.802-2.073-2.802zm-32.8.366c-.711.092-1.316.901-1.752 2.373l-.152.511c-.457 1.519.476 2.012 1.602.847.339-.35.456-.372.553-.098.12.243.2.517.25.752.175 1.096.506 1.677.957 1.677.535-.025 1.21-1.467 1.298-2.383-.065-.17.196-.1.298.078.374.724 1.536 1.79 1.78.783.353-2.07-.748-4.545-1.886-4.24-.915.246-1.504.205-2.204-.15a1.271 1.271 0 0 0-.744-.15zm7.774.081c.1-.037.324-.253.8-.131.612.269 1.486.15 1.763.47.016.45.063.727.17 1.03.155.433.15.621-.013.575-.669-.397-1.665-.043-1.875-.311-.049-.195-.375-.758-.715-1.233-.169-.236-.23-.362-.13-.4zm1.858 5.631a4.27 4.27 0 0 0-1.758.365c-.753.329-.571 1.095.349 1.476.72.298.792.338.792.446 0 .062-.057.133-.128.157-.677.284-1.438.603-1.82 1.144-.7.848.372 1.45 2.13 1.195.77-.111.931-.078.76.158-.79 1.093-1.03 1.606-.852 1.821.543.654 2.188.319 3.124-.637 1.511-1.543 1.52-1.56 1.063-2.087-.634-.732-1.091-1.969-1.05-2.839.027-.569.07-.518-.697-.81-.67-.256-1.304-.385-1.913-.389zm12.844.328a5.643 5.643 0 0 0-1.408.132c-.715.172-1.023.438-1.025.887-.002.435-.236 1.517-.393 1.815-.063.12-.116.248-.116.283 0 .184-.886 1.288-1.033 1.288-.045 0-.35.13-.676.287-.982.477-1.113.52-1.557.512-.467-.009-.653-.06-1.3-.362-.61-.284-.657-.294-.83-.173-.765.776-1.213 1.663-1.312 2.664-.098 1.026-.097 1.036.063 1.556.192.622.746.766 1.05.273.028-.043.24-.224.47-.402.496-.382.528-.346.994 1.123.512 1.61 1.624 1.461 1.9-.256.076-.47.283-1.278.328-1.273.022.002.183.184.357.405 1.05 1.33 2.087.972 1.88-.65-.064-.508-.6-2.078-.803-2.353-.515-.698-.677-1.23-.401-1.317.896.473 1.47 1.515 2.415 2.09 1.03.594 1.72.765 2.009.497.38-.354.34-.718-.184-1.702-.31-.58-.311-.577.29-.516 1.47.147 2.074.002 2.204-.533.08-.334-.939-1.368-1.682-1.704-.465-.211-.484-.325-.073-.435.62-.232 1.29-.593 1.439-1.085.064-.63-1.144-1.02-2.606-1.05z" style="fill:#241d15;stroke-width:.073047;fill-opacity:1"/><path d="M17.73 50.509c-.396 0-.809 1.203-.726 2.117.044.49.036.496-.44.27-1.018-.484-1.815-.165-1.63.652.053.233.123.57.156.75.12.658.711 1.51 1.633 2.349.36.326.39.33.786.076l.43-.274c.064-.04.256-.165.426-.278.408-.271 1.182-.433 2.064-.431.982.001 1.393-.822 1.392-2.79 0-2.047-.836-2.508-1.786-.984-.315.507-.506.62-.561.335-.13-.679-1.214-1.792-1.744-1.792zm7.064 1.94c-1.237.52-2.014 1.753-2.564 2.597-.61.94-.606.903-.097 1.218.693.427 1.362 1.357 1.587 2.206.141.532.23.743.37.884.252.252 2.052.054 2.565-.282 1.5-.607 2.452-2.056.448-2.286-.795-.059-.814-.083-.417-.502 1.055-1.114 1.522-2.006 1.194-2.278-.434-.374-1.666.236-2.51.32-.022-.022-.04-.384-.04-.805 0-.742-.205-1.125-.536-1.072zM13.5 56.087c-1.128-.009-1.777.509-1.217 1.244.19.392.428.613.601.993.165.294-2.403.623-2.452 1.33.141.767.827.881 1.414 1.06.24.073.552.153.693.177.638.11.644.238.04.854-.765.78-.785 1.112-.085 1.452.668.324 1.686.067 3.459-.871.352-.153 1.427-.581.922-1.017-.533-.42-.689-2.267-.267-3.163.127-.27.231-.537.231-.593 0-.304-1.138-1-2.077-1.27a4.745 4.745 0 0 0-1.262-.196zm5.736.009c-.959-.002-1.358 1.125-.67 1.895.333.375.336.376.752.363 1.613-.051 1.533-2.255-.082-2.258zm13.628 8.517c.055-.2.14-.53.192-.734.05-.203.167-.5.259-.659.289-.503-.597-1.421-1.803-1.87-.896-.334-2.581-.153-2.692.29-.05.199-.196.186-.235-.021-.038-.207-.149-.319-.593-.601a5.132 5.132 0 0 1-.438-.298c-.586-.688-3.79-.784-3.79-.113 0 .089-.046.2-.103.248-.085.07-.097.06-.066-.06.1-.385-.963-1.09-1.346-.894-.363.185-.656.02-.801-.452-.131-.426-.138-.682-.013-.48.233.377 1.475.035 1.682-.463.526-1.424-1.422-1.95-2.049-1.038-.218.354-.2.887.04 1.167.236.274.119.325-.286.126-.593-.292-1.14-.216-1.597.222-.302.29-.302.29-.37.081-.356-1.11-2.243-.82-2.299.355.106 1.116 1.509 1.733 2.252.737.69-.065.32.482.362.669-.57.122-.933.43-.981 1-.35.655.78 1.62 1.68 1.406 1.194-.198 1.022-1.355.906-1.761-.155-.263-.155-.268-.052-.424.277-.182.446-.124.47.162.026.336.214.587.56.75.515.239.808.215 1.137.089.417-.03-.27.644-1.033 1.013-.367.178-.396.333-.167.876.107.252.237.61.289.796.44 1.56 1.547 2.615 2.738 2.615.471 0 .57-.758.239-1.84-.107-.352-.18-.654-.163-.671.89.14 1.73.337 2.577.433.734.17.886.761 1.46 1.048.33.119.328.126-.154.595-.98.956-.744 1.348.81 1.342 1.824-.007 3.748-.869 3.514-1.575-.218-.72-.297-1.427-.136-2.066zM28.668 62.1c.04-.022.133.067.231.236.076.13.353.46.615.732.52.543.52.631-.008.633-.357.002-1.52.29-1.667.414-.163.138-.325.12-.402-.043-.149-.318-1.22-1.317-1.411-1.317-.155 0-.07-.146.088-.151.73-.022 1.382-.079 1.658-.145.338-.06.693-.181.896-.36zm-11.485.269c-.112.006-.245.107-.51.308-2.714 2.068-3.06 5.435-.37 3.61.445-.302.519-.167.395.724-.114.821.062 1.484.465 1.748.286.187.223.264-.215.264-1.488-.347-1.9.203-1.674-1.146.276-1.639-2.319-.137-3.673 2.126-.397.663-.396.668.269 1.224.632.53 1 1.036 1.236 1.696.188.778.297 1.721.2 2.242-.08 1.568-2.813 2.687-2.62 3.321.11.6.397 1.126.62 1.644.271.629.651 1.104 1.246 1.555 1.075.816 1.497.38 1.262-1.305-.136-.98-.192-.929.59-.543 1.043.515 1.756.776 2.12.776.285 0 .323.018.278.128-.029.07-.07.415-.091.765-.021.351-.042.638-.047.637-.071-.007-.734-.234-.944-.324-1.18-.504-1.544.532-.75 2.139.296.775.907 1.371 1.559 1.866 1.337-.713 2.323-.907 4.204-.663.058-.022.171-.226.252-.453.08-.227.233-.643.34-.924.105-.28.322-.904.481-1.385.16-.481.337-.967.394-1.08.349-.814.665-1.677.87-2.419.013-.08.125-.37.249-.644.155-.511.405-1.029.556-1.47.399-1.176.577-1.143 3.575.66.518.311.991.607 1.051.657.06.05.274.18.474.29.2.111.545.319.765.462.221.143.598.36.838.484.241.123.577.312.746.42.17.11.328.198.351.198.024 0 .148.077.275.171.441.325 1.254.698 1.366.627a.637.637 0 0 1 .28-.067c.587-2.31-.62-4.179.399-5.963-.24-4.94.721-5.579-2.233-6.445-.21.173-.673.495-1.028.717-.356.221-.848.543-1.094.714a7.907 7.907 0 0 1-.774.477c-.8.401-2.738 1.688-3.617 2.401-.85.69-1.469.114-1.857-1.725l-.131-.62a30.53 30.53 0 0 0-.257-1.033c-.209-1.288-.826-2.521-1.131-3.686-.242-.575-.274-1.402-.726-1.735a1.3 1.3 0 0 1-.227-.17c-.02-.028-.448-.062-.95-.076-1.052-.028-1.738-.291-2.397-.919-.184-.175-.277-.263-.39-.256zm-9.706 2.694c-.431.069-.761.815-.793 2.132-.017.723-.07.768-.46.39-1.707-1.657-2.53.129-1.128 2.45.29.646.536.87 1.037 1.212.483.332.573.324 1.2-.11.29-.2.563-.364.608-.364.045 0 .164-.054.264-.12.25-.163.334-.048.092.128-.446.325-.514.409-.569.71-.072.399.158.912.558 1.242.31.255.396.221.79.115.321-.116.41.01.763-.468.403-.754-.228-1.749-1.11-1.752-.11 0-.2-.033-.2-.073 0-.088.241-.104 1.203-.08.861.022.89.003 1.137-.725.088-.26.2-.57.251-.69.38-.913.443-1.82.18-2.588-.089-.495-.47-.793-.902-.801-.3 0-.47.188-.829.92-.715 1.441-.692.262-.993-.41-.366-.816-.763-1.172-1.099-1.118zm11.842 2.01c.095-.004.205.161.395.535.7 1.381 1.393 1.471 1.796.235.174-.533.175-.533.224-.023.027.281.12.72.205.975.23 1.335 1.957 5.18-.472 5.368-.886-.075-1.29-.077-2.442-.01-1.457.083-2.092.093-2.241.033a1.258 1.258 0 0 0-.347-.056c-.489-.014-.413-.123.355-.51 1.759-.884 1.634-2.118-.215-2.118-.343 0-.318-.12.118-.55.477-.469.967-1.361.93-1.69-.016-.131-.006-.238.022-.238.028 0 .199-.123.38-.274.422-.348.757-.794 1.123-1.494.06-.116.112-.18.169-.182zm11.317 2.883c.07.008.012.165-.148.475-.606 1.17-.114 1.617 1.22 1.109.68-.259.744-.247.692.117-.025.175-.056.76-.069 1.302-.022.963-.026.984-.195 1.031a1.106 1.106 0 0 1-.245.045l-.985-.06a90.702 90.702 0 0 0-1.895-.093c-1.233-.046-2.692-.164-2.864-.232-.173-.07-.11-.136.78-.836.382-.301.688-.593.679-.649-.01-.057.051-.108.139-.114.15-.013.996-.636 2.265-1.669.356-.29.556-.433.626-.426zm-27.788.471a2.959 2.959 0 0 0-.313.003c-1.266.082-1.434.727-.445 1.715.42.42.404.443-.49.67-1.248.319-1.6.531-1.6.965 0 .423.717.98 1.424 1.104 1.154.204 1.19.232.708.543-1.256.806-1.41 1.744-.31 1.868.391.044 1.654-.165 1.955-.322.067-.036.237-.114.378-.174 1.647-.703 1.914-.927 1.706-1.425a1.529 1.529 0 0 1-.092-.563c.019-.367.067-.36.65.092.498.384 1.132.31 1.555-.228.176-.236.245-.233.351.016.047.11.15.274.23.364.08.09.13.167.113.17a5.238 5.238 0 0 1-.176.025c-1.397.18-1.774 2.003-.464 2.25.925.173 1.223-.698 1.292-1.622.12-.625 1.064-.648 1.096.065.01.254.066.467.157.594 1.469 1.42 3.038-1.572.48-1.718-.115.06-.221.109-.236.109-.056 0-.005-1.1.052-1.136.283.205.408.173.72.128.98-.039 1.354-1.432.555-2.061-.673-.53-1.897.037-1.847.855.017.282.017.282-.434.259-.591-.031-1.017.151-1.305.559-.228.322-.37.378-.446.175-.225-.604-1.136-.99-1.65-.699-.37.21-.622.541-.668.878-.072.535-.096.54-.102.016a2.933 2.933 0 0 1 .358-1.416c.417-.749-1.605-1.993-3.202-2.059zm29.259 4.426c.012.021.045.252.073.512.028.26.098.64.155.841.091.324.184.981.14.981-.01 0-.276-.082-.591-.182-1.32-.419-2.103.236-1.402 1.173.032.044.037.101.01.128-.073.073-.143.057-.235-.054-.046-.055-.408-.32-.804-.588-.513-.34-1.02-.8-1.51-1.071-.853-.707-2.82-1.511-1.043-1.514.523 0 .973-.014 1.002-.031.029-.018.676-.055 1.437-.083a76.864 76.864 0 0 0 2.066-.1c.374-.027.69-.033.702-.012zm-15.376.275c.317-.007.95.022 1.856.089 1.52.11 2.676.174 3.333.18.946.01 1.033.22.608 1.467-.384 1.245-.575 2.505-1.064 3.557-.089.227-.22.52-.317.703-.077 0-.152-.255-.153-.521-.004-.771-.74-.608-1.45.322-.775 1.377-1.451-1.873-2.383-.96-.178.289-.328.21-.28-.148-.047-.644-.362-1.147-.737-1.59-.508-.596-.47-.675.32-.676 1.46-.003 2.067-.573 1.511-1.42-.158-.242-.956-.82-1.209-.875-.356-.078-.353-.121-.035-.128zM6.219 76.666c-.23 0-.416.145-.606.23-1.747.673-3.185 4.162-1.54 3.737.456-.012 1.029-.448 1.028-.002-.071 2.893.997 3.35 2.3.985.228-.415.344-.295.718.747.065.18.214.43.331.555.72.765 1.704-.934 1.716-2.96.01-1.745.001-1.767-.808-1.869-1.253-.158-2.342-.65-2.907-1.316a.362.362 0 0 0-.232-.107zm24.378 3.667a2.665 2.665 0 0 0-.525.013c-1.934.264-2.216.974-.77 1.944.997.669.994.63.082.986-2.214.867-2.036 2.169.283 2.079.471-.018 1.031-.024 1.086-.01.015.003-.116.147-.292.318-1.103 1.072-1.448 2.046-.777 2.192.561.122 1.204-.034 2.134-.517.282-.147 1.127-.822 1.64-1.31.22-.21.424-.383.453-.384.231-.007.28-.463.078-.72-.336-.425-.532-.804-.532-1.03 0-.116-.057-.254-.127-.306-.233-.175-.168-1.416.097-1.845.303-.491-1.515-1.325-2.83-1.41zM24.554 81.6c-.394.018-1.005.393-1.757 1.121-.36.273-.514.687-.71 1.018-.254.527-.644 1.176-.4 1.577.144.076.329.227.827.676.265.238.265.239.046.182-1.027-.265-1.719.216-1.649 1.147.163 1.46 2.202 1.124 2.27-.033 0-.511.216-.12.44.798.04.16.111.369.16.463.291.568 3.873-.43 4.439-1.238.451-.645.116-.923-1.486-1.232-.432-.083-.52-.189-.305-.367 1.753-1.455 1.44-3.003-.443-2.183-.2.088-.541.178-.758.2-.443.048-.429.118-.222-1.108.118-.7-.059-1.039-.452-1.02zm-10.875 3.51c-.839-.019-1.725.22-1.725.625 0 .15.458.996.622 1.15.226.212.07.326-.84.619-.22.07-.432.157-.47.191a.373.373 0 0 1-.213.063c-.215 0-.731.328-.842.535-.25.468.838 1.237 2.126 1.503.527.108.526.154-.018.805-.594.711-.601 1.064-.023 1.238.93.279 3.27-.194 3.859-.78.273-.272.288-.591.07-1.515-.287-1.206-.207-1.744.403-2.72.11-.176-.064-.418-.43-.6a2.18 2.18 0 0 1-.344-.22 3.597 3.597 0 0 0-.474-.292 3.708 3.708 0 0 1-.446-.268c-.267-.218-.752-.322-1.255-.334zm5.752.232a1.337 1.337 0 0 0-.362.002c-1.132.158-1.256 1.578-.184 2.108.287.142.286.142.031.337-.14.108-.255.239-.255.292 0 .053-.05.137-.11.187-.28.025-.53-.609-.905-.727-.896-.068-1.687.766-1.28 1.656.352.705 1.564.851 1.949.235.131-.21.315-.175.421.082.17.29.576.423.213.578-1.042.432-1.112 1.8-.108 2.123 1.152.371 1.958-.758 1.264-1.77-.174-.254-.173-.255.118-.393.627.085.365.303.956.689.352.308 1.096.388 1.437.153 1.077-.74.478-2.097-.912-2.069-.492.01-.492.01-.492-.227 0-.43-.47-.98-.966-1.128-.33-.1-.329-.085-.044-.48.495-.691.032-1.541-.77-1.648zm5.064 4.146c-.762-.017-.762-.017-1.12.704-.244.492-.481.846-.747 1.116-.214.217-.409.459-.433.537-1.268 1.186.03 4.018 1.36 4.713.88.3 1.118.021 1.074-1.264-.026-.743.055-.85.508-.663 1.952.8 2.458.848 2.445.234-.014-.722-.37-1.704-.894-2.465-.218-.317-.224-.341-.085-.341.188 0 1.048-.237 1.388-.383 1.608-.687-.687-2.124-3.496-2.188zm-7.849 1.864c-.24.004-.542.255-1.143.845-2.412 2.365-2.414 4.039-.003 2.894.556-.264.556-.264.507.01-.224 1.26-.084 2.644.284 2.793.33.135.579-.028 1.584-1.04.713-.719.754-.712 1.179.178.544 1.14 1.36.646 1.752-1.064.21-.916-.122-3.069-.475-3.077-.29-.028-.593-.082-.84-.087-.718-.014-1.796-.552-2.43-1.213-.15-.156-.271-.242-.415-.24z" style="fill:#241d15;stroke-width:.0728929;fill-opacity:1"/><path d="M142.28.006c-.64.055-1.33.512-1.5 1.096-.248.848.3 1.913 1.081 2.107 1.918.476 2.831-2.308 1.022-3.115a1.218 1.218 0 0 0-.602-.088zM89.595.258c-.3.012-.567.068-.684.165-1.03.858-.827 2.396.39 2.954.385.176.666.135 1.33-.195 1.145-.57 1.04-2.413-.162-2.82a2.588 2.588 0 0 0-.874-.104Zm26.077.829c-.118.079-.28 1.915-.78 6.36-.06 1.448-.13 1.875-.508 3.061-.159.5-.312 1.041-.34 1.201-.245 1.203-2.84 4.712-3.832 5.402-.835.838-1.644 1.389-2.916 1.985-.44.206-.54.176-.364-.11.344-.552.609-1.198.706-1.722.227-1.215.283-1.388.643-1.97.484-.787.747-.975 1.346-.965.531.01.803.636.432.998-.72.74 2.716.633 1.018-1.992-.292-.319-.29-.333.165-.825.764-.826.866-.962 1.171-1.574.284-.567.468-1.245.478-1.758-.113-1.813-.42-2.934-.805-.743-.22 1.297-1.663 2.62-2.007 1.785-.24-.584-1.027-1.332-1.507-1.432-.592-.124-1.118.22-.63.411 1.572.74.537 3.379-.6 4.554-.29.271-.365.1-.452-1.025-.087-1.112.347-2.147.899-2.144.446.003.589-.315.281-.63-.18-.184-.197-.187-.856-.137-1.12.084-1.096.088-1.15-.182-1.483-10.186-3.86-9.394-2.298-.308.03.27.096.491.181.741 0 .01-.156.04-.347.067-.768.106-1.398.555-1.574 1.12-.105.337-.052.435.142.263.195-.172.886-.265 1.231-.166.951.273 1.494.872 1.754 1.937.191.782.189.8-.098.743-.66-.13-1.003-.126-1.771.019-1.427.269-1.938.16-2.66-.57-.573-.58-.72-.834-.716-1.238.004-.451-.24-.224-.423.392-.24.814-.093 1.477.51 2.296.202.273.202.277.076.402a11.96 11.96 0 0 0-.564.763c-1.208 1.723-2.644 2.41-3.706 1.772-.303-.182-.342-.19-.449-.086-.064.063-.086.115-.047.116.038 0 .163.095.277.21.256.259.944.548 1.355.569.996.051 2.593-.214 2.912-.484.064-.054.138-.099.164-.099.026 0 .21-.096.407-.214.444-.267.651-.275.742-.027.417 1.132 1.777 1.94 2.34 1.39.143-.142.142-.144-.188-.376-1.18-.832-.854-2.98.515-3.388 2.537-.756 2.811 3.547.301 4.72a4.121 4.121 0 0 0-.516.287c-.204.144-1.008.358-1.975.524-.735.126-3.551.154-4.163.04-2.67-.49-5.241-1.409-6.075-2.169a3.583 3.583 0 0 0-.5-.332c-.363-.204-.869-.602-1.383-1.087a5.623 5.623 0 0 0-.56-.458c-.33-.224-1.47-1.29-2.51-2.342-1.49-1.508-1.579-1.575-1.847-1.383-.251.18-.04.53.982 1.623.526.564 1.03 1.128 1.121 1.253.394.527.983.866 1.333 1.422.917.88 1.797 1.998 2.432 3.086 0 .058.144.41.32.78.177.372.322.703.321.737 0 .033.096.272.214.531.117.26.214.53.214.602 0 .072.065.362.144.644.369 1.324.652 3.37.618 4.46-.038 1.185-.184 2.363-.362 2.918a10 10 0 0 0-.23.81c-.023.124-.143.386-.265.58-.122.196-.3.502-.395.682-1.132 2.149-4.545 2.087-4.267-.077.209-1.626 2.741-2.556 3.167-1.163.063.206.156.16.203-.102.156-.873.175-.783-.269-1.284-.347-.392-.471-.48-.837-.592-.498-.152-.485-.115-.232-.656.108-.231.24-.584.295-.784.054-.2.14-.479.19-.619.05-.14.128-.369.175-.509.097-.29.133-2.356.046-2.615-.092-.273-.303-.177-.287.131.063 1.236-.286 1.837-1.56 2.69-.404.27-.722.59-.985.987-.296.448-.452.479-.707.139-.895-.705-2.394-.923-3.08-.156.022.037.162.07.31.073.604.01 1.752.934 1.861 1.498.025.13.108.45.185.713.1.345.143.748.153 1.462.015 1.006.111 1.806.248 2.07.106.202-.613.116-1.057-.127-.315-.172-1.206-1.075-1.204-1.22 0-.046-.074-.258-.165-.47-.153-.355-.16-.435-.09-.935.134-.972.127-1.06-.084-1.041-.237.021-.557.368-.664.72-.404 1.361-.292 2.084-1.605 1.608-.23-.085-.518-.185-.638-.22-.29-.088-.719-.257-.764-.304a1.609 1.609 0 0 0-.232-.14c-.195-.104-.73-.55-.883-.735a4.786 4.786 0 0 0-.278-.288c-.603-.6-.48-1.673-.849-1.155-.261.412-.147 1.823.199 2.46.127.234.07.312-.374.508-.505.225-.607.236-.73.083a3.937 3.937 0 0 0-1.004-.337c-.493-.01-.649-.22-.356-.475 2.044-1.785 1.725-2.792-.69-2.178-.77.196-.797.194-.728-.052.03-.11.055-.25.054-.31-.001-.06.048-.238.109-.394.386-.995-.62-1.444-1.44-.642-.627.47-1.294.998-1.707 1.68-.09.16-.2.344-.242.408-.53.806-.529.819.06 1.272.885.682 1.283 1.436 1.46 2.768.064.493 1.502.617 2.945.253.72-.181 2.616-.346 2.615-.227 0 .016-.1.192-.22.393-.12.196-.21.49-.273.787h.847c.355-.458.833-.863 1.238-.982 1.487-.437 1.483-.437 2.262-.376.851.066.865.082.42.506-.248.235-.47.55-.627.852h1.557c.523-.13 1.438-.16 1.926-.036.053.013.079.024.12.036h4.987c.123-.033.245-.068.361-.108-.022.037-.039.072-.06.108h2.251c.32-.816.803-1.718 1.078-2.635.08-.26.31-.474.397-.37.435.67.55 1.407 1.14 2.029.3.332-.25.684-.962.976h4.192c-.716-.34-1.5-.938-1.789-1.465a7.405 7.405 0 0 0-.423-.617c-.391-.523-.811-1.434-1.011-2.194a8.835 8.835 0 0 0-.283-.893c-.083-.199-.157-.663-.2-1.25a17.8 17.8 0 0 0-.136-1.3 8.75 8.75 0 0 1-.093-.895c-.015-.29-.064-.864-.11-1.275a17.257 17.257 0 0 0-.982-4.124c-.117-.363-.26-.734-.316-.825-.135-.22.061-.225.504-.017.379.18 2.79.8 3.585.923.321.05.718.117.884.149.165.031.548.066.852.078.304.01.655.05.782.088.126.038.645.094 1.153.123.509.03 1.089.1 1.289.157.2.056.594.125.875.155.53.055 1.254.238 1.388.35.043.037.245.103.45.15 1.284.29 3.449 2.604 3.434 3.67-.006.465-.142.549-.38.233-.631-.842-.793-1.01-1.162-1.202-.748-.39-1.266-.189-1.296.503-.022.48-.038.497-.45.502-1.047.013-1.603.778-.982 1.351.277.257.318.411.107.41-.192-.003-.77.784-.824 1.119-.115.716.188.955 1.23.966.724.008.724.008.788.264.122.492.396.682.846.586.412-.088.422-.064.112.268-.412.44-.353.816.17 1.094.19.1.208.15.25.676.088 1.084.4 1.322 1.193.906.512-.268.486-.272.9.122.192.183.359.332.37.333.084 0 .553-.226.59-.285.026-.04.078-.073.117-.073.039 0 .013.086-.056.19-.17.252-.191.669-.085 1.05h4.015c-.023-.066-.045-.135-.073-.184-.156-.27-.085-.33.255-.22.558.182 1.116-.12 1.12-.605.009-.75-.68-1.462-1.887-1.952-.682-.276-1.076-.689-1.17-1.225-.093-.532.36-.362.966.362.926 1.107 1.696 1.254 1.779.34.035-.385.118-.462.503-.468.782-.012.55-1.172-.351-1.766-.169-.11-.17-.127-.08-.493.246-.975-.666-1.47-1.531-.832-.951.702-1.24.746-1.772.269-.648-.581-.225-.74 1.39-.524.486.065 1.254-.252 1.415-.583.056-.116.13-.267.166-.335-.082-.415-.341-.547.106-.785 1.288-.606 1.305-1.907.027-2.156-.383-.074-.44-.107-.457-.264-.137-1.202-1.182-1.542-1.944-.632-.323.385-.342.387-.662.06-.822-.84-1.708.799-1.087 2.011.132.262.402.996-.181.64-.74-.449-1.177-3.212-.64-4.359.08-.171.146-.355.147-.408 0-.053.065-.26.144-.459l.243-.617c.055-.14.26-.51.454-.822.194-.312.354-.585.354-.606a107.821 107.821 0 0 1 2.441-3.018c.347-.392.714-.854.816-1.026.102-.172.286-.434.408-.583a8.33 8.33 0 0 0 .514-.75c.16-.262.314-.494.34-.513.048-.035.406-.615.557-.9.138-.262.243-.196.488.305.135.275.364.681.51.904.27.415.722 1.082.82 1.213.03.04.183.256.338.479.155.222.446.588.647.812.803.897.959 1.085 1.278 1.545.183.263.418.578.522.7.105.121.31.402.458.623.147.221.338.486.425.589.364.43 1.386 2.336 1.383 2.579 0 .045.045.185.1.312.056.128.117.347.137.488.02.14.073.42.119.622.202.996.066 3.023-1.068 3.337-.08-.082.087-.755.297-1.191.567-1.177-.52-2.59-1.305-1.694-.307.352-.298.351-.655.022-.867-.8-1.856-.683-1.992.237-.069.459-.067.458-.63.337-.79-.17-1.109-.047-1.424.548-.182.344.667 1.443 1.298 1.679.212.079.251.124.211.245-.23.703-.1 1.118.426 1.352.146.065.146.065 0 .114-.622.207-.857.586-.683 1.1.048.143-.685.748-.905.746-.198-.003-.428.587-.34.873.046.152.41.359.943.537.268.09.294.122.329.41.047.38.128.47.516.571.392.102.414.204.088.401-1.03.621-1.102 2.03-.114 2.227.265.053.31.136.2.38h4.04c.05-.21.086-.433.089-.682.006-.462.034-.638.1-.638.05 0 .09.032.09.07-.001.133.297.166.475.052.25-.16.361-.142.703.11.883.655 1.833-.498 1.182-1.433-.195-.28-.193-.308.034-.305.66.007 1.037-.648.667-1.16-.209-.29-.196-.334.06-.214.455.214.862-.045.969-.617.068-.368.144-.411.47-.27.786.342 2.126.051 2.132-.462.006-.49-.697-1.62-1.009-1.624-.035 0 .084-.15.265-.332.685-.69.15-1.415-1.108-1.497-.066-.005-.084-.062-.055-.173.165-.63-.668-.913-1.554-.527-.805.393-.937 1.511-1.728 1.825-.313.002.104-1.323.578-1.837.288-.352.506-.739.985-1.01a8.544 8.544 0 0 1 2.64-1.636c1.746-.656 3.737-1.102 5.124-1.148.523-.017 1.098-.06 1.28-.094a22.25 22.25 0 0 0 1.683-.377c1.37-.353 1.783-.48 2.08-.64.661-.357.78-.234.464.477-.062.14-.173.45-.247.69l-.19.62c-.225.73-.32 1.058-.462 1.601-.31 1.182-.452 1.828-.497 2.26l-.09.838c-.03.28-.053.705-.05.944.002.239-.027.47-.065.516-.038.045-.088.44-.11.88-.023.438-.075.881-.116.984a3.231 3.231 0 0 0-.123.62c-.065.584-.133.928-.199 1.015-.03.04-.077.188-.105.331-.144.754-1.222 2.287-1.976 2.843h2.745c-.14-.095-.225-.2-.205-.307.31-.476.575-1.048.806-1.74.203-.61.35-.783.43-.507.108.372.62 1.785.749 2.071.077.171.12.338.135.483h12.292c-.041-.527-.122-1.18.53-.703.293.082.57.372.765.703h1.31c.019-.161.03-.344.03-.596.003-.693-.016-.673.662-.683 1.143-.013 2.269.448 3.593.22 1.183.025 1.325-.016 1.44-.424.45-1.584.787-2.105 1.76-2.725.36-.23.485-.47.337-.652-.04-.05-.141-.279-.225-.51-.546-1.51-1.867-2.776-2.91-2.787-.662-.007-.783.378-.464 1.474.074.253-.266.278-.968.07-1.799-.53-2.772-.113-2.02.865.086.112.156.24.156.285 0 .045.225.347.502.672.628.736.64.695-.312 1.016a1.946 1.946 0 0 0-.602.364c-.556.496-.722-.029-.484-.6.18-1.152.55-2.58-.466-3.685-.1-.001-.166.27-.123.493.274 1.412-1.023 3.352-2.574 3.851-.97.312-1.067.286-1.23-.333a82.973 82.973 0 0 0-.184-.696c-.248-.898-1.496-1.963-1.365-1.164.163 1.01.243 2.758-1.003 3.592a5.708 5.708 0 0 0-.545.246c-.294.155-.49.128-.342-.047.046-.054.1-.371.12-.704.085-1.42-.813-3.969.885-4.54.312-.04.567-.25.429-.353-.809-.602-1.386-.555-2.218.182-.553.49-.477.523-1.817-.799-1.253-1.235-1.864-2.908-1.313-3.594.315-.392.08-.58-.277-.22-.464.468-.744 2.006-.561 3.08.137.772.522 1.697.979 2.48.158.166.099.263-.263.428-.73.332-1.118.862-1.22 1.666-.108.955 2.445-2.034 3.626.916.023.152.053.338.068.413.268 1.384-2.574 1.928-4.178.8-.992-.698-1.312-1.458-1.523-3.612-.035-.354-.083-.677-.107-.718-.13-.215.012-2.957.208-4.006.254-1.362.73-2.765 1.394-4.159.528-1.096.5-1.944 1.254-.959.996 1.294 3.086.108 2.53-1.436-.042-.118-.002-.172.208-.282.39-.204 1.453-1.333 1.602-1.7.139-.343.202-.048.093.433-.06.26-.11.594-.113.742a4.228 4.228 0 0 1-.077.62c-.129.627-.266 1.51-.285 1.843-.077 1.3-.197 1.59-.671 1.636-1.768.17-2.097 2.443-.456 3.15.918.394 2.276-.504 2.19-1.449a7.139 7.139 0 0 1-.025-.444c-.005-.308-.363-.837-.718-1.062-.2-.126-.279-.22-.247-.294.103-.362.167-.726.301-1.089.059-.368.232-.746.4-1.313.077-.26.178-.703.224-.983a3.61 3.61 0 0 1 .249-.838c.195-.43.204-.79.535-.108.196.502.483 1.109.097 1.629-.993 1.234.866 2.869 2.05 1.803 1.079-.973.265-2.802-1.07-2.402-.792.157-.9-4.087-.879-4.31-.002-1.454-.64-1.749-1.084-.5-.467 1.306-1.117 2.84-2.13 4.014-.34.442-.406.465-.788.275a1.77 1.77 0 0 0-.764-.171c-.24-.005-.428-.028-.416-.052.2-.387.717-1.07 1.096-1.447a51.88 51.88 0 0 0 1.026-1.056c.3-.318.755-.798 1.013-1.067.23-.24.423-.584.693-.862.31-.333.388-.991-.093-.778-.205.105-1.04.877-1.263 1.169-.551.543-1.11.932-1.691 1.484-.93.889-2.09 1.809-3.347 2.65-.122.11-.348.262-.501.34-.154.077-.411.224-.573.327-.162.102-.657.339-1.101.525-.444.187-.906.384-1.027.438-1.787.796-5.487 1.206-7.275.806-.3-.068-.792-.176-1.093-.242-1.037-.225-1.15-.26-1.59-.506-1.912-1.066-2.343-3.644-.732-4.385.935-.43 1.74-.141 2.49.895.464.641.389 2.165-.12 2.43-.296.154-.197.32.206.35.306.023.395-.006.732-.247.81-.577 1.084-.957 1.09-1.504.003-.257.152-.36.261-.178.07.116.969.693 1.42.912.692.335 2.187.458 3.073.253.515-.12.602-.263.14-.235-.147.01-.305-.007-.35-.036a6.313 6.313 0 0 0-.606-.235c-1.211-.47-3.052-2.446-2.543-3.827.177-.463-.05-2.808-.34-1.75-.179.794-1.29 1.748-2.459 1.471a6.399 6.399 0 0 0-.673-.116 5.44 5.44 0 0 1-.56-.09c-.47-.11-1.828.222-2.188.537-.224.196-.372.176-.232-.033.06-.09.134-.266.162-.39.029-.124.154-.32.277-.434.124-.115.29-.34.369-.5.488-.985 2.712-1.294 3.35-.465.318.413.519.056.233-.414-.44-.723-1.137-1.145-2.116-1.28-.596-.081-.627-.348-.31-1.191.108-.236.208-.512.222-.613.108-.754 1.263-2.124 2.114-2.507.222-.1.461-.211.531-.247.07-.036.276-.064.457-.062.244.002.33-.025.33-.106.001-.06-.057-.11-.128-.111-.072-.001-.255-.066-.406-.145-.539-.283-1.775-.256-2.202.047-.299.212-1.06.21-1.058-.004-.577-1.376-.002-2.36-.38-3.463-.781-2.67-1.07 3.116-1.552 6.544-.079.493-2.683-.413-1.563.534.756.612 1.245 2.14.605 3.545-.248.546-.419.447-1.165-.678-.897-1.354-.979-2.928-.178-3.44.101-.065.185-.162.186-.215.002-.167-.283-.204-.496-.064-.11.07-.347.198-.529.282-.437.203-.6.388-.928 1.06-.15.31-.288.564-.305.563-.765-.008-2.294-1.934-2.542-3.204-.19-.973-.33-.812-.322.376.006 1.068.306 2.232.763 2.956.113.18.243.41.287.51.133.301.942 1.186 1.328 1.452.359.248.359.248.113.628-.61.941-.583 1.869.074 2.596.458.507.65.394.513-.302-.227-1.155 1.038-1.577 1.949-.65.365.372.537.924.529 1.7a5.106 5.106 0 0 0 .367 1.93c.102.26.175.5.164.532-2.364-.782-4.392-3.457-6.022-5.274-.25-.426-.291-.49-.371-.592-.214-.274-.743-1.42-.782-1.694-.025-.172-.067-.346-.095-.386-.027-.04-.09-.272-.138-.513a8.007 8.007 0 0 0-.147-.622c-.065-.204-.116-.476-.172-.915-.07-.55-.16-1.17-.238-1.646-.628-3.896-.707-6.698-.859-6.596zm-40.424.843c-1.101-.065-1.765 1.128-1.487 2.286.178.534.218.67.738.764.853.14 2.195-.323 2.287-1.088.047-.861-.168-1.343-.763-1.71a1.658 1.658 0 0 0-.775-.252Zm10.014.236c-.518-.008-1.045.25-1.32.869-.35.97.586 2.097 1.805 1.76.154.002.708-.558.808-.817.408-1.05-.43-1.8-1.293-1.812zm71.48.32c-.93.047-1.796.892-1.498 2.092.112.45.467.94.783 1.084 1.37.62 2.96-1.024 2.226-2.301-.369-.643-.951-.903-1.51-.875zm-9.722.169c-.284-.017-.611.05-.983.202-.946.386-.909 1.837.062 2.451 1.07.677 2.58-.72 2.007-1.858-.253-.503-.61-.767-1.086-.795zM79.808 2.9c-1.27.086-1.868 1.76-.64 2.614.366.254 1.037.216 1.47-.083.99-.685.843-2.146-.249-2.463-.205-.06-.4-.08-.581-.068zm71.772.343c-1.615.06-2.014 2.359-.286 2.816.136.17.064.274.011.637-.009.867-1.243 2.858-1.6 3.497-.268.43-.506 1.013-.997.869-.72-.382-1.688.18-1.696.985-.004.4.046.505.5 1.074.613.77 2.012.036 1.974-1.035-.012-.347.008-.42.138-.492.32-.178.88-.59 1.162-.855.626-.507 1.517-.84 2.326-1.057.78.008 1.303-.138 1.305-.368.002-.215.002-.215-.948-.176-1.362.055-1.377.097.79-2.04 1.26-1.244 1.607-2.033.486-1.104-.313.259-.583.48-1.4 1.148-.345.282-.686.572-.758.646-.338.253-.68.58-1.166.635-.17-.002-.173-.204-.012-.569.184-.413.344-1.113.325-1.422-.018-.292.08-.412.334-.411 1.316.003 1.177-2.567-.15-2.76a1.872 1.872 0 0 0-.338-.018zm-62.73.188c-.094-.027-.301.092-.432.279-.104.15-.363.51-.574.802-.37.514-.684 1.338-1.356 1.97-.424.639-.988 1.316-1.057 1.272.043-.739.373-1.474.173-2.182.02-.242 0-.307-.104-.328-.26-.053-.344.117-.349.704-.007.882-.382 2.263-1.042 3.85-.104.249-.172.501-.15.56.032.086-.043.106-.387.1-.257-.004-.52.04-.661.111-.33.167-.793-.38-1.155-1.362a1.713 1.713 0 0 0-.214-.404c-.205-.252-.845-1.661-1.017-2.239-.133-.448-.193-.554-.325-.574-.252-.04-.23.136.198 1.566.117.391.117.688 0 .687-.066 0-.554-.313-.744-.476a2.868 2.868 0 0 0-.363-.258c-.273-.156-.646-.48-1.585-1.377-1.14-1.089-1.292-1.218-1.424-1.22-.26-.002.043.39 1.337 1.731.744.771 1.378 1.485 1.408 1.585.03.101.119.277.198.391.208.303.124.322-1.05.233-1.065-.081-1.065-.081-1.028-.423.11-1.024-1.138-1.848-1.99-1.314-1.034.647-1.165 1.715-.296 2.414.549.443 1.59.275 2.013-.324.09-.127.176-.247.191-.265.016-.02.053.007.084.058.03.05.397.174.815.275 1.344.323 2.731 1.049 3.685 1.926.214.197.359.276.458.251.127-.031.14-.01.096.177-.274 1.185 1.96 1.797 2.337.64.094-.287.253-.468.37-.421.186.073.24.329.126.597-.14.332-.074.38.804.598.743.183 1.24.333 1.566.472.52.223.993.501 1.22.717.14.133.286.232.326.22.076-.025.237.098.756.579.323.299.323.3.233.71-.189.863.18 1.598.871 1.738 1.505.305 2.45-1.375 1.375-2.446-.328-.328-1.336-.427-1.636-.161-.22.195-.315.156-.823-.34-.543-.528-.972-.88-1.166-.957-.074-.03-.134-.088-.134-.13.001-.096.262-.094.442.004.076.042.541.126 1.034.186.492.06 1.255.185 1.696.278 1.576.332 1.82.37 1.944.308.39-.2-.405-.674-1.294-.772-.287-.031-.91-.174-1.384-.317-1.342-.405-1.574-.469-1.808-.498-.367-.045-.245-.161.295-.282.595-.134 1.722-.546 1.723-.63.002-.151-.22-.24-.418-.17-1.149.416-3.377.557-4.67.295a6.3 6.3 0 0 0-.773-.118c-.151-.002-.2-.038-.199-.147 0-.08-.062-.32-.14-.532-.174-.476-.175-.514.005-.724.69-.807.92-1.071 1.371-1.57.518-.558 1.244-.965 1.895-1.363.453-.174.605-.269.63-.394.037-.181-.205-.161-.615.051-.235.106-.534.17-.783.32-.239.148-.548.292-.782.503-.252.198-.487.36-.522.36-.136-.001-.133-.132.006-.278.08-.084.145-.179.146-.211 0-.033.112-.222.248-.42.136-.2.271-.453.3-.563.091-.172.217-.32.336-.518.195-.285.309-.648.57-.914.401-.606.935-1.247 1.22-1.818 0-.044-.018-.069-.05-.078zm54.692.233c-.26-.003-.075.542.76 2.245.296.602.614 1.327.993 2.072.358.514.047.927-.363.482-.283-.236-.675-.442-1.015-.663a30.914 30.914 0 0 1-.624-.33 1.473 1.473 0 0 0-.334-.12c-.195-.043-.196-.046-.149-.547.105-1.668-1.97-2.245-2.81-.482-.45 1.282 1.351 2.316 2.391 1.372.817-.63 2.942 1.935 3.455 2.54.163.247.399.546.524.663.126.117.266.25.31.296.233.234.782-.22.642-.532a1.9 1.9 0 0 1-.119-.474 2.4 2.4 0 0 0-.135-.536c-.06-.145-.122-.483-.14-.751-.034-.47-.124-.914-.133-1.498-.09-.57.066-1.176-.065-1.758-.128-.082-.2.085-.23.536-.018.26-.046.639-.063.84-.016.2-.03.539-.03.752-.002.423-.487.578-.592.19-.233-.523-.629-1.12-.932-1.69-.391-.803-.838-1.772-1.34-2.607Zm-53.15 1.548c-.647.04-1.212.533-1.34 1.275-.081.476.401 1.245.86 1.372 1.75.482 2.789-1.82 1.143-2.529a1.443 1.443 0 0 0-.662-.118Zm65.732 2.357a1.402 1.402 0 0 0-.851 2.598c.402.237.518.258 1.155.171 1.214-.225 1.427-2.03.306-2.589a1.735 1.735 0 0 0-.61-.18zM138.96 8.878a1.235 1.235 0 0 0-.408.089c-.235.095-.68.133-.908.477-.25.418-.057 1.082.06 1.465.206.514 1.74 1.038 2.362.502.117-.102.198-.124.264-.075l.45.349c.496.387 1.582.949 1.84.951.117.002.232.032.253.067.035.059-.875.19-1.128.162-.06-.007-.29.03-.512.082a8.014 8.014 0 0 1-1.045.135c-.353.022-.896.087-1.206.144-.31.057-.679.118-.818.135-.836.103-.709.509.137.437 3.656-.311 4.657-.324 4.311-.054-.683.533-1.514 1.294-1.561 1.43-.032.092-.084.086-.35-.037-.946-.439-2.01.11-2.114 1.09-.058.543.353 1.274.79 1.406 1.183.355 2.154-.46 1.959-1.645-.087-.525-.037-.611.668-1.14 1.132-.85 1.725-1.096 3.484-1.442 1.198-.236 1.204-.24 1.04-.685-.124-.336-.124-.336-1.347-.35-1.46-.015-3.475-.486-3.985-.93-.164-.143-.61-.327-.729-.302-.12.025-.114-.059.023-.376.383-.891-.57-1.93-1.53-1.885zm-45.91.412a.236.236 0 0 0-.08.011c-.084.026-.37.05-.636.052-1.485.013-1.899 2.235-.495 2.66 1.677.425 2.589-1.117 1.94-2.082-.169-.169-.386-.39-.482-.492-.094-.099-.17-.146-.247-.15Zm-17.67 2.793a1.42 1.42 0 0 0-1.296.98c-.29.842.314 1.76 1.163 1.77.366.004 1.222-.47 1.257-.695.044-.286.176-.326.72-.218.275.054.738.095 1.03.09.625-.01.655.038.16.258-.266.14-.5.369-.831.507-.17.113-.44.276-.602.361-.161.085-.459.244-.66.353-.203.11-.54.289-.749.397-.21.11-.42.245-.469.302-.048.056-.13.103-.184.102-.185-.002-.438.318-.416.528.101.051.196.126.526-.016.103.001.319-.065.479-.147l.805-.417c1.8-.935 3.267-1.637 3.266-1.563 0 .047-.143.267-.318.488-.39.497-.818 1.182-1.012 1.62-.128.292-.178.335-.432.375-1.385.218-1.709 2.069-.445 2.547 1.647.623 2.843-1.737 1.23-2.426-.319-.136-.182-.437.583-1.29.206-.228.518-.579.694-.779.437-.495 1.766-1.685 2.166-1.94.465-.295.287-1.077-.18-.792-.374.147-.704.355-1.123.476-.634.282-2.168.551-3.47.61-.53.024-.53.024-.527-.217.01-.852-.675-1.297-1.365-1.264zm60.376.167c-.643-.011-1.276.303-1.5.95-.93 2.99 3.441 2.732 3.064.056-.266-.657-.92-.994-1.564-1.006zm-40.448.36c-.23.004-.495.081-.795.256-1.091.706-.87 2.592.343 2.915 1.95.428 2.062-3.194.452-3.17zm61.253.108c-.74-.007-1.526.46-1.537 1.204-.007.451.002.45-1.317.244-1.676-.263-1.679-.263-1.926-.418-.122-.076-.29-.139-.372-.14a.399.399 0 0 1-.218-.063c-.038-.034-.216-.105-.396-.158-.331-.098-.529-.178-.728-.293-.388-.226-.391-.226-.556.105-.158.316-.158.316.394.737 1.116.851 2.032 1.931 2.758 3.247.178.323.178.323-.186.574-.955.657-.8 2.005.29 2.501.615.281 1.105.176 1.55-.333.822-.94.374-2.14-.872-2.334-.377-.059-.377-.06-.482-.425-.166-.516-.898-1.32-.693-1.796.06 0 .392.152.739.336.35.186.831.344 1.23.597.976.647 1.173.774 1.48.96.318.183 1.042.249.826.06-.16-.153-1.18-.712-1.38-.898-.558-.41-1.184-.779-1.852-1.206-1.179-1.075-.444-.516 1.37-.572.311.017.386.053.563.273 1.17 1.45 3.382-.043 2.422-1.635-.234-.388-.662-.563-1.107-.567zm-73.083.588c-.08.006-.163.021-.245.047-.125.038-.178 1.933-.06 2.128.02.035-.01.374-.07.754-.058.38-.125.854-.147 1.054-.023.201-.094.526-.159.722a2.493 2.493 0 0 0-.12.597c-.002.132-.036.26-.076.284-.04.024-.074.112-.075.195-.002.134-.028.144-.239.088-1.553-.417-2.647 1.202-1.53 2.262 1.276 1.21 2.993-.536 1.972-2.004-.066-.095-.044-.168.114-.37.108-.14.197-.278.197-.308.519-.927.773-.674.842.333.025.262.071.527.103.59.058.117.085.293.198 1.333.035.312.086.608.115.655.191.317.142.71-.098.787-1.221.388-1.314 2.289-.143 2.9.889.462 1.725.182 2.166-.725.542-1.116-.029-2.224-1.155-2.24-.353-.005-.572-.103-.372-.168.069-.022.07-.117.008-.425a6.124 6.124 0 0 1-.076-1.016c.005-.701-.105-2.121-.19-2.451-.175-.69.094-1.242.296-.606.12.376 1.041 1.46 1.243 1.462.118.001.128.034.076.238-.469 1.81 2.062 2.476 2.669.702.408-1.194-1.362-2.293-2.213-1.373-.265.287-.35.218-.993-.814-.475-.76-.96-1.777-1.054-2.208a3.29 3.29 0 0 0-.15-.524 1 1 0 0 1-.062-.366 2.136 2.136 0 0 0-.066-.489c-.046-.168-.043-.28.008-.34.308-.362-.152-.749-.714-.704zm-10.754 2.609c-.469.016-.96.251-1.347.741-.673.853-.125 2.271.95 2.46l.362.062c.766.127 1.63-.798 1.585-1.696-.053-1.015-.768-1.595-1.55-1.567zm85.758.89c-1.908-.049-2.248 2.766-.382 3.16.36.076.366.076.72-.001 1.878-.412 1.59-3.108-.338-3.158zm24.197 3.652c-.424-.04-1.07.59-1.247 1.215-.372 1.317-.609 1.694-.767 1.22a2.69 2.69 0 0 0-.256-.517c-.806-1.223-.78-1.202-1.142-.903-.557.459-.72 1.717-.391 3.02.076.302.149.636.161.742.013.105.074.293.137.417.062.124.112.278.112.342-.003.277.32.473.646.394.366-.089.47-.017.24.164-.49.389-.455 1.894.043 1.899.176.002.032.199-.224.306-.51.215-.87.763-.92 1.398-.022.274-.055.356-.133.33-.897-.304-2.398.88-1.687 1.33.04.025.072.11.071.188.696 1.346 1.697.617 2.125-.648.004-.397.017-.405.411-.235.175.075.396.109.59.089.214-.022.34 0 .396.07.066.081.062.096-.017.065-.058-.023-.137.03-.185.124-.046.09-.141.27-.212.402-.118.22-.12.303-.01.673.06.206.222.44.305.441.729.358 1.084.25 1.75-.615.122-.62-.332-1.327-.86-1.333-.38-.004-.469-.109-.269-.319.087-.09.197-.29.244-.441.1-.321.182-.34.413-.09.95.92 3.466-2.022.79-1.926-.533-.006-1.127.48-1.132.927-.002.215-.045.198-.37-.146-.28-.299-.377-.563-.178-.484.772-.272 1.274-1.908.211-2.003.002-.146.735.06 1.415.397.496.246 1.13-.16 1.579-1.012.095-.18.27-.469.39-.642 1.471-2.137.85-3.8-.808-2.162-.619.612-.674.601-.61-.11.155-1.736-.03-2.512-.61-2.567zm-133.6.083c-.383-.004-.762 1.044-.734 2.032.017.59-.037.63-.476.353-.383-.242-1.352-.276-1.542-.054-.166.195-.169.296-.032.95.21 1.01.324 1.31.599 1.588.02.02.214.25.432.511s.527.6.686.754c.35.34.37.341.754.07.168-.12.331-.216.364-.215.032 0 .195-.097.36-.216.533-.384 1.695-.62 2.523-.514 1.154.148 1.636-4.25.502-4.589-.36-.108-.6.056-1.057.723-.43.627-.554.707-.657.425-.317-.86-1.22-1.813-1.722-1.818Zm74.606.467c.074-.005.252.069.553.22.28.14.653.282 1.003.418.263.123.709.266 1.87.6.25.071.251.074.072.127-2.303.844-1.952 2.104-3.428-1.113-.113-.164-.143-.247-.07-.252zm-15.99.02c.182.055.083.34-.124.909-.145.4-.297.873-.337 1.052-.04.178-.098.351-.131.383-.29-.206-.264-.47-.725-.484-.161-.145-.776-.455-1.139-.574-.65-.214-.664-.202.889-.805.92-.357 1.384-.534 1.566-.48zm-51.586 1.57a.597.597 0 0 0-.337.153.885.885 0 0 1-.274.15c-.318.093-1.08.915-1.623 1.752-.273.42-.568.86-.711 1.059-.208.287-.18.36.238.628.776.497 1.415 1.397 1.631 2.297.133.554.294.87.46.905.598.125 1.812-.05 2.492-.36.261-.118.512-.215.557-.214.142.001.863-.501 1.102-.768.556-.62-.016-1.191-1.265-1.265-.735-.043-.79-.096-.463-.439 1.953-2.044 1.781-2.894-.446-2.202-.85.264-.86.259-.865-.46 0-.02.022-.221.05-.447.058-.487-.216-.817-.546-.79zm119.398.56c-.585.017-.94.527-.779 1.354.146.746.177.716-.571.55-2.153-.475-2.907.749-1.384 2.247.448.44.448.44.239.528-.846.351-1.033.458-1.115.633-.473 1.01 2.386 2.26 4.148 1.813.43-.29.42-.269.678-.557.143-.71.345-1.123.34-.696-.01.85 1.473 1.072 1.97.296.524-.9-.086-1.93-1.177-1.709-.378.14.19-.613.631-.835.499-.25-.586-2.394-1.5-2.965a70.165 70.165 0 0 1-.568-.358c-.334-.214-.647-.308-.912-.3zm12.4 2.15c-.268.012-.618.105-1.041.29-.171.074-.566.247-.877.385-1.694.749-2.547 1.69-2.04 2.25.557.615.586 1.016.23 3.218-.017.104.023.153.14.17.09.015.274.132.408.261.29.278 1.514.639 2.302.678.698.032 2.15.182 2.185-.78.001-.674-.823-.895-1.505-1.38 0-.013.265-.127.588-.251 2.932-1.134 2.93-1.927-.007-2.456-.803-.144-.769-.088-.368-.604.87-1.119.793-1.815-.014-1.78zm-21.719.566c-.178-.038-.412.093-.712.483-.694.705-.907.958-1.155 1.37-.272.451-.364.48-.426.132-.167-.95-.91-1.845-1.268-1.528-.602.533-.894 1.98-.657 3.26.054.29.116.675.139.856.1.799.328 1.16.662 1.05.411-.136 1.961.165 2.392.465 1.469.888 1.776.665 3.016-1.118a.912.912 0 0 1 .136-.257c.05-.06.151-.273.226-.473.075-.2.16-.396.19-.436.101-.133.302-.894.353-1.335.071-.619-.543-.909-1.05-.496a7.52 7.52 0 0 1-.362.265c-.13.09-.396.298-.59.462-.517.437-.734.352-.532-.211.206-.743.173-2.376-.362-2.49zm-120.909.245c-1.936-.058-1.983.6-1.163 2.267-.156.04-.35.102-.518.159-.114.056-.538.252-.942.437-1.124.514-1.283.776-.706 1.167.317.288.727.454 1.178.56.229.078.486.143.572.144.63.007.737.285.27.711-.993.91-.996 1.378-.01 1.725.397.14 1.978-.22 2.417-.55.169-.127 1.407-.61 1.724-.816.168-.439-.4-1.041-.455-1.714-.155-.793.003-1.815.363-2.362.335-.508-1.509-1.675-2.73-1.728zm5.29.062c-.86.024-1.48.998-.79 1.726.164.188.262.447.57.481 1.334.157 1.993-1.453.841-2.056a1.256 1.256 0 0 0-.62-.15zm15.35.202a.303.303 0 0 0-.155.018c-.356.158-.745 1.614-.582 2.182.086.304-.057.313-.687.046-1.378-.585-1.852-.232-1.6 1.189.255 1.433 2.02 3.23 2.636 2.684.518-.457 1.67-.899 1.667-.639 0 .084-.067.118-.227.116-.639-.006-1.013 1.235-.525 1.745.209.191.39.327.615.374.369.004.364.086-.032.462-.41.389-.503.406-.743.143-.714-.78-2.11-.289-2.12.748-.003.223-.135.18-.161-.053-.024-.207-.008-.279.205-.973.068-.225.116-.438.106-.474-.01-.036.057-.203.147-.37.248-.462.077-.917-.498-1.326-.814-.578-1.06-.696-1.757-.841-.837-.175-2.162.107-2.166.46-.002.18-.152.11-.225-.106-.084-.249-.723-.746-1.447-1.125-.954-.5-3.176-.492-3.285.011-.087.405-.294.555-.29.211.004-.429-.922-1.028-1.281-.83-.392.217-.69.011-.859-.594-.06-.216-.144-.392-.187-.393-.043 0-.164-.063-.27-.14-.489-.353-1.185-.298-1.66.132-.318.286-.474.309-.471.07.007-.721-1.436-.904-1.996-.254-.29.376-.298 1.22.201 1.516.564.474 1.13.243 1.692-.075.187-.212.307-.16.306.136 0 .071.05.15.11.173.126.05.143.288.025.359-1.128.623-1.253 1.83-.22 2.27 1.067.42 2.117-.864 1.737-1.865-.133-.278-.171-.34.098-.434.323-.059.433.025.431.43.107.336.341.597.71.726.385.246.91-.087 1.181.066-.001.175-.761.787-1.263 1.017-.386.177-.401.581-.044 1.16.055.088.122.276.149.417.11.57.37 1.106.716 1.552h2.402a3.04 3.04 0 0 0-.175-.728c-.278-.729-.245-.74.898-.33.634.23 1.374.279 1.753.119.095-.04.136-.008.17.135.04.165.264.407.724.784.007.006.022.014.03.02h4.337c-.012-.087-.016-.156-.001-.17.026-.026.014-.086-.026-.136-.084-.103-.011-.345.085-.284.036.023.065.098.064.169-.002.136.119.29.283.421h1.693c.293-.265.343-.27.604 0h3.807c-.237-.215-.585-.367-1.044-.383-.317-.01-.317-.01-.322-.485-.003-.386.016-.47.103-.445.113.032.825.102 1.034.102.76 0 1.122-1.258.543-1.888-.806-.88-2.147-.202-1.925.973.06.312-.079.373-.368.162-.117-.085-.28-.156-.362-.157-.2-.002-.278-.15-.102-.193.243-.184.29-.457.412-.738.258-.51-.37-1.406-.991-1.413-.1 0-.115-.023-.057-.08.048-.047.387-.073.846-.066.924.014.885.045 1.263-1 .344-.951.449-1.95.266-2.526a6.118 6.118 0 0 1-.149-.546c-.18-.956-1.07-.728-1.668.426-.28.54-.56.361-.819-.52-.141-.482-.875-1.1-1.288-1.144zm-12.492.63c-1.258-.013-1.694 1.812-.505 2.113.618.157 1.243-.055 1.427-.484.31-.764-.126-1.458-.922-1.628zm66.778 1.918c.674.053.97.556.435.941-.46.093-.904-.045-1.298-.313a2.016 2.016 0 0 0-.61-.31c-.192-.053-.38-.126-.417-.16-.076-.07-.014-.078.654-.09.242-.003.657-.031.924-.061.111-.013.215-.015.312-.007zm-12.065 1.008c.571.006.46 1.035-.13 1.207a.996.996 0 0 0-.312.178c-.08.07-.28.163-.44.205-.463.121-.508.098-.297-.147.105-.123.192-.255.192-.295 0-.039.084-.19.186-.337.102-.147.186-.323.187-.391.002-.164.38-.422.614-.42zm15.129.528c.508.006.702.151 1.431 1.073.224.283.15.33-.207.131-.12-.066-.437-.138-.706-.16-.85-.07-1.338-1.052-.518-1.044zm53.252.245a.337.337 0 0 0-.148.042c-.094.05-.467.142-.829.207-1.52.272-2.025.496-2.72 1.205-.937.957-.744 1.42.593 1.423.692.002.776.03.537.175-.075.046-.158.185-.184.31-.065.309-.236.353-.474.123a1.091 1.091 0 0 0-.413-.243 1.034 1.034 0 0 1-.384-.208c-.13-.12-.283-.16-.692-.183-.987-.053-1.116-.14-.786-.53.155-.183.361-.48.459-.66.098-.18.21-.37.249-.421.218-.294-.19-.822-.638-.823-.628-.001-2.05.347-2.458.603-.18.113-.382.238-.446.277-1.434.875-1.5.986-1.097 1.838.124.262.235.61.246.775.011.165.04.422.064.572.05.378-.01.751-.143 1.11h3.862c-.23-.288-.152-.345.195-.428.36-.087.749-.231 1.263-.469.438-.202.562-.212.543-.04-.05.446-.013.755.124.937h1.266c.17-.066.353-.146.556-.245.992-.484 1.121-.453.932.245h2.315c.31-.475.577-1.115.77-1.87.162-.631.2-.572-.644-1.01-.726-.377-1.555-1.403-1.55-1.917.001-.13-.03-.256-.07-.281-.04-.025-.071-.122-.07-.216.002-.189-.092-.3-.228-.298zm-46.845.58c-.626.053-.928.933-.463 2.298.148.432.14.48-.094.595-.327.16-.534.427-.537.694-.003.243-.003.243-.34.058-.608-.331-.907-.217-1.248.474-.158.322-.197.328-.817.126-.956-.31-1.483.029-1.33.767h3.901c.034-.529.07-.585.227-.34.067.104.146.19.175.19.16.002.31.063.445.15h3.491c.112-.07.24-.14.385-.206.458-.208.504-.28.693-1.081.183-.772.041-1.08-.554-1.205-.306-.064-.305-.064-.304-.665.002-1.11-.625-1.425-1.49-.747-.317.248-.387.227-.758-.235-.514-.638-1.007-.904-1.382-.872zm-27.967.13c-.172.023-.359.143-.652.372-.546.425-.51.423-1.131.088-.798-.43-1.398-.057-1.408.874-.005.457-.053.512-.442.508-1.451-.016-1.063 1.644.595 2.545.4.217.62.375.675.495h2.133c.11-.09.277-.165.765-.366.381-.156.92-.607.922-.772 0-.052.036-.095.08-.094.074 0 .055.407-.051 1.09-.008.05-.023.095-.035.142h3.583a.406.406 0 0 0 .019-.226c-.184-.596-.594-.79-1.39-.66-.31.052-.311.052-.308-.236.008-.706-.853-1.075-1.373-.588-.258.243-.31.237-.253-.027.074-.351-.205-.854-.534-.963-.37-.123-.38-.143-.256-.473.267-.706.158-1.136-.377-1.5-.234-.158-.39-.232-.562-.209zm62.13.286c-.796-.01-1.249 1.29-.647 1.863.236.225.207.28-.216.41-.445.138-.5.116-.498-.193.008-.881-1.175-1.457-1.827-.889-.99.861-.193 2.364 1.04 1.96.43-.14.432-.139.364.332-.054.379-.054.38-.317.317-.88-.209-1.528.14-1.598.796h2.332a.232.232 0 0 1 .07 0h1.528c-.03-.038-.017-.067.059-.066.038 0 .172-.146.299-.325.271-.386.306-.391.73-.102.958.65 2.136-.403 1.61-1.44-.26-.512-.46-.619-1.135-.608-.277.004-.359.048-.675.366-.422.424-.427.425-.692.142-.203-.217-.203-.217.127-.373 1.277-.603.88-2.173-.553-2.19zm-43.907.342c.04.013.063.054.062.127-.003.3-.288.664-.666.851-.182.09-.372.165-.422.165-.099.001-.125-.117-.035-.156.03-.013.188-.196.35-.407.306-.396.59-.617.71-.58zm-59.91.198c.01.002.015.009.015.02-.001.13.286.518.745 1.006.471.502.475.615.019.612-.377-.003-1.63.286-1.75.404-.11.108-.35.11-.35.003 0-.043-.194-.28-.432-.526-.28-.49-.686-.63-1.082-.954-.004-.07.415-.122.98-.12.28.001.61-.028.732-.064.122-.035.342-.084.49-.106.146-.023.352-.109.457-.19.08-.06.148-.092.177-.085zm123.976.072c-.192.03-.42.179-.753.48-.412.372-.873.713-.964.712-.035 0-.258.085-.495.19-.337.15-.564.196-1.037.206-.669.016-.746.04-.748.23 0 .086-.098.16-.294.223-.161.05-.294.136-.294.189-.001.096-.09.295-.607 1.37-.051.108-.111.254-.168.384h1.02c.005-.002.009 0 .013 0h5.006c-.012-.03-.02-.06-.032-.09-.201-.495.012-.5.887-.018.081.045.152.072.228.108h1.227c.141-.226.135-.618-.044-1.166-.253-.771-1.112-2.026-1.388-2.029-.025 0-.128-.08-.231-.178-.196-.186-.833-.52-1.146-.602a.436.436 0 0 0-.18-.009zm-135.582.073a.259.259 0 0 0-.09.026c-.194.087-1.356 1.126-1.56 1.394-.081.107-.235.304-.342.438-.694.87-.942 1.606-.833 2.053h1.943l.035-.02c.184-.113.28-.131.321.02h5.34c-.082-.336-.168-.649-.263-1.006-.128-.81-.317-1.256-.593-1.397-1.025-.635-2.625-.024-3.635-1.264-.163-.185-.239-.249-.323-.244Zm61.27.12c.39.003.576 1.207.241 1.554-.338.35-.378.34-.37-.077a4.576 4.576 0 0 0-.05-.693c-.054-.328.05-.786.179-.785zm12.13.197c.164.012.207.475.1 1.193-.077.51-.112.517-.318.07-.235-.512-.174-1.047.14-1.24a.132.132 0 0 1 .078-.023zm41.535 2.284c.042.004.088.049.132.134.056.107.045.15-.042.182-.194.072-.278-.014-.202-.207.03-.078.07-.114.112-.11zm-124.744.053c-.32.048-.575.472-.693 1.257H39.8c-.403-.893-.837-1.31-1.193-1.257zm155.481.317c-.34-.012-.768.304-1.182.94h1.839c-.078-.613-.326-.928-.657-.94zm-3.111.262a.512.512 0 0 0-.374.194c-.117.133-.216.3-.302.484h1.476c-.236-.435-.528-.684-.8-.678zm-149.23.098c-.27-.01-.568.169-.849.58h1.547c-.164-.352-.414-.57-.699-.58zm117.149.042a.604.604 0 0 0-.337.106c-.046.035-.248.104-.45.154a5.503 5.503 0 0 0-.794.278h2.48c0-.009-.005-.02-.006-.029-.033-.299-.508-.526-.894-.509zm-86.19.427c-.25.008-.472.048-.658.111h1.66a3.922 3.922 0 0 0-1.001-.11z" style="fill:url(#a);stroke-width:.073023"/><path d="M31.79 36.965h168.799v74.613H31.79z" style="display:inline;fill:#f2efe5;stroke:#241d15;stroke-width:1.32292;stroke-linecap:round;stroke-linejoin:round;stroke-dasharray:none;stroke-dashoffset:0;stroke-opacity:1;stop-color:#000;opacity:1"/><path d="M36.982 41.876h158.414v64.79H36.982z" style="display:inline;fill:#f2efe5;stroke:#241d15;stroke-width:1.32292;stroke-linecap:round;stroke-linejoin:round;stroke-dasharray:10.5833,2.64581,1.32292,2.64581;stroke-dashoffset:0;stroke-opacity:1;stop-color:#000;opacity:1"/></svg>