<?xml version="1.0" encoding="UTF-8" standalone="no"?>
<svg
   xml:space="preserve"
   width="875"
   height="287"
   viewBox="0 0 231.51 75.935"
   version="1.1"
   id="svg5038"
   sodipodi:docname="popup_2.svg"
   inkscape:version="1.2.2 (b0a8486541, 2022-12-01)"
   xmlns:inkscape="http://www.inkscape.org/namespaces/inkscape"
   xmlns:sodipodi="http://sodipodi.sourceforge.net/DTD/sodipodi-0.dtd"
   xmlns="http://www.w3.org/2000/svg"
   xmlns:svg="http://www.w3.org/2000/svg"><defs
     id="defs5042" /><sodipodi:namedview
     id="namedview5040"
     pagecolor="#ffffff"
     bordercolor="#999999"
     borderopacity="1"
     inkscape:showpageshadow="0"
     inkscape:pageopacity="0"
     inkscape:pagecheckerboard="0"
     inkscape:deskcolor="#d1d1d1"
     showgrid="false"
     inkscape:zoom="1.3794286"
     inkscape:cx="254.81565"
     inkscape:cy="97.141672"
     inkscape:window-width="1920"
     inkscape:window-height="1051"
     inkscape:window-x="0"
     inkscape:window-y="0"
     inkscape:window-maximized="1"
     inkscape:current-layer="svg5038" /><path
     d="m 206.1005,61.689958 c -0.254,-0.125 -0.879,-0.348 -1.441,-0.515 -0.471,-0.129 -2.105,-1.04 -1.236,-1.272 1.317,0.029 3.38,0.78 4.513,0.26 0.207,-0.118 0.417,-0.233 0.628,-0.342 0.446,-0.228 0.763,-0.84 0.969,-1.868 0.365,-1.202 1.557,-2.376 2.826,-2.7 0.18,-0.04 0.357,-0.09 0.533,-0.148 0.32,-0.109 0.632,-0.112 1.048,-0.013 1.571,0.374 2.498,-0.397 2.56,-2.132 0.02,-0.448 0.05,-0.895 0.092,-1.342 0.086,-0.888 0.033,-1.057 -0.356,-1.133 -0.986,-0.275 -1.919,-1.235 -2.135,-2.127 a 22.128,22.128 0 0 0 -0.084,-0.635 c -0.065,-0.422 0.582,-1.239 1.22,-1.539 0.666,-0.312 0.788,-0.526 0.544,-0.946 -0.326,-0.954 -1.787,-4.327 -2.872,-4.082 -0.06,0.02 -0.373,0.396 -0.697,0.835 -0.325,0.44 -0.765,0.954 -0.979,1.143 -0.213,0.19 -0.527,0.528 -0.696,0.754 -0.806,1.07 -1.963,1.692 -3.09,1.66 -1.192,-0.033 -1.538,0.412 -0.733,0.942 1.276,1 2.469,2.685 2.843,4.038 0.63,1.822 -0.133,2.702 -0.825,0.949 -0.344,-0.873 -0.632,-0.986 -2.557,-1.005 -1.692,-0.016 -1.722,-0.025 -2.546,-0.797 -0.678,-0.636 -0.76,-0.617 -0.912,0.205 -0.042,0.227 -0.161,0.686 -0.265,1.018 -0.104,0.333 -0.19,0.654 -0.192,0.716 -0.008,0.202 -0.606,0.959 -1.02,1.292 -0.745,0.595 -1.07,0.828 -1.162,0.826 -0.118,-0.002 -0.456,0.35 -0.603,0.63 -0.302,0.575 -0.417,0.836 -0.42,0.955 -0.007,0.288 -0.17,0.692 -0.294,0.727 -0.491,0.136 -0.71,-0.762 -0.507,-2.091 0.185,-1.208 0.23,-1.91 0.153,-2.397 -0.038,-0.247 -0.08,-0.897 -0.093,-1.444 -0.031,-1.34 -0.331,-1.809 -0.879,-1.375 -0.597,0.475 -0.902,0.532 -1.33,0.25 -0.894,-0.586 -1.178,-1.173 -0.84,-1.733 0.662,-1.094 0.984,-1.253 2.116,-1.048 0.853,0.156 0.812,0.241 0.862,-1.79 0.03,-1.208 0.02,-1.775 -0.033,-1.873 -0.05,-0.09 -0.071,-0.591 -0.063,-1.42 0.007,-0.705 0,-1.525 -0.016,-1.825 -0.074,-1.312 -0.056,-2.648 0.041,-3.133 0.039,-0.193 0.066,-0.711 0.063,-1.15 -0.004,-0.44 -0.008,-1.377 -0.008,-2.08 0,-0.705 -0.034,-1.462 -0.074,-1.684 -0.057,-0.318 -0.045,-0.798 0.055,-2.238 0.142,-2.064 0.144,-2.06 -0.37,-2.068 -0.223,-0.005 -0.746,0.189 -0.825,0.304 -0.25,0.363 -1.375,0.332 -1.656,-0.045 -1.046,-1.404 1.064,-3.285 2.24,-1.999 0.38,0.415 0.595,0.134 0.61,-0.795 0.008,-0.414 0.075,-1.223 0.15,-1.796 0.113,-0.862 0.124,-1.111 0.064,-1.438 -0.08,-0.431 -0.067,-1.693 0.024,-2.33 0.045,-0.317 0.033,-0.453 -0.057,-0.656 -0.33,-0.736 0.11,-2.261 0.565,-1.96 0.16,0.105 0.506,0.953 0.503,1.233 -0.002,0.112 0.068,0.348 0.155,0.526 0.087,0.178 0.158,0.36 0.157,0.403 0,0.044 0.098,0.19 0.218,0.324 0.121,0.134 0.237,0.294 0.259,0.355 0.021,0.06 0.154,0.181 0.294,0.27 0.141,0.088 0.341,0.272 0.445,0.41 0.104,0.139 0.376,0.443 0.604,0.676 1.5,1.534 1.64,1.98 1.277,4.055 -0.167,0.954 0.019,1.008 0.872,0.25 0.842,-0.748 1.558,-0.936 2.964,-0.778 0.495,0.055 1.024,-0.253 1.507,-0.88 0.553,-0.718 0.705,-0.784 1.03,-0.448 0.253,0.26 0.259,1.154 0.011,1.69 -0.29,0.86 -1.023,1.55 -1.428,2.101 0,0.03 -0.219,0.24 -0.485,0.469 -0.765,0.654 -0.72,0.714 0.609,0.785 2.735,0.763 3.98,2.476 5.406,4.135 0.535,0.293 0.672,0.208 0.957,-0.143 0.153,-0.174 0.294,-0.359 0.421,-0.555 0.289,-0.444 1.345,-1.864 1.577,-2.119 0.414,-0.456 0.375,-0.729 -0.179,-1.26 -1.012,-0.97 -0.689,-2.74 0.545,-2.978 1.076,-0.206 1.343,-0.464 1.366,-1.322 0.035,-1.213 -0.85,-2.505 -1.89,-2.763 -0.147,-0.038 -1.161,-0.42 -2.27,-0.86 -0.816,-0.48 -1.002,-1.114 -1.207,-1.875 l -0.247,-0.563 c -0.123,-0.282 -0.37,-0.57 -1.148,-1.345 -1.09,-1.083 -1.243,-1.168 -1.86,-1.018 -0.879,0.212 -1.826,-0.102 -1.478,-0.49 0.413,-0.463 0.98,-0.482 1.941,-0.067 1.013,0.245 2.064,0.6 2.942,0.907 1.727,0.772 3.945,1.885 4.828,3.561 0.175,0.35 0.382,0.713 0.46,0.806 0.08,0.092 0.203,0.333 0.276,0.536 l 0.255,0.709 c 0.417,1.158 0.69,1.329 1.258,0.787 0.227,-0.206 0.473,-0.387 0.734,-0.541 2.573,-2.113 7.169,0.353 7.338,2.76 -0.003,0.107 0.025,0.295 0.062,0.418 0.236,0.784 0.152,1.385 -0.184,1.315 -0.272,-0.057 -0.37,-0.198 -0.413,-0.591 -0.06,-0.574 -0.091,-0.66 -0.421,-1.204 -0.646,-1.063 -1.19,-1.223 -2.168,-0.637 -0.649,0.389 -1.653,0.37 -2.259,-0.044 -2.15,-0.931 -2.186,-0.465 -3.198,0.449 -0.833,0.748 -0.877,1.436 -0.116,1.822 0.758,0.655 0.343,2.194 -0.686,2.541 -0.812,0.24 -0.856,0.286 -1.09,1.168 -0.683,1.178 -1.43,2.171 -2.349,2.994 -0.924,0.822 -0.969,1 -0.36,1.417 0.172,0.118 0.516,0.376 0.763,0.574 0.579,0.463 0.8,0.61 1.272,0.848 0.211,0.106 0.422,0.222 0.467,0.259 0.223,0.176 1.33,0.424 1.95,0.436 0.805,0.015 0.827,-0.003 1.18,-0.959 0.273,-0.741 0.273,-0.741 1.036,-1.445 1.326,-1.226 1.6,-1.72 1.609,-2.89 0.004,-0.707 0.098,-0.9 0.433,-0.894 0.117,0.002 0.404,0.257 0.402,0.357 0,0.03 0.072,0.212 0.163,0.404 0.104,0.235 0.178,0.483 0.221,0.738 0.074,0.53 0.196,1.05 0.363,1.556 0.155,0.447 0.082,0.748 -0.335,1.375 -0.863,1.298 -0.809,1.632 0.179,1.095 0.246,-0.134 0.545,-0.26 0.663,-0.28 0.217,-0.044 0.433,-0.094 0.648,-0.152 0.517,-0.136 1.226,-0.131 1.598,0.012 0.155,0.058 0.313,0.11 0.472,0.155 1.015,0.442 1.838,1.292 3.002,1.604 1.924,0.486 -1.183,1.169 -1.99,1.37 -0.32,0.077 -0.757,0.25 -1.1,0.435 -0.893,0.484 -1.616,0.29 -2.808,-0.395 -0.73,-0.422 -0.942,-0.303 -0.817,0.46 0.043,0.258 0.074,0.52 0.093,0.782 l 0.046,0.896 c 0.035,0.658 -0.138,1.249 -0.502,1.714 -0.107,0.137 -0.195,0.276 -0.196,0.308 -0.002,0.075 -0.915,1.174 -1.1,1.324 -0.375,0.303 -0.543,-0.284 -0.301,-1.051 0.312,-0.994 0.221,-1.677 -0.288,-2.169 -0.962,-0.928 -1.732,-1.973 -1.724,-2.34 -0.818,-1.325 -3.909,0.033 -4.524,0.63 a 5.7,5.7 0 0 1 -0.637,0.545 c -0.358,0.237 -1.39,1.165 -1.391,1.252 3.08,1.18 2.194,4.567 4.35,6.168 0.449,0.212 0.588,0.38 0.747,0.904 0.376,0.762 0.167,1.445 -0.073,2.05 -0.054,0.24 -0.31,0.548 -0.87,1.048 -0.77,0.688 1.011,2.314 2.206,2.015 0.952,-0.24 1.14,-0.356 1.405,-0.878 0.627,-1.231 1.615,-1.6 2.802,-1.045 1.214,0.568 2.484,-0.156 2.857,-1.631 0.133,-0.526 0.32,-0.755 0.45,-0.551 -0.003,1.012 -0.527,2.357 -1.208,3.172 -0.923,0.84 -2.095,2.146 -3.243,2.318 -0.665,0.074 -1.345,0.058 -2.252,-0.054 -1.177,-0.146 -1.493,-0.241 -2.433,-0.728 -0.607,-0.315 -0.749,-0.235 -0.835,0.465 -0.146,1.2 -0.174,1.32 -0.405,1.714 -0.127,0.216 -0.253,0.527 -0.281,0.69 -0.125,0.42 -0.292,0.882 -0.458,1.232 -0.21,0.438 -0.355,0.633 -0.828,1.11 a 8.8,8.8 0 0 0 -0.416,0.455 c -0.882,1.038 -2.032,1.7 -3.113,2.455 -1.31,0.562 -4.625,0.865 -5.936,0.606 z m -3.688,-13.903 c 1,-0.634 0.172,-2.394 -1.033,-2.193 -0.407,0.068 -0.935,1.194 -0.751,1.599 0.218,0.48 1.362,0.861 1.784,0.594 z m 4.065,-6.759 c 1.49,-0.374 2.921,-0.932 3.16,-1.706 -0.052,-0.222 -0.177,-0.29 -0.373,-0.473 -0.674,-0.649 -0.983,-0.501 -2.037,-0.778 -0.947,-0.16 -1.664,-0.088 -2.663,-0.215 -0.053,-0.032 -0.402,-0.085 -0.775,-0.118 -1.059,-0.092 -1.413,-0.357 -1.096,-0.819 0.128,-0.186 0.14,-0.25 0.081,-0.42 -0.204,-0.602 -0.01,-0.712 1.386,-0.79 0.819,-0.047 1.104,-0.089 1.392,-0.205 0.195,-0.08 0.397,-0.14 0.603,-0.183 1.194,-0.437 2.697,-0.484 3.61,-1.02 0.179,-0.208 -0.024,-0.467 -0.501,-0.64 -1.729,-0.63 -1.551,-0.597 -3.467,-0.651 -1.938,-0.055 -1.846,-0.068 -2.59,0.38 -0.723,0.437 -1.555,1.988 -1.383,2.58 0.048,0.165 0.044,0.376 -0.013,0.712 l -0.123,0.738 c -0.055,0.336 0.051,0.74 0.26,0.984 0.089,0.107 0.195,0.29 0.234,0.408 0.22,0.666 1.28,1.683 2.001,1.922 0.46,0.22 0.89,0.359 1.246,0.334 0.349,-0.024 0.698,-0.037 1.048,-0.04 z m 5.464,-2.104 c 1.412,-0.629 3.178,-1.393 4.367,-2.24 0.59,-0.448 0.423,-0.609 -1.2,-1.154 -0.946,-0.467 -1.704,-0.556 -2.685,-0.788 -1.992,0.603 -3.907,1.15 -5.522,1.499 -0.356,0.077 -0.827,0.166 -1.048,0.197 -0.651,0.094 -0.595,0.23 0.132,0.325 0.254,0.034 0.84,0.145 1.303,0.248 1.485,0.227 2.997,0.842 4.037,1.693 0.285,0.255 0.531,0.343 0.616,0.22 z m 10.487,-2.018 c 0.444,-0.299 0.353,-1.006 -0.152,-1.179 -0.993,-0.342 -1.768,0.497 -1.13,1.222 0.15,0.17 1.009,0.14 1.283,-0.043 z m -19.515,-8.831 c 0.466,-0.27 0.768,-1.032 0.565,-1.427 -0.756,-1.474 -2.585,-0.808 -2.093,0.763 0.161,0.512 0.406,0.73 0.888,0.787 0.265,0.075 0.437,-0.016 0.64,-0.123 z m -5.174,7.312 c 0.003,-0.122 0.018,-0.172 0.034,-0.111 a 0.493,0.493 0 0 1 -0.006,0.224 c -0.019,0.06 -0.031,0.01 -0.029,-0.113 z m -172.331,26.303 c 0.255,-0.125 0.88,-0.348 1.442,-0.515 0.471,-0.129 2.104,-1.04 1.236,-1.272 -1.317,0.029 -3.38,0.78 -4.513,0.26 a 16.599,16.599 0 0 0 -0.629,-0.342 c -0.446,-0.228 -0.762,-0.84 -0.968,-1.868 -0.365,-1.202 -1.557,-2.376 -2.826,-2.7 a 5.884,5.884 0 0 1 -0.533,-0.148 c -0.321,-0.109 -0.632,-0.112 -1.048,-0.013 -1.572,0.374 -2.499,-0.397 -2.56,-2.132 -0.02,-0.448 -0.05,-0.895 -0.093,-1.342 -0.085,-0.888 -0.032,-1.057 0.357,-1.133 0.986,-0.275 1.919,-1.235 2.134,-2.127 0.027,-0.222 0.065,-0.508 0.085,-0.635 0.065,-0.422 -0.583,-1.239 -1.22,-1.539 -0.666,-0.312 -0.788,-0.526 -0.544,-0.946 0.326,-0.954 1.787,-4.327 2.872,-4.082 0.06,0.02 0.373,0.396 0.697,0.835 0.324,0.44 0.765,0.954 0.978,1.143 0.214,0.19 0.528,0.528 0.697,0.754 0.806,1.07 1.963,1.692 3.089,1.66 1.193,-0.033 1.539,0.412 0.734,0.942 -1.277,1 -2.47,2.685 -2.843,4.038 -0.63,1.822 0.133,2.702 0.824,0.949 0.344,-0.873 0.632,-0.986 2.557,-1.005 1.693,-0.016 1.723,-0.025 2.546,-0.797 0.679,-0.636 0.76,-0.617 0.912,0.205 0.043,0.227 0.162,0.686 0.265,1.018 0.104,0.333 0.19,0.654 0.193,0.716 0.008,0.202 0.605,0.959 1.02,1.292 0.745,0.595 1.07,0.828 1.162,0.826 0.118,-0.002 0.456,0.35 0.602,0.63 0.303,0.575 0.418,0.836 0.42,0.955 0.008,0.288 0.171,0.692 0.294,0.727 0.492,0.136 0.71,-0.762 0.508,-2.091 -0.185,-1.208 -0.23,-1.91 -0.154,-2.397 0.039,-0.247 0.08,-0.897 0.094,-1.444 0.031,-1.34 0.331,-1.809 0.878,-1.375 0.598,0.475 0.903,0.532 1.331,0.25 0.894,-0.586 1.178,-1.173 0.84,-1.733 -0.662,-1.094 -0.984,-1.253 -2.117,-1.048 -0.852,0.156 -0.811,0.241 -0.862,-1.79 -0.03,-1.208 -0.02,-1.775 0.034,-1.873 0.05,-0.09 0.071,-0.591 0.062,-1.42 -0.007,-0.705 0,-1.525 0.017,-1.825 0.073,-1.312 0.056,-2.648 -0.041,-3.133 -0.039,-0.193 -0.067,-0.711 -0.063,-1.15 0.004,-0.44 0.008,-1.377 0.008,-2.08 0,-0.705 0.034,-1.462 0.074,-1.684 0.057,-0.318 0.045,-0.798 -0.054,-2.238 -0.143,-2.064 -0.144,-2.06 0.37,-2.068 0.222,-0.005 0.745,0.189 0.824,0.304 0.25,0.363 1.375,0.332 1.656,-0.045 1.046,-1.404 -1.064,-3.285 -2.24,-1.999 -0.38,0.415 -0.595,0.134 -0.61,-0.795 a 19.629,19.629 0 0 0 -0.15,-1.796 c -0.113,-0.862 -0.124,-1.111 -0.064,-1.438 0.08,-0.431 0.067,-1.693 -0.024,-2.33 -0.045,-0.317 -0.032,-0.453 0.057,-0.656 0.33,-0.736 -0.11,-2.261 -0.565,-1.96 -0.16,0.105 -0.506,0.953 -0.503,1.233 0.002,0.112 -0.067,0.348 -0.155,0.526 -0.087,0.178 -0.158,0.36 -0.157,0.403 0,0.044 -0.097,0.19 -0.218,0.324 -0.121,0.134 -0.237,0.294 -0.259,0.355 -0.02,0.06 -0.153,0.181 -0.294,0.27 a 1.995,1.995 0 0 0 -0.445,0.41 9.318,9.318 0 0 1 -0.604,0.676 c -1.5,1.534 -1.64,1.98 -1.277,4.055 0.167,0.954 -0.019,1.008 -0.872,0.25 -0.842,-0.748 -1.558,-0.936 -2.964,-0.778 -0.495,0.055 -1.024,-0.253 -1.507,-0.88 -0.553,-0.718 -0.705,-0.784 -1.03,-0.448 -0.253,0.26 -0.259,1.154 -0.011,1.69 0.29,0.86 1.023,1.55 1.428,2.101 0,0.03 0.219,0.24 0.485,0.469 0.765,0.654 0.72,0.714 -0.609,0.785 -2.735,0.763 -3.98,2.476 -5.406,4.135 -0.535,0.293 -0.672,0.208 -0.957,-0.143 a 4.7,4.7 0 0 1 -0.421,-0.555 c -0.289,-0.444 -1.345,-1.864 -1.576,-2.119 -0.415,-0.456 -0.376,-0.729 0.178,-1.26 1.012,-0.97 0.689,-2.74 -0.545,-2.978 -1.076,-0.206 -1.343,-0.464 -1.366,-1.322 -0.034,-1.213 0.85,-2.505 1.89,-2.763 0.148,-0.038 1.161,-0.42 2.27,-0.86 0.816,-0.48 1.002,-1.114 1.207,-1.875 l 0.247,-0.563 c 0.123,-0.282 0.37,-0.57 1.148,-1.345 1.09,-1.083 1.243,-1.168 1.86,-1.018 0.88,0.212 1.826,-0.102 1.478,-0.49 -0.413,-0.463 -0.98,-0.482 -1.941,-0.067 -1.013,0.245 -2.064,0.6 -2.942,0.907 -1.727,0.772 -3.945,1.885 -4.828,3.561 -0.175,0.35 -0.382,0.713 -0.46,0.806 -0.079,0.092 -0.203,0.333 -0.276,0.536 l -0.255,0.709 c -0.416,1.158 -0.69,1.329 -1.258,0.787 a 4.456,4.456 0 0 0 -0.734,-0.541 c -2.5729995,-2.113 -7.1689995,0.353 -7.3379995,2.76 a 1.61,1.61 0 0 1 -0.062,0.418 c -0.236,0.784 -0.152,1.385 0.184,1.315 0.273,-0.057 0.37,-0.198 0.413,-0.591 0.06,-0.574 0.091,-0.66 0.421,-1.204 0.646,-1.063 1.19,-1.223 2.168,-0.637 0.649,0.389 1.653,0.37 2.259,-0.044 2.1499995,-0.931 2.1859995,-0.465 3.1979995,0.449 0.833,0.748 0.877,1.436 0.117,1.822 -0.759,0.655 -0.343,2.194 0.685,2.541 0.812,0.24 0.857,0.286 1.09,1.168 0.684,1.178 1.43,2.171 2.349,2.994 0.924,0.822 0.969,1 0.36,1.417 -0.172,0.118 -0.516,0.376 -0.763,0.574 -0.578,0.463 -0.8,0.61 -1.272,0.848 a 4.573,4.573 0 0 0 -0.467,0.259 c -0.223,0.176 -1.33,0.424 -1.95,0.436 -0.805,0.015 -0.827,-0.003 -1.18,-0.959 -0.273,-0.741 -0.273,-0.741 -1.036,-1.445 -1.3259995,-1.226 -1.5999995,-1.72 -1.6079995,-2.89 -0.005,-0.707 -0.099,-0.9 -0.434,-0.894 -0.117,0.002 -0.404,0.257 -0.401,0.357 0,0.03 -0.073,0.212 -0.164,0.404 a 3.14,3.14 0 0 0 -0.221,0.738 8.859,8.859 0 0 1 -0.363,1.556 c -0.155,0.447 -0.082,0.748 0.335,1.375 0.863,1.298 0.809,1.632 -0.179,1.095 -0.246,-0.134 -0.545,-0.26 -0.662,-0.28 a 10.416,10.416 0 0 1 -0.649,-0.152 c -0.517,-0.136 -1.225,-0.131 -1.598,0.012 -0.155,0.058 -0.313,0.11 -0.472,0.155 -1.015,0.442 -1.838,1.292 -3.002,1.604 -1.924,0.486 1.183,1.169 1.99,1.37 0.321,0.077 0.757,0.25 1.1,0.435 0.893,0.484 1.617,0.29 2.808,-0.395 0.731,-0.422 0.943,-0.303 0.817,0.46 -0.042,0.258 -0.073,0.52 -0.092,0.782 l -0.047,0.896 c -0.035,0.658 0.138,1.249 0.502,1.714 0.107,0.137 0.195,0.276 0.196,0.308 0.002,0.075 0.915,1.174 1.1,1.324 0.375,0.303 0.543,-0.284 0.301,-1.051 -0.312,-0.994 -0.221,-1.677 0.287999,-2.169 0.9620005,-0.928 1.7320005,-1.973 1.7240005,-2.34 0.818,-1.325 3.909,0.033 4.524,0.63 0.214,0.21 0.501,0.456 0.637,0.545 0.358,0.237 1.39,1.165 1.391,1.252 -3.08,1.18 -2.193,4.567 -4.35,6.168 -0.449,0.212 -0.588,0.38 -0.747,0.904 -0.376,0.762 -0.167,1.445 0.073,2.05 0.054,0.24 0.31,0.548 0.87,1.048 0.77,0.688 -1.01,2.314 -2.206,2.015 -0.952,-0.24 -1.14,-0.356 -1.405,-0.878 -0.6269995,-1.231 -1.6139995,-1.6 -2.8019995,-1.045 -1.214,0.568 -2.484,-0.156 -2.857,-1.631 -0.133,-0.526 -0.32,-0.755 -0.45,-0.551 0.004,1.012 0.527,2.357 1.208,3.172 0.923,0.84 2.095,2.146 3.243,2.318 0.665,0.074 1.344999,0.058 2.2519995,-0.054 1.177,-0.146 1.493,-0.241 2.433,-0.728 0.607,-0.315 0.749,-0.235 0.835,0.465 0.146,1.2 0.175,1.32 0.405,1.714 0.127,0.216 0.253,0.527 0.281,0.69 0.125,0.42 0.292,0.882 0.458,1.232 0.21,0.438 0.355,0.633 0.828,1.11 0.128,0.13 0.314,0.334 0.416,0.455 0.882,1.038 2.032,1.7 3.113,2.455 1.31,0.562 4.625,0.865 5.936,0.606 z m 3.689,-13.903 c -1.001,-0.634 -0.172,-2.394 1.033,-2.193 0.406,0.068 0.935,1.194 0.751,1.599 -0.219,0.48 -1.362,0.861 -1.784,0.594 z m -4.066,-6.759 c -1.489,-0.374 -2.92,-0.932 -3.16,-1.706 0.052,-0.222 0.178,-0.29 0.374,-0.473 0.674,-0.649 0.982,-0.501 2.037,-0.778 0.947,-0.16 1.663,-0.088 2.663,-0.215 0.053,-0.032 0.401,-0.085 0.775,-0.118 1.059,-0.092 1.413,-0.357 1.096,-0.819 -0.128,-0.186 -0.14,-0.25 -0.082,-0.42 0.205,-0.602 0.011,-0.712 -1.385,-0.79 -0.82,-0.047 -1.104,-0.089 -1.392,-0.205 a 3.507,3.507 0 0 0 -0.603,-0.183 c -1.194,-0.437 -2.698,-0.484 -3.61,-1.02 -0.179,-0.208 0.024,-0.467 0.5,-0.64 1.73,-0.63 1.552,-0.597 3.468,-0.651 1.938,-0.055 1.845,-0.068 2.59,0.38 0.723,0.437 1.555,1.988 1.383,2.58 -0.048,0.165 -0.044,0.376 0.013,0.712 l 0.123,0.738 c 0.055,0.336 -0.051,0.74 -0.26,0.984 -0.09,0.107 -0.195,0.29 -0.235,0.408 -0.22,0.666 -1.28,1.683 -2,1.922 -0.46,0.22 -0.891,0.359 -1.246,0.334 a 17.88,17.88 0 0 0 -1.049,-0.04 z m -5.463,-2.104 c -1.412,-0.629 -3.179,-1.393 -4.367,-2.24 -0.59,-0.448 -0.423,-0.609 1.2,-1.154 0.946,-0.467 1.704,-0.556 2.685,-0.788 1.992,0.603 3.907,1.15 5.522,1.499 0.356,0.077 0.827,0.166 1.048,0.197 0.65,0.094 0.595,0.23 -0.132,0.325 -0.254,0.034 -0.84,0.145 -1.303,0.248 -1.485,0.227 -2.997,0.842 -4.037,1.693 -0.285,0.255 -0.531,0.343 -0.616,0.22 z m -10.4869995,-2.018 c -0.445,-0.299 -0.353,-1.006 0.152,-1.179 0.9929995,-0.342 1.7679995,0.497 1.1299995,1.222 -0.15,0.17 -1.0099995,0.14 -1.2829995,-0.043 z m 19.5139995,-8.831 c -0.465,-0.27 -0.767,-1.032 -0.564,-1.427 0.756,-1.474 2.585,-0.808 2.093,0.763 -0.161,0.512 -0.406,0.73 -0.888,0.787 -0.266,0.075 -0.437,-0.016 -0.64,-0.123 z m 5.175,7.312 c -0.003,-0.122 -0.018,-0.172 -0.034,-0.111 a 0.498,0.498 0 0 0 0.006,0.224 c 0.018,0.06 0.03,0.01 0.028,-0.113 z"
     style="fill:#241d15;fill-opacity:1;stroke-width:0.065768"
     id="path3455" /><path
     d="M31.79.661h168.799v74.613H31.79Z"
     style="display:inline;opacity:1;fill:#ddaca2;stroke:#241d15;stroke-width:1.05833143;stroke-linecap:round;stroke-linejoin:round;stroke-dasharray:none;stroke-dashoffset:0;stroke-opacity:1;stop-color:#000;fill-opacity:1"
     id="path5034" /><path
     d="M36.982 5.573h158.414v64.789H36.982Z"
     style="display:inline;opacity:1;fill:#f2efe5;fill-opacity:1;stroke:#241d15;stroke-width:1.05833143;stroke-linecap:round;stroke-linejoin:round;stroke-dasharray:8.46658276, 2.11663902, 1.05833143, 2.11663902;stroke-dashoffset:0;stroke-opacity:1;stop-color:#000"
     id="path5036" /></svg>
