<svg xmlns="http://www.w3.org/2000/svg" xml:space="preserve" width="875" height="285" viewBox="0 0 231.51 75.406"><path d="M206.114 61.422c-.254-.125-.88-.348-1.441-.515-.471-.13-2.106-1.04-1.236-1.272 1.317.029 3.38.78 4.513.26.207-.118.417-.233.628-.342.446-.228.763-.84.97-1.868.364-1.201 1.557-2.375 2.826-2.7.18-.04.357-.09.533-.147.32-.11.632-.112 1.048-.013 1.571.374 2.498-.397 2.56-2.132.02-.448.05-.895.092-1.342.086-.888.033-1.057-.356-1.133-.986-.274-1.919-1.234-2.135-2.126a22.131 22.125 0 0 0-.084-.635c-.065-.422.582-1.239 1.22-1.539.666-.312.788-.526.544-.946-.326-.954-1.787-4.326-2.872-4.081-.06.02-.373.396-.697.835-.325.44-.765.954-.98 1.143-.212.19-.526.528-.695.753-.807 1.07-1.964 1.692-3.09 1.66-1.193-.033-1.54.412-.734.942 1.276 1 2.47 2.685 2.843 4.037.63 1.822-.133 2.702-.825.95-.344-.874-.632-.987-2.557-1.006-1.692-.016-1.722-.025-2.546-.796-.679-.636-.76-.617-.913.205a10.92 10.92 0 0 1-.265 1.017c-.104.333-.19.654-.192.716-.008.202-.606.96-1.02 1.292-.745.595-1.07.828-1.162.826-.118-.002-.456.35-.603.63-.302.575-.417.836-.42.955-.007.288-.17.692-.294.727-.491.136-.71-.762-.507-2.091.185-1.208.23-1.91.153-2.397-.038-.247-.08-.897-.093-1.443-.031-1.34-.331-1.81-.88-1.375-.596.475-.901.532-1.33.25-.894-.586-1.178-1.173-.84-1.733.662-1.094.984-1.253 2.117-1.048.853.156.812.241.862-1.79.03-1.207.02-1.774-.033-1.872-.05-.09-.071-.591-.063-1.42.007-.705 0-1.525-.016-1.825-.074-1.312-.056-2.647.04-3.132.04-.193.067-.711.064-1.15-.004-.44-.008-1.377-.008-2.08 0-.705-.034-1.462-.074-1.684-.057-.318-.045-.797.055-2.237.142-2.064.144-2.06-.37-2.068-.223-.005-.746.189-.825.304-.25.363-1.376.332-1.657-.045-1.046-1.404 1.064-3.284 2.24-1.999.38.415.596.134.61-.795.009-.414.076-1.222.15-1.795.114-.862.125-1.111.065-1.438-.08-.431-.067-1.693.024-2.33.045-.317.033-.453-.057-.656-.33-.736.11-2.26.565-1.96.16.106.506.954.503 1.233-.002.112.068.348.155.526.087.178.158.36.157.403 0 .044.098.19.218.324.121.134.237.294.26.355.02.06.153.181.293.27.141.088.341.272.445.41.104.14.376.443.604.676 1.5 1.534 1.64 1.98 1.277 4.054-.167.954.02 1.008.873.25.842-.747 1.558-.935 2.964-.777.495.054 1.024-.253 1.507-.88.553-.718.705-.784 1.03-.448.253.26.26 1.154.011 1.69-.29.86-1.023 1.55-1.428 2.1 0 .03-.219.24-.485.47-.765.653-.72.713.61.784 2.735.763 3.98 2.476 5.406 4.134.535.293.672.208.957-.143.153-.174.294-.359.421-.555.29-.444 1.345-1.863 1.577-2.118.414-.456.375-.73-.179-1.26-1.012-.97-.689-2.74.545-2.978 1.077-.206 1.344-.464 1.367-1.321.035-1.213-.85-2.505-1.89-2.763-.148-.038-1.162-.42-2.27-.86-.817-.48-1.003-1.114-1.208-1.875l-.247-.562c-.123-.282-.37-.57-1.148-1.345-1.09-1.083-1.244-1.168-1.86-1.018-.88.212-1.827-.102-1.479-.49.413-.463.98-.482 1.941-.067 1.014.245 2.065.6 2.943.907 1.727.772 3.945 1.885 4.829 3.56.175.35.382.713.46.806.08.092.203.333.276.536l.255.709c.417 1.158.69 1.329 1.258.787a4.48 4.48 0 0 1 .734-.541c2.573-2.113 7.17.353 7.34 2.76-.004.106.024.294.061.417.236.784.152 1.385-.184 1.315-.272-.057-.37-.198-.413-.59-.06-.575-.09-.66-.421-1.204-.646-1.063-1.19-1.223-2.168-.637-.65.389-1.654.37-2.26-.044-2.15-.931-2.186-.465-3.198.449-.833.747-.877 1.435-.116 1.821.758.655.343 2.194-.686 2.54-.812.24-.856.287-1.09 1.169-.684 1.178-1.43 2.17-2.35 2.993-.924.822-.969 1-.36 1.417.172.118.516.376.763.574.58.463.8.61 1.272.848.212.106.423.222.468.259.223.176 1.33.424 1.95.436.805.015.827-.003 1.18-.96.273-.74.273-.74 1.036-1.444 1.326-1.226 1.6-1.72 1.61-2.89.003-.706.097-.9.432-.893.118.002.405.257.403.357 0 .03.072.212.163.404.104.235.178.482.22.737.075.53.197 1.05.364 1.556.155.447.082.748-.335 1.375-.864 1.298-.81 1.632.179 1.095.246-.134.545-.26.663-.28.217-.044.433-.094.648-.152.517-.136 1.226-.131 1.598.012.155.058.313.11.472.155 1.015.442 1.838 1.292 3.003 1.604 1.924.486-1.184 1.168-1.99 1.37-.32.076-.758.25-1.1.434-.894.484-1.617.29-2.81-.395-.73-.422-.941-.303-.816.46.043.258.074.52.093.782l.046.896c.035.658-.138 1.249-.502 1.714-.108.137-.196.276-.197.308-.002.075-.915 1.174-1.1 1.324-.375.303-.543-.284-.3-1.051.311-.994.22-1.677-.289-2.169-.962-.928-1.732-1.973-1.724-2.34-.818-1.324-3.91.033-4.525.63a5.7 5.7 0 0 1-.637.545c-.358.237-1.39 1.165-1.391 1.252 3.08 1.18 2.194 4.566 4.35 6.167.45.212.589.38.748.904.376.762.167 1.445-.073 2.05-.054.24-.31.548-.87 1.047-.77.688 1.01 2.314 2.206 2.015.952-.24 1.14-.356 1.405-.878.627-1.23 1.615-1.6 2.803-1.045 1.214.568 2.484-.155 2.857-1.63.133-.526.32-.755.45-.551-.003 1.012-.527 2.356-1.208 3.171-.923.84-2.095 2.146-3.244 2.318-.665.074-1.345.058-2.252-.054-1.177-.146-1.493-.241-2.433-.728-.607-.315-.75-.235-.835.465-.146 1.2-.174 1.32-.405 1.714-.127.216-.254.527-.282.69-.125.42-.292.882-.458 1.231-.21.438-.355.633-.828 1.11a8.801 8.799 0 0 0-.416.455c-.882 1.038-2.032 1.7-3.113 2.455-1.31.562-4.626.865-5.937.606zm-3.689-13.901c1-.634.172-2.394-1.033-2.193-.407.068-.935 1.194-.75 1.599.217.48 1.361.86 1.783.594zm4.066-6.758c1.49-.374 2.921-.932 3.16-1.706-.052-.222-.177-.29-.373-.473-.674-.649-.983-.5-2.037-.778-.947-.16-1.664-.088-2.663-.215-.053-.032-.402-.085-.775-.118-1.06-.092-1.414-.357-1.097-.818.128-.186.14-.25.081-.42-.204-.602-.01-.712 1.387-.79.819-.047 1.104-.09 1.392-.205.195-.08.397-.14.603-.183 1.194-.437 2.697-.484 3.61-1.02.18-.208-.024-.467-.5-.64-1.73-.63-1.552-.597-3.468-.65-1.938-.056-1.846-.069-2.59.38-.724.436-1.556 1.987-1.384 2.579.048.165.044.376-.013.712l-.123.737c-.055.336.051.74.26.984.09.107.195.29.234.408.22.666 1.28 1.683 2.002 1.922.46.22.89.359 1.246.334.349-.024.698-.037 1.048-.04zm5.465-2.104c1.412-.629 3.178-1.393 4.367-2.24.59-.447.423-.608-1.2-1.153-.946-.467-1.704-.556-2.685-.788-1.992.603-3.908 1.15-5.523 1.499-.356.077-.827.166-1.048.197-.651.094-.595.23.132.325.254.034.84.145 1.303.248 1.485.226 2.998.841 4.038 1.692.285.255.53.343.616.22zm10.488-2.017c.444-.3.353-1.006-.152-1.18-.993-.341-1.768.498-1.13 1.223.15.17 1.01.14 1.283-.043zm-19.518-8.83c.467-.27.769-1.032.566-1.427-.757-1.474-2.586-.808-2.094.763.161.512.406.73.888.787.265.075.437-.016.64-.123zm-5.174 7.31c.003-.121.018-.171.034-.11a.493.493 0 0 1-.006.224c-.02.06-.031.01-.03-.113zm-172.357 26.3c.255-.125.88-.348 1.442-.515.471-.13 2.105-1.04 1.237-1.272-1.318.029-3.381.78-4.514.26a16.601 16.596 0 0 0-.63-.342c-.445-.228-.761-.84-.967-1.868-.365-1.201-1.558-2.375-2.827-2.7a5.885 5.883 0 0 1-.533-.147c-.32-.11-.632-.112-1.048-.013-1.572.374-2.5-.397-2.56-2.132-.02-.448-.05-.895-.093-1.342-.085-.888-.032-1.057.357-1.133.986-.274 1.919-1.234 2.134-2.126.027-.222.065-.508.085-.635.065-.422-.583-1.239-1.22-1.539-.666-.312-.788-.526-.544-.946.326-.954 1.787-4.326 2.872-4.081.06.02.373.396.697.835.324.44.765.954.978 1.143.214.19.528.528.697.753.807 1.07 1.964 1.692 3.09 1.66 1.193-.033 1.54.412.734.942-1.277 1-2.47 2.685-2.843 4.037-.63 1.822.133 2.702.824.95.344-.874.632-.987 2.557-1.006 1.693-.016 1.723-.025 2.546-.796.68-.636.76-.617.913.205.043.227.162.685.265 1.017.104.333.19.654.193.716.008.202.605.96 1.02 1.292.745.595 1.07.828 1.162.826.118-.002.456.35.602.63.303.575.418.836.42.955.008.288.171.692.294.727.492.136.71-.762.508-2.091-.185-1.208-.23-1.91-.154-2.397.04-.247.08-.897.094-1.443.031-1.34.331-1.81.878-1.375.598.475.904.532 1.332.25.894-.586 1.178-1.173.84-1.733-.662-1.094-.984-1.253-2.118-1.048-.852.156-.81.241-.862-1.79-.03-1.207-.02-1.774.034-1.872.05-.09.071-.591.062-1.42-.007-.705 0-1.525.017-1.825.073-1.312.056-2.647-.04-3.132-.04-.193-.068-.711-.064-1.15.004-.44.008-1.377.008-2.08 0-.705.034-1.462.074-1.684.057-.318.045-.797-.054-2.237-.143-2.064-.144-2.06.37-2.068.222-.005.745.189.824.304.25.363 1.376.332 1.657-.045 1.046-1.404-1.064-3.284-2.24-1.999-.38.415-.596.134-.61-.795a19.632 19.626 0 0 0-.15-1.795c-.114-.862-.125-1.111-.065-1.438.08-.431.067-1.693-.024-2.33-.045-.317-.032-.453.057-.656.33-.736-.11-2.26-.565-1.96-.16.106-.506.954-.503 1.233.002.112-.067.348-.155.526-.087.178-.158.36-.157.403 0 .044-.097.19-.218.324s-.237.294-.259.355c-.02.06-.153.181-.294.27a1.995 1.995 0 0 0-.445.41 9.32 9.317 0 0 1-.604.676c-1.5 1.534-1.64 1.98-1.277 4.054.167.954-.02 1.008-.873.25-.842-.748-1.558-.935-2.964-.777-.495.054-1.024-.253-1.507-.88-.553-.718-.705-.784-1.03-.448-.253.26-.26 1.154-.011 1.69.29.86 1.023 1.55 1.428 2.1 0 .03.219.24.485.47.765.653.72.713-.61.784-2.735.763-3.98 2.476-5.406 4.134-.535.293-.672.208-.957-.143a4.7 4.7 0 0 1-.421-.555c-.29-.444-1.345-1.863-1.576-2.118-.415-.456-.376-.73.178-1.26 1.012-.97.689-2.74-.545-2.978-1.077-.206-1.344-.464-1.367-1.321-.034-1.213.85-2.505 1.89-2.763.149-.038 1.162-.42 2.271-.86.816-.48 1.002-1.114 1.207-1.875l.247-.562c.123-.282.37-.57 1.148-1.345 1.09-1.083 1.244-1.168 1.86-1.018.88.212 1.827-.102 1.479-.49-.413-.463-.98-.482-1.941-.067-1.014.245-2.065.6-2.943.907-1.727.772-3.945 1.885-4.829 3.56-.175.35-.382.713-.46.806-.079.092-.203.333-.276.536l-.255.709c-.416 1.158-.69 1.329-1.258.787a4.457 4.455 0 0 0-.734-.541c-2.573-2.113-7.17.353-7.34 2.76a1.61 1.61 0 0 1-.061.417c-.236.784-.152 1.385.184 1.315.273-.057.37-.198.413-.59.06-.575.091-.66.421-1.204.646-1.063 1.19-1.223 2.168-.637.65.389 1.654.37 2.26-.044 2.15-.931 2.186-.465 3.198.449.833.747.877 1.435.117 1.821-.759.655-.343 2.194.685 2.54.812.24.857.287 1.09 1.169.685 1.178 1.43 2.17 2.35 2.993.924.822.969 1 .36 1.417-.172.118-.516.376-.763.574-.578.463-.8.61-1.272.848a4.574 4.572 0 0 0-.468.259c-.223.176-1.33.424-1.95.436-.805.015-.827-.003-1.18-.96-.273-.74-.273-.74-1.036-1.444-1.326-1.226-1.6-1.72-1.608-2.89-.005-.706-.1-.9-.434-.893-.117.002-.405.257-.402.357 0 .03-.073.212-.164.404a3.14 3.14 0 0 0-.22.737 8.86 8.858 0 0 1-.364 1.556c-.155.447-.082.748.335 1.375.864 1.298.81 1.632-.179 1.095-.246-.134-.545-.26-.662-.28a10.418 10.414 0 0 1-.649-.152c-.517-.136-1.225-.131-1.598.012-.155.058-.313.11-.472.155-1.015.442-1.838 1.292-3.003 1.604-1.924.486 1.184 1.168 1.99 1.37.322.076.758.25 1.1.434.894.484 1.618.29 2.81-.395.73-.422.942-.303.816.46-.042.258-.073.52-.092.782l-.047.896c-.035.658.138 1.249.502 1.714.107.137.196.276.197.308.002.075.915 1.174 1.1 1.324.375.303.543-.284.3-1.051-.311-.994-.22-1.677.289-2.169.962-.928 1.732-1.973 1.724-2.34.818-1.324 3.91.033 4.525.63.214.21.5.456.637.545.358.237 1.39 1.165 1.391 1.252-3.08 1.18-2.193 4.566-4.35 6.167-.45.212-.589.38-.748.904-.376.762-.167 1.445.073 2.05.054.24.31.548.87 1.047.77.688-1.01 2.314-2.206 2.015-.952-.24-1.14-.356-1.405-.878-.627-1.23-1.614-1.6-2.803-1.045-1.214.568-2.484-.156-2.857-1.63-.133-.526-.32-.755-.45-.551.004 1.012.527 2.356 1.208 3.171.923.84 2.095 2.146 3.244 2.318.665.074 1.345.058 2.252-.054 1.177-.146 1.493-.241 2.433-.728.607-.315.75-.235.835.465.146 1.2.175 1.32.405 1.714.127.216.254.527.282.69.125.42.292.882.458 1.231.21.438.355.633.828 1.11.128.13.314.334.416.455.882 1.038 2.032 1.7 3.113 2.455 1.31.562 4.626.865 5.937.606zm3.69-13.901c-1.001-.634-.172-2.394 1.033-2.193.406.068.935 1.194.75 1.599-.218.48-1.361.86-1.783.594zm-4.067-6.758c-1.49-.374-2.92-.932-3.16-1.706.052-.222.178-.29.374-.473.674-.649.982-.5 2.037-.778.947-.16 1.663-.088 2.663-.215.053-.032.401-.085.775-.118 1.06-.092 1.414-.357 1.097-.818-.128-.186-.14-.25-.082-.42.205-.602.01-.712-1.386-.79-.82-.047-1.104-.09-1.392-.205a3.508 3.506 0 0 0-.603-.183c-1.194-.437-2.698-.484-3.61-1.02-.18-.208.024-.467.5-.64 1.73-.63 1.552-.597 3.468-.65 1.938-.056 1.845-.069 2.59.38.724.436 1.556 1.987 1.384 2.579-.048.165-.044.376.013.712l.123.737c.055.336-.051.74-.26.984-.09.107-.195.29-.235.408-.22.666-1.28 1.683-2 1.922-.46.22-.892.359-1.247.334a17.883 17.877 0 0 0-1.049-.04zm-5.464-2.104c-1.412-.629-3.18-1.393-4.367-2.24-.59-.447-.423-.608 1.2-1.153.946-.467 1.704-.556 2.685-.788 1.992.603 3.908 1.15 5.523 1.499.356.077.827.166 1.048.197.65.094.595.23-.132.325-.254.034-.84.145-1.303.248-1.485.226-2.998.841-4.038 1.692-.285.255-.53.343-.616.22zM9.066 36.642c-.445-.3-.353-1.006.152-1.18.993-.341 1.768.498 1.13 1.223-.15.17-1.01.14-1.283-.043zm19.517-8.83c-.465-.27-.768-1.032-.565-1.427.757-1.474 2.586-.808 2.094.763-.161.512-.406.73-.888.787-.266.075-.437-.016-.64-.123zm5.175 7.31c-.003-.121-.018-.171-.034-.11a.498.498 0 0 0 .006.224c.018.06.03.01.028-.113z" style="display:inline;fill:#241d15;fill-opacity:1;stroke-width:.0657679"/><path d="M31.354.265h168.802V75.14H31.354Z" style="display:inline;opacity:1;fill:#f9f5ec;fill-opacity:1;stroke:#241d15;stroke-width:.530103;stroke-linecap:round;stroke-linejoin:round;stroke-dasharray:none;stroke-dashoffset:0;stroke-opacity:1;stop-color:#000"/><path d="M33.082 1.953V73.98h166.215V1.953Z" style="display:inline;opacity:1;fill:#b0b89e;fill-opacity:1;stroke:#241d15;stroke-width:.52851286;stroke-linecap:round;stroke-linejoin:round;stroke-dasharray:none;stroke-dashoffset:0;stroke-opacity:1;stop-color:#000" transform="matrix(.99965 0 0 1.00282 -.394 -.37)"/><path d="M36.644 5.555h158.222V69.85H36.644Z" style="display:inline;opacity:1;fill:#f9f5ec;fill-opacity:1;stroke:#241d15;stroke-width:.52916571;stroke-linecap:round;stroke-linejoin:round;stroke-dasharray:none;stroke-dashoffset:0;stroke-opacity:1;stop-color:#000"/><path d="M38.258 6.848v62.238H194.12V6.848Z" style="display:inline;opacity:1;fill:#f9f5ec;fill-opacity:1;stroke:#241d15;stroke-width:.53218415;stroke-linecap:round;stroke-linejoin:round;stroke-dasharray:4.25747508,1.06436637,.53218415,1.06436637;stroke-dashoffset:0;stroke-opacity:1;stop-color:#000" transform="matrix(.99817 0 0 .9905 -.222 .097)"/></svg>