<svg xmlns="http://www.w3.org/2000/svg" xml:space="preserve" width="875" height="287" viewBox="0 0 231.51 75.935"><path d="M195.825 70.922c-.357-.165-1.233-.46-2.023-.681-1.181-.331-2.271-1.082-2.102-1.449a.659.659 0 0 0 .057-.207c.001-.053.121-.063.31-.025.444.089 2.367.34 3.177.415.434.04.884.028 1.195-.033.43-.084.539-.078.792.045.417.202.684.183 1.17-.082.234-.128.631-.332.882-.453.626-.301 1.071-1.11 1.36-2.468.08-.379.226-.686.499-1.047.212-.281.402-.55.423-.595.212-.485 2.227-1.758 3.044-1.924.2-.04.537-.129.748-.196.451-.144.888-.149 1.47-.018 2.207.495 3.508-.524 3.593-2.816a33.1 33.1 0 0 1 .13-1.773c.12-1.173.046-1.397-.5-1.497a2.12 2.12 0 0 1-.54-.173 2.164 2.164 0 0 0-.561-.174c-.575-.1-1.533-1.043-1.53-1.503.001-.066-.066-.19-.148-.274-.083-.085-.18-.394-.217-.687-.037-.293-.09-.67-.117-.838-.093-.558.816-1.637 1.71-2.033.935-.413 1.108-.695.764-1.25-.222-.359-.676-1.697-.668-1.973.005-.19-.505-.852-1.606-2.086a12.27 12.27 0 0 1-.598-.747c-.328-.447-.819-.696-1.158-.587-.083.026-.524.523-.979 1.103-.455.58-1.073 1.26-1.372 1.51-.3.25-.74.698-.979.996-1.131 1.414-2.755 2.236-4.335 2.194-1.674-.044-2.16.544-1.03 1.244.688.426 1.212.853 1.209.986-.001.049.145.248.325.443.921.994 1.172 1.303 1.424 1.75.15.268.417.7.59.958.175.259.315.551.313.65-.002.099.056.345.13.547.885 2.408-.187 3.57-1.157 1.254-.483-1.153-.888-1.302-3.59-1.327-2.374-.021-2.416-.034-3.573-1.053-.951-.84-1.067-.815-1.28.27-.06.301-.227.907-.372 1.346-.145.44-.267.864-.27.945-.01.267-.85 1.267-1.432 1.707-1.044.787-1.502 1.094-1.63 1.092-.165-.003-.639.463-.845.832-.425.76-.586 1.104-.59 1.262-.01.38-.24.914-.413.96-.69.18-.996-1.007-.712-2.763.26-1.595.322-2.523.215-3.166-.054-.326-.113-1.185-.13-1.908-.045-1.77-.465-2.39-1.234-1.816-.838.627-1.266.702-1.867.33-1.255-.775-1.653-1.55-1.179-2.29.929-1.445 1.381-1.656 2.97-1.384 1.197.205 1.14.318 1.21-2.365.042-1.596.028-2.345-.047-2.475-.069-.12-.1-.781-.087-1.877.01-.93 0-2.014-.024-2.41-.103-1.734-.078-3.499.058-4.14.054-.255.094-.939.088-1.52a361.52 361.52 0 0 1-.012-2.748c0-.93-.047-1.93-.103-2.224-.08-.42-.063-1.054.077-2.957.2-2.726.201-2.72-.52-2.732-.312-.006-1.047.25-1.158.402-.35.48-1.929.439-2.324-.06-1.468-1.854 1.495-4.34 3.146-2.64.532.548.833.177.855-1.051.01-.547.104-1.615.21-2.373.159-1.138.174-1.468.09-1.9-.112-.569-.094-2.236.033-3.078.064-.419.047-.599-.08-.867-.463-.972.155-2.987.794-2.59.226.14.71 1.26.705 1.63-.002.148.096.46.218.695.122.235.221.475.22.532 0 .058.137.251.306.429.17.177.333.388.363.468.03.08.217.24.414.356.197.117.478.361.624.544.146.182.528.584.848.892 2.105 2.027 2.302 2.616 1.792 5.357-.235 1.261.027 1.332 1.224.33 1.182-.988 2.186-1.236 4.159-1.027.695.073 1.437-.335 2.116-1.164.777-.948.99-1.035 1.446-.591.354.344.362 1.525.015 2.234-.112.23-.25.537-.307.68-.11.279-.487.747-1.232 1.534-.255.27-.464.522-.465.561-.001.04-.308.318-.681.619-1.074.865-1.009.944.854 1.038 1.01.05 1.174.082 1.7.324.32.147.697.293.837.322.268.058 1.506.787 2.242 1.32.385.28 1.546 1.76 1.914 2.44.063.117.244.35.402.52.158.169.38.41.494.537.21.234 1.058.365 1.064.164 0-.045.126-.204.277-.354.152-.15.418-.48.592-.732.406-.587 1.888-2.463 2.213-2.8.581-.602.527-.963-.25-1.664-1.422-1.282-.967-3.622.763-3.935 1.511-.273 1.885-.613 1.919-1.747.047-1.602-1.195-3.31-2.654-3.65-.206-.05-1.63-.556-3.184-1.136-.747-.278-1.592-1.322-1.576-1.945a1.414 1.414 0 0 0-.12-.533l-.346-.743c-.173-.373-.519-.754-1.611-1.777-1.53-1.432-1.745-1.543-2.61-1.346-1.234.281-2.564-.134-2.076-.648.58-.61 1.377-.636 2.725-.088.36.147.94.293 1.406.353.436.057.89.163 1.008.235.118.072.309.133.423.135.115.002.381.097.591.21.21.113.525.233.7.266.591.112 2.35.98 3.075 1.52.213.158.453.29.534.29.666.013 2.556 1.739 3.168 2.895.245.463.536.941.647 1.064.11.122.284.44.385.708l.358.937c.585 1.53.969 1.756 1.766 1.04.249-.224.713-.546 1.03-.715.318-.169.738-.458.934-.643.344-.324.367-.332.721-.245.202.049.451.062.555.028.103-.034.337-.062.52-.062s.463-.074.622-.163c.873-.492 3.52.093 4.573 1.01.228.199.486.397.573.44.629.316 1.824 2.492 1.801 3.283-.004.14.036.388.088.551.33 1.036.212 1.83-.259 1.738-.383-.076-.52-.262-.58-.782-.085-.758-.127-.872-.591-1.59-.905-1.405-1.67-1.616-3.042-.842-.91.514-2.32.488-3.171-.058-1.355-.868-3.786-.922-3.808-.083-.001.057-.308.361-.68.676-1.168.988-1.23 1.897-.163 2.407.351.168.393.262.592 1.335.122.662-.753 1.801-1.555 2.023-1.14.316-1.202.378-1.53 1.543-.066.232-.258.59-.428.796-.17.206-.516.637-.768.958-.253.321-.534.637-.625.702-.092.064-.25.252-.351.416-.102.164-.608.651-1.124 1.084-1.297 1.085-1.36 1.321-.505 1.872.242.155.724.496 1.071.758.812.612 1.123.807 1.785 1.12.297.14.592.294.655.342.314.233 1.866.56 2.737.576 1.129.02 1.16-.004 1.656-1.266.384-.98.384-.98 1.454-1.91 1.86-1.62 2.247-2.272 2.257-3.819.006-.933.138-1.189.61-1.18.163.003.566.34.562.472 0 .04.103.28.23.534.128.255.267.693.31.974.115.74.298 1.482.51 2.056.217.591.114.988-.471 1.817-1.21 1.715-1.134 2.156.252 1.447.345-.177.764-.344.93-.371.166-.027.575-.117.909-.2.727-.18 1.72-.174 2.244.015.207.075.504.167.661.206.39.097.693.254 1.055.547.167.135.362.247.433.249.07 0 .248.117.395.257.31.294 1.64.902 2.33 1.066 1.515.358 1.102.85-.86 1.026-.25.022-.68.127-.956.233a11.03 11.03 0 0 1-1.248.36 7.266 7.266 0 0 0-1.544.575c-1.253.64-1.996.573-3.668-.332-1.027-.557-1.324-.4-1.148.607.06.336.118.8.13 1.034l.065 1.184c.05.87-.194 1.651-.704 2.265-.15.181-.274.364-.275.406-.003.1-1.285 1.552-1.545 1.75-.525.4-.76-.375-.422-1.389.439-1.313.311-2.216-.404-2.865-1.35-1.227-2.43-2.607-2.418-3.092.03-1.228-.878-1.36-3.073-.444-.911.38-1.905.69-2.356.736-.305.03-.473.13-.92.541-.302.277-.705.602-.896.72-.501.312-1.949 1.538-1.952 1.654-.006.213.31.574.71.81.85.501 1.516 1.097 1.877 1.677.197.316.519.729.716.918.628.602 1.058 1.356.983 1.722-.168.81.407 2.224 1 2.46.17.068.333.182.362.254.028.071.234.21.457.308.63.279.827.502 1.048 1.194.112.349.258.779.324.956.172.454.142.731-.125 1.125a2.41 2.41 0 0 0-.3.628c-.077.316-.436.723-1.222 1.384-1.08.909 1.42 3.057 3.096 2.662 1.337-.316 1.6-.47 1.972-1.16.88-1.627 2.266-2.114 3.933-1.38 1.705.75 3.486-.207 4.01-2.156.186-.694.45-.997.633-.728.179.265-.048 1.274-.427 1.9-.117.194-.215.422-.217.508-.005.205-.855 1.643-1.054 1.783-.085.06-.323.318-.53.572-.499.615-.984.977-1.956 1.459a4.29 4.29 0 0 0-.542.373c-.69.545-.768.58-1.522.659-.934.098-1.888.076-3.16-.072-1.653-.193-2.097-.318-3.416-.962-.852-.416-1.051-.31-1.171.615-.206 1.586-.245 1.743-.57 2.264-.177.286-.355.697-.394.911-.039.215-.13.486-.202.604-.073.117-.134.262-.136.323-.002.06-.139.377-.304.702-.294.578-.499.836-1.163 1.467-.179.17-.44.44-.582.6-.545.616-1.336 1.3-1.854 1.6-.297.172-.65.415-.783.54-.134.124-.503.368-.821.542-.318.175-.728.427-.912.562-.705.518-1.464.66-3.773.705-1.09.02-2.233.078-3.802.191-.314.022-.571-.01-.757-.095zm-5.177-18.369c1.406-.837.242-3.163-1.45-2.897-.569.09-1.312 1.578-1.053 2.112.306.635 1.911 1.138 2.503.785zm5.707-8.929c.532 0 .931-.057 1.334-.186.4-.129.805-.186 1.334-.188.724-.004 1.478-.15 2.038-.398.14-.061.31-.11.381-.11.923.013 1.494-1.053.74-1.382a4.543 4.543 0 0 1-.643-.355c-.16-.111-.569-.265-.91-.342a6.478 6.478 0 0 1-1.183-.416 3.759 3.759 0 0 0-1.16-.35c-.329-.039-.724-.12-.88-.18-.178-.07-.89-.127-1.942-.158-.913-.026-1.721-.083-1.795-.126-.075-.043-.564-.113-1.087-.156-1.486-.122-1.984-.472-1.539-1.082.18-.246.197-.33.115-.556-.288-.794-.016-.94 1.943-1.044 1.151-.061 1.551-.116 1.954-.27.28-.105.66-.215.846-.242.186-.028.625-.138.976-.245.853-.26 1.238-.337 1.651-.332.398.005 2.274-.587 2.441-.77.25-.275-.034-.617-.703-.846-2.427-.833-2.177-.788-4.866-.86-2.72-.073-2.591-.09-3.635.503-1.015.577-2.183 2.626-1.942 3.408.068.218.062.497-.017.941l-.173.975c-.078.443.072.978.363 1.3.127.141.275.383.33.539.31.879 1.797 2.223 2.809 2.539.415.13.818.293.895.363.11.102.281.117.852.078.392-.028 1.055-.05 1.473-.052zm7.668-2.78c.273-.375 2.056-1.315 2.48-1.307.19.003 1.273-.464 1.416-.61a.407.407 0 0 1 .25-.12c.24.004 1.517-.59 1.982-.923.829-.591.594-.804-1.685-1.524a9.68 9.68 0 0 1-.94-.35c-.245-.114-.675-.178-1.603-.237-.809-.052-1.364-.127-1.533-.209-.386-.187-.697-.165-1.357.097-2.09.83-2.96 1.139-3.194 1.133-.26-.007-1.067.134-2.89.505a28.47 28.47 0 0 1-1.47.26c-.914.124-.837.305.185.43.356.044 1.178.191 1.827.327.65.136 1.5.3 1.89.365.395.066.915.223 1.176.356.758.385 2.379 1.33 2.6 1.516.4.337.747.453.865.29zm14.718-2.666c.623-.395.495-1.329-.214-1.558-1.394-.452-2.482.656-1.585 1.615.209.224 1.415.185 1.799-.057zM191.353 26.51c.653-.356 1.076-1.363.792-1.885-1.062-1.948-3.629-1.068-2.937 1.008.225.677.57.965 1.245 1.04.202.022.39.047.42.055.028.008.244-.09.48-.218zm-7.263 9.661c.004-.162.026-.228.048-.147a.618.618 0 0 1-.008.296c-.026.08-.044.014-.04-.149zM35.685 70.922c.357-.165 1.234-.46 2.023-.681 1.182-.331 2.271-1.082 2.103-1.449a.662.662 0 0 1-.058-.207c-.001-.053-.12-.063-.31-.025-.444.089-2.366.34-3.177.415-.434.04-.883.028-1.194-.033-.431-.084-.54-.078-.793.045-.416.202-.684.183-1.17-.082a23.786 23.786 0 0 0-.882-.453c-.626-.301-1.07-1.11-1.359-2.468-.08-.379-.227-.686-.5-1.047a7.821 7.821 0 0 1-.422-.595c-.212-.485-2.228-1.758-3.044-1.924a8.66 8.66 0 0 1-.749-.196c-.45-.144-.887-.149-1.47-.018-2.206.495-3.507-.524-3.593-2.816a33.11 33.11 0 0 0-.13-1.773c-.12-1.173-.046-1.397.5-1.497a2.12 2.12 0 0 0 .541-.173c.103-.06.355-.138.56-.174.575-.1 1.533-1.043 1.53-1.503-.001-.066.066-.19.149-.274.082-.085.18-.394.216-.687.037-.293.09-.67.118-.838.092-.558-.817-1.637-1.711-2.033-.935-.413-1.107-.695-.764-1.25.223-.359.676-1.697.669-1.973-.005-.19.505-.852 1.606-2.086.152-.17.42-.507.597-.747.328-.447.819-.696 1.159-.587.083.026.523.523.978 1.103.455.58 1.073 1.26 1.373 1.51.3.25.74.698.978.996 1.131 1.414 2.755 2.236 4.335 2.194 1.674-.044 2.16.544 1.03 1.244-.688.426-1.212.853-1.208.986.001.049-.145.248-.325.443-.922.994-1.173 1.303-1.425 1.75-.15.268-.416.7-.59.958-.174.259-.315.551-.312.65.002.099-.057.345-.13.547-.885 2.408.187 3.57 1.157 1.254.483-1.153.887-1.302 3.589-1.327 2.375-.021 2.417-.034 3.573-1.053.952-.84 1.067-.815 1.28.27.06.301.227.907.372 1.346.146.44.267.864.27.945.011.267.85 1.267 1.432 1.707 1.045.787 1.502 1.094 1.63 1.092.166-.003.64.463.846.832.425.76.586 1.104.59 1.262.01.38.239.914.412.96.69.18.997-1.007.712-2.763-.259-1.595-.322-2.523-.215-3.166.054-.326.113-1.185.131-1.908.044-1.77.465-2.39 1.233-1.816.839.627 1.267.702 1.868.33 1.254-.775 1.653-1.55 1.178-2.29-.929-1.445-1.381-1.656-2.97-1.384-1.197.205-1.139.318-1.21-2.365-.042-1.596-.028-2.345.047-2.475.07-.12.1-.781.088-1.877-.01-.93 0-2.014.023-2.41.103-1.734.079-3.499-.058-4.14-.054-.255-.093-.939-.088-1.52.006-.581.012-1.818.012-2.748 0-.93.047-1.93.103-2.224.08-.42.064-1.054-.076-2.957-.2-2.726-.202-2.72.52-2.732.311-.006 1.046.25 1.157.402.35.48 1.929.439 2.324-.06 1.468-1.854-1.494-4.34-3.145-2.64-.532.548-.834.177-.856-1.051-.01-.547-.104-1.615-.21-2.373-.158-1.138-.174-1.468-.09-1.9.113-.569.094-2.236-.033-3.078-.063-.419-.046-.599.08-.867.463-.972-.154-2.987-.793-2.59-.226.14-.711 1.26-.706 1.63.003.148-.095.46-.218.695-.122.235-.221.475-.22.532.001.058-.137.251-.306.429-.17.177-.333.388-.363.468-.03.08-.216.24-.413.356-.198.117-.479.361-.625.544-.146.182-.527.584-.847.892-2.106 2.027-2.303 2.616-1.793 5.357.235 1.261-.026 1.332-1.224.33-1.181-.988-2.186-1.236-4.159-1.027-.695.073-1.437-.335-2.116-1.164-.776-.948-.989-1.035-1.445-.591-.355.344-.363 1.525-.016 2.234.113.23.251.537.308.68.11.279.486.747 1.23 1.534.256.27.466.522.467.561 0 .04.307.318.68.619 1.074.865 1.01.944-.854 1.038-1.01.05-1.174.082-1.7.324-.32.147-.697.293-.837.322-.268.058-1.505.787-2.242 1.32-.385.28-1.546 1.76-1.913 2.44a3.315 3.315 0 0 1-.403.52c-.157.169-.38.41-.493.537-.21.234-1.06.365-1.064.164-.002-.045-.126-.204-.278-.354a6.265 6.265 0 0 1-.592-.732c-.405-.587-1.887-2.463-2.212-2.8-.582-.602-.527-.963.25-1.664 1.421-1.282.967-3.622-.764-3.935-1.511-.273-1.885-.613-1.918-1.747-.048-1.602 1.194-3.31 2.653-3.65.207-.05 1.63-.556 3.185-1.136.746-.278 1.592-1.322 1.575-1.945-.003-.145.05-.386.12-.533l.346-.743c.173-.373.52-.754 1.612-1.777 1.53-1.432 1.744-1.543 2.61-1.346 1.234.281 2.563-.134 2.075-.648-.58-.61-1.376-.636-2.725-.088-.36.147-.94.293-1.406.353-.436.057-.89.163-1.008.235a1.012 1.012 0 0 1-.423.135c-.115.002-.38.097-.591.21-.21.113-.525.233-.7.266-.591.112-2.35.98-3.074 1.52-.214.158-.454.29-.534.29-.667.013-2.557 1.739-3.169 2.895-.245.463-.536.941-.646 1.064-.11.122-.284.44-.386.708l-.358.937c-.585 1.53-.968 1.756-1.766 1.04a6.248 6.248 0 0 0-1.03-.715 5.211 5.211 0 0 1-.933-.643c-.344-.324-.368-.332-.722-.245-.201.049-.45.062-.554.028a2.127 2.127 0 0 0-.52-.062c-.184 0-.463-.074-.622-.163-.874-.492-3.52.093-4.574 1.01-.228.199-.485.397-.572.44-.63.316-1.824 2.492-1.802 3.283.004.14-.035.388-.087.551-.331 1.036-.213 1.83.258 1.738.383-.076.521-.262.58-.782.085-.758.128-.872.591-1.59.906-1.405 1.67-1.616 3.043-.842.91.514 2.32.488 3.17-.058 1.356-.868 3.787-.922 3.809-.083.001.057.307.361.68.676 1.168.988 1.23 1.897.163 2.407-.352.168-.394.262-.592 1.335-.123.662.753 1.801 1.554 2.023 1.14.316 1.202.378 1.53 1.543.066.232.259.59.429.796.17.206.515.637.768.958.252.321.533.637.624.702.092.064.25.252.352.416.101.164.607.651 1.123 1.084 1.297 1.085 1.36 1.321.505 1.872-.241.155-.723.496-1.07.758-.812.612-1.123.807-1.785 1.12-.297.14-.592.294-.656.342-.313.233-1.866.56-2.737.576-1.129.02-1.16-.004-1.656-1.266-.383-.98-.383-.98-1.454-1.91-1.86-1.62-2.246-2.272-2.257-3.819-.006-.933-.138-1.189-.609-1.18-.164.003-.567.34-.563.472 0 .04-.102.28-.23.534a3.968 3.968 0 0 0-.31.974 11.13 11.13 0 0 1-.509 2.056c-.218.591-.115.988.47 1.817 1.211 1.715 1.135 2.156-.251 1.447-.346-.177-.765-.344-.93-.371a15.386 15.386 0 0 1-.91-.2c-.726-.18-1.72-.174-2.243.015a8.316 8.316 0 0 1-.662.206c-.389.097-.692.254-1.054.547-.168.135-.363.247-.433.249-.07 0-.249.117-.396.257-.309.294-1.639.902-2.33 1.066-1.514.358-1.102.85.86 1.026.25.022.68.127.956.233.275.106.837.268 1.248.36.451.102 1.063.33 1.544.575 1.254.64 1.997.573 3.669-.332 1.026-.557 1.323-.4 1.147.607a10.82 10.82 0 0 0-.13 1.034l-.065 1.184c-.049.87.194 1.65.704 2.265.15.181.274.364.275.406.003.1 1.285 1.552 1.545 1.75.526.4.761-.375.422-1.389-.438-1.313-.311-2.216.404-2.865 1.35-1.227 2.43-2.607 2.419-3.092-.03-1.228.878-1.36 3.072-.444.911.38 1.906.69 2.357.735.304.031.472.13.92.542.301.277.704.602.895.72.502.312 1.95 1.538 1.952 1.654.006.213-.31.574-.709.81-.85.501-1.517 1.097-1.878 1.677a5.745 5.745 0 0 1-.716.918c-.628.602-1.058 1.356-.982 1.722.167.81-.408 2.224-1 2.46-.17.068-.334.182-.362.254-.029.071-.235.21-.457.308-.631.279-.827.502-1.049 1.194-.111.349-.257.779-.324.956-.172.454-.141.731.125 1.125.128.189.263.471.301.628.076.316.436.723 1.222 1.384 1.08.909-1.42 3.057-3.097 2.662-1.336-.316-1.6-.47-1.972-1.16-.88-1.627-2.266-2.114-3.932-1.38-1.705.75-3.487-.207-4.01-2.156-.187-.694-.45-.997-.633-.728-.18.265.047 1.274.426 1.9.117.194.215.422.217.508.006.205.855 1.643 1.054 1.783.085.06.324.318.53.572.499.615.984.977 1.957 1.459.103.05.347.219.542.373.689.545.768.58 1.522.659.933.098 1.888.076 3.16-.072 1.653-.193 2.096-.318 3.415-.962.852-.416 1.051-.31 1.172.615.205 1.586.245 1.743.569 2.264.178.286.355.697.394.911.04.215.13.486.203.604.072.117.133.262.135.323.002.06.14.377.305.702.294.578.498.836 1.162 1.467.179.17.441.44.583.6.544.616 1.336 1.3 1.853 1.6.297.172.65.415.783.54.134.124.504.368.822.542.318.175.728.427.911.562.706.518 1.464.66 3.773.705a71.2 71.2 0 0 1 3.802.191c.314.022.572-.01.757-.095zm5.177-18.369c-1.405-.837-.242-3.163 1.45-2.897.57.09 1.312 1.578 1.054 2.112-.307.635-1.912 1.138-2.504.785zm-5.706-8.929c-.532 0-.932-.057-1.334-.186-.4-.129-.806-.186-1.335-.188-.723-.004-1.478-.15-2.037-.398-.14-.061-.311-.11-.382-.11-.923.013-1.494-1.053-.74-1.382.194-.084.484-.244.643-.355.16-.111.57-.265.91-.342.34-.076.873-.264 1.183-.416.36-.177.78-.303 1.16-.35.33-.039.724-.12.88-.18.178-.07.89-.127 1.942-.158.913-.026 1.722-.083 1.796-.126.074-.043.563-.113 1.087-.156 1.486-.122 1.983-.472 1.538-1.082-.179-.246-.196-.33-.114-.556.287-.794.015-.94-1.944-1.044-1.15-.061-1.55-.116-1.954-.27a5.153 5.153 0 0 0-.846-.242 8.986 8.986 0 0 1-.976-.245c-.853-.26-1.238-.337-1.65-.332-.399.005-2.275-.587-2.442-.77-.25-.275.035-.617.704-.846 2.426-.833 2.177-.788 4.866-.86 2.72-.073 2.59-.09 3.634.503 1.016.577 2.183 2.626 1.942 3.408-.067.218-.062.497.018.941l.173.975c.077.443-.072.978-.364 1.3-.126.141-.275.383-.33.539-.309.879-1.796 2.223-2.808 2.539-.416.13-.819.293-.895.363-.112.102-.282.117-.853.078a26.652 26.652 0 0 0-1.472-.052zm-7.668-2.78c-.274-.375-2.057-1.315-2.48-1.307-.19.003-1.274-.464-1.417-.61a.407.407 0 0 0-.25-.12c-.24.004-1.517-.59-1.982-.923-.828-.591-.593-.804 1.685-1.524a9.68 9.68 0 0 0 .94-.35c.246-.114.675-.178 1.604-.237.808-.052 1.364-.127 1.532-.209.387-.187.697-.165 1.357.097 2.091.83 2.96 1.139 3.195 1.133.26-.007 1.066.134 2.89.505.499.102 1.16.219 1.47.26.914.124.836.305-.185.43-.356.044-1.179.191-1.828.327s-1.499.3-1.889.365c-.396.066-.915.223-1.177.356-.757.385-2.378 1.33-2.6 1.516-.4.337-.746.453-.865.29zM12.77 38.178c-.624-.395-.496-1.329.213-1.558 1.394-.452 2.482.656 1.586 1.615-.21.224-1.416.185-1.8-.057zM40.158 26.51c-.653-.356-1.077-1.363-.792-1.885 1.061-1.948 3.628-1.068 2.937 1.008-.226.677-.57.965-1.246 1.04a6.01 6.01 0 0 0-.419.055c-.028.008-.245-.09-.48-.218zm7.262 9.661c-.004-.162-.025-.228-.047-.147a.62.62 0 0 0 .008.296c.026.08.043.014.04-.149z" style="fill:#000;stroke-width:.0895563"/><path d="M31.79.661h168.799v74.613H31.79z" style="display:inline;opacity:1;fill:#f2efe5;stroke:#241d15;stroke-width:1.32291;stroke-linecap:round;stroke-linejoin:round;stroke-dasharray:none;stroke-dashoffset:0;stroke-opacity:1;stop-color:#000"/><path d="M36.982 5.573h158.414v64.789H36.982z" style="display:inline;opacity:1;fill:#d7dfdd;fill-opacity:1;stroke:#241d15;stroke-width:1.32291;stroke-linecap:round;stroke-linejoin:round;stroke-dasharray:10.5832,2.64579,1.32291,2.64579;stroke-dashoffset:0;stroke-opacity:1;stop-color:#000"/></svg>