<svg xmlns="http://www.w3.org/2000/svg" xml:space="preserve" width="875" height="500" viewBox="0 0 231.51 132.292"><path d="M213.78 42.433c.397 0 .81 1.204.727 2.118-.045.49-.037.495.44.27 1.017-.484 1.814-.165 1.63.651-.053.233-.123.571-.156.751-.12.658-.712 1.509-1.634 2.348-.359.327-.389.33-.785.077l-.43-.274a25.79 25.79 0 0 1-.427-.279c-.407-.27-1.182-.432-2.064-.43-.982.001-1.392-.822-1.392-2.79 0-2.047.837-2.508 1.786-.984.316.506.507.62.561.335.131-.68 1.214-1.793 1.744-1.793zm-7.064 1.94c1.238.521 2.014 1.754 2.565 2.598.609.94.606.903.096 1.217-.693.427-1.362 1.358-1.587 2.206-.14.532-.23.744-.37.885-.252.252-2.051.054-2.564-.283-1.5-.607-2.453-2.055-.449-2.285.795-.06.815-.083.417-.503-1.054-1.113-1.522-2.005-1.194-2.277.434-.375 1.666.235 2.51.32.023-.022.04-.384.04-.805 0-.743.205-1.125.536-1.072zm11.295 3.639c1.129-.009 1.778.508 1.217 1.243-.189.393-.427.614-.6.993-.166.294 2.403.623 2.452 1.33-.142.767-.827.882-1.415 1.06-.24.074-.552.154-.692.178-.639.11-.645.238-.041.853.766.781.786 1.113.086 1.452-.668.324-1.687.068-3.46-.87-.351-.153-1.427-.582-.921-1.017.533-.42.688-2.267.266-3.164-.127-.27-.23-.536-.23-.593 0-.303 1.138-1 2.077-1.27a4.745 4.745 0 0 1 1.261-.195zm-5.736.008c.959-.002 1.358 1.126.671 1.896-.334.374-.336.375-.753.362-1.612-.05-1.532-2.255.082-2.258zm-13.628 8.518c-.054-.2-.14-.53-.191-.734-.051-.204-.168-.5-.26-.66-.288-.502.597-1.42 1.803-1.87.897-.334 2.581-.152 2.692.29.05.2.196.187.235-.02.039-.207.15-.319.594-.602.22-.14.417-.274.437-.297.587-.688 3.79-.784 3.79-.114 0 .09.047.2.104.248.084.07.097.06.065-.06-.1-.384.963-1.09 1.347-.894.363.186.655.021.8-.451.132-.426.138-.682.013-.48-.232.377-1.475.035-1.681-.463-.526-1.424 1.422-1.95 2.048-1.039.219.354.2.888-.04 1.167-.235.274-.118.326.287.126.592-.292 1.14-.215 1.596.223.302.29.303.29.37.08.356-1.11 2.243-.819 2.3.356-.107 1.115-1.51 1.733-2.252.737-.69-.065-.32.482-.363.668.57.123.933.43.982 1 .35.655-.78 1.62-1.681 1.407-1.194-.199-1.021-1.356-.906-1.762.156-.262.155-.268.053-.424-.278-.182-.446-.123-.47.162-.027.337-.215.588-.56.75-.515.24-.809.216-1.137.09-.417-.03.27.644 1.033 1.013.367.177.396.333.166.876-.106.252-.236.61-.289.796-.44 1.559-1.546 2.615-2.738 2.615-.47 0-.57-.758-.239-1.841.108-.351.181-.653.163-.67-.89.139-1.73.336-2.576.433-.734.17-.886.76-1.46 1.047-.33.12-.328.126.153.596.981.955.744 1.347-.81 1.342-1.824-.007-3.747-.87-3.514-1.575.218-.72.297-1.427.136-2.066zm4.196-2.514c-.04-.022-.134.068-.232.236-.076.13-.353.46-.615.733-.52.542-.52.63.008.633.357.001 1.52.29 1.667.414.163.138.325.12.402-.043.149-.318 1.22-1.318 1.412-1.318.155 0 .07-.146-.089-.15-.73-.022-1.382-.08-1.657-.145-.339-.06-.694-.182-.897-.36zm11.484.27c.113.006.246.107.51.308 2.714 2.067 3.06 5.435.37 3.61-.445-.303-.519-.168-.395.724.115.82-.062 1.484-.464 1.747-.286.188-.224.265.215.265 1.488-.348 1.9.203 1.673-1.147-.275-1.638 2.319-.137 3.673 2.126.397.664.396.669-.268 1.225-.633.53-1.001 1.035-1.236 1.696-.189.777-.298 1.72-.2 2.242.08 1.567 2.813 2.686 2.62 3.32-.111.6-.398 1.126-.621 1.645-.27.628-.65 1.103-1.245 1.554-1.076.817-1.498.38-1.263-1.305.137-.98.193-.928-.59-.542-1.043.515-1.756.776-2.119.776-.285 0-.323.017-.278.128.028.07.07.414.09.765.022.35.042.638.047.637.072-.007.735-.235.945-.325 1.18-.504 1.543.533.75 2.14-.296.775-.907 1.37-1.56 1.866-1.337-.713-2.322-.907-4.204-.663-.057-.023-.17-.227-.251-.454-.081-.227-.234-.643-.34-.923a45.04 45.04 0 0 1-.482-1.385c-.16-.482-.336-.968-.394-1.081a19.864 19.864 0 0 1-.87-2.418c-.013-.08-.124-.37-.248-.645-.156-.51-.406-1.028-.556-1.469-.4-1.176-.578-1.143-3.576.66-.518.31-.99.607-1.05.657-.061.05-.274.18-.475.29-.2.11-.545.318-.765.461-.22.143-.597.361-.838.484-.24.123-.576.313-.746.421-.17.11-.327.198-.35.198-.024 0-.148.077-.276.17-.44.325-1.254.698-1.366.628a.637.637 0 0 0-.28-.068c-.587-2.309.62-4.178-.398-5.963.24-4.94-.722-5.579 2.232-6.444.21.173.673.495 1.029.716.355.222.847.543 1.093.715.246.171.594.386.775.476.8.402 2.737 1.689 3.616 2.402.85.69 1.47.114 1.858-1.726l.13-.62c.037-.17.152-.634.257-1.032.21-1.289.826-2.522 1.132-3.687.241-.574.274-1.402.725-1.734a1.3 1.3 0 0 0 .228-.171c.02-.028.448-.062.95-.075 1.052-.028 1.738-.291 2.397-.92.184-.175.276-.262.39-.256zm9.706 2.693c.432.07.762.815.793 2.133.017.722.07.767.46.389 1.708-1.657 2.53.13 1.128 2.45-.29.646-.536.87-1.036 1.212-.483.332-.573.324-1.2-.11-.29-.2-.564-.363-.609-.363-.045 0-.164-.054-.264-.12-.25-.164-.333-.048-.092.127.446.325.514.41.569.71.073.4-.158.913-.557 1.242h-.001c-.31.255-.396.222-.79.116-.32-.117-.41.01-.763-.469-.403-.753.228-1.749 1.11-1.752.11 0 .201-.033.201-.073 0-.088-.242-.104-1.204-.08-.86.023-.89.004-1.137-.725-.088-.259-.2-.57-.25-.69-.38-.913-.444-1.82-.18-2.587.088-.496.47-.794.901-.802.3 0 .47.188.83.921.715 1.44.692.262.993-.41.365-.816.762-1.172 1.098-1.119zm-11.841 2.011c-.095-.004-.205.16-.395.535-.701 1.38-1.394 1.47-1.797.235-.174-.533-.174-.533-.224-.023-.027.28-.12.72-.205.974-.229 1.336-1.957 5.181.472 5.369.886-.075 1.29-.077 2.443-.011 1.457.084 2.091.093 2.24.034.07-.028.227-.054.347-.057.49-.014.413-.123-.354-.509-1.76-.885-1.634-2.119.215-2.119.343 0 .317-.12-.119-.55-.477-.468-.967-1.36-.929-1.69.016-.13.005-.238-.022-.238-.028 0-.2-.123-.382-.273-.42-.348-.755-.794-1.121-1.495-.06-.115-.112-.179-.17-.182zm-11.318 2.883c-.07.007-.012.165.149.475.606 1.17.114 1.617-1.22 1.109-.68-.259-.745-.248-.692.117.025.175.056.76.068 1.301.023.963.027.984.196 1.031.095.027.205.048.245.046l.984-.06a90.701 90.701 0 0 1 1.895-.094c1.234-.045 2.692-.163 2.864-.232.173-.069.111-.135-.78-.836-.382-.3-.687-.592-.678-.648.009-.058-.052-.108-.14-.115-.15-.012-.995-.635-2.264-1.668-.357-.29-.556-.433-.627-.426zm27.788.47c.107-.004.212-.003.313.004 1.267.082 1.434.726.446 1.714-.42.42-.404.443.49.671 1.247.318 1.6.531 1.6.964-.001.424-.718.98-1.424 1.105-1.155.204-1.191.232-.708.542 1.255.807 1.41 1.745.309 1.868-.39.044-1.654-.164-1.954-.322a6.953 6.953 0 0 0-.378-.173c-1.647-.703-1.915-.927-1.707-1.425.06-.142.102-.396.093-.564-.02-.367-.068-.36-.65.093-.499.384-1.133.309-1.555-.228-.176-.236-.246-.233-.352.015-.047.11-.15.275-.23.365-.08.09-.13.167-.113.17l.176.025c1.397.179 1.774 2.002.465 2.249-.925.174-1.223-.698-1.293-1.621-.119-.626-1.064-.648-1.096.064-.01.254-.066.467-.157.595-1.468 1.42-3.038-1.573-.48-1.719.115.06.221.11.237.11.055 0 .005-1.1-.053-1.136-.283.204-.407.173-.72.127-.979-.038-1.354-1.432-.554-2.06.672-.53 1.896.036 1.846.854-.017.283-.017.282.435.259.59-.03 1.016.152 1.305.56.228.321.37.377.445.174.225-.604 1.136-.99 1.65-.698.37.21.623.541.668.878.072.535.096.539.103.016a2.93 2.93 0 0 0-.359-1.417c-.416-.748 1.606-1.993 3.202-2.058zm-29.258 4.427a4.321 4.321 0 0 0-.074.512c-.028.26-.097.639-.154.84-.092.324-.185.982-.14.982.01 0 .275-.082.59-.182 1.321-.42 2.104.235 1.403 1.173-.033.044-.038.1-.011.127.073.074.143.058.235-.053.046-.056.408-.32.804-.588.514-.34 1.02-.8 1.51-1.071.853-.708 2.82-1.511 1.043-1.515-.522 0-.973-.014-1.002-.03-.028-.018-.675-.056-1.437-.083a76.865 76.865 0 0 1-2.065-.1c-.374-.028-.69-.033-.702-.012zm15.376.275c-.318-.007-.951.022-1.857.088-1.52.111-2.676.174-3.333.181-.946.01-1.033.219-.608 1.466.384 1.245.576 2.505 1.064 3.558.09.226.22.52.317.702.077 0 .152-.254.153-.52.004-.772.74-.608 1.45.321.776 1.378 1.452-1.873 2.383-.959.178.288.328.209.28-.149.047-.643.362-1.147.738-1.59.508-.595.47-.675-.321-.676-1.46-.002-2.066-.572-1.511-1.42.159-.242.957-.82 1.21-.875.355-.078.353-.12.035-.127zm10.512 1.538c.229 0 .415.144.606.23 1.746.672 3.185 4.162 1.54 3.736-.457-.011-1.03-.447-1.028-.001.07 2.892-.998 3.35-2.3.984-.229-.414-.344-.294-.718.747-.065.18-.214.43-.332.556-.719.765-1.703-.934-1.716-2.961-.01-1.744 0-1.766.808-1.868 1.254-.158 2.343-.651 2.907-1.316.051-.06.14-.097.233-.107zm-24.379 3.667c.188-.012.366-.01.525.013 1.934.263 2.216.974.77 1.943-.997.67-.993.63-.082.987 2.214.866 2.037 2.168-.283 2.078-.47-.018-1.031-.023-1.085-.01-.016.004.116.147.292.318 1.102 1.073 1.448 2.047.777 2.193-.562.122-1.204-.034-2.134-.518-.282-.147-1.127-.822-1.64-1.31-.22-.21-.425-.382-.454-.383-.23-.007-.28-.463-.077-.72.335-.425.53-.805.53-1.031 0-.116.058-.254.128-.306.234-.174.169-1.415-.096-1.844-.303-.492 1.515-1.326 2.83-1.41zm6.044 1.266c.393.018 1.004.392 1.756 1.12.36.273.514.688.71 1.018.254.527.644 1.177.401 1.577-.145.077-.33.227-.828.676-.265.239-.264.24-.046.183 1.028-.265 1.72.216 1.65 1.146-.163 1.46-2.202 1.124-2.27-.033 0-.51-.216-.119-.441.798-.04.16-.111.37-.16.463-.29.569-3.873-.43-4.438-1.238-.452-.645-.117-.922 1.486-1.232.431-.083.519-.188.305-.366-1.754-1.455-1.44-3.003.442-2.183.2.087.542.178.758.2.443.047.43.117.223-1.108-.118-.7.058-1.04.452-1.021zm10.875 3.51c.838-.02 1.724.22 1.724.625 0 .15-.457.995-.621 1.15-.226.212-.071.326.84.618.22.071.432.157.47.192a.373.373 0 0 0 .212.062c.216 0 .732.328.843.536.25.468-.839 1.237-2.127 1.502-.526.109-.526.154.019.805.594.712.6 1.065.023 1.238-.93.28-3.27-.194-3.86-.78-.273-.272-.288-.59-.069-1.515.286-1.205.206-1.744-.403-2.72-.11-.175.063-.417.43-.6a2.18 2.18 0 0 0 .344-.22c.08-.066.293-.197.473-.292.18-.095.381-.215.446-.268.267-.217.753-.321 1.256-.333zm-5.753.231c.115-.015.236-.015.363.003 1.131.157 1.255 1.577.184 2.108-.287.142-.287.142-.032.337.14.107.256.238.256.291 0 .053.049.138.109.188.281.024.53-.61.905-.728.896-.067 1.687.767 1.28 1.657-.351.704-1.564.85-1.948.235-.132-.21-.315-.175-.422.081-.17.291-.575.424-.213.578 1.042.432 1.112 1.8.108 2.124-1.152.37-1.957-.759-1.264-1.771.174-.254.174-.254-.118-.393-.627.085-.365.303-.956.69-.352.308-1.095.387-1.437.152-1.076-.74-.478-2.097.912-2.068.492.01.493.01.493-.227 0-.431.469-.98.965-1.129.33-.099.329-.084.045-.48-.496-.69-.032-1.54.77-1.647zm-5.064 4.147c.763-.017.763-.017 1.12.703.244.492.482.847.747 1.116.214.218.41.46.434.537 1.267 1.186-.03 4.018-1.361 4.713-.88.301-1.118.022-1.073-1.263.026-.743-.055-.85-.509-.664-1.951.8-2.457.849-2.445.234.015-.721.37-1.703.894-2.464.219-.317.225-.342.085-.342-.188 0-1.047-.236-1.387-.382-1.608-.688.687-2.124 3.495-2.188zm7.85 1.863c.239.004.541.255 1.143.845 2.412 2.366 2.413 4.04.003 2.894-.556-.264-.557-.264-.508.01.225 1.261.084 2.645-.284 2.794-.33.134-.578-.029-1.583-1.041-.713-.718-.755-.712-1.18.178-.543 1.141-1.36.646-1.752-1.064-.21-.916.122-3.068.475-3.076.29-.028.593-.082.84-.088.719-.014 1.796-.551 2.431-1.213.15-.155.27-.241.414-.239zM17.73 42.433c-.396 0-.809 1.204-.726 2.118.044.49.036.495-.44.27-1.018-.484-1.815-.165-1.63.651.053.233.123.571.156.751.12.658.711 1.509 1.633 2.348.36.327.39.33.786.077l.43-.274c.064-.04.256-.165.426-.279.408-.27 1.182-.432 2.064-.43.982.001 1.393-.822 1.392-2.79 0-2.047-.836-2.508-1.786-.984-.315.506-.506.62-.561.335-.13-.68-1.214-1.793-1.744-1.793zm7.064 1.94c-1.237.521-2.014 1.754-2.564 2.598-.61.94-.606.903-.097 1.217.693.427 1.362 1.358 1.587 2.206.141.532.23.744.37.885.252.252 2.052.054 2.565-.283 1.5-.607 2.452-2.055.448-2.285-.795-.06-.814-.083-.417-.503 1.055-1.113 1.522-2.005 1.194-2.277-.434-.375-1.666.235-2.51.32-.022-.022-.04-.384-.04-.805 0-.743-.205-1.125-.536-1.072zM13.5 48.013c-1.128-.009-1.777.508-1.217 1.243.19.393.428.614.601.993.165.294-2.403.623-2.452 1.33.141.767.827.882 1.414 1.06.24.074.552.154.693.178.638.11.644.238.04.853-.765.781-.785 1.113-.085 1.452.668.324 1.686.068 3.459-.87.352-.153 1.427-.582.922-1.017-.533-.42-.689-2.267-.267-3.164.127-.27.231-.536.231-.593 0-.303-1.138-1-2.077-1.27a4.745 4.745 0 0 0-1.262-.195zm5.736.008c-.959-.002-1.358 1.126-.67 1.896.333.374.336.375.752.362 1.613-.05 1.533-2.255-.082-2.258zm13.628 8.518c.055-.2.14-.53.192-.734.05-.204.167-.5.259-.66.289-.502-.597-1.42-1.803-1.87-.896-.334-2.581-.152-2.692.29-.05.2-.196.187-.235-.02-.038-.207-.149-.319-.593-.602a5.132 5.132 0 0 1-.438-.297c-.586-.688-3.79-.784-3.79-.114 0 .09-.046.2-.103.248-.085.07-.097.06-.066-.06.1-.384-.963-1.09-1.346-.894-.363.186-.656.021-.801-.451-.131-.426-.138-.682-.013-.48.233.377 1.475.035 1.682-.463.526-1.424-1.422-1.95-2.049-1.039-.218.354-.2.888.04 1.167.236.274.119.326-.286.126-.593-.292-1.14-.215-1.597.223-.302.29-.302.29-.37.08-.356-1.11-2.243-.819-2.299.356.106 1.115 1.509 1.733 2.252.737.69-.065.32.482.362.668-.57.123-.933.43-.981 1-.35.655.78 1.62 1.68 1.407 1.194-.199 1.022-1.356.906-1.762-.155-.262-.155-.268-.052-.424.277-.182.446-.123.47.162.026.337.214.588.56.75.515.24.808.216 1.137.09.417-.03-.27.644-1.033 1.013-.367.177-.396.333-.167.876.107.252.237.61.289.796.44 1.559 1.547 2.615 2.738 2.615.471 0 .57-.758.239-1.841-.107-.351-.18-.653-.163-.67.89.139 1.73.336 2.577.433.734.17.886.76 1.46 1.047.33.12.328.126-.154.596-.98.955-.744 1.347.81 1.342 1.824-.007 3.748-.87 3.514-1.575-.218-.72-.297-1.427-.136-2.066zm-4.195-2.514c.04-.022.133.068.231.236.076.13.353.46.615.733.52.542.52.63-.008.633-.357.001-1.52.29-1.667.414-.163.138-.325.12-.402-.043-.149-.318-1.22-1.318-1.411-1.318-.155 0-.07-.146.088-.15.73-.022 1.382-.08 1.658-.145.338-.06.693-.182.896-.36zm-11.485.27c-.112.006-.245.107-.51.308-2.714 2.067-3.06 5.435-.37 3.61.445-.303.519-.168.395.724-.114.82.062 1.484.465 1.747.286.188.223.265-.215.265-1.488-.348-1.9.203-1.674-1.147.276-1.638-2.319-.137-3.673 2.126-.397.664-.396.669.269 1.225.632.53 1 1.035 1.236 1.696.188.777.297 1.72.2 2.242-.08 1.567-2.813 2.686-2.62 3.32.11.6.397 1.126.62 1.645.271.628.651 1.103 1.246 1.554 1.075.817 1.497.38 1.262-1.305-.136-.98-.192-.928.59-.542 1.043.515 1.756.776 2.12.776.285 0 .323.017.278.128-.029.07-.07.414-.091.765-.021.35-.042.638-.047.637-.071-.007-.734-.235-.944-.325-1.18-.504-1.544.533-.75 2.14.296.775.907 1.37 1.559 1.866 1.337-.713 2.323-.907 4.204-.663.058-.023.171-.227.252-.454.08-.227.233-.643.34-.923.105-.28.322-.904.481-1.385.16-.482.337-.968.394-1.081.349-.813.665-1.676.87-2.418.013-.08.125-.37.249-.645.155-.51.405-1.028.556-1.469.399-1.176.577-1.143 3.575.66.518.31.991.607 1.051.657.06.05.274.18.474.29.2.11.545.318.765.461.221.143.598.361.838.484.241.123.577.313.746.421.17.11.328.198.351.198.024 0 .148.077.275.17.441.325 1.254.698 1.366.628a.637.637 0 0 1 .28-.068c.587-2.309-.62-4.178.399-5.963-.24-4.94.721-5.579-2.233-6.444-.21.173-.673.495-1.028.716-.356.222-.848.543-1.094.715a7.907 7.907 0 0 1-.774.476c-.8.402-2.738 1.689-3.617 2.402-.85.69-1.469.114-1.857-1.726-.036-.17-.096-.449-.131-.62a30.53 30.53 0 0 0-.257-1.032c-.209-1.289-.826-2.522-1.131-3.687-.242-.574-.274-1.402-.726-1.734a1.3 1.3 0 0 1-.227-.171c-.02-.028-.448-.062-.95-.075-1.052-.028-1.738-.291-2.397-.92-.184-.175-.277-.262-.39-.256zm-9.706 2.693c-.431.07-.761.815-.793 2.133-.017.722-.07.767-.46.389-1.707-1.657-2.53.13-1.128 2.45.29.646.536.87 1.037 1.212.483.332.573.324 1.2-.11.29-.2.563-.363.608-.363.045 0 .164-.054.264-.12.25-.164.334-.048.092.127-.446.325-.514.41-.569.71-.072.4.158.913.558 1.242.31.255.396.222.79.116.321-.117.41.01.763-.469.403-.753-.228-1.749-1.11-1.752-.11 0-.2-.033-.2-.073 0-.088.241-.104 1.203-.08.861.023.89.004 1.137-.725.088-.259.2-.57.251-.69.38-.913.443-1.82.18-2.587-.089-.496-.47-.794-.902-.802-.3 0-.47.188-.829.921-.715 1.44-.692.262-.993-.41-.366-.816-.763-1.172-1.099-1.119Zm11.842 2.011c.095-.004.205.16.395.535.7 1.38 1.393 1.47 1.796.235.174-.533.175-.533.224-.023.027.28.12.72.205.974.23 1.336 1.957 5.181-.472 5.369-.886-.075-1.29-.077-2.442-.011-1.457.084-2.092.093-2.241.034a1.258 1.258 0 0 0-.347-.057c-.489-.014-.413-.123.355-.509 1.759-.885 1.634-2.119-.215-2.119-.343 0-.318-.12.118-.55.477-.468.967-1.36.93-1.69-.016-.13-.006-.238.022-.238.028 0 .199-.123.38-.273.422-.348.757-.794 1.123-1.495.06-.115.112-.179.169-.182zm11.317 2.883c.07.007.012.165-.148.475-.606 1.17-.114 1.617 1.22 1.109.68-.259.744-.248.692.117-.025.175-.056.76-.069 1.301-.022.963-.026.984-.195 1.031a1.106 1.106 0 0 1-.245.046l-.985-.06a90.702 90.702 0 0 0-1.895-.094c-1.233-.045-2.692-.163-2.864-.232-.173-.069-.11-.135.78-.836.382-.3.688-.592.679-.648-.01-.058.051-.108.139-.115.15-.012.996-.635 2.265-1.668.356-.29.556-.433.626-.426zm-27.788.47a2.959 2.959 0 0 0-.313.004c-1.266.082-1.434.726-.445 1.714.42.42.404.443-.49.671-1.248.318-1.6.531-1.6.964 0 .424.717.98 1.424 1.105 1.154.204 1.19.232.708.542-1.256.807-1.41 1.745-.31 1.868.391.044 1.654-.164 1.955-.322.067-.035.237-.113.378-.173 1.647-.703 1.914-.927 1.706-1.425a1.529 1.529 0 0 1-.092-.564c.019-.367.067-.36.65.093.498.384 1.132.309 1.555-.228.176-.236.245-.233.351.015.047.11.15.275.23.365.08.09.13.167.113.17a5.238 5.238 0 0 1-.176.025c-1.397.179-1.774 2.002-.464 2.249.925.174 1.223-.698 1.292-1.621.12-.626 1.064-.648 1.096.064.01.254.066.467.157.595 1.469 1.42 3.038-1.573.48-1.719-.115.06-.221.11-.236.11-.056 0-.005-1.1.052-1.136.283.204.408.173.72.127.98-.038 1.354-1.432.555-2.06-.673-.53-1.897.036-1.847.854.017.283.017.282-.434.259-.591-.03-1.017.152-1.305.56-.228.321-.37.377-.446.174-.225-.604-1.136-.99-1.65-.698-.37.21-.622.541-.668.878-.072.535-.096.539-.102.016a2.933 2.933 0 0 1 .358-1.417c.417-.748-1.605-1.993-3.202-2.058zm29.259 4.427c.012.02.045.251.073.512.028.26.098.639.155.84.091.324.184.982.14.982-.01 0-.276-.082-.591-.182-1.32-.42-2.103.235-1.402 1.173.032.044.037.1.01.127-.073.074-.143.058-.235-.053-.046-.056-.408-.32-.804-.588-.513-.34-1.02-.8-1.51-1.071-.853-.708-2.82-1.511-1.043-1.515.523 0 .973-.014 1.002-.03.029-.018.676-.056 1.437-.083a76.864 76.864 0 0 0 2.066-.1c.374-.028.69-.033.702-.012zm-15.376.275c.317-.007.95.022 1.856.088 1.52.111 2.676.174 3.333.181.946.01 1.033.219.608 1.466-.384 1.245-.575 2.505-1.064 3.558-.089.226-.22.52-.317.702-.077 0-.152-.254-.153-.52-.004-.772-.74-.608-1.45.321-.775 1.378-1.451-1.873-2.383-.959-.178.288-.328.209-.28-.149-.047-.643-.362-1.147-.737-1.59-.508-.595-.47-.675.32-.676 1.46-.002 2.067-.572 1.511-1.42-.158-.242-.956-.82-1.209-.875-.356-.078-.353-.12-.035-.127zM6.219 68.59c-.23 0-.416.144-.606.23-1.747.672-3.185 4.162-1.54 3.736.456-.011 1.029-.447 1.028-.001-.071 2.892.997 3.35 2.3.984.228-.414.344-.294.718.747.065.18.214.43.331.556.72.765 1.704-.934 1.716-2.961.01-1.744.001-1.766-.808-1.868-1.253-.158-2.342-.651-2.907-1.316a.362.362 0 0 0-.232-.107zm24.378 3.667a2.665 2.665 0 0 0-.525.013c-1.934.263-2.216.974-.77 1.943.997.67.994.63.082.987-2.214.866-2.036 2.168.283 2.078.471-.018 1.031-.023 1.086-.01.015.004-.116.147-.292.318-1.103 1.073-1.448 2.047-.777 2.193.561.122 1.204-.034 2.134-.518.282-.147 1.127-.822 1.64-1.31.22-.21.424-.382.453-.383.231-.007.28-.463.078-.72-.336-.425-.532-.805-.532-1.031 0-.116-.057-.254-.127-.306-.233-.174-.168-1.415.097-1.844.303-.492-1.515-1.326-2.83-1.41zm-6.043 1.266c-.394.018-1.005.392-1.757 1.12-.36.273-.514.688-.71 1.018-.254.527-.644 1.177-.4 1.577.144.077.329.227.827.676.265.239.265.24.046.183-1.027-.265-1.719.216-1.649 1.146.163 1.46 2.202 1.124 2.27-.033 0-.51.216-.119.44.798.04.16.111.37.16.463.291.569 3.873-.43 4.439-1.238.451-.645.116-.922-1.486-1.232-.432-.083-.52-.188-.305-.366 1.753-1.455 1.44-3.003-.443-2.183-.2.087-.541.178-.758.2-.443.047-.429.117-.222-1.108.118-.7-.059-1.04-.452-1.021zm-10.875 3.51c-.839-.02-1.725.22-1.725.625 0 .15.458.995.622 1.15.226.212.07.326-.84.618-.22.071-.432.157-.47.192a.373.373 0 0 1-.213.062c-.215 0-.731.328-.842.536-.25.468.838 1.237 2.126 1.502.527.109.526.154-.018.805-.594.712-.601 1.065-.023 1.238.93.28 3.27-.194 3.859-.78.273-.272.288-.59.07-1.515-.287-1.205-.207-1.744.403-2.72.11-.175-.064-.417-.43-.6a2.18 2.18 0 0 1-.344-.22 3.597 3.597 0 0 0-.474-.292 3.708 3.708 0 0 1-.446-.268c-.267-.217-.752-.321-1.255-.333zm5.752.231a1.337 1.337 0 0 0-.362.003c-1.132.157-1.256 1.577-.184 2.108.287.142.286.142.031.337-.14.107-.255.238-.255.291 0 .053-.05.138-.11.188-.28.024-.53-.61-.905-.728-.896-.067-1.687.767-1.28 1.657.352.704 1.564.85 1.949.235.131-.21.315-.175.421.081.17.291.576.424.213.578-1.042.432-1.112 1.8-.108 2.124 1.152.37 1.958-.759 1.264-1.771-.174-.254-.173-.254.118-.393.627.085.365.303.956.69.352.308 1.096.387 1.437.152 1.077-.74.478-2.097-.912-2.068-.492.01-.492.01-.492-.227 0-.431-.47-.98-.966-1.129-.33-.099-.329-.084-.044-.48.495-.69.032-1.54-.77-1.647zm5.064 4.147c-.762-.017-.762-.017-1.12.703-.244.492-.481.847-.747 1.116-.214.218-.409.46-.433.537-1.268 1.186.03 4.018 1.36 4.713.88.301 1.118.022 1.074-1.263-.026-.743.055-.85.508-.664 1.952.8 2.458.849 2.445.234-.014-.721-.37-1.703-.894-2.464-.218-.317-.224-.342-.085-.342.188 0 1.048-.236 1.388-.382 1.608-.688-.687-2.124-3.496-2.188zm-7.849 1.863c-.24.004-.542.255-1.143.845-2.412 2.366-2.414 4.04-.003 2.894.556-.264.556-.264.507.01-.224 1.261-.084 2.645.284 2.794.33.134.579-.029 1.584-1.041.713-.718.754-.712 1.179.178.544 1.141 1.36.646 1.752-1.064.21-.916-.122-3.068-.475-3.076-.29-.028-.593-.082-.84-.088-.718-.014-1.796-.551-2.431-1.213-.15-.155-.27-.241-.414-.239z" style="fill:#241d15;fill-opacity:1;stroke-width:.0728929"/><path d="M31.79 28.839h168.799v74.613H31.79z" style="display:inline;fill:#f2efe5;stroke:#241d15;stroke-width:1.32292;stroke-linecap:round;stroke-linejoin:round;stroke-dasharray:none;stroke-dashoffset:0;stroke-opacity:1;stop-color:#000"/><path d="M36.982 33.751h158.414v64.79H36.982z" style="display:inline;fill:#f2efe5;stroke:#241d15;stroke-width:1.32292;stroke-linecap:round;stroke-linejoin:round;stroke-dasharray:10.5833,2.64581,1.32292,2.64581;stroke-dashoffset:0;stroke-opacity:1;stop-color:#000"/><path d="M0 0h231.51v132.292H0z" style="fill:none;stroke:none;stroke-width:11.3433;stroke-linecap:round;stroke-linejoin:round;stroke-dasharray:90.7455,22.6861,11.3433,22.6861;stroke-dashoffset:0;stop-color:#000"/></svg>