<svg xmlns="http://www.w3.org/2000/svg" xml:space="preserve" width="875" height="500" viewBox="0 0 231.51 132.292"><defs><linearGradient id="a" x1="18.242" x2="93.699" y1="-.002" y2="-.002" gradientTransform="matrix(2.07842 0 0 .48307 0 .001)" gradientUnits="userSpaceOnUse"><stop offset="0" style="stop-color:#241d15;stop-opacity:1"/></linearGradient></defs><path d="M213.78 50.181c.397 0 .81 1.208.727 2.126-.045.492-.037.498.44.271 1.017-.486 1.814-.166 1.63.655-.053.234-.123.572-.156.753-.12.66-.712 1.516-1.634 2.358-.36.327-.39.331-.785.076l-.43-.275a25.79 25.894 0 0 1-.427-.279c-.407-.272-1.182-.435-2.064-.433-.982.001-1.392-.825-1.392-2.8 0-2.056.837-2.519 1.786-.989.316.51.507.623.56.337.132-.682 1.215-1.8 1.745-1.8zm-7.064 1.948c1.238.522 2.014 1.76 2.565 2.608.609.943.606.906.096 1.223-.693.428-1.362 1.362-1.587 2.214-.14.535-.23.746-.37.888-.252.253-2.051.054-2.564-.283-1.5-.61-2.453-2.064-.45-2.295.796-.06.816-.084.418-.504-1.054-1.119-1.522-2.014-1.194-2.287.434-.376 1.666.236 2.51.32.023-.021.04-.385.04-.807 0-.745.205-1.13.536-1.077zm11.295 3.653c1.129-.01 1.778.51 1.217 1.249-.19.393-.427.615-.6.997-.166.295 2.403.625 2.452 1.335-.142.77-.827.885-1.415 1.064-.24.074-.552.154-.692.178-.64.11-.645.24-.041.858.766.783.786 1.116.086 1.457-.668.326-1.687.068-3.46-.874-.351-.154-1.427-.583-.921-1.021.533-.422.688-2.276.266-3.176-.127-.271-.23-.539-.23-.595 0-.305 1.138-1.004 2.077-1.275a4.745 4.764 0 0 1 1.26-.197zm-5.736.009c.959-.002 1.358 1.13.67 1.902-.333.377-.335.378-.752.365-1.612-.051-1.532-2.264.082-2.267zm-13.628 8.551c-.054-.2-.14-.532-.191-.737a3.11 3.11 0 0 0-.26-.662c-.288-.505.597-1.426 1.803-1.877.897-.335 2.58-.154 2.692.291.05.2.196.187.235-.021.039-.208.15-.32.594-.603.22-.14.417-.275.437-.3.587-.69 3.79-.787 3.79-.113 0 .09.047.2.104.249.084.07.097.06.065-.06-.1-.387.963-1.095 1.347-.898.363.186.655.02.8-.454.132-.427.138-.684.013-.482-.232.379-1.475.036-1.681-.464-.526-1.43 1.422-1.958 2.048-1.043.219.356.2.89-.04 1.172-.235.275-.118.326.287.127.592-.294 1.14-.217 1.596.222.302.292.303.292.37.082.356-1.115 2.243-.824 2.3.356-.107 1.12-1.51 1.74-2.252.74-.69-.065-.32.484-.363.672.57.122.933.432.982 1.004.35.657-.78 1.626-1.681 1.412-1.194-.2-1.021-1.36-.906-1.769.156-.264.155-.269.053-.425-.278-.183-.446-.125-.47.162-.027.338-.215.59-.56.753-.515.24-.81.216-1.137.09-.417-.03.27.646 1.033 1.017.367.179.396.334.166.88a8.777 8.777 0 0 0-.29.799c-.44 1.566-1.545 2.625-2.737 2.625-.47 0-.57-.761-.24-1.847.109-.354.182-.657.164-.674-.89.14-1.73.338-2.576.435-.734.17-.886.764-1.46 1.052-.33.12-.328.126.153.597.98.96.744 1.354-.81 1.348-1.824-.007-3.747-.873-3.514-1.582.218-.723.297-1.432.136-2.074zm4.196-2.523c-.04-.022-.134.067-.232.237-.076.13-.353.462-.615.735-.52.545-.52.633.007.635.358.002 1.52.292 1.668.416.163.139.325.12.402-.043.148-.32 1.22-1.322 1.411-1.322.155 0 .07-.147-.089-.152-.73-.022-1.382-.08-1.657-.146-.339-.06-.694-.181-.897-.361zm11.484.27c.113.006.246.107.51.31 2.714 2.076 3.06 5.456.37 3.624-.445-.303-.52-.168-.395.727.114.824-.063 1.49-.465 1.755-.286.187-.224.265.215.265 1.488-.349 1.9.204 1.673-1.15-.275-1.646 2.32-.138 3.673 2.134.398.665.397.67-.267 1.229-.633.532-1.001 1.04-1.236 1.702-.19.782-.298 1.728-.2 2.251.08 1.575 2.813 2.698 2.62 3.335-.111.602-.398 1.13-.621 1.65-.27.632-.65 1.109-1.245 1.562-1.076.819-1.498.381-1.263-1.31.137-.985.193-.933-.59-.546-1.043.517-1.756.78-2.12.78-.284 0-.322.017-.277.128.028.07.07.416.09.768.022.352.042.64.047.64.072-.008.735-.236.945-.326 1.18-.506 1.543.534.75 2.148-.296.778-.907 1.376-1.56 1.873-1.337-.716-2.322-.91-4.204-.665-.057-.023-.17-.227-.251-.455a67.426 67.426 0 0 0-.34-.928 45.04 45.22 0 0 1-.483-1.39c-.16-.483-.336-.971-.394-1.085a19.864 19.944 0 0 1-.87-2.429c-.013-.08-.124-.371-.248-.646-.156-.513-.406-1.033-.556-1.476-.4-1.18-.578-1.148-3.576.663-.518.312-.99.609-1.05.66-.06.05-.274.18-.475.29-.2.112-.545.32-.765.464-.22.144-.597.362-.838.486-.24.124-.576.313-.746.422-.17.11-.327.199-.35.199-.024 0-.148.077-.276.171-.44.327-1.254.701-1.366.63a.637.64 0 0 0-.28-.067c-.587-2.32.62-4.196-.398-5.987.24-4.96-.722-5.602 2.232-6.471.21.173.673.497 1.03.72.354.222.846.545 1.092.717.246.172.594.387.775.478.8.403 2.737 1.695 3.616 2.411.85.693 1.47.115 1.858-1.732l.13-.622c.037-.171.152-.638.257-1.037.21-1.294.826-2.532 1.132-3.701.241-.578.274-1.408.725-1.742a1.3 1.305 0 0 0 .228-.17c.02-.029.448-.063.95-.077 1.052-.028 1.738-.292 2.397-.923.184-.176.276-.264.39-.257zm9.706 2.705c.432.07.762.818.793 2.14.017.726.07.771.46.392 1.708-1.664 2.53.13 1.128 2.46-.29.648-.536.873-1.036 1.217-.483.333-.573.325-1.2-.11-.29-.202-.564-.366-.61-.366-.045 0-.164-.054-.264-.12-.25-.164-.333-.049-.092.128.446.326.514.41.57.713.072.4-.159.915-.558 1.247-.31.256-.397.222-.79.115-.32-.116-.41.01-.764-.47-.403-.757.228-1.756 1.11-1.759.11 0 .201-.033.201-.073 0-.088-.242-.105-1.204-.08-.86.022-.89.003-1.137-.728-.088-.261-.2-.573-.25-.693-.38-.917-.444-1.827-.18-2.598.088-.497.47-.797.901-.805.3 0 .47.19.83.924.715 1.447.692.263.993-.412.365-.819.762-1.176 1.098-1.122zm-11.841 2.018c-.096-.004-.206.162-.396.537-.7 1.387-1.394 1.477-1.797.236-.174-.535-.174-.535-.224-.023-.027.282-.12.723-.205.979-.229 1.34-1.957 5.2.472 5.39.886-.076 1.29-.078 2.443-.01 1.457.083 2.091.093 2.24.032a1.29 1.29 0 0 1 .348-.056c.49-.014.413-.123-.354-.512-1.76-.887-1.634-2.126.215-2.126.343 0 .317-.12-.12-.553-.476-.47-.966-1.366-.928-1.696.016-.132.005-.24-.022-.24-.028 0-.2-.123-.382-.274-.42-.35-.755-.798-1.121-1.5-.06-.117-.112-.181-.17-.183zm-11.319 2.894c-.07.008-.012.166.15.477.605 1.175.113 1.624-1.22 1.114-.68-.26-.746-.248-.693.117.025.176.056.763.068 1.308.023.966.027.987.196 1.035.095.027.205.047.245.045l.984-.06a90.701 91.065 0 0 1 1.895-.094c1.235-.046 2.693-.164 2.865-.233.173-.07.11-.136-.78-.839-.382-.302-.687-.595-.678-.652.009-.057-.052-.108-.14-.114-.15-.013-.995-.639-2.264-1.676-.357-.291-.556-.435-.627-.428zm27.788.473c.107-.004.212-.003.313.003 1.267.083 1.434.73.446 1.722-.42.422-.404.445.49.673 1.247.32 1.6.533 1.6.969 0 .425-.718.984-1.424 1.108-1.155.205-1.19.233-.708.545 1.255.81 1.41 1.751.31 1.876-.39.044-1.655-.166-1.955-.323a6.953 6.98 0 0 0-.378-.175c-1.647-.706-1.915-.93-1.707-1.43.06-.143.102-.397.093-.566-.02-.369-.068-.361-.65.092-.499.386-1.133.312-1.555-.229-.176-.237-.246-.234-.352.016-.047.11-.15.276-.23.366-.08.09-.13.168-.113.17.017.005.096.016.176.026 1.397.18 1.774 2.01.465 2.259-.925.173-1.223-.701-1.293-1.629-.119-.627-1.064-.65-1.096.066-.01.255-.066.468-.157.596-1.468 1.426-3.038-1.578-.48-1.725.115.06.221.11.237.11.055 0 .005-1.105-.053-1.141-.283.206-.407.174-.72.128-.979-.039-1.354-1.437-.554-2.069.672-.532 1.896.037 1.846.859-.017.283-.017.283.435.26.59-.032 1.016.151 1.305.56.228.324.37.38.445.177.225-.607 1.136-.994 1.65-.702.37.21.623.543.668.881.072.537.096.542.103.016a2.93 2.942 0 0 0-.359-1.421c-.416-.752 1.606-2.001 3.202-2.068zm-29.258 4.444a4.321 4.338 0 0 0-.074.514 6.265 6.265 0 0 1-.154.845c-.092.325-.185.985-.14.985.01 0 .275-.083.59-.183 1.321-.42 2.104.237 1.403 1.177-.033.045-.038.102-.01.129.072.073.142.057.234-.054.046-.055.408-.321.804-.59.514-.342 1.02-.804 1.51-1.076.853-.71 2.82-1.517 1.043-1.52-.522 0-.973-.014-1.002-.031-.028-.018-.675-.055-1.437-.083a76.865 77.174 0 0 1-2.065-.1c-.374-.028-.69-.034-.702-.013zm15.376.276c-.318-.007-.95.022-1.857.09-1.52.11-2.676.174-3.333.18-.946.01-1.033.221-.608 1.473.384 1.25.576 2.515 1.064 3.572.09.227.22.522.317.705.077 0 .152-.256.153-.523.004-.774.74-.61 1.45.324.776 1.382 1.452-1.881 2.383-.964.178.29.328.21.28-.149.047-.647.362-1.152.738-1.596.508-.599.47-.678-.32-.679-1.46-.003-2.067-.575-1.512-1.426.16-.243.957-.823 1.21-.878.355-.079.353-.122.035-.129zm10.512 1.544c.23 0 .415.146.606.231 1.746.676 3.185 4.18 1.54 3.752-.457-.012-1.03-.45-1.028-.002.07 2.905-.998 3.364-2.3.99-.229-.417-.344-.297-.718.75-.065.18-.214.431-.332.557-.719.768-1.703-.938-1.716-2.972-.01-1.752 0-1.774.808-1.877 1.254-.158 2.343-.652 2.907-1.321a.363.363 0 0 1 .233-.108zm-24.379 3.682c.188-.012.366-.009.525.013 1.934.265 2.216.978.77 1.952-.996.672-.992.633-.081.99 2.214.87 2.037 2.178-.283 2.087-.47-.018-1.031-.024-1.085-.01-.016.003.116.148.292.32 1.102 1.076 1.448 2.054.777 2.2-.562.123-1.204-.034-2.134-.519-.282-.147-1.127-.825-1.64-1.315-.22-.21-.425-.385-.454-.386-.23-.007-.28-.464-.077-.722.335-.427.53-.808.53-1.035 0-.116.058-.255.128-.307.234-.175.169-1.421-.096-1.852-.303-.493 1.515-1.33 2.83-1.416zm6.044 1.271c.394.018 1.005.395 1.757 1.126.36.274.514.69.71 1.022.254.529.644 1.18.4 1.583-.144.076-.33.228-.827.679-.265.239-.264.24-.046.183 1.028-.266 1.72.216 1.65 1.151-.163 1.466-2.202 1.129-2.27-.033 0-.513-.216-.12-.441.801-.04.16-.111.37-.16.465-.29.57-3.873-.432-4.438-1.243-.452-.647-.117-.927 1.486-1.237.43-.083.519-.19.305-.368-1.754-1.461-1.44-3.015.442-2.192.2.088.542.179.758.2.443.049.43.12.223-1.112-.118-.702.058-1.043.452-1.024zm10.876 3.524c.838-.019 1.724.221 1.724.628 0 .15-.458 1-.622 1.154-.226.213-.07.328.84.622.22.07.432.158.47.192a.373.374 0 0 0 .212.063c.216 0 .732.33.843.537.25.47-.839 1.242-2.127 1.51-.526.108-.526.154.02.807.593.714.6 1.069.022 1.243-.93.28-3.27-.194-3.86-.783-.273-.273-.288-.593-.069-1.52.286-1.212.206-1.752-.403-2.732-.11-.177.063-.42.43-.602a2.18 2.189 0 0 0 .344-.221c.08-.066.293-.199.473-.293.18-.096.381-.217.446-.27.267-.218.753-.323 1.256-.335zm-5.753.233c.115-.015.236-.016.363.002 1.13.159 1.255 1.585.184 2.117-.287.142-.287.142-.032.338.14.109.256.24.256.293 0 .053.049.138.109.188.28.025.53-.611.905-.73.896-.068 1.687.77 1.28 1.663-.351.708-1.564.854-1.948.236-.132-.211-.315-.176-.422.082-.17.291-.575.425-.213.58 1.042.434 1.112 1.808.108 2.132-1.152.372-1.957-.761-1.264-1.777.174-.255.174-.256-.118-.395-.627.085-.365.304-.956.692-.352.31-1.095.39-1.437.154-1.076-.743-.478-2.106.912-2.078.492.01.493.01.493-.228 0-.431.469-.984.965-1.132.33-.1.329-.086.045-.482-.496-.694-.032-1.547.77-1.655zm-5.064 4.163c.763-.017.763-.017 1.12.707.244.494.482.85.747 1.12.214.218.41.461.434.54 1.267 1.19-.03 4.033-1.361 4.731-.88.301-1.118.021-1.073-1.269.026-.746-.055-.853-.51-.665-1.95.803-2.456.85-2.444.234.015-.724.37-1.71.894-2.474.219-.319.225-.343.085-.343-.188 0-1.047-.238-1.387-.384-1.608-.69.687-2.133 3.495-2.197zm7.85 1.871c.239.004.54.256 1.143.849 2.412 2.374 2.413 4.055.003 2.905-.556-.265-.557-.265-.508.01.225 1.265.084 2.655-.284 2.805-.33.135-.578-.028-1.583-1.045-.713-.721-.755-.714-1.18.18-.543 1.144-1.36.648-1.752-1.07-.21-.919.121-3.08.474-3.088.29-.029.593-.083.84-.088.72-.014 1.796-.554 2.431-1.218.15-.156.27-.243.414-.24z" style="fill:#241d15;fill-opacity:1;stroke-width:.0730391"/><path d="m93.79 112.009.45.17c.325.12.244.212-.482.543-1.002.455-1.627.913-1.787 1.31-.172.574.55.738.995.814.43.065.46.065 1.077-.026 1.128-.167 1.141-.157.671.532-.69 1.014-.706 1.424-.054 1.555.356.07 1.18-.11 1.57-.346.19-.117.36-.211.376-.211.104 0 .913-.62 1.443-1.107.645-.598.983-.435.49-.964-.389-.439-.58-.894-.769-1.376-.257-3.664-7.992-3.009-3.98-.894zm4.164-.032c.07 1.24 1.718 1.572 2.269.455.177-.359.177-.359.329-.18.082.1.241.238.351.307.273.17.254.249-.08.34-.987.266-.936 1.872.07 2.205 1.314.436 2.075-1.377.894-2.128-.335-.214-.335-.213-.126-.265.117-.03.35-.132.522-.227.33-.185.455-.09.455.338 0 1.02 1.693 1.183 2.189.21-.005-2.308-6.894-2.88-6.872-1.055zm6.903 1.63c-.095.14-.173.275-.173.3 0 .024-.124.165-.274.314-.737.722-.715.666-.45 1.147.292.528.879 1.179 1.27 1.41.659.386.925.524 1.012.524.05 0 .36.133.684.296.328.163.71.305.855.316 1.01.555 3.433 3.817 4.271 2.806.146-.247.32-.465.469-.677.293-.47 1-1.008 1-.76-.306.318-.496.946-.302 1.335.163.484.457.516.874.647.229.053.426.103.438.111.02.014-.102.594-.174.827-.02.069-.125.028-.355-.138-1.062-.643-2.14.361-1.726 1.454.46 1.079 2.263.598 2.27-.604 0-.116.045-.088.231.138.128.154.342.328.476.383.283.12.315.286.065.349-1.15.29-.612 2.44.544 2.18 1.234-.279 1.344-2.015.142-2.257-.212-.042-.308-.171-.128-.171.173 0 .79-.475.75-.577-.025-.068 0-.085.08-.055a.677.68 0 0 0 .182.044c.038 0 .068.068.068.15 0 .792 1.525 1.194 2.04.537.975-1.244-.82-2.696-1.862-1.507-.17.194-.174.195-.176.032 0-.09-.092-.327-.203-.526-.21-.376-.185-.54.057-.387.624.391 1.582-.34 1.432-1.094-.074-.371.193-.154.817.662.134.176.134.176.641-.018 1.165-.388 2.934-.919 3.427-2.102.45-.441.097-1.245-.2-1.393a1.02 1.024 0 0 0-.91-.065c-.113.044-.37.124-.57.176-.201.053-.44.12-.53.148-.34-.423.037-1.025.337-1.481.369-.547 1.549.25 2.523-.169.482-.208.487.055.016.868-.185.319-.353 1.257-.247 1.385.3.368.796.32 1.955-.184.378-.166 1.498-1.224 1.764-1.668.54-.904.508-1.276-.173-1.988-.68-.71-.99-1.43-1.015-2.342-.197-2.646-5.25-.365-4.994.454.19.353 1.362.905 1.923.905.205 0 .285.157.129.252-.24.148-.884.64-1.083.83-.33.19-.798.387-.94.34-.172-.206-.378-.24-.651-.103-.141.07-.376.15-.523.177-.147.027-.514.213-.817.413-.661.437-.776.395-.78-.288 0-.217-.191-.803-.306-.941-.26-.316-1.008.005-1.561.67-.255.306-.29.325-.403.221-.125-.113-.223-.509-.145-.587.023-.023.06-1.004.085-2.18-.947-4.792-1.003 1.65-.99 2.406.058 3.754.096 4.004.604 3.983.24-.01.464.042.745.174.22.104.476.211.567.24.199.06.146.186-.078.19-.563.007-1.007.956-.744 1.586.137.33.113.355-.22.244-.146-.049-.33-.07-.406-.05-.205.053-.24-.057-.137-.455.17-.664-.386-1.473-1.014-1.475-.221.064-.308.116-.561.183-.08.032-.028-.024.117-.125.145-.103.429-.241.63-.307.914-.306.4-3.623-.677-4.363-.515-.354-.857-.18-1.305.66-.341.642-.355.657-.507.548a3.699 3.714 0 0 0-.398-.234c-.692-.583-1.634-.904-2.28-1.353-.472-.322-.974-.727-1.455-.98-.098-.117-.118-.108.67-.3.27-.067.68-.213.911-.327.935-.355.43-.913-.162-1.23-5.196-2.2-3.09.28-4.466 2.445zm21.82-1.447c-.08.283.045.751.26 1.057.612.873 1.892.572 2.03-.478.045-.342.057-.359.175-.251.07.064.284.185.476.27.347.154.347.154.134.397-.55.629-.203 1.701.632 1.953.434.143 1.32-.266 1.344-1.195-.013-.54-.334-.898-1.004-1.124-.134-.14.37-.47.563-.62.084.182.17.392.283.56.18.477 1.155.625 1.57.239.307-.283.21.252-.182 1.026-.24.474.063.853 1.274 1.596 2.754 1.687 4.47 1.296 2.623-.596-.667-.667 2.386-.079 2.698-1.221.106-.404-.554-1-1.114-1.237-2.56-1.089-7.888-3.782-11.338-.512-.228.158-.347-.067-.424.136zm5.517 2.649c-.067 0-.278.142-.467.318-.424.392-.85.523-1.491.461-.938-.091-1.56-.175-1.683-.227-.768.577-1.004 1.882-1.08 2.71-.096.664-.077 1.442.134 1.942.455.91 1.3.131 1.592-.474.143-.302.295-.55.337-.55.092 0 .27.221.274.339.01.34 1.11 2.224 1.385 2.371.503.272.96-.636 1.177-2.337.085-.673.075-.663.423-.363 1.49 1.28 2.476.68 1.617-.984-.08-.152-.144-.33-.144-.393 0-.505-1.701-2.813-2.073-2.813zm-32.8.367c-.71.093-1.315.905-1.751 2.383l-.152.513c-.457 1.525.476 2.02 1.602.85.339-.351.456-.373.553-.098.12.244.2.519.25.755.175 1.1.506 1.684.957 1.684.535-.025 1.21-1.473 1.298-2.393-.065-.17.196-.1.298.078.374.727 1.536 1.798 1.78.787.353-2.079-.748-4.564-1.886-4.257-.915.247-1.504.205-2.204-.151a1.271 1.276 0 0 0-.744-.15zm7.775.082c.1-.037.324-.254.8-.132.612.27 1.486.15 1.763.472.016.452.063.73.17 1.034.155.435.15.624-.013.577-.67-.398-1.665-.043-1.875-.312-.05-.196-.375-.76-.715-1.238-.17-.237-.23-.363-.13-.401zm1.858 5.653a4.27 4.287 0 0 0-1.758.367c-.753.33-.571 1.1.349 1.482.72.299.792.339.792.447 0 .063-.057.134-.128.158-.677.285-1.438.606-1.82 1.149-.7.851.372 1.455 2.13 1.2.77-.112.93-.079.76.158-.79 1.097-1.03 1.613-.852 1.828.543.657 2.188.32 3.124-.64 1.51-1.548 1.52-1.565 1.063-2.095-.634-.734-1.091-1.976-1.05-2.85.027-.571.07-.52-.697-.813-.67-.257-1.304-.387-1.913-.39zm12.844.33a5.643 5.666 0 0 0-1.408.132c-.715.173-1.023.44-1.025.89-.003.437-.237 1.524-.394 1.823-.062.12-.115.249-.115.284 0 .185-.887 1.293-1.034 1.293-.044 0-.35.13-.675.288-.983.48-1.114.523-1.558.514-.467-.009-.653-.06-1.3-.363-.61-.285-.656-.295-.83-.174-.764.78-1.212 1.67-1.311 2.675-.099 1.03-.098 1.04.062 1.562.193.625.747.77 1.05.274.029-.043.24-.225.47-.403.497-.384.529-.348.995 1.127.511 1.617 1.623 1.467 1.9-.257.076-.472.283-1.283.328-1.278.022.002.183.185.357.407 1.05 1.335 2.087.976 1.88-.653-.065-.51-.6-2.086-.804-2.362-.514-.701-.676-1.235-.4-1.323.896.475 1.47 1.521 2.415 2.099 1.03.596 1.72.768 2.009.499.38-.356.34-.721-.184-1.709-.31-.582-.311-.58.29-.518 1.47.147 2.074.002 2.204-.535.08-.336-.94-1.374-1.682-1.711-.465-.212-.484-.326-.073-.437.62-.233 1.29-.595 1.439-1.09.064-.632-1.144-1.023-2.606-1.053z" style="fill:#241d15;fill-opacity:1;stroke-width:.0731935"/><path d="M17.73 50.181c-.396 0-.81 1.208-.726 2.126.044.492.036.498-.44.271-1.018-.486-1.815-.166-1.63.655.053.234.123.572.156.753.12.66.71 1.516 1.633 2.358.36.327.39.331.786.076l.43-.275c.064-.04.256-.165.426-.279.408-.272 1.182-.435 2.064-.433.982.001 1.393-.825 1.392-2.8 0-2.056-.836-2.519-1.786-.989-.315.51-.506.623-.561.337-.13-.682-1.214-1.8-1.744-1.8zm7.064 1.948c-1.237.522-2.014 1.76-2.564 2.608-.61.943-.606.906-.097 1.223.693.428 1.362 1.362 1.587 2.214.14.535.23.746.37.888.252.253 2.052.054 2.565-.283 1.5-.61 2.452-2.064.448-2.295-.795-.06-.814-.084-.417-.504 1.055-1.119 1.522-2.014 1.194-2.287-.434-.376-1.666.236-2.51.32-.022-.021-.04-.385-.04-.807 0-.745-.205-1.13-.536-1.077zM13.5 55.782c-1.128-.01-1.777.51-1.217 1.249.19.393.428.615.6.997.166.295-2.402.625-2.451 1.335.14.77.827.885 1.414 1.064.24.074.552.154.693.178.638.11.644.24.04.858-.766.783-.786 1.116-.086 1.457.668.326 1.686.068 3.46-.874.351-.154 1.426-.583.921-1.021-.533-.422-.689-2.276-.267-3.176.127-.271.231-.539.231-.595 0-.305-1.138-1.004-2.077-1.275a4.745 4.764 0 0 0-1.261-.197zm5.736.009c-.96-.002-1.358 1.13-.67 1.902.333.377.336.378.752.365 1.612-.051 1.532-2.264-.083-2.267zm13.628 8.551c.055-.2.14-.532.192-.737.05-.204.167-.502.259-.662.289-.505-.597-1.426-1.803-1.877-.896-.335-2.581-.154-2.692.291-.05.2-.196.187-.235-.021-.038-.208-.15-.32-.593-.603a5.132 5.153 0 0 1-.438-.3c-.586-.69-3.79-.787-3.79-.113 0 .09-.046.2-.103.249-.085.07-.097.06-.066-.06.1-.387-.963-1.095-1.346-.898-.363.186-.656.02-.801-.454-.131-.427-.138-.684-.013-.482.233.379 1.475.036 1.682-.464.526-1.43-1.422-1.958-2.05-1.043-.217.356-.2.89.04 1.172.237.275.12.326-.285.127-.593-.294-1.14-.217-1.597.222-.303.292-.303.292-.37.082-.357-1.115-2.244-.824-2.3.356.106 1.12 1.51 1.74 2.252.74.69-.065.32.484.362.672-.57.122-.933.432-.98 1.004-.35.657.78 1.626 1.68 1.412 1.193-.2 1.021-1.36.905-1.769-.155-.264-.155-.269-.052-.425.277-.183.446-.125.47.162.026.338.214.59.56.753.515.24.808.216 1.137.09.417-.03-.27.646-1.033 1.017-.367.179-.396.334-.167.88.107.252.237.612.29.799.44 1.566 1.546 2.625 2.737 2.625.471 0 .57-.761.24-1.847-.108-.354-.18-.657-.164-.674.89.14 1.73.338 2.577.435.734.17.886.764 1.46 1.052.33.12.328.126-.154.597-.98.96-.744 1.354.81 1.348 1.824-.007 3.748-.873 3.514-1.582-.218-.723-.297-1.432-.136-2.074zm-4.196-2.523c.04-.022.133.067.23.237.077.13.354.462.616.735.52.545.52.633-.008.635-.357.002-1.52.292-1.667.416-.163.139-.325.12-.402-.043-.15-.32-1.22-1.322-1.411-1.322-.155 0-.07-.147.088-.152.73-.022 1.382-.08 1.658-.146.338-.06.693-.181.896-.361zm-11.485.27c-.112.006-.245.107-.51.31-2.714 2.076-3.06 5.456-.37 3.624.445-.303.519-.168.395.727-.114.824.062 1.49.465 1.755.286.187.223.265-.215.265-1.488-.349-1.9.204-1.674-1.15.276-1.646-2.32-.138-3.673 2.134-.397.665-.396.67.269 1.229.632.532 1 1.04 1.236 1.702.188.782.297 1.728.2 2.251-.08 1.575-2.813 2.698-2.62 3.335.11.602.397 1.13.62 1.65.27.632.65 1.109 1.246 1.562 1.075.819 1.497.381 1.262-1.31-.136-.985-.192-.933.59-.546 1.043.517 1.756.78 2.12.78.285 0 .323.017.278.128-.03.07-.07.416-.091.768-.021.352-.042.64-.047.64-.072-.008-.735-.236-.945-.326-1.18-.506-1.543.534-.75 2.148.297.778.908 1.376 1.56 1.873 1.337-.716 2.323-.91 4.204-.665.058-.023.17-.227.252-.455.08-.228.233-.646.34-.928.105-.281.322-.908.48-1.39.16-.483.338-.971.395-1.085.349-.817.665-1.684.87-2.429.013-.08.125-.371.249-.646.155-.513.405-1.033.556-1.476.399-1.18.577-1.148 3.575.663.518.312.99.609 1.05.66.06.05.274.18.474.29.2.112.545.32.765.464.221.144.598.362.838.486.241.124.577.313.746.422.17.11.328.199.351.199.024 0 .148.077.275.171.441.327 1.254.701 1.366.63a.637.64 0 0 1 .28-.067c.588-2.32-.62-4.196.4-5.987-.24-4.96.72-5.602-2.233-6.471-.21.173-.673.497-1.028.72-.356.222-.848.545-1.094.717a7.907 7.939 0 0 1-.774.478c-.8.403-2.738 1.695-3.617 2.411-.85.693-1.47.115-1.857-1.732l-.131-.622a30.53 30.653 0 0 0-.257-1.037c-.21-1.294-.827-2.532-1.132-3.701-.242-.578-.274-1.408-.726-1.742a1.3 1.305 0 0 1-.227-.17c-.02-.029-.448-.063-.95-.077-1.052-.028-1.738-.292-2.397-.923-.183-.176-.276-.264-.39-.257zm-9.706 2.705c-.431.07-.761.818-.793 2.14-.017.726-.07.771-.46.392-1.707-1.664-2.53.13-1.128 2.46.29.648.536.873 1.037 1.217.483.333.573.325 1.2-.11.29-.202.563-.366.608-.366.045 0 .164-.054.264-.12.25-.164.334-.049.092.128-.446.326-.514.41-.57.713-.071.4.159.915.559 1.247.31.256.396.222.79.115.32-.116.41.01.763-.47.403-.757-.228-1.756-1.11-1.759-.11 0-.2-.033-.2-.073 0-.088.24-.105 1.203-.08.86.022.89.003 1.137-.728.088-.261.2-.573.25-.693.38-.917.444-1.827.18-2.598-.088-.497-.47-.797-.901-.805-.3 0-.47.19-.83.924-.714 1.447-.691.263-.992-.412-.366-.819-.763-1.176-1.1-1.122zm11.842 2.018c.095-.004.205.162.395.537.7 1.387 1.393 1.477 1.796.236.174-.535.175-.535.224-.023.027.282.12.723.205.979.23 1.34 1.957 5.2-.472 5.39-.886-.076-1.29-.078-2.442-.01-1.457.083-2.092.093-2.241.032a1.258 1.263 0 0 0-.347-.056c-.49-.014-.413-.123.355-.512 1.759-.887 1.634-2.126-.215-2.126-.343 0-.318-.12.118-.553.477-.47.967-1.366.93-1.696-.016-.132-.006-.24.022-.24.028 0 .199-.123.38-.274.421-.35.756-.798 1.122-1.5.06-.117.112-.181.17-.183zm11.317 2.894c.07.008.012.166-.148.477-.606 1.175-.114 1.624 1.22 1.114.68-.26.744-.248.692.117-.025.176-.056.763-.07 1.308-.021.966-.025.987-.194 1.035a1.106 1.11 0 0 1-.246.045l-.985-.06a90.702 91.066 0 0 0-1.895-.094c-1.233-.046-2.692-.164-2.864-.233-.173-.07-.11-.136.78-.839.383-.302.689-.595.68-.652-.01-.057.05-.108.138-.114.15-.013.996-.639 2.265-1.676.356-.291.556-.435.626-.428zm-27.788.473a2.959 2.97 0 0 0-.313.003c-1.266.083-1.434.73-.445 1.722.42.422.404.445-.49.673-1.248.32-1.6.533-1.6.969 0 .425.717.984 1.424 1.108 1.154.205 1.19.233.708.545-1.256.81-1.41 1.751-.31 1.876.39.044 1.654-.166 1.955-.323.067-.036.237-.115.378-.175 1.647-.706 1.914-.93 1.706-1.43a1.529 1.535 0 0 1-.092-.566c.019-.369.067-.361.65.092.498.386 1.132.312 1.555-.229.176-.237.245-.234.35.016.048.11.15.276.23.366.08.09.13.168.114.17a5.238 5.259 0 0 1-.176.026c-1.397.18-1.774 2.01-.464 2.259.925.173 1.223-.701 1.292-1.629.12-.627 1.064-.65 1.096.066.01.255.066.468.157.596 1.469 1.426 3.038-1.578.48-1.725-.115.06-.221.11-.236.11-.056 0-.005-1.105.052-1.141.283.206.408.174.72.128.98-.039 1.354-1.437.555-2.069-.673-.532-1.897.037-1.847.859.017.283.017.283-.434.26-.591-.032-1.017.151-1.305.56-.228.324-.37.38-.446.177-.225-.607-1.136-.994-1.65-.702-.37.21-.622.543-.668.881-.072.537-.096.542-.102.016a2.933 2.945 0 0 1 .358-1.421c.417-.752-1.605-2.001-3.202-2.068zm29.259 4.444c.012.021.045.253.073.514.028.261.098.643.155.845.09.325.184.985.14.985-.01 0-.276-.083-.591-.183-1.32-.42-2.103.237-1.402 1.177.032.045.037.102.01.129-.073.073-.143.057-.235-.054-.046-.055-.408-.321-.804-.59-.513-.342-1.02-.804-1.51-1.076-.853-.71-2.82-1.517-1.043-1.52.523 0 .973-.014 1.002-.031.029-.018.676-.055 1.437-.083a76.864 77.173 0 0 0 2.066-.1c.374-.028.69-.034.702-.013zM16.73 74.9c.317-.007.95.022 1.856.09 1.52.11 2.676.174 3.333.18.946.01 1.033.221.608 1.473-.384 1.25-.575 2.515-1.064 3.572-.09.227-.22.522-.317.705-.077 0-.152-.256-.153-.523-.004-.774-.74-.61-1.45.324-.775 1.382-1.451-1.881-2.383-.964-.178.29-.328.21-.28-.149-.047-.647-.362-1.152-.737-1.596-.508-.599-.47-.678.32-.679 1.46-.003 2.067-.575 1.51-1.426-.157-.243-.955-.823-1.208-.878-.356-.079-.353-.122-.035-.129zM6.219 76.443c-.23 0-.416.146-.606.231-1.747.676-3.185 4.18-1.54 3.752.456-.012 1.029-.45 1.028-.002-.071 2.905.997 3.364 2.3.99.228-.417.344-.297.718.75.065.18.214.431.33.557.72.768 1.705-.938 1.717-2.972.01-1.752 0-1.774-.808-1.877-1.253-.158-2.342-.652-2.907-1.321a.362.363 0 0 0-.232-.108zm24.378 3.682a2.665 2.676 0 0 0-.525.013c-1.934.265-2.216.978-.77 1.952.997.672.994.633.082.99-2.214.87-2.036 2.178.283 2.087.47-.018 1.03-.024 1.086-.01.015.003-.116.148-.292.32-1.103 1.076-1.448 2.054-.777 2.2.56.123 1.204-.034 2.134-.519.282-.147 1.127-.825 1.64-1.315.22-.21.424-.385.453-.386.23-.007.28-.464.078-.722-.336-.427-.532-.808-.532-1.035 0-.116-.057-.255-.127-.307-.233-.175-.168-1.421.097-1.852.303-.493-1.515-1.33-2.83-1.416zm-6.043 1.272c-.394.018-1.005.395-1.757 1.126-.36.274-.514.69-.71 1.022-.254.529-.644 1.18-.4 1.583.144.076.329.228.827.679.265.239.265.24.046.183-1.027-.266-1.72.216-1.65 1.151.164 1.466 2.203 1.129 2.27-.033 0-.513.217-.12.44.801.04.16.112.37.16.465.292.57 3.874-.432 4.44-1.243.45-.647.116-.927-1.486-1.237-.432-.083-.52-.19-.305-.368 1.753-1.461 1.44-3.015-.443-2.192a3.01 3.01 0 0 1-.758.2c-.443.049-.43.12-.222-1.112.118-.702-.06-1.043-.452-1.024zm-10.875 3.524c-.84-.019-1.725.221-1.725.628 0 .15.458 1 .622 1.154.226.213.07.328-.84.622-.22.07-.432.158-.47.192a.373.374 0 0 1-.213.063c-.215 0-.731.33-.842.537-.25.47.838 1.242 2.126 1.51.527.108.526.154-.018.807-.594.714-.601 1.069-.023 1.243.93.28 3.27-.194 3.859-.783.273-.273.288-.593.07-1.52-.287-1.212-.207-1.752.403-2.732.11-.177-.064-.42-.43-.602a2.18 2.189 0 0 1-.344-.221 3.597 3.611 0 0 0-.474-.293 3.708 3.723 0 0 1-.446-.27c-.267-.218-.752-.323-1.255-.335zm5.752.233a1.337 1.342 0 0 0-.362.002c-1.132.159-1.256 1.585-.184 2.117.287.142.286.142.03.338-.14.109-.254.24-.254.293 0 .053-.05.138-.11.188-.28.025-.53-.611-.905-.73-.896-.068-1.687.77-1.28 1.663.352.708 1.564.854 1.949.236.13-.211.315-.176.42.082.17.291.577.425.214.58-1.042.434-1.112 1.808-.108 2.132 1.152.372 1.958-.761 1.264-1.777-.174-.255-.173-.256.118-.395.627.085.365.304.956.692.352.31 1.096.39 1.437.154 1.077-.743.478-2.106-.912-2.078-.492.01-.492.01-.492-.228 0-.431-.47-.984-.966-1.132-.33-.1-.33-.086-.044-.482.495-.694.032-1.547-.77-1.655zm5.064 4.163c-.762-.017-.762-.017-1.12.707-.244.494-.481.85-.747 1.12-.214.218-.41.461-.433.54-1.268 1.19.03 4.033 1.36 4.731.88.301 1.118.021 1.074-1.269-.026-.746.055-.853.508-.665 1.952.803 2.458.851 2.445.234-.014-.724-.37-1.71-.894-2.474-.218-.319-.224-.343-.085-.343.188 0 1.048-.238 1.388-.384 1.608-.69-.687-2.133-3.496-2.197zm-7.85 1.871c-.24.004-.541.256-1.142.849-2.412 2.374-2.414 4.055-.003 2.905.556-.265.556-.265.507.01-.224 1.265-.084 2.655.284 2.805.33.135.579-.028 1.584-1.045.713-.721.754-.714 1.179.18.544 1.144 1.36.648 1.752-1.07.21-.919-.122-3.08-.475-3.088-.29-.029-.593-.083-.84-.088-.718-.014-1.796-.554-2.43-1.218-.15-.156-.271-.243-.415-.24z" style="fill:#241d15;fill-opacity:1;stroke-width:.0730391"/><path d="M142.28.007c-.64.055-1.33.514-1.5 1.1-.248.852.3 1.921 1.08 2.116 1.918.478 2.831-2.317 1.022-3.128a1.218 1.223 0 0 0-.602-.088zM89.595.26c-.3.012-.567.068-.684.166-1.03.861-.827 2.405.39 2.966.385.176.666.135 1.33-.196 1.145-.573 1.04-2.423-.162-2.832a2.588 2.598 0 0 0-.874-.104zm26.077.832c-.118.08-.28 1.923-.78 6.386-.06 1.454-.13 1.882-.508 3.073-.16.502-.312 1.045-.34 1.206-.245 1.208-2.84 4.73-3.832 5.424-.835.841-1.644 1.394-2.916 1.993-.44.206-.54.176-.364-.11.344-.555.609-1.204.706-1.73.227-1.22.283-1.393.643-1.978.484-.79.747-.979 1.346-.968.53.01.803.638.432 1.002-.72.743 2.716.635 1.018-2-.292-.32-.29-.335.165-.829.764-.83.866-.966 1.17-1.58.285-.57.469-1.25.479-1.765-.113-1.82-.42-2.946-.805-.746-.22 1.302-1.663 2.63-2.007 1.792-.24-.586-1.027-1.337-1.507-1.438-.592-.124-1.118.221-.63.413 1.572.743.537 3.392-.6 4.572-.29.272-.365.1-.452-1.029-.087-1.116.347-2.156.899-2.153.446.003.589-.316.28-.632-.18-.185-.196-.188-.855-.138-1.12.085-1.096.089-1.15-.182-1.483-10.227-3.86-9.432-2.298-.31.03.272.096.493.18.744 0 .01-.155.04-.346.068-.768.106-1.398.557-1.574 1.124-.105.339-.052.437.142.264.195-.172.886-.266 1.23-.166.952.274 1.495.875 1.755 1.944.19.785.189.804-.098.746-.66-.13-1.003-.126-1.771.02-1.427.27-1.938.16-2.66-.573-.573-.582-.72-.837-.716-1.243.004-.453-.24-.225-.423.394-.24.817-.093 1.483.51 2.305.202.274.202.278.076.404a11.96 12.008 0 0 0-.564.766c-1.208 1.73-2.644 2.42-3.706 1.779-.303-.183-.342-.191-.45-.087-.063.064-.085.116-.046.117.038 0 .163.095.277.21.256.26.944.55 1.355.572.996.051 2.593-.215 2.912-.486.064-.054.138-.1.164-.1.026 0 .21-.096.407-.214.444-.268.65-.276.742-.027.417 1.136 1.777 1.947 2.34 1.395.143-.142.142-.144-.188-.377-1.18-.836-.854-2.992.515-3.402 2.537-.759 2.81 3.561.3 4.74a4.121 4.138 0 0 0-.515.287c-.204.145-1.008.36-1.975.526-.735.127-3.551.155-4.163.04-2.67-.491-5.241-1.414-6.075-2.177a3.583 3.597 0 0 0-.5-.334c-.363-.204-.87-.604-1.383-1.09a5.623 5.646 0 0 0-.56-.46c-.33-.226-1.47-1.296-2.51-2.352-1.49-1.514-1.58-1.581-1.847-1.389-.251.181-.04.532.982 1.63.526.566 1.03 1.132 1.12 1.258.395.529.984.87 1.334 1.428a14.81 14.81 0 0 1 2.432 3.098c0 .058.144.412.32.783.177.374.322.706.32.74 0 .033.097.273.215.533.117.261.214.532.214.605 0 .072.065.363.144.646.369 1.33.652 3.384.618 4.478-.038 1.19-.184 2.373-.362 2.93a10 10.04 0 0 0-.23.813c-.023.125-.143.388-.265.582-.122.197-.3.504-.395.685-1.132 2.158-4.545 2.095-4.267-.077.209-1.633 2.74-2.566 3.167-1.168.063.207.156.16.203-.102.156-.877.175-.786-.27-1.29-.346-.393-.47-.481-.836-.594-.498-.152-.485-.115-.232-.658.108-.232.24-.587.295-.788.054-.2.14-.48.19-.621.05-.14.128-.37.175-.511.097-.291.133-2.366.046-2.626-.092-.274-.303-.177-.287.132.063 1.24-.286 1.844-1.56 2.7a3.462 3.462 0 0 0-.985.992c-.296.45-.452.48-.707.14-.895-.709-2.394-.927-3.08-.157.022.037.162.07.31.073.604.01 1.752.938 1.86 1.504.026.13.109.452.186.716.1.346.143.75.153 1.468.015 1.01.11 1.813.248 2.078.106.203-.613.116-1.057-.128-.315-.172-1.206-1.079-1.204-1.224 0-.047-.074-.26-.165-.472-.153-.357-.16-.437-.09-.94.134-.975.127-1.063-.084-1.044-.237.02-.557.37-.664.723-.404 1.366-.292 2.092-1.605 1.614-.23-.085-.518-.186-.638-.22-.29-.09-.72-.259-.764-.306a1.609 1.615 0 0 0-.232-.14c-.195-.105-.73-.553-.883-.739a4.786 4.805 0 0 0-.278-.289c-.603-.602-.48-1.68-.85-1.16-.26.414-.146 1.831.2 2.47.127.235.07.314-.374.51-.505.226-.607.238-.73.084a3.937 3.953 0 0 0-1.004-.338c-.493-.01-.65-.221-.356-.477 2.044-1.793 1.725-2.804-.69-2.187-.77.197-.797.195-.728-.052.03-.11.055-.251.054-.312-.001-.06.048-.239.109-.395.386-1-.62-1.45-1.44-.645-.627.472-1.294 1.002-1.707 1.687-.09.16-.2.345-.242.41-.53.809-.53.822.06 1.277.885.685 1.283 1.442 1.46 2.779.064.495 1.502.62 2.945.254.72-.182 2.616-.347 2.615-.228 0 .016-.1.193-.22.395-.12.196-.21.492-.273.79h.847c.355-.46.833-.867 1.238-.986 1.487-.439 1.483-.439 2.262-.378.85.067.865.083.42.508-.248.236-.47.553-.627.856h1.557c.523-.13 1.438-.16 1.926-.036.053.013.079.024.12.036h4.987c.123-.033.245-.069.36-.109-.021.037-.038.073-.06.109h2.252c.32-.82.803-1.725 1.078-2.646.08-.26.31-.476.397-.371.435.672.55 1.412 1.14 2.037.3.333-.25.687-.962.98h4.192c-.716-.342-1.5-.942-1.79-1.471a7.405 7.435 0 0 0-.422-.62c-.391-.525-.811-1.44-1.011-2.202a8.835 8.87 0 0 0-.283-.897c-.083-.2-.157-.666-.2-1.255a17.8 17.871 0 0 0-.136-1.305 8.75 8.785 0 0 1-.093-.899 26.725 26.725 0 0 0-.11-1.28 17.257 17.326 0 0 0-.982-4.14c-.117-.365-.26-.737-.316-.829-.135-.22.06-.226.504-.017.379.18 2.79.803 3.585.927.32.05.718.117.884.15.165.03.548.066.852.078.304.01.655.05.782.088.126.038.645.094 1.153.124.509.03 1.089.1 1.289.157.2.056.594.126.875.156.53.055 1.254.239 1.388.351.043.037.245.104.45.15 1.284.292 3.449 2.615 3.434 3.686-.006.466-.142.55-.38.233-.631-.845-.793-1.014-1.162-1.206-.748-.392-1.266-.19-1.296.505-.022.482-.038.499-.45.504-1.047.013-1.603.78-.982 1.356.277.258.318.413.107.412-.192-.003-.77.787-.824 1.123-.115.72.188.96 1.23.97.724.008.724.008.788.265.122.494.396.685.846.589.412-.089.422-.065.112.269-.412.441-.353.819.17 1.098.19.1.208.15.25.679.088 1.088.4 1.327 1.193.91.512-.27.486-.274.9.122.192.184.359.333.37.334.084 0 .553-.227.59-.286.026-.04.078-.073.117-.073.039 0 .013.086-.056.19-.17.254-.191.672-.085 1.055h4.015c-.023-.067-.045-.136-.073-.185-.156-.271-.085-.331.255-.22.558.182 1.116-.121 1.12-.608.009-.753-.68-1.468-1.887-1.96-.682-.277-1.076-.692-1.17-1.23-.093-.534.36-.364.966.363.926 1.112 1.696 1.26 1.779.342.035-.387.118-.464.503-.47.782-.012.55-1.177-.351-1.773-.17-.11-.17-.128-.08-.495.246-.98-.666-1.476-1.531-.836-.951.705-1.24.75-1.772.27-.648-.583-.225-.742 1.39-.526.486.066 1.254-.253 1.415-.585.056-.116.13-.268.166-.336-.082-.417-.341-.55.106-.788 1.288-.609 1.305-1.915.027-2.165-.383-.074-.44-.107-.457-.265-.137-1.207-1.182-1.548-1.944-.635-.323.387-.342.389-.662.06-.822-.843-1.708.803-1.087 2.02.132.263.402 1-.181.642-.74-.45-1.177-3.225-.64-4.376.08-.172.146-.357.147-.41 0-.053.065-.261.144-.46l.243-.62c.055-.14.26-.512.454-.826.194-.313.354-.587.354-.608a107.821 108.254 0 0 1 2.44-3.03c.348-.394.715-.858.817-1.03.102-.173.286-.436.408-.586a8.33 8.363 0 0 0 .514-.753c.16-.263.314-.496.34-.515.048-.035.406-.617.557-.903.138-.263.243-.197.488.306.135.276.364.684.51.908.27.416.722 1.086.82 1.217.03.04.183.258.338.481.155.223.446.59.647.816.803.9.959 1.089 1.278 1.55.183.265.418.581.522.704.105.121.31.403.458.625.147.222.338.488.425.592.364.431 1.386 2.345 1.383 2.589 0 .045.045.186.1.313.056.129.117.349.137.49.02.14.073.422.119.625.202 1 .066 3.035-1.068 3.35-.08-.082.087-.758.297-1.196.567-1.181-.52-2.6-1.305-1.7-.307.353-.298.352-.655.022-.867-.804-1.856-.686-1.992.237-.07.461-.067.46-.63.339-.79-.17-1.11-.047-1.424.55-.182.345.667 1.449 1.298 1.686.212.08.25.124.21.246-.23.706-.1 1.122.427 1.357.146.065.146.065 0 .115-.622.207-.857.588-.683 1.104.048.144-.685.751-.905.749-.198-.003-.428.59-.34.877.046.152.41.36.943.539.268.09.294.122.329.411.047.382.128.472.516.574.392.102.414.204.088.402-1.03.624-1.102 2.038-.114 2.236.265.053.31.137.2.382h4.04c.05-.211.086-.435.089-.685.006-.464.034-.64.1-.64.05 0 .09.032.09.07-.001.133.297.166.475.052.25-.16.36-.143.703.11.883.658 1.833-.5 1.182-1.438-.195-.282-.193-.31.034-.307.66.007 1.037-.65.667-1.164-.21-.291-.196-.336.06-.215.455.215.862-.045.969-.62.068-.37.144-.412.47-.27.786.343 2.126.05 2.132-.465.006-.492-.697-1.626-1.01-1.63-.034 0 .085-.15.266-.333.685-.693.15-1.421-1.108-1.503-.066-.005-.084-.063-.055-.174.165-.633-.668-.917-1.554-.53-.805.395-.937 1.518-1.728 1.833-.313.002.104-1.328.578-1.844.288-.354.506-.742.985-1.014a8.544 8.578 0 0 1 2.64-1.643c1.746-.659 3.737-1.106 5.124-1.153.523-.017 1.098-.06 1.28-.094a22.25 22.34 0 0 0 1.683-.378c1.37-.355 1.783-.482 2.08-.643.66-.358.78-.235.464.479-.062.14-.173.452-.247.693l-.19.622c-.225.733-.32 1.062-.462 1.608-.31 1.186-.452 1.835-.497 2.269l-.09.841c-.03.281-.053.708-.05.948.002.24-.027.472-.065.518-.038.045-.088.442-.11.883-.023.44-.075.885-.116.988a3.231 3.244 0 0 0-.124.623c-.065.586-.133.932-.199 1.019-.03.04-.077.189-.105.332-.144.757-1.222 2.296-1.976 2.855h2.745c-.14-.096-.224-.201-.204-.309.31-.477.574-1.052.805-1.747.204-.612.35-.786.43-.509.109.374.62 1.793.75 2.08.077.171.12.34.135.485h12.291c-.04-.53-.122-1.185.53-.706.293.082.57.373.765.706h1.31a5.02 5.02 0 0 0 .03-.599c.003-.695-.016-.675.662-.685 1.143-.013 2.27.45 3.593.22 1.183.026 1.325-.016 1.44-.425.45-1.59.787-2.114 1.76-2.736.36-.231.485-.472.337-.655-.04-.05-.14-.28-.225-.512-.546-1.516-1.867-2.787-2.91-2.798-.662-.007-.783.38-.464 1.48.074.254-.266.279-.968.07-1.799-.532-2.772-.113-2.02.869.086.112.156.24.156.286 0 .045.225.348.502.674.628.74.64.698-.312 1.02a1.946 1.954 0 0 0-.602.366c-.556.498-.722-.03-.484-.602.18-1.157.55-2.59-.466-3.7-.1-.001-.166.27-.123.495.274 1.417-1.023 3.365-2.574 3.866-.97.314-1.067.287-1.23-.334a82.973 83.306 0 0 0-.184-.699c-.248-.901-1.496-1.97-1.365-1.169.163 1.015.243 2.77-1.003 3.607a5.708 5.73 0 0 0-.545.247c-.294.155-.49.128-.342-.047.046-.055.1-.373.12-.707.085-1.426-.813-3.985.885-4.558.312-.04.567-.251.43-.355-.81-.604-1.387-.557-2.219.183-.553.492-.477.525-1.817-.802-1.253-1.24-1.864-2.92-1.313-3.609.315-.393.08-.582-.277-.22-.464.47-.744 2.013-.56 3.092.136.775.521 1.704.978 2.49.158.166.1.264-.263.43-.73.333-1.118.865-1.22 1.672-.108.959 2.445-2.042 3.626.92.023.152.053.34.068.414.269 1.39-2.573 1.936-4.177.804-.992-.701-1.312-1.464-1.523-3.627-.035-.355-.083-.68-.107-.72-.13-.217.012-2.97.208-4.023.254-1.367.73-2.776 1.394-4.175.528-1.1.5-1.952 1.254-.963.996 1.299 3.086.108 2.53-1.442-.042-.119-.002-.173.208-.283.39-.205 1.453-1.339 1.602-1.707.139-.344.202-.048.093.435-.06.26-.11.596-.113.745a4.228 4.245 0 0 1-.077.622c-.13.63-.266 1.516-.285 1.85-.077 1.306-.197 1.597-.671 1.643-1.768.17-2.097 2.453-.456 3.163.918.395 2.276-.506 2.19-1.455a7.139 7.168 0 0 1-.025-.446c-.005-.31-.363-.84-.718-1.066-.2-.127-.28-.221-.247-.295.103-.364.167-.73.3-1.094.06-.37.233-.749.4-1.318.078-.261.179-.706.225-.987a3.61 3.624 0 0 1 .249-.841c.195-.432.204-.793.535-.109.195.504.482 1.114.096 1.636-.992 1.239.867 2.88 2.05 1.81 1.08-.977.266-2.813-1.07-2.412-.791.158-.9-4.103-.878-4.327-.002-1.46-.64-1.756-1.084-.502-.467 1.311-1.117 2.852-2.13 4.03-.34.444-.406.467-.788.276a1.77 1.777 0 0 0-.764-.171c-.24-.005-.428-.028-.416-.053.2-.388.717-1.074 1.096-1.452a51.88 52.088 0 0 0 1.026-1.06c.3-.32.755-.802 1.013-1.072.23-.24.423-.586.693-.865.31-.335.388-.995-.093-.781-.205.105-1.04.88-1.263 1.173-.551.545-1.11.936-1.691 1.49-.93.893-2.09 1.816-3.347 2.66-.122.111-.348.264-.501.342a7.785 7.785 0 0 0-.573.329c-.162.102-.657.34-1.101.527a89.61 89.61 0 0 0-1.027.44c-1.787.799-5.487 1.21-7.275.809-.3-.069-.792-.177-1.093-.243-1.037-.226-1.15-.261-1.59-.508-1.912-1.07-2.343-3.659-.732-4.403.935-.432 1.74-.142 2.49.899.464.643.389 2.173-.12 2.44-.296.154-.197.32.206.35.306.024.395-.005.732-.247.81-.58 1.084-.961 1.09-1.51.003-.258.152-.362.26-.179.07.117.97.696 1.42.916.693.336 2.188.46 3.074.254.515-.12.602-.264.14-.236-.147.01-.305-.007-.35-.036a6.313 6.338 0 0 0-.606-.236c-1.211-.472-3.052-2.456-2.543-3.843.177-.465-.05-2.819-.34-1.757-.18.797-1.29 1.755-2.46 1.477a6.399 6.425 0 0 0-.672-.116 5.44 5.462 0 0 1-.56-.09c-.47-.111-1.828.222-2.188.539-.224.196-.372.176-.232-.034.06-.09.134-.267.162-.391.029-.125.154-.321.277-.436.124-.115.29-.341.369-.502.488-.989 2.712-1.3 3.35-.467.318.415.519.056.233-.415-.44-.726-1.137-1.15-2.116-1.286-.596-.08-.627-.349-.31-1.195.107-.237.207-.514.221-.616.109-.757 1.264-2.132 2.115-2.517.221-.1.46-.212.53-.248.07-.036.276-.064.457-.062.244.002.33-.025.33-.107.001-.06-.057-.11-.128-.111-.071-.001-.254-.066-.405-.146-.54-.284-1.775-.257-2.202.048-.3.212-1.06.21-1.058-.004-.578-1.382-.003-2.37-.38-3.477-.781-2.681-1.07 3.128-1.552 6.57-.08.495-2.684-.415-1.564.536.757.615 1.246 2.149.606 3.56-.249.548-.42.448-1.166-.681-.897-1.36-.979-2.94-.178-3.454.102-.065.186-.163.187-.216.001-.168-.284-.205-.497-.064-.11.07-.346.198-.528.283-.437.204-.6.39-.928 1.064-.15.311-.288.566-.305.565-.765-.008-2.294-1.941-2.542-3.217-.19-.976-.33-.815-.322.378.005 1.072.305 2.24.762 2.968.114.18.244.411.288.512.133.302.942 1.19 1.328 1.458.359.249.359.249.113.63-.61.945-.583 1.877.074 2.607.458.509.65.395.513-.304-.227-1.16 1.038-1.583 1.949-.652.365.373.537.928.529 1.707a5.106 5.126 0 0 0 .367 1.937c.102.261.175.502.164.535-2.364-.786-4.392-3.471-6.022-5.296-.25-.427-.291-.492-.371-.594-.214-.275-.743-1.426-.782-1.7-.025-.173-.067-.348-.095-.388-.027-.04-.09-.273-.138-.515a8.007 8.04 0 0 0-.147-.625c-.065-.205-.116-.478-.172-.919-.07-.552-.16-1.174-.238-1.652-.628-3.912-.707-6.725-.86-6.623zm-40.424.847c-1.102-.066-1.766 1.132-1.488 2.295.179.536.219.673.739.767.853.14 2.195-.324 2.287-1.092.047-.865-.168-1.349-.763-1.717a1.658 1.665 0 0 0-.775-.253zm10.013.237c-.517-.008-1.044.25-1.32.872-.35.974.587 2.106 1.806 1.767.154.002.708-.56.808-.82.408-1.054-.43-1.807-1.293-1.82zm71.48.321c-.93.047-1.796.896-1.498 2.1.113.452.468.944.784 1.089 1.37.622 2.96-1.028 2.226-2.31-.37-.646-.951-.907-1.51-.879zm-9.722.17c-.284-.017-.61.05-.983.202-.946.388-.909 1.845.062 2.461 1.07.68 2.58-.723 2.007-1.865-.252-.505-.61-.77-1.085-.798zm-67.212.246c-1.27.086-1.868 1.767-.64 2.624.366.255 1.037.217 1.47-.083.99-.688.843-2.155-.249-2.473-.205-.06-.4-.08-.58-.068zm71.772.344c-1.615.06-2.014 2.368-.286 2.827.136.171.064.275.011.64-.009.87-1.243 2.87-1.6 3.51-.268.433-.506 1.018-.997.873-.72-.383-1.688.181-1.696.99-.004.401.046.506.5 1.078.613.773 2.012.036 1.974-1.04-.012-.348.008-.421.138-.493a7.51 7.51 0 0 0 1.162-.859c.626-.509 1.517-.843 2.326-1.061.78.008 1.303-.139 1.305-.37.002-.215.002-.215-.948-.176-1.362.055-1.377.097.79-2.049 1.26-1.248 1.607-2.04.486-1.108-.313.26-.583.482-1.4 1.153-.345.283-.686.574-.758.648-.338.254-.68.583-1.166.638-.17-.002-.173-.205-.012-.571.184-.415.344-1.118.325-1.428-.018-.293.08-.414.334-.413 1.316.003 1.177-2.577-.15-2.77a1.872 1.88 0 0 0-.338-.019zm-62.73.189c-.093-.027-.3.092-.431.28-.105.15-.364.512-.575.805-.37.516-.683 1.343-1.355 1.978-.424.642-.988 1.321-1.057 1.277.043-.742.373-1.48.173-2.19.02-.244 0-.309-.104-.33-.26-.053-.344.118-.35.707-.006.885-.381 2.272-1.041 3.865-.104.25-.172.503-.15.563.031.086-.044.106-.388.1-.256-.004-.52.04-.66.111-.33.168-.794-.381-1.156-1.367a1.713 1.72 0 0 0-.213-.406c-.206-.253-.846-1.667-1.018-2.248-.132-.45-.192-.556-.324-.576-.253-.04-.23.137.197 1.572.117.393.117.691 0 .69-.066 0-.554-.314-.744-.478a2.868 2.88 0 0 0-.363-.259c-.273-.156-.646-.482-1.585-1.382-1.14-1.094-1.291-1.223-1.423-1.225-.26-.002.042.391 1.336 1.738.745.774 1.379 1.49 1.409 1.591.03.101.118.278.197.393.208.304.124.323-1.05.234-1.065-.082-1.065-.082-1.028-.425.11-1.028-1.138-1.856-1.99-1.32-1.034.65-1.165 1.722-.296 2.424.55.445 1.59.276 2.013-.325.09-.128.176-.248.191-.266.017-.02.054.007.085.058.03.05.396.175.814.276 1.345.325 2.732 1.053 3.686 1.934.213.198.358.277.457.252.128-.031.14-.01.097.178-.275 1.19 1.96 1.804 2.336.642.095-.288.254-.47.37-.422.187.073.24.33.127.599-.14.333-.074.381.804.6.743.184 1.24.335 1.566.474.52.224.993.503 1.22.72.14.134.286.233.326.221.076-.025.237.098.756.581.323.3.323.302.233.713-.19.867.18 1.605.87 1.745 1.506.306 2.45-1.38 1.376-2.456-.328-.329-1.336-.428-1.636-.161-.22.195-.315.156-.823-.342-.543-.53-.972-.883-1.166-.96-.074-.03-.134-.089-.134-.131 0-.096.262-.094.442.004.076.042.54.126 1.034.187.492.06 1.255.185 1.696.279 1.576.333 1.82.371 1.944.31.39-.202-.405-.678-1.294-.776-.287-.031-.91-.175-1.384-.318-1.342-.407-1.574-.471-1.808-.5-.367-.045-.245-.162.295-.283.595-.135 1.722-.549 1.723-.633.002-.152-.22-.24-.418-.17-1.15.417-3.377.559-4.67.296a6.3 6.325 0 0 0-.773-.119c-.151-.002-.2-.038-.2-.148 0-.08-.061-.32-.14-.534-.173-.478-.174-.516.006-.727.69-.81.92-1.075 1.37-1.576.519-.56 1.245-.969 1.896-1.368.452-.175.604-.27.63-.396.036-.182-.206-.162-.616.051-.234.107-.533.171-.782.322-.24.148-.549.293-.783.505-.251.198-.486.361-.521.361-.137-.001-.134-.132.005-.28.08-.083.146-.179.147-.21 0-.034.111-.224.247-.423.137-.2.272-.454.3-.565.092-.173.218-.321.337-.52.194-.286.308-.65.57-.918.4-.608.934-1.252 1.22-1.825 0-.044-.019-.07-.05-.078zm54.693.234c-.26-.003-.075.544.76 2.254.296.604.614 1.332.993 2.08.358.516.047.93-.363.484-.283-.237-.675-.444-1.015-.666a30.914 31.038 0 0 1-.624-.331 1.473 1.479 0 0 0-.334-.12c-.195-.044-.196-.047-.15-.55.106-1.674-1.97-2.254-2.81-.484-.45 1.288 1.352 2.326 2.392 1.378.817-.633 2.942 1.943 3.455 2.55.163.248.399.548.524.666.126.117.266.25.31.297.233.235.782-.22.642-.534a1.9 1.908 0 0 1-.12-.476 2.4 2.41 0 0 0-.134-.538c-.06-.146-.122-.485-.14-.754-.034-.472-.124-.918-.133-1.504-.09-.573.066-1.181-.065-1.765-.128-.083-.2.085-.23.538-.018.26-.046.641-.063.843-.016.201-.03.541-.03.755-.002.425-.487.58-.592.191-.233-.525-.63-1.125-.932-1.697-.391-.806-.838-1.779-1.34-2.617zm-53.15 1.554c-.647.04-1.212.535-1.34 1.28-.082.478.4 1.25.86 1.378 1.75.483 2.788-1.828 1.142-2.54a1.443 1.449 0 0 0-.661-.118zM156.124 7.6a1.402 1.408 0 0 0-.851 2.609c.402.238.518.259 1.155.172 1.214-.226 1.427-2.039.306-2.6a1.735 1.742 0 0 0-.61-.18zM138.96 8.915a1.235 1.24 0 0 0-.409.089c-.234.095-.68.134-.907.479-.25.42-.057 1.086.06 1.47.206.517 1.74 1.043 2.362.505.117-.103.198-.125.264-.075l.45.35c.496.388 1.582.953 1.84.955.117.002.232.032.253.067.035.06-.875.19-1.128.163-.06-.007-.29.03-.512.082a8.014 8.046 0 0 1-1.045.136c-.353.022-.896.087-1.206.144-.31.057-.68.119-.818.136-.836.103-.71.51.137.438 3.656-.312 4.657-.325 4.31-.054-.682.535-1.513 1.3-1.56 1.436-.032.092-.084.086-.35-.037-.946-.441-2.01.11-2.114 1.094-.058.545.353 1.28.79 1.412 1.183.356 2.154-.462 1.959-1.652-.087-.527-.037-.613.668-1.144 1.132-.854 1.725-1.1 3.484-1.448 1.198-.237 1.204-.241 1.04-.688-.124-.337-.124-.337-1.347-.351-1.46-.015-3.475-.488-3.985-.934-.164-.144-.61-.328-.73-.303-.12.025-.114-.06.023-.378.383-.894-.57-1.938-1.53-1.892zm-45.91.413a.236.237 0 0 0-.08.011c-.085.026-.37.05-.637.053-1.484.013-1.898 2.244-.494 2.67 1.676.427 2.588-1.121 1.94-2.09-.17-.17-.387-.392-.483-.494-.094-.1-.17-.147-.247-.15zm-17.67 2.805a1.42 1.426 0 0 0-1.297.983c-.29.846.314 1.768 1.163 1.778.366.004 1.222-.472 1.257-.698.044-.287.176-.328.72-.22.275.055.738.096 1.03.091.625-.01.655.038.16.26-.266.14-.5.37-.83.508-.17.114-.44.277-.603.363-.16.085-.459.245-.66.354-.203.11-.54.29-.749.399-.21.11-.42.246-.469.303-.048.056-.13.103-.184.102-.185-.002-.438.32-.416.53.102.052.197.127.527-.016.102.001.318-.065.478-.147l.805-.419c1.8-.939 3.268-1.643 3.267-1.57 0 .048-.143.269-.318.49-.39.5-.818 1.188-1.012 1.627-.128.294-.178.337-.432.377-1.385.219-1.71 2.077-.445 2.557 1.647.626 2.843-1.744 1.23-2.436-.32-.136-.182-.438.583-1.295.206-.229.518-.581.694-.782.437-.497 1.766-1.692 2.166-1.948.465-.296.287-1.081-.18-.795-.374.148-.704.357-1.123.478-.635.283-2.169.553-3.47.612-.53.025-.53.025-.528-.217.01-.856-.674-1.303-1.364-1.27zm60.375.167c-.643-.01-1.276.304-1.5.954-.93 3.002 3.441 2.743 3.064.056-.266-.66-.92-.998-1.564-1.01zm-40.448.362c-.23.004-.495.08-.795.257-1.09.708-.87 2.602.343 2.926 1.95.43 2.062-3.206.452-3.182zm61.253.108c-.74-.007-1.526.462-1.537 1.209-.007.453.002.452-1.317.245-1.676-.264-1.679-.264-1.926-.42-.122-.076-.29-.14-.372-.14a.399.4 0 0 1-.218-.064c-.038-.034-.216-.105-.396-.158a3.122 3.122 0 0 1-.728-.294c-.388-.227-.39-.227-.556.105-.158.317-.158.317.394.74 1.116.854 2.032 1.939 2.758 3.26.178.324.178.324-.186.576-.955.66-.8 2.013.29 2.511.615.282 1.105.177 1.55-.334.822-.944.374-2.149-.872-2.343-.377-.06-.377-.06-.482-.427-.166-.518-.898-1.325-.693-1.803.06 0 .392.152.74.337.35.187.83.345 1.23.6.975.649 1.172.777 1.48.963.317.184 1.041.25.825.06-.16-.153-1.18-.714-1.38-.901-.558-.412-1.184-.782-1.852-1.21-1.179-1.08-.444-.519 1.37-.575.311.017.386.053.563.274 1.17 1.456 3.382-.043 2.422-1.642-.234-.39-.662-.565-1.107-.569zm-73.083.59c-.08.006-.163.021-.245.048-.125.038-.178 1.94-.06 2.136.02.035-.01.376-.07.757a34.67 34.67 0 0 0-.147 1.058 4.369 4.369 0 0 1-.159.725 2.493 2.503 0 0 0-.12.6c-.002.132-.036.26-.076.285-.04.024-.074.112-.075.196-.002.134-.028.144-.239.088-1.553-.419-2.647 1.207-1.53 2.271 1.276 1.215 2.993-.538 1.972-2.012-.066-.095-.044-.169.114-.371.108-.141.197-.28.197-.31.52-.93.773-.676.842.335.025.263.071.529.103.592.058.117.085.294.198 1.338.035.314.086.61.115.658.191.318.142.713-.098.79-1.22.39-1.314 2.298-.143 2.912.89.464 1.725.183 2.166-.728.542-1.12-.029-2.233-1.155-2.25-.353-.004-.572-.103-.372-.168.07-.022.07-.117.008-.427a6.124 6.149 0 0 1-.076-1.02c.005-.703-.105-2.13-.19-2.46-.175-.693.094-1.247.296-.609.12.378 1.041 1.466 1.243 1.468.118.001.128.034.076.239-.469 1.817 2.062 2.486 2.67.705.407-1.199-1.363-2.302-2.214-1.379-.265.288-.35.22-.993-.817-.475-.763-.96-1.784-1.054-2.217a3.29 3.303 0 0 0-.15-.526 1 1.004 0 0 1-.062-.367 2.136 2.145 0 0 0-.066-.491c-.046-.17-.043-.282.008-.342.308-.363-.152-.752-.714-.707zm-10.754 2.62c-.469.016-.96.252-1.347.744-.673.856-.125 2.28.95 2.47l.363.062c.765.128 1.63-.801 1.584-1.703-.053-1.019-.768-1.601-1.55-1.573zm85.758.893c-1.908-.049-2.248 2.778-.382 3.173.36.076.366.076.72 0 1.878-.415 1.59-3.121-.338-3.172zm24.197 3.667c-.424-.04-1.07.592-1.247 1.22-.372 1.322-.609 1.7-.767 1.225a2.69 2.7 0 0 0-.256-.52c-.806-1.227-.78-1.206-1.142-.906-.557.461-.72 1.724-.39 3.032.075.304.148.639.16.745.013.106.074.294.137.419.062.124.112.28.112.343-.003.278.32.475.646.396.366-.09.47-.017.24.165-.49.39-.455 1.901.043 1.906.176.002.032.2-.224.307-.51.216-.87.767-.92 1.404-.021.275-.054.357-.132.331-.897-.305-2.398.884-1.687 1.336.04.025.071.11.07.188.696 1.352 1.697.62 2.125-.65.004-.399.017-.407.411-.236.175.075.396.11.59.09.214-.023.34 0 .396.07.066.08.062.096-.017.065-.058-.023-.137.03-.185.124-.046.09-.14.271-.212.404-.118.22-.12.304-.01.676.06.206.222.441.305.442.73.36 1.085.251 1.75-.617.123-.623-.331-1.332-.86-1.338-.38-.004-.469-.11-.269-.32.087-.091.197-.292.244-.443.1-.323.182-.342.413-.09.95.923 3.466-2.03.79-1.935-.533-.006-1.127.482-1.132.931-.002.216-.045.199-.37-.146-.28-.3-.377-.566-.178-.486.772-.273 1.274-1.916.211-2.011.002-.147.735.06 1.415.398.496.247 1.13-.16 1.58-1.016.094-.18.27-.47.39-.644 1.47-2.146.85-3.816-.809-2.171-.619.614-.674.603-.61-.11.155-1.744-.03-2.523-.61-2.578zm-133.6.083c-.383-.004-.762 1.049-.734 2.04.017.593-.037.633-.476.355-.383-.243-1.352-.277-1.542-.054-.166.196-.169.297-.032.954.21 1.014.324 1.315.6 1.594.02.02.213.251.431.513s.527.602.686.757c.35.341.37.342.754.07.168-.12.331-.217.364-.216.032 0 .195-.097.36-.216.533-.386 1.695-.623 2.523-.516 1.154.148 1.636-4.267.502-4.608-.36-.108-.6.056-1.057.726-.43.63-.554.71-.657.427-.317-.864-1.22-1.82-1.722-1.826zm74.606.47c.074-.006.252.069.553.22.28.14.653.283 1.003.42.263.123.71.267 1.87.602.25.072.251.075.072.128-2.303.847-1.952 2.112-3.428-1.118-.113-.164-.143-.248-.07-.253zm-15.99.02c.182.055.083.34-.124.912a12.24 12.24 0 0 0-.336 1.056c-.04.179-.099.353-.132.385-.29-.207-.264-.472-.725-.486-.16-.146-.775-.457-1.138-.576-.65-.215-.665-.203.888-.809.92-.358 1.385-.536 1.567-.482zm-51.586 1.576a.597.6 0 0 0-.337.153.885.889 0 0 1-.274.15c-.318.094-1.08.92-1.623 1.76-.273.422-.568.863-.71 1.063-.209.288-.18.362.237.63.776.5 1.415 1.403 1.631 2.307.133.556.294.873.46.909.598.125 1.812-.05 2.492-.362.261-.118.512-.216.557-.215.142.001.863-.503 1.102-.77.556-.623-.016-1.197-1.265-1.27-.735-.044-.79-.097-.463-.442 1.953-2.052 1.781-2.905-.446-2.21-.85.265-.86.26-.865-.462 0-.02.022-.222.05-.45.058-.488-.216-.82-.546-.792zm119.398.562c-.585.017-.94.53-.779 1.36.146.748.177.718-.57.552-2.154-.477-2.908.752-1.385 2.256.449.441.449.441.24.53-.846.352-1.033.46-1.115.635-.473 1.014 2.386 2.27 4.148 1.82.43-.29.42-.27.678-.559.142-.713.344-1.127.34-.698-.01.853 1.473 1.076 1.97.297.524-.904-.086-1.938-1.177-1.716-.378.14.19-.616.63-.838.5-.251-.585-2.404-1.5-2.977a70.165 70.447 0 0 1-.567-.36c-.335-.215-.648-.31-.913-.301zm12.4 2.159c-.268.012-.618.105-1.04.29l-.878.387c-1.694.752-2.547 1.697-2.04 2.26.557.617.586 1.02.23 3.23-.017.105.023.154.14.17.09.016.274.133.408.263.29.28 1.514.642 2.302.68.698.033 2.15.183 2.185-.782.001-.677-.823-.899-1.505-1.386 0-.013.265-.127.588-.252 2.932-1.139 2.93-1.935-.007-2.466-.803-.144-.769-.088-.368-.606.87-1.124.793-1.823-.014-1.787zm-21.719.568c-.178-.038-.412.093-.712.485-.693.708-.906.962-1.154 1.375-.272.453-.364.482-.426.133-.167-.954-.91-1.853-1.268-1.534-.602.535-.894 1.988-.657 3.273.054.29.116.677.139.86.1.801.328 1.164.662 1.053.41-.136 1.96.166 2.392.467 1.469.892 1.776.668 3.016-1.122a.912.916 0 0 1 .136-.258c.05-.06.15-.274.226-.475.075-.2.16-.398.19-.438.1-.133.302-.897.353-1.34.07-.622-.543-.913-1.05-.498a7.52 7.55 0 0 1-.362.266c-.13.09-.396.299-.59.464-.517.438-.734.353-.532-.212.205-.746.172-2.386-.363-2.5zm-120.909.246c-1.936-.058-1.983.602-1.163 2.276-.156.04-.35.102-.518.16a67.79 67.79 0 0 1-.942.438c-1.124.516-1.283.78-.706 1.172.317.29.727.456 1.178.562.23.079.486.144.572.145.63.007.737.286.27.714-.993.913-.996 1.383-.01 1.732.397.14 1.978-.221 2.417-.553.17-.127 1.408-.612 1.725-.819.167-.44-.4-1.045-.456-1.72-.155-.797.003-1.823.363-2.372.335-.51-1.509-1.682-2.73-1.735zm5.29.062c-.86.024-1.48 1.002-.79 1.733.164.189.262.449.57.483 1.334.158 1.993-1.459.841-2.064a1.256 1.261 0 0 0-.62-.15zm15.35.203a.303.304 0 0 0-.155.018c-.356.159-.745 1.62-.582 2.19.087.306-.056.315-.686.047-1.379-.587-1.853-.233-1.6 1.194.254 1.438 2.02 3.243 2.635 2.694.519-.458 1.67-.902 1.668-.641 0 .084-.067.118-.227.116-.64-.006-1.014 1.24-.526 1.752.21.192.39.329.616.376.368.004.363.086-.033.464-.41.39-.503.407-.743.143-.713-.783-2.11-.29-2.12.751-.003.224-.135.181-.16-.053-.025-.208-.009-.28.204-.977.068-.226.116-.44.106-.476-.01-.036.057-.204.147-.371.248-.464.077-.92-.498-1.332-.814-.58-1.06-.698-1.757-.844-.837-.176-2.162.108-2.166.462-.001.18-.151.11-.224-.106-.085-.25-.724-.75-1.448-1.13-.954-.502-3.176-.494-3.285.011-.087.407-.294.557-.29.212.004-.43-.922-1.032-1.28-.833-.393.217-.69.01-.86-.597-.06-.217-.144-.393-.187-.394-.043 0-.164-.064-.27-.141-.489-.354-1.185-.3-1.66.133-.318.287-.474.31-.47.07.006-.724-1.437-.908-1.997-.255-.29.377-.298 1.225.201 1.522.564.476 1.13.244 1.692-.075.187-.213.307-.161.306.136 0 .071.05.15.11.174.126.05.143.289.025.36-1.128.626-1.253 1.838-.22 2.28 1.067.421 2.117-.868 1.737-1.873-.133-.28-.17-.341.098-.436.323-.06.433.025.431.432.107.337.341.6.71.729.385.247.91-.088 1.181.066 0 .176-.76.79-1.263 1.021-.386.178-.4.584-.044 1.165.055.088.122.277.15.418.11.573.37 1.11.715 1.559h2.402a3.04 3.052 0 0 0-.175-.731c-.277-.732-.244-.743.899-.332.634.231 1.374.28 1.753.12.095-.04.136-.008.17.136.04.165.264.408.724.787.007.006.022.014.03.02h4.337c-.013-.088-.017-.157-.002-.171.026-.026.014-.086-.026-.137-.083-.103-.01-.346.086-.285.035.023.064.099.063.17-.002.137.12.291.283.423h1.693c.293-.266.343-.271.604 0h3.807c-.237-.216-.585-.369-1.044-.385-.317-.01-.317-.01-.322-.487-.003-.387.016-.472.103-.447.113.033.825.103 1.034.103.76 0 1.122-1.263.543-1.896-.806-.883-2.147-.203-1.925.977.06.313-.079.375-.368.163-.116-.085-.28-.157-.361-.158-.2-.002-.278-.15-.102-.194.242-.184.29-.458.411-.74.259-.513-.37-1.412-.99-1.42-.1 0-.115-.022-.057-.08.048-.047.387-.073.846-.066.924.014.885.045 1.263-1.004.344-.955.449-1.958.266-2.536a6.118 6.143 0 0 1-.15-.548c-.18-.96-1.07-.731-1.667.428-.28.542-.56.362-.82-.523-.14-.483-.874-1.104-1.287-1.148zm-12.492.632c-1.258-.013-1.694 1.82-.505 2.122.618.158 1.243-.055 1.427-.486.31-.767-.126-1.464-.922-1.635zm66.778 1.926c.675.053.97.558.436.945-.46.093-.905-.045-1.299-.314a2.016 2.024 0 0 0-.61-.312c-.191-.053-.38-.126-.416-.16-.077-.07-.015-.079.653-.09.242-.004.657-.032.924-.062.112-.013.216-.015.313-.007zM108.14 30.06c.57.006.46 1.04-.13 1.212a.996 1 0 0 0-.313.179c-.08.07-.28.163-.44.206-.462.121-.507.098-.296-.148.105-.124.192-.256.192-.296 0-.04.083-.191.185-.339.103-.147.187-.324.188-.392.002-.165.38-.424.614-.422zm15.128.53c.509.006.703.152 1.432 1.078.223.284.15.33-.208.131-.12-.066-.436-.138-.705-.16-.85-.07-1.339-1.057-.519-1.049zm53.253.246a.337.338 0 0 0-.148.042c-.094.05-.467.143-.83.208-1.52.273-2.025.498-2.72 1.21-.937.961-.744 1.426.593 1.429.692.002.776.03.537.176-.075.046-.158.185-.184.31-.065.311-.236.355-.474.124a1.091 1.095 0 0 0-.412-.244 1.034 1.038 0 0 1-.385-.209c-.13-.12-.282-.16-.691-.183-.987-.053-1.116-.14-.786-.532.155-.184.36-.482.459-.663.098-.18.21-.372.249-.423.217-.295-.19-.825-.639-.826-.628-.001-2.05.348-2.458.605-.18.114-.382.24-.446.278-1.434.879-1.5.99-1.097 1.846.124.263.235.612.246.778.011.166.04.424.064.574.05.38-.01.754-.143 1.115h3.862c-.23-.29-.152-.347.195-.43.36-.087.75-.232 1.263-.47.438-.204.562-.214.543-.041-.05.448-.013.758.124.94h1.266c.17-.066.353-.146.556-.245.992-.486 1.121-.455.932.246h2.315c.31-.477.577-1.12.77-1.878.162-.633.2-.574-.644-1.014-.726-.378-1.555-1.408-1.55-1.925.001-.13-.03-.257-.07-.282-.04-.025-.07-.122-.07-.217.002-.19-.092-.3-.228-.299zm-46.845.583c-.626.053-.928.936-.463 2.307.148.434.14.482-.094.597-.327.16-.534.429-.537.697-.003.244-.003.244-.34.058-.608-.332-.907-.218-1.248.476-.159.323-.198.33-.818.127-.955-.312-1.482.029-1.33.77h3.902c.034-.531.07-.588.227-.342.067.105.146.191.175.191.16.002.31.063.445.15h3.49c.113-.07.24-.14.386-.206.458-.209.504-.281.693-1.085.183-.776.04-1.085-.554-1.21-.306-.065-.305-.065-.304-.668.002-1.114-.625-1.43-1.49-.75-.317.25-.387.228-.758-.236-.514-.64-1.007-.908-1.382-.875zm-27.967.13c-.173.023-.36.144-.653.374-.545.426-.51.424-1.13.088-.799-.432-1.399-.057-1.409.877-.004.46-.052.515-.441.51-1.451-.016-1.063 1.651.595 2.556.4.218.62.376.674.497h2.134c.11-.09.276-.166.764-.368.382-.156.92-.61.923-.775 0-.052.035-.095.08-.094.073 0 .054.408-.052 1.094-.008.05-.023.096-.035.143h3.583a.406.408 0 0 0 .02-.227c-.185-.599-.595-.793-1.39-.663-.31.052-.312.052-.309-.237.008-.709-.853-1.08-1.373-.59-.258.244-.31.238-.253-.027.074-.353-.205-.858-.534-.967-.37-.124-.38-.144-.256-.475.267-.709.158-1.14-.377-1.506-.234-.159-.39-.233-.562-.21zm62.13.287c-.796-.01-1.25 1.295-.647 1.87.236.227.207.282-.216.412-.445.139-.5.117-.498-.193.008-.885-1.175-1.463-1.827-.893-.99.865-.193 2.374 1.04 1.968.43-.14.432-.14.364.333-.054.38-.054.382-.317.319-.88-.21-1.528.14-1.598.799h2.332a.232.233 0 0 1 .07 0h1.527c-.03-.038-.017-.068.06-.067.037 0 .171-.146.298-.326.271-.387.306-.392.73-.102.958.652 2.136-.405 1.61-1.446-.26-.514-.46-.622-1.135-.61-.277.004-.359.048-.675.367-.422.426-.427.427-.692.143-.203-.218-.203-.218.127-.375 1.277-.605.88-2.182-.553-2.199zm-43.907.344c.04.013.063.054.062.127-.003.301-.288.667-.666.855-.182.09-.372.165-.422.165-.1.001-.125-.117-.035-.156.03-.013.188-.197.35-.409.306-.398.59-.62.71-.582zm-59.91.198c.01.002.015.01.015.02-.001.131.286.52.745 1.01.47.505.475.618.019.615-.377-.003-1.63.287-1.75.406-.11.108-.35.11-.35.003 0-.044-.194-.281-.432-.528-.28-.492-.686-.633-1.082-.958-.004-.07.415-.123.98-.12.28 0 .61-.029.732-.065.122-.035.342-.084.49-.106.146-.024.352-.11.457-.191.08-.06.148-.093.177-.086zm123.976.073c-.192.03-.42.18-.753.482-.412.373-.873.716-.964.715-.035 0-.258.085-.495.19-.337.15-.564.197-1.037.207-.67.016-.746.04-.748.231 0 .086-.098.16-.294.224-.161.05-.294.136-.294.19-.002.096-.09.296-.608 1.375-.05.109-.11.255-.168.386h1.02c.005-.002.01 0 .013 0h5.007c-.012-.03-.02-.06-.032-.09-.202-.498.011-.503.886-.019.081.045.152.073.228.109h1.228c.14-.227.135-.62-.044-1.17-.254-.775-1.113-2.035-1.389-2.038-.025 0-.128-.08-.23-.179-.197-.187-.834-.522-1.147-.604a.436.438 0 0 0-.18-.01zm-135.582.073a.259.26 0 0 0-.09.026c-.194.087-1.356 1.13-1.56 1.4a26.58 26.58 0 0 1-.342.44c-.694.873-.942 1.612-.833 2.06h1.943l.035-.02c.183-.113.28-.13.32.02h5.34c-.081-.337-.167-.65-.262-1.01-.128-.813-.317-1.26-.593-1.402-1.025-.637-2.625-.024-3.635-1.269-.163-.186-.24-.25-.323-.245zm61.27.12c.39.004.576 1.212.24 1.56-.337.352-.377.342-.37-.077a4.576 4.594 0 0 0-.05-.695c-.053-.33.05-.79.18-.788zm12.13.198c.164.012.207.477.1 1.198-.077.512-.112.52-.318.07-.235-.514-.174-1.05.14-1.245a.132.133 0 0 1 .078-.023zm41.535 2.293c.042.004.088.05.132.135.056.107.045.15-.042.183-.194.072-.278-.014-.202-.208.03-.078.07-.115.112-.11zm-124.744.054c-.32.048-.575.474-.693 1.262H39.8c-.403-.897-.837-1.316-1.193-1.262zm155.48.318c-.34-.012-.767.305-1.181.944h1.839c-.078-.616-.326-.932-.657-.944zm-3.11.263a.512.514 0 0 0-.374.195 2.052 2.052 0 0 0-.302.486h1.476c-.236-.437-.528-.687-.8-.681zm-149.23.098c-.27-.01-.568.17-.85.583h1.548c-.164-.354-.414-.573-.7-.583zm117.149.043a.604.606 0 0 0-.337.106c-.046.035-.248.104-.45.155a5.503 5.525 0 0 0-.794.279h2.48c0-.01-.005-.02-.006-.03-.033-.3-.508-.528-.894-.51zm-86.19.428c-.25.008-.472.048-.658.112h1.66a3.922 3.938 0 0 0-1.001-.11z" style="fill:url(#a);stroke-width:.0731694"/><path d="M31.79 36.583h168.799v74.913h-168.8Z" style="display:inline;fill:#f2efe5;stroke:#241d15;stroke-width:1.058336;stroke-linecap:round;stroke-linejoin:round;stroke-dasharray:none;stroke-dashoffset:0;stroke-opacity:1;stop-color:#000"/><path d="M36.981 41.514h158.414v65.05H36.981Z" style="display:inline;fill:#f2efe5;stroke:#241d15;stroke-width:1.058336;stroke-linecap:round;stroke-linejoin:round;stroke-dasharray:8.46662804,2.11664202,1.058336,2.11664202;stroke-dashoffset:0;stroke-opacity:1;stop-color:#000"/></svg>