<svg xmlns="http://www.w3.org/2000/svg" xml:space="preserve" width="875" height="287" viewBox="0 0 231.51 75.935"><g style="fill:#241d15;fill-opacity:1;stroke:none"><path d="M275.072-53.607c.813-1.866 4.102-4.034 2.891-.308-2.843 4.421 4.348.03 6.136 3.095 1.756.65 3.884 7.67 1.082 4.318-2.207-2.349-5.836-2.418-8.49-.836-10.473 8.329-.084 4.837 3.657 6.639 2.706-.813 4.647 6.039 5.728 2.575.898-3.332 4.654-4.744 7.748-5.176 3.39.773-4.156 1.996-2.866 4.914.385 2.842-1.127 5.26-2.837 6.973 1.717 2.576-1.82 6.427-1.482 7.355 2.986-1.352 6.536-1.523 7.236-5.303 3.327-1.359 4.266-4.848 3.726-7.537 2.609 1.393 2.787 5.353 1.714 7.436 1.92.616 5.89-3.262 3.961.676-1.915 2.7 4.821-.824 3.999-2.152.907-.088 2.831 1.804.672 2.549-1.367.893-6.269 1.798-2.378 2.947 1.086 1.804 6.949.871 5.478 2.598-2.053-.4-7.325 1.307-6.937 2.354 1.492.143 6.036 2.888 2.824 3.278-1.46-1.08-6.717-4.83-3.34-.63 2.025 3.937-2.17-.954-4.151-.257-2.787-1.937 1.965 3.59-.462 5.085-.524 2.057-2.156 3.829-1.843.525.536-3.644-3.365-4.968-4.475-7.924-.966-1.463-4.316-1.19-6.16-2.18-1.106.804 3.053 4.47 1.087 6.764 3.293.85 3.546 4.777 2.68 7.666-.683 2.805 5.698 2.943 3.688 4.317-3.833.47-7.1-2.015-8.515-5.459-1.824-.808-4.837 3.668-7.694 2.915-9.424-3.572-3.762 6.402 2.073 8.01 3.864 1.116 4.962-3.337 7.186-4.267.626 2.853-1.435 4.808-3.374 6.552-1.953 1.429-8.041.176-4.759 3.922 2.036 3.061-.485 2.317-1.876.576-13.496-23.893-9.38-45.828-1.927-62.01zm11.002 41.97c1.946-1.07-2.782-2.017 0 0zm-8.274-.578c4.345.142 8.717-4.4 7.186-8.75-1.648-3.454-2.187 1.947-3.918 2.646.414 1.875.045 3.976-1.904 2.003-1.232-1.545-1.368-4.1-2.874-.963-2.621 2.17-2.777 6.191 1.51 5.064zm-2.156-7.357s1.65-7-1.03-9.83zm22.592-2.173c3.226-1.161 1.46-3.562-3.011-2.912-2.132.432-4.729 1.232-1.165 1.954 1.356.334 2.74 1.229 4.176.958zm-17.383-.871c2.988-1.279-4.256-1.726-1.336.076l.614.057zm3.246-1.738c2.757-2.09 1.409-6.6-.81-8.598-2.45-1.73-6.085-2.542-9.034-2.147-.364 1.772 2.158 5.906 2.991 7.107.351-2.614 5.91-5.62 3.387-1.138.641 1.772 3.467 3.285 3.466 4.776zm1.016-9.526c3.013-2.26-3.253-2.174 0 0zM115.982-53.607c-.813-1.866-4.102-4.034-2.891-.308 2.843 4.421-4.348.03-6.136 3.095-1.756.65-3.884 7.67-1.082 4.318 2.207-2.349 5.837-2.418 8.49-.836 10.473 8.329.084 4.837-3.656 6.639-2.707-.813-4.648 6.039-5.729 2.575-.898-3.332-4.653-4.744-7.748-5.176-3.39.773 4.156 1.996 2.866 4.914-.385 2.842 1.127 5.26 2.837 6.973-1.716 2.576 1.82 6.427 1.482 7.355-2.986-1.352-6.536-1.523-7.236-5.303-3.327-1.359-4.266-4.848-3.726-7.537-2.609 1.393-2.787 5.353-1.714 7.436-1.92.616-5.89-3.262-3.961.676 1.915 2.7-4.821-.824-3.998-2.152-.908-.088-2.832 1.804-.673 2.549 1.368.893 6.269 1.798 2.378 2.947-1.085 1.804-6.949.871-5.478 2.598 2.053-.4 7.325 1.307 6.937 2.354-1.492.143-6.035 2.888-2.824 3.278 1.46-1.08 6.718-4.83 3.34-.63-2.025 3.937 2.17-.954 4.151-.257 2.787-1.937-1.964 3.59.462 5.085.524 2.057 2.156 3.829 1.843.525-.536-3.644 3.365-4.968 4.475-7.924.966-1.463 4.316-1.19 6.16-2.18 1.106.804-3.053 4.47-1.086 6.764-3.294.85-3.547 4.777-2.68 7.666.682 2.805-5.7 2.943-3.688 4.317 3.832.47 7.1-2.015 8.514-5.459 1.825-.808 4.837 3.668 7.694 2.915 9.424-3.572 3.762 6.402-2.072 8.01-3.865 1.116-4.963-3.337-7.186-4.267-.627 2.853 1.434 4.808 3.373 6.552 1.953 1.429 8.042.176 4.759 3.922-2.036 3.061.485 2.317 1.877.576 13.495-23.893 9.38-45.828 1.926-62.01zm-11.002 41.97c-1.946-1.07 2.782-2.017 0 0zm8.274-.578c-4.344.142-8.717-4.401-7.186-8.75 1.648-3.454 2.187 1.947 3.918 2.646-.414 1.875-.044 3.976 1.904 2.003 1.232-1.545 1.369-4.1 2.874-.963 2.621 2.17 2.777 6.191-1.51 5.064zm2.156-7.357s-1.65-7 1.031-9.83zm-22.592-2.173c-3.225-1.161-1.46-3.562 3.011-2.912 2.132.432 4.729 1.232 1.166 1.954-1.357.334-2.742 1.229-4.177.958zm17.383-.871c-2.988-1.279 4.256-1.726 1.336.076l-.613.057zm-3.246-1.738c-2.757-2.09-1.408-6.6.81-8.598 2.451-1.73 6.085-2.542 9.034-2.147.364 1.772-2.158 5.906-2.99 7.107-.352-2.614-5.911-5.62-3.388-1.138-.641 1.772-3.466 3.285-3.466 4.776zm-1.016-9.526c-3.013-2.26 3.253-2.174 0 0z" style="fill:#241d15;stroke-width:.0553836;fill-opacity:1;stroke:none" transform="translate(-79.772 60.986)"/></g><path d="M31.79.661h168.799v74.613H31.79z" style="display:inline;opacity:1;fill:#f2efe5;stroke:#241d15;stroke-width:1.32291;stroke-linecap:round;stroke-linejoin:round;stroke-dasharray:none;stroke-dashoffset:0;stroke-opacity:1;stop-color:#000"/><path d="M36.982 5.573h158.414v64.789H36.982z" style="display:inline;opacity:1;fill:#ebd0ca;stroke:#241d15;stroke-width:1.32291;stroke-linecap:round;stroke-linejoin:round;stroke-dasharray:10.5832,2.64579,1.32291,2.64579;stroke-dashoffset:0;stroke-opacity:1;stop-color:#000;fill-opacity:1"/></svg>