<svg xmlns="http://www.w3.org/2000/svg" xml:space="preserve" width="875" height="287" viewBox="0 0 231.51 75.935"><path d="M201.974 67.936c-2.173-2.137 2.985-1.796 3.922-2.936 2.582-1.958 1.82-5.775.7-8.424-.684-2.516.788-6.193 3.525-6.22 2.616-.924-1.402-4.484-2.145-6.162-1.417-3.579-4.21-.85-5.594 1.149-21.263 28.065-15.592 17.397 1.49-5.04-32.286-15.168-31.072 8.308-2.357-4.261 1.81-.108 2.986-2.251.712-3.011-46.536-43.77-3.99 1.617 4.952-1.325.873-1.797 4.055-6.283.947-6.987-2.276-.971-3.257-3.968-3.188-6.52 1.967-3.252-.068-7.147-2.799-8.765-2.614-.177-.707-2.064.882-1.39 2.322.355 4.906 1.405 6.375 3.596 1.785 2.127 3.24 5.108 2.282 8.101.96 2.883.997-2.62 2.368-2.962 2.833-2.468 6.818-1.394 9.343 1.062 1.45 1.907-2.556-.434-3.328.685-2.997.644-3.537 3.783-5.107 6.092-1.554 1.272-4.327.774-4.324 3.782-.654 1.807-4.054 5.523-.893 6.157 2.154-2.45 6.03-1.192 7.066 1.747 2.03-.999 4.35-2.269 6.111-4.09 1.336-1.608 4.727-7.556 3.361-2.123-.712 1.95-3.391 3.374.83 4.513 1.47.417 6.734 1.764 3.216 3.195-2.183 1.315-3.586 1.987-5.025 2.96-.798.69 1.879 4.786.286 5.457-.933-2.548-3.23-4.548-5.567-5.097-1.522-.436-4.229-3.912-4.662-.386-2.346 2.613-4.6-1.023-6.242-1.7-2.573 2.027 1.166 4.573 1.77 6.768 1.382 2.15 2.038 4.864 4.95 4.52 1.518 2.958 3.439 5.638 6.71 5.98 1.51-.314 2.573.958.44 1.256-2.448.726-5.112 2.197-7.618.746-1.683.032-2.392-1.91-3.056-2.836-1.224 2.168.04 5.43-1.658 7.723-1.684 2.16-3.85 4.155-6.465 4.578-.723.053-1.495.452-2.21.168zm19.584-28.03c.126-1.763.323-5.552-2-3.382-3.213.726 1.163 3.474 2 3.381zm-15.816-.913c1.503-.443 4.353-2.322 1.327-3.167-1.666-1.037-6.459 1.607-2.855 2.823.426.297 1.039.781 1.528.344zM29.537 67.936c2.173-2.137-2.985-1.796-3.923-2.936-2.582-1.958-1.819-5.775-.699-8.424.684-2.516-.789-6.193-3.526-6.22-2.615-.924 1.402-4.484 2.145-6.162 1.417-3.579 4.211-.85 5.595 1.149 21.262 28.065 15.591 17.397-1.491-5.04 32.286-15.168 31.073 8.308 2.357-4.261-1.81-.108-2.985-2.251-.711-3.011 46.536-43.77 3.99 1.617-4.952-1.325-.873-1.797-4.056-6.283-.947-6.987 2.276-.971 3.257-3.968 3.187-6.52-1.967-3.252.068-7.147 2.8-8.765 2.613-.177.707-2.064-.883-1.39-2.322.355-4.906 1.405-6.375 3.596-1.785 2.127-3.24 5.108-2.282 8.101-.96 2.883-.996-2.62-2.368-2.962-2.832-2.468-6.818-1.394-9.343 1.062-1.449 1.907 2.557-.434 3.329.685 2.996.644 3.537 3.783 5.107 6.092 1.553 1.272 4.326.774 4.323 3.782.654 1.807 4.054 5.523.894 6.157-2.155-2.45-6.031-1.192-7.067 1.747-2.03-.999-4.35-2.269-6.11-4.09-1.337-1.608-4.728-7.556-3.362-2.123.713 1.95 3.392 3.374-.829 4.513-1.47.417-6.734 1.764-3.217 3.195 2.183 1.315 3.586 1.987 5.025 2.96.799.69-1.878 4.786-.286 5.457.934-2.548 3.23-4.548 5.567-5.097 1.523-.436 4.23-3.912 4.662-.386 2.346 2.613 4.6-1.023 6.242-1.7 2.573 2.027-1.166 4.573-1.77 6.768-1.381 2.15-2.037 4.864-4.95 4.52-1.518 2.958-3.438 5.638-6.71 5.98-1.51-.314-2.573.958-.44 1.256 2.449.726 5.112 2.197 7.618.746 1.684.032 2.393-1.91 3.056-2.836 1.224 2.168-.04 5.43 1.659 7.723 1.683 2.16 3.85 4.155 6.465 4.578.723.053 1.494.452 2.21.168zM9.952 39.906c-.125-1.763-.323-5.552 2-3.382 3.213.726-1.162 3.474-2 3.381zm15.816-.913c-1.502-.443-4.353-2.322-1.327-3.167 1.667-1.037 6.459 1.607 2.856 2.823-.427.297-1.04.781-1.529.344z" style="fill:#241d15;fill-opacity:1;stroke:none;stroke-width:.106748;stroke-opacity:1"/><path d="M31.79.661h168.799v74.613H31.79z" style="display:inline;opacity:1;fill:#f2efe5;stroke:#241d15;stroke-width:1.32291;stroke-linecap:round;stroke-linejoin:round;stroke-dasharray:none;stroke-dashoffset:0;stroke-opacity:1;stop-color:#000"/><path d="M36.982 5.573h158.414v64.789H36.982z" style="display:inline;opacity:1;fill:#d6dacc;fill-opacity:1;stroke:#241d15;stroke-width:1.32291;stroke-linecap:round;stroke-linejoin:round;stroke-dasharray:10.5832,2.64579,1.32291,2.64579;stroke-dashoffset:0;stroke-opacity:1;stop-color:#000"/></svg>