<?xml version="1.0" encoding="UTF-8" standalone="no"?>
<svg
   xml:space="preserve"
   width="640"
   height="749"
   viewBox="0 0 169.33303 198.17183"
   version="1.1"
   id="svg5145"
   sodipodi:docname="popup_5.svg"
   inkscape:version="1.2.2 (b0a8486541, 2022-12-01)"
   xmlns:inkscape="http://www.inkscape.org/namespaces/inkscape"
   xmlns:sodipodi="http://sodipodi.sourceforge.net/DTD/sodipodi-0.dtd"
   xmlns="http://www.w3.org/2000/svg"
   xmlns:svg="http://www.w3.org/2000/svg"><defs
     id="defs5149" /><sodipodi:namedview
     id="namedview5147"
     pagecolor="#ffffff"
     bordercolor="#999999"
     borderopacity="1"
     inkscape:showpageshadow="0"
     inkscape:pageopacity="0"
     inkscape:pagecheckerboard="0"
     inkscape:deskcolor="#d1d1d1"
     showgrid="false"
     inkscape:zoom="0.9754033"
     inkscape:cx="147.11863"
     inkscape:cy="404.9607"
     inkscape:window-width="1920"
     inkscape:window-height="1051"
     inkscape:window-x="0"
     inkscape:window-y="0"
     inkscape:window-maximized="1"
     inkscape:current-layer="svg5145" /><path
     d="m 60.944074,172.77302 c 0.125,-0.25508 0.348,-0.88027 0.515,-1.44245 0.129,-0.47115 1.039999,-2.10465 1.271998,-1.23638 -0.029,1.31741 -0.779999,3.38104 -0.259999,4.51439 0.11851,0.20725 0.232539,0.41703 0.341999,0.6292 0.228,0.44614 0.84,0.76223 1.867999,0.96829 1.201998,0.36511 2.375997,1.55749 2.699997,2.82687 0.041,0.17995 0.0903,0.35786 0.148,0.53317 0.109,0.3211 0.112,0.6322 0.013,1.04833 -0.374,1.57248 0.396999,2.49977 2.131996,2.56078 0.447999,0.02 0.894999,0.05 1.341998,0.093 0.887999,0.085 1.056999,0.032 1.132999,-0.35711 0.275,-0.98631 1.234999,-1.91959 2.126998,-2.13465 0.222,-0.027 0.508,-0.065 0.635,-0.085 0.421999,-0.065 1.238998,0.58318 1.538998,1.22037 0.312,0.66621 0.526,0.78825 0.945999,0.54417 0.953999,-0.3261 4.326996,-1.78755 4.081996,-2.87289 -0.02,-0.06 -0.395999,-0.37311 -0.834999,-0.69721 -0.44,-0.32409 -0.953999,-0.76523 -1.142999,-0.9783 -0.19,-0.21407 -0.527999,-0.52816 -0.753999,-0.69722 -1.069999,-0.80625 -1.691999,-1.9636 -1.659999,-3.08995 0.033,-1.19336 -0.411999,-1.53947 -0.941999,-0.73423 -0.999999,1.2774 -2.684997,2.47076 -4.037996,2.84388 -1.821998,0.6302 -2.701997,-0.13303 -0.948999,-0.82425 0.872999,-0.34411 0.985999,-0.6322 1.004999,-2.55779 0.016,-1.69352 0.025,-1.72353 0.796999,-2.54678 0.636,-0.67921 0.617,-0.76024 -0.204999,-0.91229 -0.227,-0.043 -0.686,-0.16205 -1.017999,-0.26508 -0.333,-0.10403 -0.654,-0.19006 -0.716,-0.19306 -0.201999,-0.008 -0.958999,-0.60519 -1.291998,-1.02032 -0.595,-0.74522 -0.827998,-1.07032 -0.825998,-1.16235 0.002,-0.11804 -0.349999,-0.45614 -0.629999,-0.60219 -0.574999,-0.30309 -0.835999,-0.41813 -0.954999,-0.42013 -0.288,-0.008 -0.691999,-0.17105 -0.726999,-0.29409 -0.136,-0.49215 0.761999,-0.71021 2.090998,-0.50816 1.207996,0.18506 1.909996,0.23007 2.396995,0.15405 0.247,-0.039 0.896999,-0.08 1.443999,-0.094 1.339999,-0.031 1.808998,-0.33109 1.374999,-0.87826 -0.475,-0.59819 -0.532,-0.90329 -0.25,-1.33142 0.585999,-0.89427 1.172999,-1.17836 1.732998,-0.84025 1.093999,0.6622 1.252999,0.9843 1.047999,2.11765 -0.156,0.85226 -0.241,0.81124 1.789998,0.86226 1.207999,0.03 1.774999,0.02 1.872998,-0.034 0.09,-0.05 0.591,-0.071 1.419999,-0.062 0.704999,0.007 1.524999,0 1.824998,-0.017 1.311999,-0.073 2.647998,-0.056 3.132997,0.041 0.193,0.039 0.711,0.067 1.149999,0.063 0.44,-0.004 1.376999,-0.008 2.079998,-0.008 0.704999,0 1.461999,-0.034 1.683998,-0.074 0.318,-0.057 0.798,-0.045 2.237998,0.054 2.063998,0.14304 2.059998,0.14404 2.067998,-0.37011 0.005,-0.22207 -0.189,-0.74523 -0.303999,-0.82426 -0.363,-0.25007 -0.332,-1.37542 0.045,-1.65651 1.403999,-1.04632 3.284997,1.06433 1.998999,2.2407 -0.415,0.38012 -0.134,0.59517 0.794999,0.61018 0.600649,0.0225 1.199949,0.0725 1.795993,0.15004 0.862,0.11304 1.111,0.12404 1.438,0.064 0.431,-0.08 1.693,-0.067 2.33,0.024 0.317,0.045 0.453,0.032 0.656,-0.057 0.736,-0.33009 2.261,0.11004 1.96,0.56518 -0.105,0.16005 -0.953,0.50616 -1.233,0.50316 -0.112,-0.002 -0.348,0.067 -0.526,0.15505 -0.178,0.087 -0.36,0.15804 -0.403,0.15704 -0.044,0 -0.19,0.097 -0.324,0.21807 -0.134,0.12104 -0.294,0.23708 -0.355,0.25908 -0.06,0.02 -0.181,0.15305 -0.27,0.29409 -0.11325,0.16837 -0.2515,0.31847 -0.41,0.44513 -0.235,0.19031 -0.4606,0.39195 -0.676,0.60419 -1.534,1.50047 -1.98,1.64051 -4.054993,1.2774 -0.953999,-0.16705 -1.007999,0.019 -0.25,0.87227 0.747999,0.84226 0.935999,1.55848 0.777999,2.96491 -0.055,0.49515 0.253,1.02432 0.879999,1.50747 0.717995,0.55317 0.783995,0.70521 0.448005,1.03031 -0.260005,0.25308 -1.154004,0.25908 -1.690003,0.011 -0.86,-0.29008 -1.549999,-1.02331 -2.100998,-1.42843 -0.03,0 -0.24,-0.21907 -0.469,-0.48515 -0.653999,-0.76523 -0.713999,-0.72022 -0.784999,0.60919 -0.762999,2.73584 -2.475998,3.98123 -4.134996,5.40766 -0.293,0.53517 -0.208,0.67221 0.143,0.9573 0.17433,0.15392 0.359839,0.29467 0.554999,0.42113 0.444,0.28908 1.863998,1.34541 2.118998,1.57648 0.456,0.41513 0.729,0.37612 1.259999,-0.17805 0.969999,-1.01232 2.739997,-0.68922 2.977997,0.54517 0.206,1.07632 0.464,1.34341 1.321999,1.36641 1.212994,0.034 2.504994,-0.85025 2.762994,-1.89058 0.038,-0.14804 0.42,-1.16136 0.86,-2.27069 0.48,-0.81626 1.114,-1.00232 1.875,-1.20738 l 0.563,-0.24708 c 0.282,-0.12304 0.57,-0.3701 1.345,-1.14835 1.083,-1.09034 1.168,-1.24338 1.018,-1.86057 -0.212,-0.88027 0.102,-1.82657 0.49,-1.47846 0.463,0.41313 0.482,0.98031 0.067,1.9416 -0.245,1.01332 -0.6,2.06464 -0.907,2.94291 -0.772,1.72754 -1.885,3.94622 -3.561,4.82948 -0.35,0.17506 -0.713,0.38212 -0.806,0.46015 -0.092,0.079 -0.333,0.20306 -0.536,0.27608 l -0.709,0.25508 c -1.158,0.41613 -1.329,0.69022 -0.787,1.25839 0.20496,0.2256 0.38624,0.47162 0.541,0.73422 2.113,2.5738 -0.353,7.17122 -2.759994,7.34027 -0.14145,0.002 -0.281999,0.0231 -0.417999,0.062 -0.784,0.23608 -1.384999,0.15205 -1.314999,-0.18405 0.057,-0.27309 0.198,-0.37012 0.590999,-0.41313 0.574,-0.06 0.66,-0.091 1.203999,-0.42113 1.062999,-0.64621 1.222999,-1.19037 0.637,-2.16867 -0.389,-0.6492 -0.37,-1.65352 0.044,-2.2597 0.930994,-2.15067 0.464999,-2.18668 -0.449,-3.19898 -0.747999,-0.83326 -1.435999,-0.87728 -1.821998,-0.11704 -0.655,0.75924 -2.193998,0.34311 -2.540998,-0.68521 -0.239999,-0.81226 -0.285999,-0.85727 -1.167999,-1.09033 -1.177998,-0.68422 -2.170997,-1.43045 -2.993997,-2.34974 -0.821999,-0.92428 -0.999999,-0.96929 -1.416998,-0.3601 -0.118,0.17204 -0.376,0.51615 -0.574,0.76323 -0.462999,0.57818 -0.609999,0.80025 -0.847999,1.2724 -0.0772,0.16063 -0.16364,0.3166 -0.259,0.46714 -0.175999,0.22307 -0.423999,1.33041 -0.435999,1.9506 -0.015,0.80525 0.003,0.82726 0.958999,1.18036 0.740999,0.27308 0.740999,0.27308 1.444998,1.03632 1.225999,1.32641 1.719999,1.60049 2.889998,1.60849 0.706999,0.005 0.899999,0.099 0.893999,0.43414 -0.002,0.11703 -0.257,0.40412 -0.357,0.40112 -0.03,0 -0.212,0.073 -0.403999,0.16405 -0.236,0.10372 -0.48386,0.17796 -0.738,0.22107 -0.528539,0.0739 -1.049329,0.19544 -1.555998,0.36312 -0.447,0.15505 -0.748,0.082 -1.374999,-0.33511 -1.297999,-0.86327 -1.631998,-0.80925 -1.094999,0.17906 0.134,0.24607 0.26,0.54517 0.28,0.6622 0.0437,0.21797 0.0944,0.43448 0.152,0.64921 0.136,0.51715 0.131,1.22537 -0.012,1.59849 -0.058,0.15504 -0.11,0.31309 -0.155,0.47214 -0.442,1.01532 -1.291999,1.83857 -1.603999,3.00293 -0.485999,1.92459 -1.168998,-1.18337 -1.369998,-1.99061 -0.077,-0.3211 -0.25,-0.75724 -0.435,-1.10034 -0.483999,-0.89328 -0.289999,-1.61751 0.395,-2.80887 0.421999,-0.73123 0.303,-0.94329 -0.46,-0.81726 -0.257999,0.042 -0.519999,0.073 -0.781999,0.092 l -0.895999,0.047 c -0.657999,0.035 -1.248999,-0.13805 -1.713998,-0.50216 -0.137,-0.10703 -0.276,-0.19506 -0.308,-0.19606 -0.075,-0.002 -1.173999,-0.91528 -1.323999,-1.10033 -0.302999,-0.37512 0.284,-0.54317 1.050999,-0.3011 0.993999,0.3121 1.676999,0.22107 2.168998,-0.28809 0.927999,-0.9623 1.972998,-1.73253 2.339998,-1.72452 1.324998,-0.81826 -0.033,-3.91021 -0.63,-4.52541 -0.209999,-0.21406 -0.455999,-0.50115 -0.544999,-0.6372 -0.237,-0.3581 -1.164999,-1.39042 -1.251999,-1.39142 -1.179999,3.08095 -4.566995,2.19368 -6.167994,4.35134 -0.212,0.44914 -0.379999,0.58818 -0.903999,0.74723 -0.761999,0.37612 -1.444999,0.16705 -2.049998,-0.073 -0.24,-0.054 -0.547999,-0.3101 -1.047999,-0.87027 -0.687999,-0.77023 -2.313998,1.01031 -2.014998,2.20669 0.24,0.95228 0.356,1.14034 0.877999,1.40542 1.230999,0.6272 1.599999,1.6145 1.044999,2.80287 -0.567999,1.21438 0.156,2.48476 1.630999,2.85788 0.525999,0.13304 0.754999,0.3201 0.550999,0.45014 -1.011999,-0.004 -2.356998,-0.52716 -3.171997,-1.20838 -0.839999,-0.92328 -2.145998,-2.09564 -2.317996,-3.244 -0.074,-0.6652 -0.058,-1.34541 0.054,-2.25269 0.146,-1.17736 0.241,-1.49346 0.728,-2.43375 0.314999,-0.60719 0.234999,-0.74923 -0.465,-0.83526 -1.199985,-0.14605 -1.319985,-0.17506 -1.713984,-0.40513 -0.216,-0.12703 -0.527,-0.25308 -0.69,-0.28108 -0.419999,-0.12503 -0.881999,-0.29209 -1.231998,-0.45814 -0.438,-0.21006 -0.633,-0.35511 -1.109999,-0.82826 -0.13,-0.12804 -0.334,-0.31409 -0.455,-0.41613 -1.037999,-0.88226 -1.699998,-2.03262 -2.454997,-3.11396 -0.562,-1.3104 -0.865,-4.62642 -0.606,-5.93782 z m 13.902985,-3.69014 c 0.633999,1.00131 2.393997,0.17205 2.192997,-1.03332 -0.068,-0.40613 -1.193998,-0.93528 -1.598998,-0.75123 -0.48,0.21907 -0.860999,1.36242 -0.593999,1.78455 z m 6.758993,4.06725 c 0.374,1.48946 0.931999,2.9209 1.705998,3.16097 0.222,-0.052 0.29,-0.17805 0.473,-0.37411 0.648999,-0.6742 0.500999,-0.9823 0.777999,-2.03763 0.16,-0.94728 0.088,-1.66351 0.215,-2.66382 0.032,-0.053 0.085,-0.40112 0.118,-0.77524 0.092,-1.05932 0.356999,-1.41343 0.818999,-1.09633 0.186,0.12804 0.25,0.14004 0.42,0.082 0.601999,-0.20506 0.711999,-0.011 0.789999,1.38542 0.047,0.82026 0.089,1.10435 0.205,1.39244 0.079,0.19516 0.140219,0.39703 0.182999,0.60319 0.437,1.19436 0.484,2.69883 1.019999,3.6111 0.208,0.17906 0.467,-0.024 0.64,-0.50015 0.629999,-1.73053 0.596999,-1.55248 0.650999,-3.46906 0.055,-1.93861 0.068,-1.84558 -0.379999,-2.5908 -0.437,-0.72323 -1.987999,-1.55549 -2.579998,-1.38343 -0.165,0.048 -0.376,0.044 -0.711999,-0.013 l -0.738,-0.12304 c -0.335999,-0.055 -0.739999,0.051 -0.983999,0.26008 -0.106999,0.09 -0.289999,0.19507 -0.407999,0.23508 -0.666,0.22007 -1.682999,1.2804 -1.921998,2.00061 -0.22,0.46015 -0.359,0.89128 -0.334,1.24639 0.0236,0.34931 0.0369,0.69923 0.04,1.04932 z m 2.103998,5.46468 c 0.628999,1.41244 1.392999,3.17998 2.239998,4.36835 0.447999,0.59019 0.608999,0.42314 1.153999,-1.20037 0.466999,-0.94628 0.555999,-1.70452 0.787999,-2.68583 -0.603,-1.99261 -1.149999,-3.9082 -1.498999,-5.5237 -0.077,-0.35611 -0.166,-0.82725 -0.196999,-1.04832 -0.094,-0.6502 -0.23,-0.59518 -0.325,0.13204 -0.034,0.25408 -0.145,0.84026 -0.248,1.3034 -0.227,1.48546 -0.841999,2.99793 -1.692998,4.03825 -0.255,0.28509 -0.343,0.53117 -0.22,0.61618 z m 2.017998,10.49024 c 0.299,0.44513 1.005999,0.3531 1.178999,-0.15204 0.341999,-0.99331 -0.497,-1.76855 -1.221999,-1.13036 -0.17,0.15005 -0.14,1.01032 0.043,1.2834 z m 8.830991,-19.52001 c 0.27,0.46514 1.031999,0.76724 1.426999,0.56417 1.473998,-0.75623 0.807999,-2.58579 -0.762999,-2.09365 -0.512,0.16105 -0.73,0.40613 -0.787,0.88828 -0.075,0.26608 0.016,0.43713 0.123,0.6402 z m -7.311993,-5.1766 c 0.122,0.003 0.172,0.018 0.111,0.034 -0.0742,0.015 -0.150759,0.013 -0.223999,-0.006 -0.06,-0.018 -0.01,-0.03 0.112999,-0.028 z"
     style="fill:#241d15;fill-opacity:1;stroke-width:0.0657782"
     id="path453-3" /><path
     d="m 60.944079,25.398796 c 0.125,0.255078 0.348,0.880271 0.515,1.442445 0.129,0.471145 1.039999,2.104648 1.271998,1.23638 -0.029,-1.317406 -0.779999,-3.381041 -0.259999,-4.514391 0.118509,-0.207247 0.232535,-0.417027 0.341999,-0.629194 0.228,-0.446138 0.84,-0.762235 1.867999,-0.968298 1.201998,-0.365113 2.375997,-1.55748 2.699997,-2.826872 0.04095,-0.179944 0.09034,-0.357862 0.148,-0.533165 0.109,-0.321099 0.112,-0.632194 0.013,-1.048323 -0.374,-1.572484 0.396999,-2.49977 2.131999,-2.560789 0.447999,-0.02001 0.894999,-0.05002 1.341998,-0.09303 0.887999,-0.08503 1.056999,-0.03201 1.132999,0.35711 0.275,0.986304 1.234999,1.919591 2.126998,2.134658 0.222,0.02701 0.508,0.06502 0.635,0.08503 0.421999,0.06502 1.238998,-0.583179 1.538998,-1.220375 0.312,-0.666206 0.526,-0.788243 0.945999,-0.544168 0.953999,0.326101 4.326996,1.787551 4.081996,2.872885 -0.02,0.06002 -0.395999,0.373116 -0.834999,0.697216 -0.44,0.324099 -0.953999,0.765235 -1.142999,0.978301 -0.19,0.214066 -0.527999,0.528163 -0.753999,0.697214 -1.069999,0.80625 -1.691999,1.963606 -1.659999,3.089953 0.033,1.193369 -0.411999,1.539475 -0.941999,0.734227 -0.999999,-1.277394 -2.684997,-2.470762 -4.037996,-2.843878 -1.821998,-0.630194 -2.701997,0.133041 -0.948999,0.824254 0.872999,0.344107 0.985999,0.632197 1.004999,2.557788 0.016,1.693523 0.025,1.723532 0.796999,2.546787 0.636,0.67921 0.617,0.760234 -0.204999,0.912281 -0.227,0.04301 -0.686,0.16205 -1.017999,0.265082 -0.333,0.104031 -0.654,0.190058 -0.716,0.193059 -0.201999,0.008 -0.958999,0.605186 -1.291998,1.020315 -0.595,0.745229 -0.828001,1.070328 -0.826001,1.162357 0.002,0.118037 -0.349999,0.456141 -0.629999,0.602186 -0.574999,0.303093 -0.835999,0.418129 -0.954999,0.42013 -0.288,0.008 -0.691999,0.171052 -0.726999,0.294091 -0.136,0.492151 0.761999,0.710218 2.090998,0.508156 1.207999,-0.185058 1.909999,-0.230071 2.396998,-0.154048 0.247,0.03901 0.896999,0.08002 1.443999,0.09403 1.339999,0.03101 1.808998,0.331103 1.374999,0.878271 -0.475,0.598185 -0.532,0.903279 -0.25,1.331411 0.585999,0.894276 1.172999,1.178363 1.732998,0.840259 1.093999,-0.662204 1.252999,-0.984303 1.047999,-2.117653 -0.156,-0.852263 -0.241,-0.81125 1.789998,-0.862266 1.207999,-0.03001 1.774999,-0.02001 1.872998,0.03401 0.09,0.05002 0.591,0.07102 1.419999,0.06202 0.704999,-0.007 1.524999,0 1.824998,0.01701 1.311999,0.07302 2.647998,0.05602 3.132997,-0.04101 0.193,-0.03901 0.711,-0.06702 1.149999,-0.06302 0.44,0.004 1.376999,0.008 2.079998,0.008 0.704999,0 1.461999,0.03401 1.683998,0.07402 0.318,0.05702 0.798,0.04501 2.237998,-0.05402 2.063998,-0.143044 2.059998,-0.144044 2.067998,0.370115 0.005,0.222068 -0.189,0.745229 -0.303999,0.824254 -0.363,0.250077 -0.332,1.375424 0.045,1.65651 1.403999,1.046323 3.284997,-1.064328 1.998999,-2.240691 -0.415,-0.380117 -0.134,-0.595183 0.794999,-0.610188 0.600649,-0.02249 1.199949,-0.07255 1.795995,-0.150046 0.862,-0.113035 1.111,-0.124038 1.438,-0.06402 0.431,0.08002 1.693,0.06702 2.33,-0.02401 0.317,-0.04501 0.453,-0.03201 0.656,0.05702 0.736,0.330102 2.261,-0.110035 1.96,-0.565175 -0.105,-0.16005 -0.953,-0.506156 -1.233,-0.503155 -0.112,0.002 -0.348,-0.06702 -0.526,-0.155048 -0.178,-0.08703 -0.36,-0.158048 -0.403,-0.157048 -0.044,0 -0.19,-0.09703 -0.324,-0.218067 -0.134,-0.121038 -0.294,-0.237073 -0.355,-0.25908 -0.06,-0.02001 -0.181,-0.153048 -0.27,-0.294091 -0.11325,-0.168368 -0.2515,-0.318474 -0.41,-0.445137 -0.235,-0.190305 -0.4606,-0.39194 -0.676,-0.604186 -1.534,-1.500463 -1.98,-1.640506 -4.054995,-1.277394 -0.953999,0.167052 -1.007999,-0.01901 -0.25,-0.872269 0.747999,-0.842259 0.935999,-1.55848 0.777999,-2.964914 -0.055,-0.495153 0.253,-1.024316 0.879999,-1.507463 0.717997,-0.553172 0.783997,-0.705218 0.448007,-1.030319 -0.260007,-0.253077 -1.154006,-0.259079 -1.690005,-0.011 -0.86,0.29009 -1.549999,1.023315 -2.100998,1.428439 -0.03,0 -0.24,0.219069 -0.469,0.485151 -0.653999,0.765236 -0.713999,0.720221 -0.784999,-0.609188 -0.762999,-2.735844 -2.475998,-3.981228 -4.134996,-5.407668 -0.293,-0.535165 -0.208,-0.672207 0.143,-0.957295 0.17433,-0.153916 0.359839,-0.294679 0.554999,-0.42113 0.444,-0.289089 1.863998,-1.345414 2.118998,-1.576485 0.456,-0.415129 0.729,-0.376117 1.259999,0.178054 0.969999,1.012312 2.739997,0.689213 2.977997,-0.545168 0.206,-1.076332 0.464,-1.343414 1.321999,-1.366421 1.212996,-0.03401 2.504996,0.850262 2.762996,1.890583 0.038,0.148046 0.42,1.161358 0.86,2.2707 0.48,0.816251 1.114,1.002308 1.875,1.207371 l 0.563,0.247076 c 0.282,0.123039 0.57,0.370115 1.345,1.148355 1.083,1.090336 1.168,1.243383 1.018,1.860573 -0.212,0.880272 0.102,1.826565 0.49,1.478457 0.463,-0.413128 0.482,-0.980303 0.067,-1.941599 -0.245,-1.013313 -0.6,-2.064636 -0.907,-2.942907 -0.772,-1.727533 -1.885,-3.946217 -3.561,-4.829489 -0.35,-0.175054 -0.713,-0.382118 -0.806,-0.460142 -0.092,-0.07902 -0.333,-0.203063 -0.536,-0.276085 l -0.709,-0.255079 c -1.158,-0.416128 -1.329,-0.690212 -0.787,-1.258387 0.20496,-0.225594 0.38624,-0.471624 0.541,-0.734226 2.113,-2.573794 -0.353,-7.171212 -2.759996,-7.340264 -0.14145,-0.0022 -0.281999,-0.02307 -0.417999,-0.06202 -0.784,-0.236073 -1.384999,-0.152047 -1.314999,0.184056 0.057,0.273084 0.198,0.370115 0.590999,0.413128 0.574,0.06002 0.66,0.09103 1.203999,0.421129 1.062999,0.6462 1.222999,1.190368 0.637,2.16867 -0.389,0.6492 -0.37,1.653509 0.044,2.259697 0.930996,2.150662 0.464999,2.186674 -0.449,3.198985 -0.747999,0.833257 -1.435999,0.877271 -1.821998,0.117037 -0.655,-0.759234 -2.193998,-0.343106 -2.540998,0.685211 -0.239999,0.81225 -0.285999,0.857264 -1.167999,1.090336 -1.177998,0.684211 -2.170997,1.430441 -2.993997,2.349724 -0.821999,0.924285 -0.999999,0.969299 -1.416998,0.360111 -0.118,-0.172053 -0.376,-0.516159 -0.574,-0.763235 -0.462999,-0.578179 -0.609999,-0.800247 -0.847999,-1.272392 -0.0772,-0.160629 -0.16364,-0.316609 -0.259,-0.467145 -0.175999,-0.223068 -0.423999,-1.33041 -0.435999,-1.9506 -0.015,-0.805248 0.003,-0.827255 0.958999,-1.180364 0.740999,-0.273085 0.740999,-0.273085 1.444998,-1.03632 1.225999,-1.326408 1.719999,-1.600493 2.889998,-1.608495 0.706999,-0.005 0.899999,-0.09903 0.893999,-0.434135 -0.002,-0.117035 -0.257,-0.404124 -0.357,-0.401123 -0.03,0 -0.212,-0.07302 -0.403999,-0.164051 -0.236,-0.10371 -0.48386,-0.177958 -0.738,-0.221068 -0.528539,-0.0739 -1.049329,-0.195439 -1.555998,-0.363111 -0.447,-0.155049 -0.748,-0.08203 -1.374999,0.335102 -1.297999,0.863267 -1.631998,0.80925 -1.094999,-0.179055 0.134,-0.246075 0.26,-0.545169 0.28,-0.662205 0.0437,-0.217966 0.0944,-0.434478 0.152,-0.6492 0.136,-0.517159 0.131,-1.225378 -0.012,-1.598492 -0.058,-0.155049 -0.11,-0.313097 -0.155,-0.472146 -0.442,-1.015313 -1.291999,-1.838567 -1.603999,-3.002926 -0.485999,-1.924592 -1.168998,1.183365 -1.369998,1.990614 -0.077,0.321099 -0.25,0.757233 -0.435,1.100339 -0.483999,0.893276 -0.289999,1.617499 0.395,2.808867 0.421999,0.731225 0.303,0.94329 -0.46,0.817252 -0.257999,-0.04201 -0.519999,-0.07302 -0.781999,-0.09203 L 82.67206,7.196192 c -0.657999,-0.03501 -1.248999,0.138043 -1.713998,0.502154 -0.137,0.107034 -0.276,0.195061 -0.308,0.196061 -0.075,0.002 -1.173999,0.915282 -1.323999,1.10034 -0.302999,0.375115 0.284,0.543167 1.050999,0.301092 0.993999,-0.312096 1.676999,-0.221068 2.168998,0.288088 0.927999,0.962298 1.972998,1.732535 2.339998,1.724532 1.324998,0.818253 -0.033,3.910206 -0.63,4.525395 -0.209999,0.214067 -0.455999,0.501155 -0.544999,0.637197 -0.237,0.35811 -1.164999,1.390428 -1.251999,1.391429 -1.179999,-3.08095 -4.566995,-2.193677 -6.167994,-4.351342 -0.212,-0.449138 -0.379999,-0.588181 -0.903999,-0.74723 -0.761999,-0.376116 -1.444999,-0.167052 -2.049998,0.07302 -0.24,0.05402 -0.547999,0.310096 -1.047999,0.870269 -0.687999,0.770237 -2.313998,-1.010312 -2.014998,-2.206681 0.24,-0.952293 0.356,-1.14035 0.877999,-1.405432 C 72.38307,9.46789 72.75207,8.480586 72.19707,7.29222 c -0.567999,-1.214376 0.156,-2.484767 1.630999,-2.857883 0.525999,-0.13304 0.754999,-0.320098 0.550999,-0.450138 -1.011999,0.004 -2.356998,0.527162 -3.171997,1.208373 -0.839999,0.923284 -2.145998,2.095647 -2.317999,3.244001 -0.074,0.665204 -0.058,1.345415 0.054,2.252693 0.146,1.177363 0.241,1.493462 0.728,2.433751 0.314999,0.607188 0.234999,0.749232 -0.465,0.835258 -1.199999,0.146045 -1.319999,0.175054 -1.713998,0.405125 -0.216,0.127039 -0.527,0.253078 -0.69,0.281087 -0.419999,0.125038 -0.881999,0.29209 -1.231998,0.458141 -0.438,0.210064 -0.633,0.35511 -1.109999,0.828255 -0.13,0.12804 -0.334,0.314097 -0.455,0.416129 -1.037999,0.882271 -1.699998,2.032626 -2.454997,3.113959 -0.562,1.310404 -0.865,4.626427 -0.606,5.93783 z m 13.902988,3.690138 c 0.633999,-1.00131 2.393997,-0.172054 2.192997,1.033317 -0.068,0.406126 -1.193998,0.935289 -1.598998,0.751232 -0.48,-0.219068 -0.860999,-1.36242 -0.593999,-1.784549 z M 81.60606,25.02168 c 0.374,-1.489459 0.931999,-2.920901 1.705998,-3.160975 0.222,0.05202 0.29,0.178055 0.473,0.374115 0.648999,0.674208 0.500999,0.982303 0.777999,2.037628 0.16,0.947293 0.088,1.663513 0.215,2.663821 0.032,0.05302 0.085,0.401124 0.118,0.77524 0.092,1.059327 0.356999,1.413435 0.818999,1.096338 0.186,-0.12804 0.25,-0.140044 0.42,-0.08202 0.601999,0.205063 0.711999,0.011 0.789999,-1.385427 0.047,-0.820253 0.089,-1.10434 0.205,-1.392429 0.079,-0.195161 0.140219,-0.397038 0.182999,-0.603186 0.437,-1.194368 0.484,-2.698833 1.019999,-3.611114 0.208,-0.179055 0.467,0.02401 0.64,0.500154 0.629999,1.730534 0.596999,1.552479 0.650999,3.46907 0.055,1.938598 0.068,1.845569 -0.379999,2.590798 -0.437,0.723224 -1.987999,1.555479 -2.579998,1.383427 -0.165,-0.04801 -0.376,-0.04401 -0.711999,0.013 l -0.738,0.123038 c -0.335999,0.05502 -0.739999,-0.05102 -0.983999,-0.26008 -0.106999,-0.09003 -0.289999,-0.19506 -0.407999,-0.235072 -0.666,-0.220068 -1.682999,-1.280396 -1.921998,-2.000617 -0.22,-0.460142 -0.359,-0.891275 -0.334,-1.246384 0.0236,-0.349308 0.0369,-0.699233 0.04,-1.049324 z m 2.103998,-5.464685 c 0.628999,-1.412435 1.392999,-3.179981 2.239998,-4.368346 0.447999,-0.590182 0.608999,-0.423131 1.153999,1.200369 0.466999,0.946292 0.555999,1.704526 0.787999,2.685828 -0.603,1.992614 -1.149999,3.908205 -1.498999,5.523703 -0.077,0.35611 -0.166,0.827255 -0.196999,1.048323 -0.094,0.650201 -0.23,0.595184 -0.325,-0.13204 -0.034,-0.254078 -0.145,-0.840259 -0.248,-1.303402 -0.227,-1.485458 -0.841999,-2.997924 -1.692998,-4.038246 -0.255,-0.285088 -0.343,-0.531163 -0.22,-0.616189 z M 85.728056,9.066761 c 0.299,-0.445137 1.005999,-0.353108 1.178999,0.152048 0.341999,0.993305 -0.497,1.768544 -1.221999,1.130348 -0.17,-0.150047 -0.14,-1.010312 0.043,-1.283396 z m 8.830991,19.520017 c 0.27,-0.465143 1.031999,-0.767236 1.426999,-0.564174 1.473998,0.756234 0.807999,2.585797 -0.762999,2.093645 -0.512,-0.161049 -0.73,-0.406124 -0.787,-0.888273 -0.075,-0.266082 0.016,-0.437134 0.123,-0.640197 z m -7.311993,5.176596 c 0.122,-0.003 0.172,-0.01801 0.111,-0.03401 -0.0742,-0.01504 -0.150759,-0.01299 -0.223999,0.006 -0.06,0.01801 -0.01,0.03001 0.112999,0.02801 z"
     style="fill:#241d15;fill-opacity:1;stroke-width:0.0657782"
     id="path453" /><path
     d="M 0.52896374,33.833308 H 168.80407 V 164.76581 H 0.52896374 Z"
     style="display:inline;fill:#b0b89e;fill-opacity:1;stroke:#241d15;stroke-width:1.05792;stroke-linecap:round;stroke-linejoin:round;stroke-dasharray:none;stroke-dashoffset:0;stroke-opacity:1;stop-color:#000000"
     id="path5141" /><path
     d="M 5.6370492,39.610157 H 163.69598 V 158.90843 H 5.6370492 Z"
     style="display:inline;fill:#f9f5ec;fill-opacity:1;stroke:#241d15;stroke-width:1.05849;stroke-linecap:round;stroke-linejoin:round;stroke-dasharray:8.46787, 2.11696, 1.05849, 2.11696;stroke-dashoffset:0;stroke-opacity:1;stop-color:#000000"
     id="path5143" /></svg>
