<svg xmlns="http://www.w3.org/2000/svg" xml:space="preserve" width="875" height="285" viewBox="0 0 231.51 75.406"><path d="M206.1 61.69c-.253-.125-.878-.348-1.44-.515-.471-.129-2.105-1.04-1.236-1.272 1.317.029 3.38.78 4.513.26.207-.118.417-.233.628-.342.446-.228.763-.84.969-1.868.365-1.202 1.557-2.376 2.826-2.7.18-.04.356-.09.532-.148.32-.109.632-.112 1.048-.013 1.571.374 2.498-.397 2.56-2.132.02-.448.05-.895.092-1.342.086-.888.033-1.057-.356-1.133-.985-.275-1.918-1.235-2.134-2.127a22.128 22.128 0 0 0-.084-.635c-.065-.422.582-1.239 1.22-1.539.666-.312.788-.526.544-.946-.326-.954-1.787-4.327-2.872-4.082-.06.02-.373.396-.697.835-.325.44-.765.954-.98 1.143-.212.19-.526.528-.695.754-.806 1.07-1.963 1.692-3.09 1.66-1.192-.033-1.538.412-.733.942 1.276 1 2.469 2.685 2.843 4.038.63 1.822-.133 2.702-.825.949-.344-.873-.632-.986-2.557-1.005-1.692-.016-1.722-.025-2.546-.797-.678-.636-.76-.617-.912.205-.042.227-.161.686-.265 1.018-.104.333-.19.654-.192.716-.008.202-.606.959-1.02 1.292-.745.595-1.07.828-1.162.826-.118-.002-.456.35-.603.63-.302.575-.417.836-.42.955-.007.288-.17.692-.294.727-.491.136-.71-.762-.507-2.091.185-1.208.23-1.91.153-2.397-.038-.247-.08-.897-.093-1.444-.031-1.34-.331-1.809-.88-1.375-.596.475-.901.532-1.33.25-.893-.586-1.177-1.173-.84-1.733.663-1.094.985-1.253 2.117-1.048.853.156.812.241.862-1.79.03-1.208.02-1.775-.033-1.873-.05-.09-.071-.591-.063-1.42.007-.705 0-1.525-.016-1.825-.074-1.312-.056-2.648.04-3.133.04-.193.067-.711.064-1.15-.004-.44-.008-1.377-.008-2.08 0-.705-.034-1.462-.074-1.684-.057-.318-.045-.798.055-2.238.142-2.064.144-2.06-.37-2.068-.223-.005-.746.189-.825.304-.25.363-1.375.332-1.656-.045-1.046-1.404 1.064-3.285 2.24-1.999.38.415.595.134.61-.795a20.14 20.14 0 0 1 .15-1.796c.113-.862.124-1.111.064-1.438-.08-.431-.067-1.693.024-2.33.045-.317.033-.453-.057-.656-.33-.736.11-2.261.565-1.96.16.105.506.953.503 1.233-.002.112.068.348.155.526.087.178.158.36.157.403 0 .044.098.19.218.324s.237.294.259.355c.02.06.154.181.294.27.14.088.34.272.445.41.104.139.376.443.604.676 1.5 1.534 1.64 1.98 1.277 4.055-.167.954.019 1.008.872.25.842-.748 1.558-.936 2.964-.778.495.055 1.024-.253 1.507-.88.553-.718.705-.784 1.03-.448.253.26.259 1.154.01 1.69-.29.86-1.022 1.55-1.427 2.101 0 .03-.22.24-.485.469-.765.654-.72.714.609.785 2.735.763 3.98 2.476 5.406 4.135.535.293.672.208.957-.143.153-.174.294-.359.42-.555.29-.444 1.346-1.864 1.578-2.119.414-.456.375-.729-.18-1.26-1.011-.97-.688-2.74.546-2.978 1.076-.206 1.343-.464 1.366-1.322.035-1.213-.85-2.505-1.89-2.763-.147-.038-1.161-.42-2.27-.86-.816-.48-1.002-1.114-1.207-1.875l-.247-.563c-.123-.282-.37-.57-1.148-1.345-1.09-1.083-1.243-1.168-1.86-1.018-.88.212-1.826-.102-1.478-.49.413-.463.98-.482 1.94-.067 1.014.245 2.065.6 2.943.907 1.727.772 3.945 1.885 4.828 3.561.175.35.382.713.46.806.08.092.203.333.276.536l.255.709c.417 1.158.69 1.329 1.258.787a4.48 4.48 0 0 1 .734-.541c2.573-2.113 7.169.353 7.338 2.76-.003.107.025.295.062.418.236.784.152 1.385-.184 1.315-.272-.057-.37-.198-.413-.591-.06-.574-.091-.66-.421-1.204-.646-1.063-1.19-1.223-2.168-.637-.65.389-1.653.37-2.26-.044-2.15-.931-2.185-.465-3.197.449-.833.748-.877 1.436-.116 1.822.758.655.343 2.194-.686 2.541-.812.24-.856.286-1.09 1.168-.683 1.178-1.43 2.171-2.35 2.994-.923.822-.968 1-.36 1.417.173.118.517.376.764.574.579.463.8.61 1.272.848.21.106.422.222.467.259.223.176 1.33.424 1.95.436.805.015.827-.003 1.18-.959.273-.741.273-.741 1.036-1.445 1.326-1.226 1.6-1.72 1.609-2.89.004-.707.098-.9.433-.894.117.002.404.257.402.357 0 .03.072.212.163.404.104.235.178.483.22.738.075.53.197 1.05.364 1.556.155.447.082.748-.335 1.375-.863 1.298-.81 1.632.179 1.095.246-.134.545-.26.663-.28.217-.044.433-.094.648-.152.517-.136 1.226-.131 1.598.012.155.058.313.11.472.155 1.015.442 1.838 1.292 3.002 1.604 1.924.486-1.183 1.169-1.99 1.37a5.08 5.08 0 0 0-1.1.435c-.893.484-1.616.29-2.808-.395-.73-.422-.942-.303-.817.46.043.258.074.52.093.782l.046.896c.035.658-.138 1.249-.502 1.714-.107.137-.195.276-.196.308-.002.075-.915 1.174-1.1 1.324-.375.303-.543-.284-.301-1.051.312-.994.22-1.677-.288-2.169-.962-.928-1.732-1.973-1.724-2.34-.818-1.325-3.91.033-4.524.63a5.7 5.7 0 0 1-.637.545c-.358.237-1.39 1.165-1.391 1.252 3.08 1.18 2.194 4.567 4.35 6.168.449.212.588.38.747.904.376.762.167 1.445-.073 2.05-.054.24-.31.548-.87 1.048-.77.688 1.01 2.314 2.206 2.015.952-.24 1.14-.356 1.405-.878.627-1.231 1.615-1.6 2.802-1.045 1.214.568 2.484-.156 2.857-1.631.133-.526.32-.755.45-.551-.003 1.012-.527 2.357-1.208 3.172-.923.84-2.095 2.146-3.243 2.318-.665.074-1.345.058-2.252-.054-1.177-.146-1.493-.241-2.433-.728-.607-.315-.75-.235-.835.465-.146 1.2-.174 1.32-.405 1.714-.127.216-.253.527-.281.69a9.17 9.17 0 0 1-.458 1.232c-.21.438-.355.633-.828 1.11a8.8 8.8 0 0 0-.416.455c-.882 1.038-2.032 1.7-3.113 2.455-1.31.562-4.625.865-5.936.606zm-3.687-13.903c1-.634.172-2.394-1.033-2.193-.407.068-.935 1.194-.751 1.599.218.48 1.362.861 1.784.594zm4.065-6.759c1.49-.374 2.92-.932 3.16-1.706-.052-.222-.177-.29-.373-.473-.674-.649-.983-.501-2.037-.778-.947-.16-1.664-.088-2.663-.215-.053-.032-.402-.085-.775-.118-1.06-.092-1.413-.357-1.096-.819.128-.186.14-.25.08-.42-.204-.602-.01-.712 1.386-.79.82-.047 1.104-.089 1.392-.205.195-.08.397-.14.603-.183 1.194-.437 2.697-.484 3.61-1.02.18-.208-.023-.467-.5-.64-1.73-.63-1.551-.597-3.467-.651-1.939-.055-1.847-.068-2.59.38-.724.437-1.556 1.988-1.384 2.58.048.165.044.376-.013.712l-.123.738c-.055.336.051.74.26.984.09.107.195.29.234.408.22.666 1.28 1.683 2.001 1.922.46.22.89.359 1.246.334.35-.024.698-.037 1.048-.04zm5.464-2.104c1.412-.629 3.178-1.393 4.367-2.24.59-.448.423-.609-1.2-1.154-.946-.467-1.704-.556-2.685-.788-1.992.603-3.907 1.15-5.522 1.499a18.52 18.52 0 0 1-1.048.197c-.651.094-.595.23.132.325.254.034.84.145 1.303.248 1.485.227 2.997.842 4.037 1.693.285.255.53.343.616.22zm10.487-2.018c.444-.299.353-1.006-.152-1.179-.993-.342-1.768.497-1.13 1.222.15.17 1.009.14 1.283-.043zm-19.515-8.831c.466-.27.768-1.032.565-1.427-.757-1.474-2.586-.808-2.094.763.162.512.407.73.889.787.265.075.437-.016.64-.123zm-5.174 7.312c.002-.122.017-.172.033-.111a.493.493 0 0 1-.006.224c-.019.06-.03.01-.029-.113zM25.407 61.69c.256-.125.88-.348 1.443-.515.47-.129 2.104-1.04 1.236-1.272-1.317.029-3.38.78-4.513.26a16.599 16.599 0 0 0-.63-.342c-.445-.228-.761-.84-.967-1.868-.365-1.202-1.557-2.376-2.826-2.7a5.884 5.884 0 0 1-.533-.148c-.321-.109-.632-.112-1.048-.013-1.573.374-2.5-.397-2.56-2.132-.02-.448-.05-.895-.094-1.342-.085-.888-.032-1.057.357-1.133.986-.275 1.92-1.235 2.134-2.127.027-.222.065-.508.085-.635.065-.422-.583-1.239-1.22-1.539-.666-.312-.788-.526-.544-.946.326-.954 1.787-4.327 2.872-4.082.06.02.373.396.697.835.324.44.765.954.978 1.143.214.19.528.528.697.754.806 1.07 1.963 1.692 3.09 1.66 1.192-.033 1.538.412.733.942-1.277 1-2.47 2.685-2.843 4.038-.63 1.822.133 2.702.824.949.344-.873.632-.986 2.557-1.005 1.693-.016 1.723-.025 2.546-.797.68-.636.76-.617.912.205.043.227.162.686.265 1.018.104.333.19.654.193.716.008.202.605.959 1.02 1.292.745.595 1.07.828 1.162.826.118-.002.456.35.602.63.303.575.418.836.42.955.008.288.171.692.294.727.492.136.71-.762.508-2.091-.185-1.208-.23-1.91-.154-2.397.04-.247.08-.897.094-1.444.031-1.34.331-1.809.878-1.375.598.475.903.532 1.331.25.894-.586 1.178-1.173.84-1.733-.661-1.094-.983-1.253-2.116-1.048-.852.156-.811.241-.862-1.79-.03-1.208-.02-1.775.034-1.873.05-.09.07-.591.062-1.42-.008-.705 0-1.525.016-1.825.074-1.312.057-2.648-.04-3.133-.04-.193-.067-.711-.063-1.15.004-.44.008-1.377.008-2.08 0-.705.034-1.462.074-1.684.057-.318.045-.798-.054-2.238-.143-2.064-.144-2.06.37-2.068.221-.005.744.189.823.304.25.363 1.375.332 1.656-.045 1.046-1.404-1.064-3.285-2.24-1.999-.38.415-.595.134-.61-.795a19.629 19.629 0 0 0-.15-1.796c-.113-.862-.124-1.111-.064-1.438.08-.431.067-1.693-.024-2.33-.045-.317-.032-.453.057-.656.33-.736-.11-2.261-.565-1.96-.16.105-.505.953-.502 1.233.001.112-.068.348-.156.526-.087.178-.158.36-.157.403 0 .044-.097.19-.218.324-.12.134-.237.294-.259.355-.02.06-.153.181-.294.27a1.995 1.995 0 0 0-.445.41 9.318 9.318 0 0 1-.604.676c-1.5 1.534-1.64 1.98-1.277 4.055.167.954-.019 1.008-.872.25-.842-.748-1.558-.936-2.964-.778-.495.055-1.024-.253-1.507-.88-.553-.718-.705-.784-1.03-.448-.253.26-.259 1.154-.01 1.69.29.86 1.022 1.55 1.427 2.101 0 .03.22.24.485.469.765.654.72.714-.609.785-2.735.763-3.98 2.476-5.406 4.135-.535.293-.672.208-.957-.143a4.7 4.7 0 0 1-.42-.555c-.29-.444-1.346-1.864-1.577-2.119-.415-.456-.376-.729.178-1.26 1.012-.97.69-2.74-.545-2.978-1.076-.206-1.343-.464-1.366-1.322-.034-1.213.85-2.505 1.89-2.763.148-.038 1.161-.42 2.27-.86.816-.48 1.002-1.114 1.207-1.875l.247-.563c.123-.282.37-.57 1.148-1.345 1.09-1.083 1.243-1.168 1.86-1.018.88.212 1.826-.102 1.478-.49-.413-.463-.98-.482-1.94-.067-1.013.245-2.064.6-2.942.907-1.727.772-3.945 1.885-4.828 3.561-.175.35-.382.713-.46.806-.08.092-.203.333-.276.536l-.255.709c-.416 1.158-.69 1.329-1.258.787a4.456 4.456 0 0 0-.735-.541c-2.572-2.113-7.168.353-7.337 2.76a1.61 1.61 0 0 1-.062.418c-.236.784-.152 1.385.184 1.315.273-.057.37-.198.413-.591.06-.574.09-.66.42-1.204.647-1.063 1.19-1.223 2.169-.637.649.389 1.653.37 2.259-.044 2.15-.931 2.185-.465 3.197.449.834.748.878 1.436.118 1.822-.76.655-.343 2.194.685 2.541.812.24.857.286 1.09 1.168.684 1.178 1.43 2.171 2.349 2.994.924.822.969 1 .36 1.417-.173.118-.517.376-.764.574-.578.463-.8.61-1.272.848a4.573 4.573 0 0 0-.467.259c-.223.176-1.33.424-1.95.436-.805.015-.827-.003-1.18-.959-.273-.741-.273-.741-1.036-1.445-1.325-1.226-1.6-1.72-1.607-2.89-.005-.707-.1-.9-.434-.894-.117.002-.404.257-.401.357 0 .03-.073.212-.164.404a3.14 3.14 0 0 0-.221.738 8.859 8.859 0 0 1-.363 1.556c-.155.447-.082.748.335 1.375.863 1.298.809 1.632-.18 1.095-.245-.134-.544-.26-.661-.28a10.416 10.416 0 0 1-.65-.152c-.516-.136-1.224-.131-1.597.012-.155.058-.313.11-.472.155-1.015.442-1.838 1.292-3.002 1.604-1.924.486 1.183 1.169 1.99 1.37.32.077.757.25 1.1.435.893.484 1.617.29 2.808-.395.73-.422.943-.303.817.46a8.87 8.87 0 0 0-.092.782l-.047.896c-.035.658.138 1.249.502 1.714.107.137.195.276.196.308.002.075.915 1.174 1.1 1.324.375.303.543-.284.3-1.051-.311-.994-.22-1.677.288-2.169.963-.928 1.733-1.973 1.725-2.34.818-1.325 3.909.033 4.524.63.214.21.5.456.637.545.358.237 1.39 1.165 1.39 1.252-3.08 1.18-2.192 4.567-4.35 6.168-.448.212-.587.38-.746.904-.376.762-.167 1.445.073 2.05.054.24.31.548.87 1.048.77.688-1.01 2.314-2.206 2.015-.952-.24-1.14-.356-1.405-.878-.627-1.231-1.614-1.6-2.802-1.045-1.214.568-2.484-.156-2.857-1.631-.133-.526-.32-.755-.45-.551.004 1.012.527 2.357 1.208 3.172.923.84 2.095 2.146 3.243 2.318.665.074 1.344.058 2.252-.054 1.177-.146 1.493-.241 2.433-.728.607-.315.749-.235.835.465.146 1.2.175 1.32.405 1.714.127.216.253.527.28.69.126.42.293.882.459 1.232.21.438.355.633.828 1.11.128.13.314.334.416.455.882 1.038 2.032 1.7 3.113 2.455 1.31.562 4.625.865 5.936.606zm3.69-13.903c-1.001-.634-.172-2.394 1.033-2.193.406.068.935 1.194.75 1.599-.218.48-1.361.861-1.783.594zm-4.066-6.759c-1.49-.374-2.92-.932-3.16-1.706.052-.222.178-.29.374-.473.674-.649.982-.501 2.037-.778.947-.16 1.663-.088 2.663-.215.053-.032.4-.085.775-.118 1.059-.092 1.413-.357 1.096-.819-.128-.186-.14-.25-.082-.42.205-.602.01-.712-1.385-.79-.82-.047-1.105-.089-1.393-.205a3.507 3.507 0 0 0-.603-.183c-1.194-.437-2.698-.484-3.61-1.02-.179-.208.024-.467.5-.64 1.73-.63 1.552-.597 3.468-.651 1.938-.055 1.845-.068 2.59.38.723.437 1.555 1.988 1.383 2.58-.048.165-.044.376.013.712l.123.738c.055.336-.05.74-.26.984-.09.107-.195.29-.235.408-.22.666-1.28 1.683-2 1.922-.46.22-.89.359-1.246.334a17.88 17.88 0 0 0-1.048-.04zm-5.463-2.104c-1.412-.629-3.18-1.393-4.367-2.24-.59-.448-.423-.609 1.2-1.154.946-.467 1.704-.556 2.685-.788 1.992.603 3.907 1.15 5.522 1.499.355.077.826.166 1.047.197.65.094.596.23-.131.325-.254.034-.84.145-1.303.248-1.486.227-2.998.842-4.038 1.693-.285.255-.53.343-.616.22zM9.082 36.906c-.445-.299-.353-1.006.152-1.179.993-.342 1.768.497 1.13 1.222-.15.17-1.01.14-1.283-.043zm19.514-8.831c-.465-.27-.767-1.032-.564-1.427.756-1.474 2.585-.808 2.093.763-.161.512-.406.73-.888.787-.266.075-.437-.016-.64-.123zm5.175 7.312c-.003-.122-.018-.172-.034-.111a.498.498 0 0 0 .006.224c.018.06.03.01.028-.113z" style="fill:#241d15;fill-opacity:1;stroke-width:.065768"/><path d="M31.354.53h168.802v74.876H31.354Z" style="display:inline;fill:#f9f5ec;fill-opacity:1;stroke:#241d15;stroke-width:.530103;stroke-linecap:round;stroke-linejoin:round;stroke-dasharray:none;stroke-dashoffset:0;stroke-opacity:1;stop-color:#000"/><path d="M33.082 1.953V73.98h166.215V1.953Z" style="display:inline;fill:#ddaca2;fill-opacity:1;stroke:#241d15;stroke-width:.528513;stroke-linecap:round;stroke-linejoin:round;stroke-dasharray:none;stroke-dashoffset:0;stroke-opacity:1;stop-color:#000" transform="matrix(.99965 0 0 1.00282 -.394 -.106)"/><path d="M36.644 5.82h158.222v64.295H36.644Z" style="display:inline;fill:#f9f5ec;fill-opacity:1;stroke:#241d15;stroke-width:.529166;stroke-linecap:round;stroke-linejoin:round;stroke-dasharray:none;stroke-dashoffset:0;stroke-opacity:1;stop-color:#000"/><path d="M38.258 6.848v62.238H194.12V6.848Z" style="display:inline;fill:#f9f5ec;fill-opacity:1;stroke:#241d15;stroke-width:.532184;stroke-linecap:round;stroke-linejoin:round;stroke-dasharray:4.25747,1.06437,.532184,1.06437;stroke-dashoffset:0;stroke-opacity:1;stop-color:#000" transform="matrix(.99817 0 0 .9905 -.222 .361)"/></svg>