<svg xmlns="http://www.w3.org/2000/svg" xml:space="preserve" width="550" height="345" viewBox="0 0 145.521 91.281"><path d="M.266 13.274h144.99v64.733H.265Z" style="display:inline;fill:none;stroke:#98a280;stroke-width:.53048855;stroke-linecap:round;stroke-linejoin:round;stroke-dasharray:none;stroke-dashoffset:0;stroke-opacity:1;stop-color:#000"/><path d="M1.4 14.417h142.72v62.447H1.402Z" style="display:inline;fill:#f2efe5;stroke:#98a280;stroke-width:.53048855;stroke-linecap:round;stroke-linejoin:round;stroke-dasharray:none;stroke-dashoffset:0;stroke-opacity:1;stop-color:#000"/><g style="fill:#98a280;fill-opacity:1;stroke-width:.99997303;stroke-dasharray:none"><path d="M181.64 138.065c-.046 0-.03.2-.002.608.045.69-.045.878-.265.531-.09-.143-.267-.168-.267-.038 0 .047-.065.13-.143.184-.13.09-.132.097-.02.102.337.009 1.234.671 1.234.911 0 .222.401.836.472.723.02-.033.01-.185-.026-.338-.165-.723-.08-1.386.226-1.803.198-.27.263-.429.174-.429-.054 0-.545.386-.631.493-.056.073-.135-.015-.404-.451-.202-.328-.302-.496-.346-.493zm-33.81.35c-.09 0-.199.076-.316.241a11.533 11.533 0 0 0-1.138 1.631c-.36.48-.318.057-.595-.268-.921-.841-1.4.73-.798 2.613.132.415.247.485.846.53.459.034.683.107 1.234.405.526.343.664 0 1.018-.348.38-.374.71-.748.736-.83a1.342 1.33 0 0 1 .173-.313c.195-.447.203-.838.096-1.291-.077-.094-.59-.106-.699-.015-.607.506-.676.387-.39-.659.255-.929.13-1.702-.168-1.698zm38.644.125c-.284-.003-.68.386-1.115 1.207-.376.71-.406.73-.555.394-.134-.3-.53-.58-.784-.55-.478.054-.631 2.443-.217 3.35.09.199.106.205.487.205.484 0 .771.08 1.446.406.203.099.383.215.4.26.054.14.114.102.6-.37 1.083-1.047 1.72-2.27 1.302-2.49-.157-.085-.786-.03-.918.077-.395-.076-.288-.043-.293-.387.212-1.36.035-2.097-.353-2.1zm-20.34.028a4.967 4.967 0 0 0-1.307.169c-1.033.298-1.435.442-1.903.685a9.74 9.74 0 0 1-.774.383c-.443.193-.26.244.875.245.586 0 1.48.047 1.984.103 1.079.12 1.454.124 2.051.017.88-.152 1.806-.426 2.53-.805.477-.216.467-.39-.022-.357-.204.011-.586-.04-1.008-.14a10.213 10.122 0 0 0-2.426-.3zm10.779.114c-.184 0-.356.01-.511.026-.979.124-2.539.644-2.809.937a7.152 7.088 0 0 0-.773.633c-1.203 1.114-2.097 1.396-3.343 1.053-.508-.138-.677-.092-.454.128.12.118.726.303 1.761.535.803.179 1.864.288 2.24.228.985-.152 2.22-.675 2.772-1.17a5.975 5.922 0 0 1 .607-.48c.752-.48.878-.554.943-.554.037 0 .24-.084.446-.187a3.611 3.58 0 0 1 1.071-.327c.304-.603-.96-.831-1.95-.822zm-38.548.114c-1.604-.008-2.979.559-4.303 1.342-.222.137-.448.307-.646.44-1.022.6-1.9.881-2.946.872-1.109-.153.102.388.472.485.18.04.496.119.705.178.7.197 1.713.254 2.714.152.684-.07 1.918-.363 2.125-.506.415-.239.736-.587 1.011-.85l.917-.875c.454-.307.863-.588 1.21-.642.368-.055.5-.359.146-.447a7.12 7.12 0 0 0-1.405-.149zm-10.047.096a11.166 11.067 0 0 0-1.623.125c-.292.04-.661.13-.82.2-.711.312-1.33.64-1.735.91-.401.272-.5.308-1.189.433-.805.146-.868.17-.753.284.058.058.18.057.532-.005a9.935 9.847 0 0 1 2.51-.074c1.293.11 1.759.125 2.21.067.586-.075 1.592-.302 1.668-.377.282-.086.54-.223.778-.344.165-.061.455-.195.646-.3.191-.104.427-.23.526-.28.436-.223.3-.366-.431-.452-.313-.037-.766-.091-1.01-.122a11.19 11.19 0 0 0-1.309-.066zm25.745.003c-.24 0-.312.181-.153.506.251.512.368.903.368 1.236 0 .304 0 .304.346.477.455.268.85.578 1.202.976.14.265.305.229.541-.118.19-.274.305-.39.827-.83.212-.178.203-.38-.027-.624-.35-.372-.227-.752.333-1.033.487-.245.233-.537-.48-.552-.372-.01-.415.003-.612.194-.126.12-.277.203-.374.203-.289 0-1.278-.191-1.463-.283a1.216 1.205 0 0 0-.508-.152zm-38.384.56c-.343.005-.319.085-.254 1.032.065.563.226.669.676.782.4.109.714.351 1.03.594a1.743 1.728 0 0 1 .368.61c.056.233.156.215.42-.077a2.038 2.02 0 0 1 .476-.376c.611-.316.628-.343.628-1.104 0-.61.015-.7.146-.882.488-.68-.01-.779-.913-.182-.261.172-.261.173-.69-.053-.453-.239-.957-.34-1.719-.343h-.168zm45.867.928c-3.34.041-5.678 1.549-5.861 3.92-.1 1.306.33 2.179 1.483 3.016.302.22.634.468.738.553a1.14 1.13 0 0 0 .323.19c.251 1.38-.52 2.932-1.435 3.939-.143.044-.258.293-.204.434.348.082.712-.068 1.032-.154a7.967 7.896 0 0 0 1.835-.58c.445-.465.601-1.11.812-1.628.324-.704.475-1.443.54-2.642.06-1.095.534-1.992 1.244-2.352.317-.16.395-.313.302-.593-.09-.265-.354-.59-.483-.59-.675.265-1.213.778-1.66 1.342-.101.218-.124.236-.16.128a7.902 7.902 0 0 0-.356-.895 5.357 5.357 0 0 1-.18-.426c0-.016-.098-.184-.22-.372-.182-.417-.51-.694-.843-.965-.162 0-.77.655-.953 1.024-.219.447-.225.489-.105.717.235.436.481.992.481 1.083a1.213 1.202 0 0 0 .093.324c.137.325.399 1.356.344 1.356-.025 0-.405-.194-.679-.596-2.694-4.641 2.588-5.311 5.197-5.305.485.015.968.041 1.073.056.104.015.416.052.694.085.831.098 3.165.597 3.598.772a7.388 7.322 0 0 0 .726.235 11.241 11.141 0 0 1 2.287.785c.217.12.496.268.617.328a1.555 1.542 0 0 1 .252.14 3.08 3.053 0 0 0 .253.186c1.312.9 2.263 1.936 2.978 3.24.34.622.442.716.604.554.251-.25-.907-1.964-2.152-3.185-.342-.335-.608-.61-.592-.61.065 0 1.665.544 1.876.638.637.283 1.387.453 1.503.338.147-.146.05-.259-.346-.41l-.495-.191a102.401 101.49 0 0 0-2.332-.747c-.021-.034.177-.058.485-.056a6.132 6.077 0 0 0 1.153-.134 16.667 16.518 0 0 1 .845-.161 3.2 3.171 0 0 0 .6-.19 9.328 9.245 0 0 1 .497-.193c.141-.045.146-.323.006-.377-.057-.022-.42.061-.806.186-1.193.386-1.18.385-2.562.382-1.132-.001-1.342-.02-1.673-.131a18.98 18.98 0 0 0-.663-.209c-.282-.108-.577-.223-.837-.3-.408-.18-3.602-1.133-4.56-1.36a7.65 7.581 0 0 1-.757-.21c-.255-.112-.39-.142-.931-.197l-1.137-.12a12.323 12.214 0 0 0-1.489-.074zm-11.316.046c-.035.022-.045.086-.021.143.136.327.14.518.011.777-.19.38-.186.377-.39.647-.181.238-.301.344-.932.816-.279.207-.339.337-.157.332a1.142 1.132 0 0 0 .328-.188c.753-.525 2.04-.948 2.663-.561.185 0 .06-.134-.328-.358-.49-.278-.485-.262-.11-.561a10.646 10.551 0 0 0 .331-.27 12.36 12.25 0 0 1 .364-.304c.53-.433.409-.55-.143-.14-.914.775-1.13.31-1.617-.333zm30.712.125c-.307 0-.556.124-.42.34.079.123.109.636.043.701-.553-.238-1.218-.55-1.757-.655-.767 0-.806.313-.156 1.246.114.255.305.447.468.61.328.27.307.318-.205.464-1.116.502.234 1.262.786 1.54.165.06.356.132.426.16.148.062.366.109.872.19a2.21 2.19 0 0 1 .484.123c.62-.097.921-1.27 1.365-1.669.351-.295.324-.606-.12-1.43a13.721 13.599 0 0 1-.161-.312 5.5 5.451 0 0 0-.962-1.07c-.154-.164-.426-.238-.663-.238zm-38.699.134c-.823.022-.22 1.324-1.08.912-.256-.15-.555-.236-.822-.325-1.305-.68-1.419.262-.201 1.674.284.33.28.377-.03.46-.336.105-.496.279-.683.53.053.23.395.428.601.61a5.47 5.422 0 0 0 .737.348c.611.277 1.397.39 1.976.316a.502.497 0 0 0 .111-.268c.001-.344.774-1.424 1.018-1.424.945 0-.125-2.172-1.383-2.808a1.09 1.08 0 0 0-.243-.023zm49.455.12c-.053 0-.28.11-.556.273-1.362.805-1.807.904-1.823.41a2.112 2.112 0 0 0-.063-.486c-.062-.164-.064-.159-.2.452-.102.458-.544 1.28-.758 1.41-.276.168-.066.171.571.006a4.93 4.885 0 0 0 .61-.183c.286.06.648.031.983.057.07.019.112 0 .112-.056-.281-.068-.481-.23-.68-.333-.103-.078-.103-.087.015-.171a40.209 39.851 0 0 0 .96-.726 5.555 5.505 0 0 1 .408-.265c.33-.197.43-.286.431-.38 0-.005-.003-.008-.01-.008zm-67.44.236c-1.522 0-3.137.164-3.91.45-1.134.345-2.164 1.21-2.747 2.027-.12.182-.195.402-.267.576-.362.686-.199 2.549.288 3.271a6.868 6.807 0 0 0 1.318 1.3 1.644 1.63 0 0 0 .185.14c.577.366.607.397.58.574-.088.596-.17.937-.27 1.137-.063.125-.196.41-.293.634-.15.346-.454.79-.767 1.116-.174.181.024.378.21.204.062-.06.246-.088 1.25-.19.877-.09 1.746-.754 1.743-1.337 0-.158.28-1.02.38-1.17a2.426 2.404 0 0 0 .21-.568c.096-.392.131-.638.196-1.433.048-.57.111-.824.288-1.154a3.493 3.462 0 0 1 1.868-1.724c.161 0 .155-.128-.011-.281-.558-.513-2.272.502-2.523 1.492-.055.218-.152.213-.158-.006-.008-.329-.813-1.729-1.31-2.277-.373-.411-.534-.392-1.09.14-.662.631-.737.89-.41 1.4.148.177.208.405.29.596.14.253.225.548.315.8.114.236.376 1.187.377 1.373 0 .131-1.025-.502-1.303-.804-.578-.629-.762-1.959-.383-2.756.585-.986 1.416-1.501 2.367-1.91.463-.218.872-.327 2.098-.564.666-.128 3.36-.146 4.324-.027 1.357.166 1.645.209 1.767.26.07.03.39.114.711.19.804.232 1.653.517 2.335.882a19.477 19.304 0 0 0 .662.387c.273.19.506.34.742.54.156.12.328.261.379.317a2.61 2.587 0 0 0 .315.25c.307.21.373.263.495.396.176.194.661.646.847.79.489.531 1.012 1.099 1.556 1.538.108-.067.083-.281-.054-.451-.642-.809-2.66-2.803-3.149-3.113-.487-.306-.296-.268.59.116.586.188 3.736 1.442 2.86.597a3.426 3.426 0 0 1-.525-.186 2.655 2.655 0 0 0-.439-.156 3.803 3.803 0 0 1-.536-.2c-.856-.387-1.007-.447-1.455-.585-.311-.097-.426-.157-.334-.172.995.139 2.082.242 3.084.093a4.941 4.897 0 0 1 .541-.134c.341-.058.624-.213.582-.32-.042-.11-.109-.112-.402-.026-1.139.201-2.382.288-3.441.092-.872-.105-1.154-.153-1.514-.253-.342-.119-.712-.25-1.006-.338-1.004-.319-1.832-.663-2.78-.908-.336-.11-1.06-.269-1.453-.32a14.382 14.254 0 0 1-.788-.13c-.644-.127-1.521-.185-2.435-.185zm38.44.815c-.42.006-.671.088-.555.27.037.059.171.127.297.153.986.202 1.774 1.226 1.774 2.303 0 .83-.13 1.18-.77 2.095-.353.507-.39.61-.514 1.464-.067.467.078 1.06.335 1.365.21.445.61.675.968.938 1.04.797 2.178 1.128 3.915 1.14.6.004.648-.005.648-.117 0-.065-.056-.137-.125-.159-.07-.022-.338-.19-.598-.377-1.698-1.206-2.07-2.12-1.644-4.04.16-.719.204-.868.42-1.356-.034-1.153-.417-2.549-1.3-3.08-.641-.35-2.052-.611-2.852-.6zm-38.815.563c-.213.005-.349.03-.349.088.218.31.582.31.917.446 1.05.47 1.874 1.654 1.616 2.504a2.295 2.295 0 0 1-.233.516 1.196 1.186 0 0 0-.152.284c0 .03-.17.387-.377.797-.535 1.056-.616 1.646-.33 2.376.48.843 1.313 1.284 2.103 1.638.166.043.421.134.571.203.35.158 1.488.36 1.84.326a.46.46 0 0 1 .252.037c.042.03.146.045.233.034.36-.046.442-.084.442-.202a.18.179 0 0 0-.12-.157c-1.946-1.199-2.58-2.314-1.906-4.058.406-.717.48-.992.457-1.728-.036-1.132-.753-2.006-2.06-2.504a8.423 8.423 0 0 1-.41-.177c-.513-.233-1.855-.432-2.495-.423zm44.143.036c-.153 0-.011.253.248.444l.648.475c.738.54 1.342 1.243 1.467 1.708.215.801.198 1.618-.045 2.164-.06.134-.132.301-.161.37-1.072 2.547.176 3.91 3.577 3.91 1.633 0 2.212.138 2.803.667.21.189.255.207.288.117.06-.154-.075-.536-.264-.752-.09-.104-.212-.245-.27-.317-.613-.676-1.384-1.063-2.124-1.4-1.24-.521-1.323-.667-1.324-2.32-.001-1.599-.113-1.864-1.198-2.884-1.045-1.01-2.306-1.618-3.645-2.182zm-38.414.38c-.05 0-.089.02-.111.057-.06.099.05.242.383.495.233.253.452.46.726.646.684.665 1.449 2.07 1.255 2.997-.202 1.445-.655 3.124.16 4.005.856.79 1.858.994 3.314.675.908-.198 1.929-.192 2.453.015.409.122.798.379 1.078.572.28.256.383.288.383.112-.424-.481-.88-1.076-1.452-1.321a3.196 3.196 0 0 0-.582-.239c-.114-.064-.491-.207-.838-.32a9.306 9.306 0 0 1-1.233-.469c-.653-.29-.942-.755-.948-1.527-.009-1.15-.171-1.945-.51-2.502-.1-.292-.292-.486-.446-.684-.14-.23-.453-.552-.868-.892a8.134 8.134 0 0 1-.487-.429 1.86 1.86 0 0 0-.415-.286 51 51 0 0 1-.759-.4c-.267-.123-.559-.269-.804-.386a.488.484 0 0 0-.3-.12zm20.708.363c-.782.004-1.4.293-2.124.797-.381.171-.312.278-.335.536.21.65.247.88.21 1.35-.064.281-.124.628-.166.804.126.327.318.456 1.354.9.329.14 1.286.205 1.597.108.541-.171.391-.87-.263-1.22-.198-.104-.198-.104.263-.147a3.542 3.51 0 0 0 .632-.105c.093-.034.375-.123.628-.2.469-.138.709-.394.709-.754-.45-.364-1.028-.502-1.528-.587-.564-.057-.768-.08-.8-.09-.013-.006.048-.065.135-.134.393-.305.62-1.002.388-1.191a3.682 3.65 0 0 0-.7-.067zm39.104.265c-.622.005-1.531.15-1.88.343-.087.047-.31.163-.496.259-.346.177-.418.548-.19.972.107.198.083 1.176-.037 1.484-.225.58-.225.58.293.917 1.237.799 2.229 1.088 2.6.757.272-.241.206-.907-.117-1.172-.169-.139-.107-.171.4-.216.885-.076 1.902-.532 1.902-.852 0-.35-1.43-.998-2.202-.998-.19 0-.165-.12.094-.407.39-.435.472-.89.18-1.021-.105-.048-.305-.067-.547-.066zm-5.215.578c-1.402.025-2.119 2.22-.864 2.882.508.26.906.341 1.325.213 1.42-.298 1.804-2.92-.324-3.092a1.321 1.31 0 0 0-.137-.003zm-38.776.12c-.05 0-.101 0-.152.004-.571.048-.836.16-1.121.472-1.212 1.329.201 3.18 1.817 2.38 1.453-.719.984-2.85-.544-2.858zm31.607.121c-.036 0-.066.052-.102.148-.054.373.155.405.106.819-.304-.024-1.624.1-1.658.156-.068.109.036.142.529.161l.867.039c.601.027.65.09.316.442-.124.128-.223.26-.223.29.047.117.208-.01.226-.01.054-.087.6-.329 1.118-.495a4.303 4.264 0 0 0 .503-.187c.06-.034.28-.062.489-.062.54 0 .47-.075-.193-.206-.52-.102-.874-.216-1.133-.363a4.119 4.119 0 0 0-.294-.145.92.912 0 0 1-.348-.342c-.096-.168-.154-.247-.202-.244zm-38.889.122h-.003c-.06.063.125.563.23.62.307.164.045.26-.83.305-.698.037-.886.146-.3.177.403.021 1.127.121 1.166.163.017.015-.045.158-.138.313-.198.336-.21.709-.017.494.06-.067.11-.149.11-.18 0-.201 1.368-.673 2.196-.76.646-.065.478-.168-.386-.234-.272-.022-.541-.064-.6-.095a3.34 3.34 0 0 0-.478-.158 1.228 1.217 0 0 1-.65-.384 1.464 1.45 0 0 0-.3-.26zm42.73 1.336c-.748.018-1.734.347-2.282.89-.42.417-.424.606-.02.79a4.327 4.288 0 0 1 .254.135.77.763 0 0 0 .32.09c.286.001.256.072-.243.559-1.29 1.259-1.226 2.1.12 1.598a3.037 3.01 0 0 1 .49-.137 2.251 2.231 0 0 0 .544-.204c.33-.171.33-.171.365.395.04.608.142.8.391.748 1.041-.449 1.728-1.103 2.11-2.019a3.918 3.883 0 0 1 .177-.485c.1-.209.04-.388-.132-.392-.317-.006-.95-.886-1.107-1.537-.074-.308-.475-.443-.986-.43zm-38.259.283a4.22 4.22 0 0 0-.288.021c-1.416.131-2.695.927-2.701 1.68 0 .067.869.315.944.268.324-.198.09.263-.459.899a2.104 2.085 0 0 0-.357.586c-.045.146-.11.344-.146.441-.3.816 1.232.504 2.319-.472.22-.197.323-.223.25-.062-.255.561.068 1.425.479 1.28.269-.093.923-.7 1.131-1.047.74-1.23.78-1.437.336-1.693-.653-.375-.986-.836-1.306-1.802-.024-.075-.053-.1-.202-.097zm4.99 1.436c-.205.107-.373.25-.56.373-.219.204-1.042.503-1.391.506-.543.003-.592.11-.642 1.399-.03.744-.01.858.221 1.35.12.258.383.564.481.564.194 0 .785-.45.824-.626.052-.238.135-.287.192-.113.04.125.243.408.696.97.367.457.766.634 1.083.48.361-.603.155-1.109.05-1.647-.176-.494-.126-.542.598-.576.253-.012.568-.26.568-.444-.491-.988-1.228-1.762-2.122-2.234zm38.605.036a.544.54 0 0 0-.235.092c-.772.456-.982.522-1.61.507-.485-.012-.486-.01-.525.162a3.659 3.659 0 0 1-.128.41c-.24.922-.36 2.313.319 2.983.22.182.73-.14 1.022-.646.066-.118.078-.11.195.119.3.578.657 1.08 1.075 1.579.147.111.294.095.423-.048.115-.125.112-1.904-.005-2.3-.046-.164.101-.198.224-.05.206.245 1.052.245 1.115 0 .136-.535-.545-1.847-1.226-2.369a3.341 3.341 0 0 1-.258-.211c-.172-.164-.274-.234-.387-.228zm-36.737.556c-.096.003-.003.184.282.461.382.373.818 1.17.891 1.624.083.524.251.314.188-.237-.02-.183-.009-.313.027-.313.22 0 1.242.61 1.721 1.03.1.089.11.086.11-.029-.045-.183-.259-.289-.382-.393a5.267 5.267 0 0 0-.406-.36 28.36 28.36 0 0 0-.74-.724c.036-.066.223-.173.417-.239.196-.065.353-.153.353-.193 0-.105-.258-.166-.356-.085-.257.211-1.244-.003-1.799-.39-.153-.108-.255-.154-.306-.152zm39.164 1.242c-.068-.006-.012.193.13.418.309.557.343 1.16.26 1.768-.077.166.07.136.244-.052a.91.901 0 0 0 .193-.348c.093-.42.387-.283 1.39.655.28.26.473.4.5.357-.299-.531-.622-.786-.977-1.316l-.314-.449c-.128-.137-.117-.238.026-.238.132 0 .667-.252.667-.313 0-.11-.122-.126-.398-.053-.238.062-.338.056-.65-.038-.555-.163-.931-.299-1.02-.366-.021-.016-.037-.025-.05-.025zm-44.307.697c-.051.011-.137.16-.367.609a2.09 2.09 0 0 1-.266.389 2.397 2.397 0 0 0-.254.335c-.132.223-.521.484-.718.484-.084 0-.165.031-.177.07-.032.095.491.16.596.075.187-.155.283.496.12.808-.114.218-.013.402.137.254a.268.265 0 0 0 .075-.158c0-.114.324-.767.38-.767.023 0 .094.056.157.126.18.197.663.402.663.282 0-.018-.114-.15-.253-.29-.305-.31-.34-.781-.13-1.651.067-.276.097-.524.067-.554-.009-.01-.018-.015-.03-.012z" style="fill:#98a280;fill-opacity:1;stroke-width:.99723651;stroke-dasharray:none" transform="matrix(.85728 0 0 .8689 -26.61 -41.722)"/><path d="M50.187 138.065c-.045-.003-.146.167-.345.491-.27.438-.35.526-.406.453-.084-.107-.579-.493-.631-.493-.09 0-.026.158.174.43.307.416.39 1.08.225 1.802-.033.153-.045.305-.024.338.07.113.47-.5.47-.723 0-.238.898-.902 1.235-.911.112-.003.11-.012-.02-.102-.078-.055-.141-.137-.141-.184 0-.13-.18-.105-.268.038-.22.347-.312.16-.266-.531.027-.408.045-.607-.003-.608zm33.793.35c-.285.024-.4.786-.15 1.696.289 1.046.218 1.164-.39.657-.109-.089-.621-.077-.698.015-.108.455-.1.848.096 1.293a1.342 1.33 0 0 1 .171.313c.026.082.358.456.737.83.355.347.493.69 1.019.348.55-.298.775-.372 1.234-.405.6-.045.713-.115.846-.53.6-1.883.123-3.454-.797-2.613-.276.325-.234.748-.598.268a11.632 11.529 0 0 0-1.136-1.63c-.125-.176-.239-.25-.334-.242zm-38.626.125c-.388.004-.567.742-.353 2.103-.005.343.102.31-.293.388-.132-.11-.76-.164-.918-.08-.418.221.22 1.445 1.301 2.49.487.473.547.51.601.372.017-.045.197-.164.401-.26.674-.327.96-.407 1.443-.407.383 0 .397-.006.489-.205.416-.907.261-3.296-.217-3.35-.255-.03-.65.25-.784.55-.15.335-.18.316-.556-.393-.436-.822-.83-1.21-1.112-1.206zm20.225.028c-.692.003-1.481.105-2.31.298-.422.102-.806.154-1.01.14-.488-.03-.498.143-.022.36.725.378 1.65.652 2.53.804.596.107.973.104 2.052-.017a21.942 21.746 0 0 1 1.984-.103c1.135 0 1.318-.053.876-.245a10.128 10.038 0 0 1-.777-.383c-.466-.243-.868-.387-1.9-.685a5.075 5.03 0 0 0-1.423-.169zm-10.775.114c-.972.009-2.133.24-1.841.823.338.05.723.15 1.072.328.207.101.408.185.447.185.064 0 .191.074.944.554.138.09.41.305.606.48.55.495 1.787 1.018 2.771 1.17.379.06 1.44-.049 2.24-.228 1.038-.232 1.642-.417 1.76-.535.223-.22.056-.268-.45-.128-1.248.343-2.142.06-3.347-1.053a7.176 7.112 0 0 0-.771-.633c-.27-.293-1.829-.813-2.81-.937a5.374 5.326 0 0 0-.623-.026zm38.66.114a7.08 7.08 0 0 0-1.406.15c-.353.086-.222.39.146.446.347.054.754.335 1.208.642l.917.874c.275.264.598.613 1.013.85.206.144 1.443.437 2.125.507 1 .1 2.014.045 2.714-.152.207-.06.526-.138.706-.178.37-.097 1.578-.638.472-.484-1.046.01-1.925-.273-2.948-.873-.197-.133-.423-.303-.647-.44-1.322-.783-2.697-1.35-4.3-1.342zm9.857.096a10.733 10.638 0 0 0-1.12.065l-1.01.122c-.73.087-.867.23-.431.453.097.05.335.176.526.28.19.104.48.238.646.298.239.122.496.26.781.346.074.074 1.078.3 1.666.376.45.058.916.044 2.209-.067a9.934 9.845 0 0 1 2.51.075c.351.06.473.062.531.005.116-.115.053-.139-.75-.283-.69-.127-.79-.164-1.191-.432a11.84 11.734 0 0 0-1.734-.913 3.838 3.804 0 0 0-.823-.2 11.298 11.198 0 0 0-1.81-.125zm-25.558.003a1.216 1.205 0 0 0-.506.152c-.187.092-1.174.283-1.463.283-.097 0-.248-.082-.375-.204-.196-.19-.24-.203-.61-.194-.716.018-.967.308-.481.551.562.283.682.663.332 1.035-.229.244-.238.447-.026.626.522.438.637.554.825.828.238.347.403.383.541.118a4.842 4.842 0 0 1 1.204-.975c.347-.174.346-.174.346-.476 0-.335.117-.726.368-1.238.16-.325.087-.506-.155-.506zm38.387.56h-.171c-.762.004-1.262.105-1.718.343-.428.227-.428.225-.69.054-.903-.596-1.399-.498-.91.182.13.181.146.272.146.881 0 .76.015.79.626 1.103.141.074.356.244.478.378.262.292.36.31.418.077.039-.163.225-.472.368-.61.316-.243.631-.486 1.03-.595.45-.113.611-.219.676-.782.066-.947.09-1.027-.253-1.032zm-45.868.928a12.323 12.214 0 0 0-1.49.071c-.321.036-.832.09-1.136.12-.54.056-.674.086-.931.2-.07.03-.41.124-.758.207-.959.228-4.15 1.182-4.56 1.359a13.135 13.018 0 0 0-.837.302c-.156.045-.455.139-.662.209-.331.111-.541.128-1.673.13-1.383.004-1.37.006-2.564-.38-.385-.126-.747-.21-.804-.187-.14.054-.135.332.007.376.06.019.285.105.497.193.213.09.482.175.601.19.116.016.496.09.842.163.368.078.85.134 1.154.134.306-.003.506.021.485.055a99.98 99.98 0 0 0-2.332.747c-.07.028-.293.113-.496.19-.397.152-.492.265-.344.411.115.115.867-.055 1.503-.338a30.974 30.698 0 0 1 1.874-.639c.018 0-.248.274-.59.611-1.245 1.221-2.404 2.936-2.153 3.184.162.161.263.069.603-.55.715-1.307 1.668-2.344 2.98-3.243a2.99 2.964 0 0 0 .252-.186c.017-.02.131-.082.253-.142.12-.06.398-.205.616-.326a11.377 11.275 0 0 1 2.287-.787c.226-.06.553-.163.726-.233.434-.175 2.768-.674 3.598-.772.278-.033.59-.071.696-.086.103-.015.586-.039 1.071-.055 2.61-.006 7.893.664 5.197 5.305-.273.402-.652.596-.68.596-.053 0 .207-1.03.345-1.356a1.225 1.214 0 0 0 .095-.324c0-.09.245-.648.478-1.083.123-.228.117-.268-.104-.717-.18-.367-.79-1.024-.951-1.024-.335.27-.662.55-.845.965a3.261 3.232 0 0 0-.22.372c0 .017-.08.209-.181.426a8.07 7.998 0 0 0-.353.894c-.036.109-.06.09-.161-.127-.448-.566-.988-1.077-1.66-1.34-.13 0-.396.323-.485.588-.093.279-.015.432.304.593.71.359 1.184 1.257 1.243 2.353.064 1.198.216 1.937.54 2.641.21.519.367 1.162.812 1.628.526.253 1.189.45 1.834.58.321.086.685.238 1.034.155.055-.142-.062-.39-.205-.435-.915-1.007-1.686-2.56-1.436-3.939a1.14 1.13 0 0 0 .323-.19c.105-.085.437-.334.74-.551 1.153-.839 1.582-1.713 1.48-3.018-.18-2.37-2.52-3.879-5.86-3.92zm11.316.046c-.487.643-.703 1.11-1.617.333-.551-.412-.673-.293-.143.14.182.15.346.286.364.304.017.018.165.139.33.27.377.3.381.283-.109.563-.388.22-.51.356-.329.356.625-.387 1.91.036 2.665.561.138.102.285.187.327.188.182.005.122-.125-.155-.332-.63-.472-.751-.576-.931-.816-.206-.27-.203-.267-.391-.647-.13-.259-.126-.45.01-.777.024-.057.015-.12-.021-.143zm-30.71.125c-.24 0-.511.074-.666.238a5.49 5.441 0 0 0-.962 1.071 11.827 11.722 0 0 1-.16.313c-.444.822-.471 1.134-.12 1.428.442.4.744 1.572 1.365 1.669.066-.036.284-.09.485-.122.507-.082.725-.129.872-.191.07-.03.26-.101.424-.16.553-.278 1.901-1.038.787-1.54-.51-.146-.533-.193-.205-.466.165-.16.356-.353.468-.607.651-.936.61-1.246-.157-1.246-.537.105-1.203.417-1.756.656-.066-.067-.036-.581.042-.703.136-.216-.112-.34-.417-.34zm38.653.134a1.162 1.151 0 0 0-.198.025c-1.26.636-2.33 2.808-1.385 2.808.244 0 1.015 1.08 1.018 1.422 0 .078.05.199.111.269.58.075 1.365-.038 1.976-.313.244-.096.496-.215.737-.35.206-.182.55-.38.6-.611-.184-.25-.345-.424-.68-.529-.313-.083-.316-.13-.032-.46 1.218-1.412 1.102-2.355-.202-1.674-.266.09-.564.174-.821.325-.873.42-.236-.934-1.126-.91zm-49.415.12c-.005 0-.006.004-.006.009.001.094.102.181.43.38.186.111.37.232.411.265.09.077.786.603.956.725.12.085.12.094.015.171-.197.103-.398.265-.678.334 0 .054.042.074.11.055.337-.025.697.003.983-.057.042.026.315.108.612.184.635.164.847.162.57-.006-.213-.131-.653-.954-.757-1.41-.135-.612-.138-.616-.2-.452-.03.077-.057.296-.064.485-.015.495-.46.395-1.822-.41-.285-.169-.52-.282-.56-.272zm67.445.236c-.913 0-1.792.06-2.435.185a14.382 14.254 0 0 1-.789.13 10.22 10.128 0 0 0-1.452.32c-.95.245-1.776.59-2.78.908-.295.09-.664.22-1.007.338-.36.1-.642.148-1.515.253-1.06.194-2.3.11-3.441-.092-.292-.086-.358-.083-.4.025-.042.108.24.263.58.32.128.02.371.081.541.135 1.004.149 2.09.044 3.087-.093.09.015-.023.075-.335.172-.447.138-.601.198-1.455.585a3.646 3.613 0 0 1-.537.2c-.102.022-.3.092-.438.156-.14.066-.376.15-.526.186-.875.845 2.275-.41 2.861-.595.885-.386 1.075-.424.59-.117-.49.309-2.508 2.303-3.15 3.112-.135.17-.162.384-.053.451.544-.44 1.067-1.007 1.555-1.537.185-.144.672-.597.848-.79.121-.133.188-.187.494-.397a2.95 2.95 0 0 0 .316-.25c.052-.055.222-.197.378-.316.236-.201.468-.352.741-.54.131-.072.429-.245.662-.388.683-.365 1.532-.65 2.337-.882a7.42 7.42 0 0 0 .71-.19c.12-.051.41-.094 1.768-.261.962-.118 3.658-.1 4.323.028 1.227.237 1.636.346 2.098.566.952.407 1.783.92 2.366 1.91.38.795.195 2.125-.382 2.752-.28.304-1.303.937-1.303.806 0-.186.263-1.136.377-1.373.092-.252.175-.547.316-.799.081-.192.141-.42.289-.598.329-.508.254-.767-.41-1.4-.555-.53-.715-.552-1.089-.139-.496.548-1.303 1.948-1.31 2.277-.005.22-.106.224-.16.006-.25-.99-1.964-2.004-2.521-1.492-.167.153-.173.283-.012.283.857.353 1.447.9 1.868 1.722.178.33.24.584.289 1.154.066.795.099 1.043.197 1.433.057.228.15.483.207.569.1.149.382 1.011.382 1.17-.001.58.864 1.244 1.743 1.335 1.002.104 1.187.131 1.252.19.183.175.382-.021.207-.203a4.274 4.236 0 0 1-.766-1.116c-.098-.223-.229-.51-.292-.634-.102-.2-.183-.541-.272-1.137-.027-.178.003-.208.579-.575.054-.034.138-.097.185-.14a6.818 6.818 0 0 0 1.32-1.299c.486-.722.65-2.587.288-3.27-.072-.175-.148-.395-.268-.577-.583-.82-1.612-1.681-2.745-2.026-.774-.287-2.39-.45-3.91-.45zm-38.558.815c-.814.013-2.125.265-2.735.599-.882.531-1.265 1.927-1.301 3.081.216.487.264.636.422 1.354.425 1.922.054 2.835-1.643 4.041a4.26 4.223 0 0 1-.6.377c-.067.022-.124.094-.124.16 0 .111.048.12.646.116 1.74-.012 2.877-.343 3.917-1.14.357-.263.757-.493.968-.938.257-.306.402-.898.335-1.365-.124-.853-.16-.959-.514-1.464-.64-.914-.768-1.266-.768-2.095 0-1.077.787-2.1 1.772-2.303.126-.025.26-.094.297-.154.126-.198-.183-.277-.672-.27zm38.85.563c-.668.008-1.92.2-2.411.423a10.174 10.084 0 0 1-.41.177c-1.308.498-2.027 1.37-2.061 2.505-.023.735.051 1.01.457 1.728.675 1.743.04 2.859-1.906 4.058a.18.179 0 0 0-.12.156c0 .12.083.156.442.203.085.01.19-.005.233-.035.04-.03.155-.047.252-.037.352.034 1.491-.168 1.84-.328a4.208 4.17 0 0 1 .57-.2c.79-.357 1.624-.796 2.103-1.638.287-.731.206-1.32-.33-2.377a9.169 9.087 0 0 1-.376-.797 1.196 1.186 0 0 0-.153-.284 2.262 2.242 0 0 1-.232-.516c-.26-.85.565-2.034 1.616-2.502.335-.137.697-.138.917-.448 0-.064-.173-.09-.433-.088zm-44.06.036c-1.34.566-2.603 1.172-3.646 2.182-1.086 1.02-1.196 1.285-1.198 2.885 0 1.653-.084 1.8-1.324 2.32-.742.336-1.512.723-2.123 1.4a12.687 12.574 0 0 1-.27.316c-.19.215-.327.598-.267.753.035.089.078.071.29-.118.591-.529 1.17-.667 2.803-.667 3.401 0 4.65-1.363 3.577-3.91a19.38 19.208 0 0 0-.16-.37c-.244-.546-.26-1.363-.046-2.164.125-.465.729-1.168 1.467-1.708l.646-.477c.26-.19.403-.442.251-.442zm38.387.38a.523.518 0 0 0-.273.119c-.244.117-.537.263-.806.387-.269.144-.61.323-.757.4a1.863 1.863 0 0 0-.415.285 7.815 7.745 0 0 1-.488.429c-.414.34-.726.661-.866.894-.155.196-.346.39-.445.682-.34.557-.503 1.352-.512 2.502-.007.772-.293 1.236-.947 1.527a9.303 9.22 0 0 1-1.235.47 7.044 6.981 0 0 0-.838.32 3.094 3.094 0 0 0-.581.238c-.571.245-1.028.84-1.453 1.32 0 .177.103.145.383-.11.28-.195.67-.45 1.08-.573.523-.207 1.544-.213 2.45-.015 1.458.319 2.46.115 3.317-.675.814-.881.36-2.562.158-4.006-.194-.927.572-2.331 1.256-2.994a4.118 4.081 0 0 0 .724-.648c.334-.253.447-.396.385-.495-.027-.043-.075-.062-.135-.06zm-20.68.363c-.22 0-.451.02-.704.065-.23.191-.002.888.39 1.194.087.068.15.128.135.134a11.449 11.347 0 0 1-.8.089c-.502.085-1.077.223-1.528.587 0 .36.24.617.71.755.25.075.534.164.627.198a3.6 3.6 0 0 0 .632.106c.461.043.461.042.264.149-.655.348-.807 1.047-.264 1.217.31.098 1.27.033 1.597-.108 1.037-.444 1.23-.572 1.354-.9-.042-.175-.102-.522-.168-.804-.035-.47 0-.7.21-1.35-.022-.257.047-.364-.335-.536-.723-.503-1.339-.792-2.12-.796zm-39.186.265a1.316 1.305 0 0 0-.467.066c-.292.13-.21.586.18 1.021.257.288.286.407.093.407-.772 0-2.201.648-2.201.998 0 .32 1.019.775 1.902.852.507.045.568.077.4.216-.321.265-.39.93-.119 1.172.373.33 1.365.042 2.6-.756.52-.337.522-.336.296-.918-.12-.308-.145-1.285-.039-1.484.229-.424.155-.795-.19-.972a26.147 25.914 0 0 1-.495-.26c-.365-.199-1.338-.35-1.96-.342zm5.227.578-.069.003c-2.128.173-1.743 2.796-.323 3.092.42.127.816.045 1.323-.213 1.277-.673.516-2.928-.93-2.882zm38.846.12c-1.53.005-1.999 2.136-.546 2.856 1.616.8 3.029-1.052 1.817-2.38-.285-.313-.55-.425-1.12-.472a1.662 1.647 0 0 0-.151-.006zm-31.62.121c-.045.006-.102.085-.192.243a.918.91 0 0 1-.348.344 4.438 4.398 0 0 0-.294.145c-.26.147-.613.26-1.132.363-.663.13-.735.205-.194.205.21 0 .43.029.49.063.06.033.286.118.502.186.52.167 1.064.408 1.118.495.018 0 .178.128.226.011 0-.031-.101-.162-.223-.29-.333-.352-.287-.417.316-.443l.866-.038c.493-.02.6-.053.53-.161-.034-.057-1.354-.18-1.66-.157-.047-.414.162-.445.11-.819-.04-.104-.073-.153-.114-.149zm38.898.122a1.46 1.448 0 0 0-.297.26 1.225 1.214 0 0 1-.651.385c-.206.055-.42.127-.478.158-.057.03-.328.075-.601.095-.864.066-1.031.169-.385.236.828.085 2.194.557 2.194.758 0 .033.05.113.112.18.195.215.18-.158-.017-.494-.093-.155-.155-.298-.138-.313.04-.042.763-.142 1.166-.162.586-.03.398-.14-.3-.178-.875-.044-1.137-.143-.83-.305.105-.057.291-.557.23-.618h-.005zm-42.843 1.336c-.455.01-.804.146-.872.43-.156.652-.79 1.532-1.107 1.538-.172.003-.23.182-.131.392.053.113.13.33.174.485.382.918 1.07 1.57 2.11 2.018.251.053.352-.14.391-.747.038-.566.038-.566.368-.395.18.095.426.186.543.204.117.018.34.08.491.137 1.347.5 1.408-.34.119-1.598-.499-.487-.53-.557-.244-.559a.78.78 0 0 0 .322-.089c.086-.05.2-.112.253-.134.405-.186.4-.375-.02-.792-.577-.571-1.638-.905-2.397-.89zm38.338.283c-.118.003-.145.032-.166.099-.32.966-.653 1.427-1.307 1.802-.443.256-.401.463.337 1.693.21.349.862.954 1.131 1.049.41.143.732-.72.478-1.282-.072-.16.032-.134.251.062 1.087.976 2.62 1.288 2.317.472a9.787 9.7 0 0 1-.145-.44 2.078 2.06 0 0 0-.356-.587c-.548-.636-.782-1.097-.459-.899.075.047.945-.2.944-.268-.006-.753-1.287-1.549-2.702-1.68a3.264 3.235 0 0 0-.325-.02zm-4.952 1.436c-.894.474-1.632 1.248-2.122 2.234 0 .187.315.432.568.446.726.034.775.082.6.576-.107.536-.312 1.043.046 1.648.317.153.718-.024 1.085-.482.452-.561.655-.844.696-.968.055-.175.14-.128.192.112.04.176.631.626.824.626.097 0 .36-.306.48-.563.232-.493.252-.607.222-1.351-.05-1.289-.1-1.396-.642-1.4-.349 0-1.172-.301-1.393-.507-.185-.12-.353-.264-.556-.37zm-38.64.036c-.1.009-.198.08-.353.228a4.66 4.66 0 0 1-.259.213c-.68.521-1.36 1.832-1.224 2.367.061.245.909.245 1.115 0 .121-.148.27-.113.222.05-.116.396-.119 2.175-.004 2.3.129.143.278.16.423.046a8.656 8.58 0 0 0 1.073-1.576c.118-.23.131-.238.199-.12.29.506.8.828 1.022.646.677-.67.559-2.061.317-2.983a3.775 3.742 0 0 1-.128-.41c-.038-.173-.04-.174-.526-.162-.627.015-.836-.05-1.608-.507-.111-.065-.19-.098-.27-.092zm36.769.556c-.05-.001-.15.044-.304.151-.556.388-1.543.602-1.8.39-.098-.08-.356-.019-.356.084 0 .042.157.13.353.195.194.066.381.173.418.238-.268.255-.487.468-.74.726a5.663 5.612 0 0 0-.406.357c-.124.105-.338.212-.383.395 0 .115.01.118.111.03.478-.419 1.5-1.03 1.721-1.03.035 0 .045.129.024.313-.061.551.105.76.19.236.072-.455.51-1.251.89-1.624.286-.277.378-.459.282-.462zm-39.165 1.242a.111.11 0 0 0-.05.025c-.088.067-.464.201-1.017.366-.312.094-.416.1-.652.038-.276-.073-.398-.057-.398.053 0 .061.535.313.667.313.143 0 .153.101.024.238-.09.134-.206.298-.312.449-.355.53-.678.785-.977 1.316.025.042.22-.096.499-.357 1.004-.938 1.297-1.075 1.39-.655a.912.904 0 0 0 .194.348c.174.188.323.218.245.052-.084-.609-.048-1.21.258-1.768.144-.223.199-.424.131-.418zm44.298.697a.036.036 0 0 0-.02.011c-.03.03 0 .279.069.554.21.87.172 1.341-.131 1.65a1.879 1.862 0 0 0-.253.291c0 .12.481-.085.662-.283.064-.068.135-.125.159-.125.055 0 .38.655.38.767 0 .046.033.118.074.158.15.149.25-.036.136-.253-.162-.313-.066-.964.12-.81.106.086.629.022.596-.073-.012-.04-.09-.07-.175-.07-.198 0-.587-.263-.72-.485a2.39 2.368 0 0 0-.253-.335 2.072 2.054 0 0 1-.266-.389c-.248-.484-.328-.616-.378-.609z" style="fill:#98a280;fill-opacity:1;stroke-width:.99723651;stroke-dasharray:none" transform="matrix(.85728 0 0 .8689 -26.61 -41.722)"/></g><g style="fill:#98a280;fill-opacity:1;stroke-width:.99997303;stroke-dasharray:none"><path d="M180.953 36.382c-.047-.001-.03-.2-.003-.608.045-.69-.045-.879-.265-.532-.09.143-.267.169-.267.04 0-.049-.065-.13-.143-.186-.13-.089-.132-.096-.02-.1.337-.01 1.234-.673 1.234-.912 0-.222.402-.836.472-.723.02.033.01.185-.025.338-.166.723-.082 1.386.225 1.803.198.27.263.429.174.429-.054 0-.545-.386-.63-.493-.056-.073-.136.015-.405.45-.202.329-.302.497-.346.494zm-33.811-.35c-.09 0-.199-.076-.316-.241a11.533 11.533 0 0 1-1.138-1.631c-.36-.48-.318-.057-.595.268-.921.841-1.4-.73-.798-2.613.133-.415.247-.485.846-.53.459-.034.683-.107 1.234-.405.526-.343.664 0 1.018.348.38.374.71.748.736.83a1.342 1.33 0 0 0 .173.313c.195.447.203.838.096 1.291-.077.094-.59.106-.699.015-.607-.506-.676-.387-.39.658.255.93.13 1.703-.167 1.698zm38.644-.125c-.284.003-.68-.386-1.115-1.207-.376-.71-.406-.73-.555-.394-.133.3-.53.579-.784.55-.478-.054-.631-2.444-.217-3.35.09-.199.106-.205.487-.205.484 0 .771-.08 1.446-.406.203-.099.383-.215.4-.261.054-.139.114-.101.601.37 1.082 1.048 1.72 2.27 1.301 2.491-.157.085-.786.03-.918-.077-.395.076-.288.043-.293.387.212 1.36.035 2.097-.353 2.1zm-20.34-.029a4.967 4.967 0 0 1-1.307-.168c-1.033-.298-1.435-.442-1.903-.685a9.767 9.767 0 0 0-.774-.383c-.443-.193-.26-.244.875-.246.586 0 1.48-.046 1.984-.102 1.079-.12 1.455-.124 2.051-.017.88.152 1.807.426 2.53.805.477.216.467.39-.022.357-.204-.011-.586.04-1.008.14a10.213 10.122 0 0 1-2.426.3zm10.779-.113c-.184 0-.356-.01-.511-.026-.978-.124-2.538-.644-2.809-.937a7.152 7.088 0 0 1-.772-.633c-1.204-1.115-2.098-1.396-3.344-1.053-.508.138-.677.092-.454-.129.12-.117.726-.302 1.761-.534.803-.179 1.864-.288 2.24-.228.985.152 2.22.675 2.772 1.17a5.975 5.922 0 0 0 .607.48c.752.48.878.554.943.554.037 0 .24.084.446.186a3.611 3.58 0 0 0 1.072.328c.303.603-.96.831-1.951.822zm-38.548-.114c-1.604.008-2.979-.559-4.303-1.342-.222-.137-.448-.307-.646-.44-1.022-.6-1.9-.882-2.946-.873-1.109.154.102-.387.472-.484.18-.04.496-.119.705-.178.7-.197 1.713-.254 2.714-.152.684.07 1.918.363 2.125.506.415.238.737.587 1.012.85l.916.875c.454.307.863.588 1.21.642.368.055.5.359.146.447a7.12 7.12 0 0 1-1.405.149zm-10.047-.096a11.166 11.067 0 0 1-1.623-.125c-.291-.04-.661-.13-.819-.2-.712-.312-1.332-.64-1.736-.911-.401-.271-.5-.307-1.189-.432-.805-.146-.868-.17-.752-.285.057-.058.18-.056.532.005a9.935 9.847 0 0 0 2.51.075c1.292-.11 1.758-.125 2.209-.067.586.074 1.593.302 1.668.377.282.086.54.223.778.344.165.06.456.195.646.3.191.103.427.23.526.28.436.223.301.366-.43.452-.314.037-.767.09-1.01.122-.426.048-.871.069-1.31.066zm25.745-.003c-.24 0-.312-.181-.153-.506.251-.513.368-.903.368-1.236 0-.304 0-.304.346-.477a4.85 4.85 0 0 0 1.202-.976c.14-.265.305-.23.541.118.19.274.305.39.827.83.212.178.203.38-.027.624-.35.372-.227.752.333 1.033.487.245.233.537-.48.551-.372.01-.415-.003-.612-.193-.126-.12-.277-.203-.374-.203-.289 0-1.278.19-1.463.283a1.216 1.205 0 0 1-.508.152zm-38.384-.56c-.342-.005-.318-.085-.254-1.032.065-.563.226-.669.676-.782.4-.109.714-.352 1.03-.594a1.743 1.728 0 0 0 .368-.611c.056-.232.156-.214.42.078a2.038 2.02 0 0 0 .476.376c.612.316.628.343.628 1.104 0 .61.015.7.146.882.488.679-.01.779-.912.182-.262-.172-.262-.173-.69.053-.454.238-.958.34-1.72.343h-.168zm45.867-.928c-3.34-.041-5.678-1.549-5.86-3.92-.1-1.306.33-2.18 1.482-3.016.302-.22.635-.468.738-.553a1.14 1.13 0 0 1 .323-.19c.251-1.38-.52-2.932-1.435-3.939-.143-.044-.258-.293-.204-.435.348-.082.712.069 1.032.155a7.967 7.896 0 0 1 1.835.58c.445.464.601 1.11.812 1.628.324.704.475 1.443.54 2.642.06 1.095.534 1.991 1.244 2.352.317.16.395.313.302.593-.089.265-.353.59-.483.59-.674-.266-1.212-.778-1.66-1.342-.101-.218-.124-.236-.16-.129-.117.348-.19.534-.356.896-.098.217-.18.41-.18.426 0 .016-.098.184-.22.372-.181.417-.509.694-.843.965-.162 0-.77-.655-.952-1.025-.22-.446-.226-.488-.106-.716.235-.436.481-.992.481-1.083a1.213 1.202 0 0 1 .093-.325c.137-.324.399-1.355.345-1.355-.026 0-.406.194-.68.596-2.694 4.641 2.588 5.311 5.197 5.305.486-.015.968-.041 1.073-.056.104-.015.416-.052.694-.085.832-.098 3.165-.597 3.598-.772a7.388 7.322 0 0 1 .726-.235 11.241 11.141 0 0 0 2.288-.785c.216-.12.495-.268.616-.328a1.555 1.542 0 0 0 .252-.14 3.08 3.053 0 0 1 .253-.186c1.312-.9 2.263-1.936 2.978-3.241.34-.621.442-.715.604-.553.251.25-.907 1.963-2.152 3.185-.342.335-.608.61-.592.61.065 0 1.665-.545 1.876-.638.637-.283 1.387-.453 1.503-.339.147.146.05.26-.346.412l-.494.19a102.401 101.49 0 0 1-2.333.746c-.021.035.177.058.486.057a6.132 6.077 0 0 1 1.152.134 16.667 16.518 0 0 0 .845.161 3.2 3.171 0 0 1 .601.19 9.328 9.245 0 0 0 .496.193c.141.044.146.323.006.377-.057.022-.42-.062-.806-.187-1.193-.385-1.18-.384-2.562-.38-1.132 0-1.342.018-1.673.13-.209.07-.506.164-.662.209-.283.108-.578.223-.838.3-.408.18-3.602 1.133-4.56 1.36a7.65 7.581 0 0 0-.757.209c-.255.113-.39.143-.931.198l-1.137.12a12.323 12.214 0 0 1-1.489.074zm-11.316-.046c-.035-.022-.045-.086-.021-.143.136-.328.14-.518.011-.777-.19-.38-.186-.377-.39-.647-.181-.238-.301-.344-.932-.816-.278-.207-.339-.337-.157-.332a1.142 1.132 0 0 1 .328.187c.753.526 2.04.95 2.663.562.185 0 .06.134-.328.357-.49.279-.485.263-.11.562a10.646 10.551 0 0 1 .331.27 12.36 12.25 0 0 0 .364.303c.53.434.409.552-.143.14-.914-.774-1.13-.31-1.617.334zm30.712-.125c-.307 0-.556-.124-.42-.34.079-.123.109-.636.043-.701-.553.238-1.218.55-1.757.655-.767 0-.806-.313-.156-1.247.114-.254.305-.446.469-.609.327-.27.306-.319-.206-.465-1.115-.501.234-1.261.786-1.54.165-.06.356-.13.426-.159.148-.062.366-.109.872-.19a2.21 2.19 0 0 0 .484-.123c.62.097.921 1.27 1.365 1.668.351.295.324.607-.12 1.43a13.721 13.599 0 0 0-.161.313 5.5 5.451 0 0 1-.962 1.07c-.153.163-.426.238-.663.238zm-38.698-.134c-.824-.023-.221-1.324-1.081-.912-.255.15-.555.236-.822.325-1.305.68-1.419-.262-.201-1.674.284-.33.28-.377-.03-.46-.336-.105-.496-.279-.683-.53.053-.23.396-.428.601-.61a5.47 5.422 0 0 1 .737-.348c.612-.277 1.397-.39 1.976-.316a.502.497 0 0 1 .111.268c.001.344.774 1.424 1.018 1.424.945 0-.125 2.172-1.383 2.808a1.09 1.08 0 0 1-.243.023zm49.454-.12c-.053 0-.28-.11-.556-.273-1.362-.805-1.807-.905-1.823-.41-.006.19-.035.408-.063.486-.062.163-.064.159-.2-.452-.102-.459-.544-1.28-.758-1.41-.276-.169-.066-.172.571-.006a4.93 4.885 0 0 1 .61.183c.286-.06.648-.031.983-.057.07-.02.112 0 .112.055-.281.069-.481.231-.68.334-.103.078-.103.086.015.171a40.209 39.851 0 0 1 .96.726 5.555 5.505 0 0 0 .408.265c.33.196.43.286.431.38 0 .005-.003.008-.01.008zm-67.44-.236c-1.521 0-3.137-.164-3.91-.45-1.134-.346-2.164-1.21-2.747-2.027-.12-.182-.195-.402-.267-.577-.362-.685-.199-2.548.288-3.27a6.868 6.807 0 0 1 1.318-1.3 1.644 1.63 0 0 1 .185-.14c.577-.366.607-.397.58-.574-.088-.596-.17-.937-.27-1.137a16.388 16.388 0 0 1-.293-.634c-.15-.346-.454-.79-.767-1.116-.174-.182.024-.378.21-.204.062.06.246.088 1.25.19.877.09 1.746.754 1.743 1.337 0 .158.28 1.02.38 1.169a2.426 2.404 0 0 1 .21.569c.097.392.131.637.196 1.433.048.57.111.824.288 1.154a3.493 3.462 0 0 0 1.868 1.724c.161 0 .155.128-.011.281-.558.512-2.272-.502-2.523-1.492-.054-.218-.152-.213-.158.006-.008.329-.813 1.729-1.31 2.277-.373.411-.534.392-1.09-.14-.661-.632-.737-.89-.409-1.4.147-.177.207-.405.289-.596.14-.253.225-.548.315-.8.114-.237.376-1.187.377-1.373 0-.131-1.025.502-1.303.804-.578.629-.762 1.959-.383 2.756.585.986 1.416 1.501 2.367 1.91.463.218.872.327 2.098.564.666.128 3.36.146 4.324.027 1.357-.166 1.645-.209 1.767-.26.07-.03.391-.114.711-.19.804-.233 1.653-.517 2.335-.882a19.477 19.304 0 0 1 .662-.387c.273-.19.506-.34.742-.54.156-.12.328-.262.379-.317a2.61 2.587 0 0 1 .315-.25c.307-.21.373-.264.495-.396.176-.194.661-.647.848-.79.488-.531 1.01-1.099 1.555-1.538.108.067.083.281-.054.451-.642.809-2.66 2.803-3.149 3.113-.487.305-.296.268.59-.116.586-.188 3.736-1.442 2.86-.597-.15.037-.385.12-.525.186a2.655 2.655 0 0 1-.439.156 3.803 3.803 0 0 0-.536.2c-.856.387-1.007.447-1.455.585-.311.097-.425.157-.334.171.995-.138 2.082-.24 3.084-.092a4.941 4.897 0 0 0 .541.134c.341.058.624.213.582.32-.042.11-.108.112-.402.026-1.139-.201-2.382-.288-3.441-.093-.872.106-1.154.154-1.513.254-.343.119-.713.25-1.007.338-1.004.318-1.832.663-2.78.908-.336.11-1.06.268-1.452.32a14.382 14.254 0 0 0-.79.13c-.643.127-1.52.185-2.434.185zm38.44-.815c-.42-.006-.67-.088-.555-.27.037-.06.171-.128.297-.153.986-.203 1.774-1.226 1.774-2.303 0-.83-.13-1.18-.77-2.095-.353-.507-.39-.611-.514-1.465-.067-.466.078-1.059.335-1.364.21-.445.61-.675.968-.938 1.04-.797 2.178-1.128 3.915-1.14.6-.004.648.005.648.116 0 .066-.056.138-.125.16-.069.022-.338.19-.598.377-1.698 1.206-2.07 2.12-1.644 4.04.16.719.204.868.42 1.356-.034 1.153-.417 2.549-1.3 3.08-.641.35-2.052.611-2.852.6zm-38.815-.563c-.213-.005-.348-.03-.348-.088.217-.31.581-.311.916-.447 1.05-.469 1.874-1.653 1.616-2.503a2.295 2.295 0 0 0-.233-.516 1.196 1.186 0 0 1-.152-.284c0-.03-.17-.388-.377-.797-.535-1.056-.616-1.646-.33-2.376.48-.843 1.313-1.284 2.103-1.638.166-.043.421-.134.571-.203.35-.158 1.488-.36 1.84-.326a.46.46 0 0 0 .252-.037c.042-.03.146-.045.233-.035.36.047.442.085.442.203a.18.179 0 0 1-.12.156c-1.946 1.2-2.579 2.315-1.906 4.06.406.716.48.991.457 1.727-.036 1.132-.753 2.006-2.06 2.504a8.647 8.647 0 0 0-.41.177c-.513.232-1.855.432-2.495.423zm44.143-.036c-.153 0-.011-.253.248-.444l.648-.475c.738-.54 1.342-1.243 1.467-1.708.215-.802.198-1.618-.045-2.164a14.89 14.89 0 0 1-.16-.37c-1.072-2.547.175-3.91 3.576-3.91 1.633 0 2.212-.138 2.803-.667.21-.19.255-.207.288-.118.06.155-.075.537-.264.753-.09.104-.212.245-.27.317-.612.676-1.383 1.063-2.124 1.4-1.24.521-1.323.667-1.324 2.32-.001 1.599-.113 1.864-1.198 2.884-1.045 1.01-2.305 1.618-3.645 2.182zm-38.414-.38c-.05 0-.089-.02-.111-.058-.06-.098.05-.24.383-.494.233-.253.452-.46.726-.647.684-.664 1.449-2.07 1.255-2.996-.202-1.445-.655-3.124.16-4.006.856-.789 1.858-.993 3.314-.674.908.198 1.929.192 2.453-.015.409-.122.798-.379 1.078-.572.28-.256.383-.288.383-.112-.424.481-.88 1.075-1.452 1.321a3.19 3.19 0 0 1-.581.238c-.115.064-.492.208-.84.32a9.306 9.306 0 0 0-1.231.47c-.654.29-.943.755-.949 1.527-.009 1.15-.171 1.945-.51 2.502-.1.292-.292.486-.446.684-.14.23-.453.552-.868.892a8.134 8.134 0 0 0-.487.429 1.86 1.86 0 0 1-.415.286 51 51 0 0 0-.759.399c-.267.124-.559.27-.804.387a.488.484 0 0 1-.3.12zm20.708-.363c-.782-.004-1.4-.293-2.124-.797-.381-.171-.312-.278-.335-.536.21-.65.247-.88.21-1.35-.064-.281-.124-.628-.166-.804.126-.328.318-.456 1.354-.9.329-.141 1.286-.205 1.597-.108.541.171.391.87-.263 1.22-.198.104-.198.104.263.147a3.542 3.51 0 0 1 .632.104c.093.035.375.124.628.2.469.139.71.395.71.755-.452.364-1.029.502-1.53.587-.563.057-.767.08-.799.09-.013.005.048.065.135.134.393.305.62 1.002.388 1.191a3.682 3.65 0 0 1-.7.067zm39.104-.265c-.622-.005-1.531-.15-1.88-.343-.087-.047-.31-.164-.496-.259-.346-.177-.418-.548-.19-.973.107-.198.083-1.175-.037-1.483-.225-.58-.225-.58.293-.918 1.237-.798 2.229-1.087 2.6-.756.272.241.206.907-.117 1.172-.168.139-.107.171.4.216.885.076 1.902.532 1.902.852 0 .35-1.429.998-2.201.998-.191 0-.166.12.093.407.39.434.472.89.18 1.021-.105.048-.305.067-.547.066zm-5.215-.578c-1.402-.025-2.119-2.22-.864-2.882.508-.26.906-.341 1.326-.213 1.418.298 1.803 2.92-.325 3.092a1.321 1.31 0 0 1-.137.003zm-38.776-.12c-.05 0-.101 0-.152-.004-.571-.048-.836-.16-1.121-.472-1.212-1.329.201-3.18 1.817-2.38 1.453.719.984 2.85-.544 2.858zm31.608-.121c-.036 0-.067-.053-.103-.148-.054-.374.155-.405.106-.819-.304.024-1.623-.1-1.658-.156-.068-.109.036-.142.529-.161l.867-.039c.601-.027.65-.09.316-.442-.123-.128-.223-.26-.223-.29.047-.117.208.01.226.01.054.087.6.328 1.118.495a4.303 4.264 0 0 1 .503.186c.06.035.28.063.489.063.54 0 .47.074-.193.205-.52.103-.874.216-1.133.364-.052.03-.183.095-.294.144a.92.912 0 0 0-.347.343c-.097.168-.155.247-.203.244zm-38.89-.122h-.003c-.06-.063.125-.563.23-.62.307-.164.045-.26-.83-.305-.698-.038-.886-.146-.3-.178.403-.02 1.127-.12 1.166-.162.017-.015-.045-.158-.138-.313-.198-.336-.21-.709-.016-.494.06.067.11.149.11.18 0 .201 1.367.673 2.195.76.646.065.478.168-.386.233-.272.023-.541.065-.6.096a3.34 3.34 0 0 1-.478.158 1.228 1.217 0 0 0-.65.384 1.464 1.45 0 0 1-.3.26zm42.73-1.336c-.748-.018-1.733-.348-2.282-.89-.42-.417-.424-.606-.02-.79a4.327 4.288 0 0 0 .254-.135.77.763 0 0 1 .32-.09c.286-.002.256-.072-.243-.56-1.29-1.258-1.226-2.1.12-1.597a3.037 3.01 0 0 0 .49.137 2.251 2.231 0 0 1 .544.204c.33.171.33.171.365-.395.04-.608.142-.8.391-.748 1.042.449 1.728 1.103 2.11 2.019a3.918 3.883 0 0 0 .177.485c.1.209.04.387-.132.392-.317.006-.95.886-1.107 1.537-.074.308-.475.442-.986.43zm-38.259-.283a4.22 4.22 0 0 1-.288-.021c-1.416-.131-2.695-.927-2.7-1.68 0-.067.868-.315.943-.268.325.198.09-.263-.458-.899a2.104 2.085 0 0 1-.358-.587c-.045-.145-.11-.344-.146-.44-.3-.817 1.232-.504 2.319.472.22.196.323.223.251.062-.256-.561.068-1.425.478-1.28.269.093.923.7 1.132 1.046.739 1.23.78 1.438.335 1.694-.653.375-.986.836-1.306 1.802-.024.075-.053.1-.202.097zm4.99-1.436c-.205-.108-.373-.25-.56-.373-.219-.204-1.042-.503-1.39-.506-.543-.003-.593-.11-.643-1.399-.03-.744-.01-.858.221-1.35.12-.258.383-.564.481-.564.194 0 .785.45.824.626.052.238.135.287.192.113.04-.125.244-.408.696-.97.367-.457.766-.634 1.083-.48.361.602.155 1.109.05 1.647-.176.494-.126.542.598.576.253.012.568.26.568.444-.491.987-1.228 1.762-2.122 2.234zm38.605-.036a.544.54 0 0 1-.234-.092c-.773-.456-.983-.522-1.61-.507-.485.012-.487.01-.526-.162a3.659 3.659 0 0 0-.128-.41c-.24-.922-.36-2.313.319-2.983.22-.182.73.14 1.022.646.066.118.078.11.195-.119a8.63 8.63 0 0 1 1.075-1.579c.147-.112.294-.095.424.048.114.125.11 1.903-.005 2.3-.047.164.1.198.223.05.206-.245 1.052-.245 1.116 0 .135.535-.546 1.847-1.227 2.369-.094.07-.21.165-.258.211-.172.164-.274.234-.387.228zm-36.737-.556c-.096-.003-.003-.184.282-.461.382-.373.818-1.17.892-1.624.082-.524.25-.314.187.237-.02.183-.009.313.027.313.22 0 1.242-.611 1.721-1.031.101-.088.11-.085.11.03-.045.183-.259.289-.382.393-.155.149-.336.31-.406.359-.252.258-.473.47-.74.725.036.066.223.173.417.239.196.065.353.153.353.193 0 .105-.258.166-.356.085-.257-.211-1.244.003-1.799.39-.153.108-.255.154-.306.152zm39.164-1.242c-.068.006-.011-.194.13-.418.309-.558.343-1.16.26-1.768-.077-.166.07-.136.244.052a.91.901 0 0 1 .193.348c.093.42.387.283 1.39-.655.28-.26.473-.4.5-.358-.299.532-.622.787-.977 1.317l-.314.448c-.127.137-.117.239.026.239.132 0 .667.252.667.313 0 .11-.122.126-.398.053-.238-.062-.338-.056-.65.037-.555.164-.931.3-1.02.367-.02.016-.037.025-.05.025zm-44.307-.697c-.051-.011-.137-.16-.367-.61a2.087 2.087 0 0 0-.266-.388 2.397 2.397 0 0 1-.254-.335c-.132-.223-.521-.484-.718-.484-.084 0-.165-.031-.177-.07-.032-.096.491-.16.596-.075.187.155.283-.496.12-.808-.114-.218-.013-.403.137-.254a.268.265 0 0 1 .076.158c0 .113.323.767.378.767.024 0 .095-.056.158-.126.18-.197.663-.402.663-.282 0 .018-.114.15-.253.29-.305.31-.34.781-.13 1.651.067.276.097.524.067.554-.009.01-.018.015-.03.012z" style="fill:#98a280;fill-opacity:1;stroke-width:.99723651;stroke-dasharray:none" transform="matrix(.85728 0 0 .8689 -26.02 -18.574)"/><path d="M49.5 36.382c-.046.003-.146-.167-.346-.492-.27-.438-.35-.525-.406-.452-.084.107-.579.493-.631.493-.09 0-.026-.158.174-.43.307-.416.39-1.08.225-1.802-.033-.153-.045-.305-.024-.338.07-.113.47.5.47.723 0 .238.898.902 1.235.911.112.003.11.012-.02.101-.078.056-.141.138-.141.185 0 .13-.179.104-.268-.039-.22-.347-.312-.159-.266.532.027.408.045.606-.003.608zm33.792-.35c-.285-.024-.4-.787-.15-1.697.289-1.045.218-1.163-.39-.656-.109.089-.621.077-.698-.015-.108-.455-.1-.848.096-1.293a1.342 1.33 0 0 0 .172-.313c.025-.082.357-.456.736-.83.355-.347.493-.69 1.019-.348.55.298.775.372 1.234.405.6.045.714.115.846.53.6 1.883.123 3.454-.797 2.613-.276-.325-.234-.748-.598-.268a11.632 11.529 0 0 1-1.136 1.63c-.125.176-.239.25-.334.242zm-38.626-.125c-.388-.004-.566-.742-.353-2.103-.005-.343.102-.31-.293-.388-.132.109-.76.164-.918.08-.418-.221.22-1.445 1.301-2.491.487-.472.547-.51.601-.37.017.044.197.163.402.26.673.326.96.406 1.442.406.384 0 .397.006.489.204.416.907.261 3.297-.217 3.352-.255.028-.65-.25-.784-.551-.15-.336-.179-.316-.556.393-.436.822-.83 1.21-1.112 1.206zm20.226-.029c-.693-.003-1.482-.104-2.312-.297-.42-.102-.805-.154-1.008-.14-.489.03-.5-.143-.023-.36.725-.378 1.65-.652 2.531-.804.595-.107.972-.104 2.051.017a21.942 21.746 0 0 0 1.984.102c1.135.001 1.318.054.876.246a10.128 10.038 0 0 0-.777.383c-.466.243-.868.387-1.9.685a5.075 5.03 0 0 1-1.422.168zm-10.776-.113c-.972-.009-2.132-.241-1.84-.823a3.55 3.55 0 0 0 1.07-.328c.208-.101.41-.185.448-.185.064 0 .191-.074.944-.554.139-.09.41-.305.606-.48.55-.495 1.787-1.018 2.771-1.17.379-.06 1.44.049 2.24.228 1.038.232 1.642.417 1.76.534.223.22.056.269-.45.129-1.247-.343-2.142-.06-3.347 1.053a7.176 7.112 0 0 1-.77.633c-.271.293-1.83.813-2.811.936a5.374 5.326 0 0 1-.622.027zm38.66-.114a7.087 7.087 0 0 1-1.406-.15c-.353-.086-.222-.391.146-.446.347-.054.754-.335 1.208-.642l.917-.874c.275-.264.598-.613 1.013-.85.206-.144 1.443-.437 2.125-.507 1-.1 2.014-.045 2.714.152.208.06.526.138.706.178.37.097 1.578.638.472.484-1.046-.01-1.925.273-2.948.873-.197.133-.422.303-.646.44-1.323.783-2.698 1.35-4.302 1.342zm9.857-.096a10.733 10.638 0 0 1-1.12-.065l-1.01-.122c-.73-.087-.867-.23-.431-.453.097-.05.335-.176.526-.28.19-.104.48-.239.646-.298.239-.122.496-.26.781-.346.074-.074 1.078-.3 1.666-.377.45-.058.916-.043 2.209.067a9.934 9.845 0 0 0 2.51-.074c.351-.06.473-.062.532-.005.115.115.052.139-.752.283-.688.127-.789.164-1.19.432a11.84 11.734 0 0 1-1.734.913 3.838 3.804 0 0 1-.822.2 11.298 11.198 0 0 1-1.811.125zm-25.558-.003a1.216 1.205 0 0 1-.506-.152c-.187-.092-1.174-.283-1.463-.283-.097 0-.248.082-.375.204-.196.19-.24.203-.61.194-.716-.018-.967-.308-.481-.551.562-.283.682-.663.332-1.035-.229-.245-.238-.447-.026-.626.522-.438.637-.554.825-.828.238-.347.403-.383.541-.118.353.398.749.708 1.204.974.347.175.346.175.346.477 0 .335.117.725.368 1.238.16.325.087.506-.155.506zm38.387-.56h-.17c-.763-.004-1.263-.105-1.719-.343-.428-.227-.428-.225-.69-.054-.903.596-1.399.498-.91-.182.13-.181.146-.272.146-.881 0-.76.015-.79.626-1.103.142-.074.356-.244.478-.378.262-.292.36-.31.418-.078.04.164.225.473.368.611.316.243.631.486 1.03.594.45.114.611.22.676.782.066.948.09 1.028-.253 1.033zm-45.868-.928a12.323 12.214 0 0 1-1.49-.071c-.321-.036-.832-.09-1.136-.12-.54-.056-.674-.086-.931-.2-.07-.03-.41-.124-.758-.208-.959-.227-4.15-1.18-4.56-1.358a13.135 13.018 0 0 1-.836-.302 18.207 18.207 0 0 1-.663-.209c-.33-.112-.541-.128-1.673-.13-1.383-.004-1.369-.006-2.564.38-.385.126-.747.209-.804.187-.14-.054-.135-.333.007-.376.06-.02.285-.105.497-.193.213-.09.482-.175.601-.191.116-.015.496-.09.842-.162.368-.078.85-.134 1.154-.134.307.003.506-.021.485-.056a99.98 99.98 0 0 1-2.332-.746c-.07-.028-.293-.113-.496-.19-.397-.152-.491-.266-.344-.412.116-.114.867.056 1.503.339a30.974 30.698 0 0 0 1.874.639c.018 0-.248-.274-.59-.611-1.245-1.221-2.404-2.936-2.153-3.185.162-.16.263-.068.603.551.715 1.307 1.668 2.343 2.98 3.243a2.99 2.964 0 0 1 .252.186c.017.02.131.082.253.142.12.06.398.205.616.326a11.377 11.275 0 0 0 2.287.786c.226.06.553.164.726.234.435.175 2.768.673 3.598.772.278.033.59.071.696.086.104.015.586.039 1.071.055 2.61.006 7.893-.664 5.197-5.305-.273-.402-.652-.596-.679-.596-.054 0 .206 1.03.344 1.355a1.225 1.214 0 0 1 .095.325c0 .09.245.648.478 1.083.123.228.117.268-.104.716-.18.368-.79 1.025-.951 1.025-.335-.27-.662-.55-.845-.965a3.261 3.232 0 0 1-.22-.372c0-.017-.08-.209-.181-.426a8.07 7.998 0 0 1-.353-.894c-.036-.109-.06-.09-.161.127-.448.566-.987 1.076-1.66 1.34-.13 0-.396-.323-.485-.588-.093-.279-.015-.432.304-.593.71-.36 1.184-1.257 1.243-2.353.064-1.198.216-1.937.54-2.641.21-.519.368-1.162.812-1.628.526-.254 1.19-.45 1.834-.58.321-.086.685-.238 1.034-.155.055.142-.062.39-.205.435-.915 1.007-1.686 2.56-1.436 3.938a1.14 1.13 0 0 1 .323.191c.105.085.437.334.74.551 1.153.839 1.582 1.713 1.481 3.018-.182 2.37-2.52 3.879-5.861 3.92zm11.316-.046c-.487-.643-.703-1.11-1.617-.334-.551.413-.673.294-.142-.14.181-.149.345-.286.363-.303.017-.018.166-.139.33-.27.377-.3.381-.283-.109-.563-.388-.22-.51-.356-.329-.356.625.387 1.91-.036 2.665-.562.138-.1.285-.186.327-.187.182-.005.122.125-.155.332-.63.472-.751.576-.931.816-.206.27-.203.267-.391.647-.13.259-.126.45.01.777.024.057.015.12-.02.143zm-30.71-.125c-.24 0-.511-.075-.666-.238a5.49 5.441 0 0 1-.962-1.071 11.827 11.722 0 0 0-.16-.313c-.444-.822-.471-1.134-.12-1.429.442-.399.744-1.571 1.365-1.668.066.036.284.09.486.122.506.082.724.128.871.191.07.03.26.101.424.16.553.278 1.901 1.037.787 1.54-.51.145-.533.193-.205.466.165.16.356.353.468.607.651.936.61 1.246-.157 1.246-.537-.105-1.203-.417-1.756-.656-.066.067-.036.581.042.703.136.216-.112.34-.417.34zm38.653-.134a1.162 1.151 0 0 1-.198-.025c-1.26-.636-2.33-2.808-1.385-2.808.244 0 1.015-1.08 1.018-1.423a.48.48 0 0 1 .111-.268c.58-.076 1.365.038 1.976.313.244.096.496.215.737.35.206.182.55.38.6.61-.184.251-.345.425-.68.53-.312.083-.315.13-.031.46 1.217 1.412 1.101 2.355-.203 1.674-.266-.09-.564-.174-.82-.325-.874-.42-.237.934-1.127.91zm-49.415-.12c-.005 0-.006-.004-.006-.009.001-.094.102-.182.43-.38.186-.111.37-.232.411-.265.09-.077.786-.603.956-.725.12-.085.12-.094.015-.171-.197-.103-.398-.266-.678-.334 0-.054.042-.075.11-.055.337.025.697-.003.983.056.042-.025.316-.107.612-.183.635-.164.847-.162.57.006-.213.131-.653.953-.757 1.41-.135.611-.138.616-.2.452-.03-.077-.057-.296-.064-.486-.015-.494-.46-.394-1.822.41-.285.17-.52.283-.56.273zm67.445-.236c-.913 0-1.792-.06-2.435-.185a14.382 14.254 0 0 0-.789-.131 10.22 10.128 0 0 1-1.452-.319c-.95-.245-1.776-.59-2.78-.908-.295-.09-.664-.22-1.007-.338-.36-.1-.642-.148-1.515-.254-1.06-.193-2.3-.108-3.441.093-.292.086-.358.083-.4-.026-.042-.107.24-.262.58-.318a4.78 4.78 0 0 0 .541-.136c1.004-.149 2.09-.045 3.087.092.09-.015-.023-.074-.335-.17-.447-.14-.601-.199-1.455-.586a3.646 3.613 0 0 0-.536-.2 2.655 2.655 0 0 1-.44-.156 3.436 3.436 0 0 0-.525-.186c-.875-.845 2.275.41 2.861.595.885.386 1.075.423.59.117-.49-.309-2.508-2.303-3.15-3.112-.134-.17-.162-.384-.053-.451.544.44 1.067 1.007 1.555 1.537.185.144.672.597.848.79.121.133.188.187.494.397.12.083.263.197.316.25.052.055.222.197.379.316.235.201.467.352.74.54.131.072.429.245.662.388.683.365 1.533.65 2.337.882.321.074.641.16.71.19.12.051.41.094 1.768.261.962.118 3.658.1 4.324-.028 1.226-.237 1.635-.346 2.097-.566.952-.407 1.783-.92 2.366-1.91.38-.795.195-2.125-.382-2.752-.28-.304-1.303-.937-1.303-.806 0 .186.263 1.136.377 1.373.092.252.175.547.316.799.081.192.141.42.289.598.329.508.254.767-.41 1.4-.555.53-.714.551-1.089.139-.496-.548-1.303-1.948-1.31-2.277-.005-.22-.105-.224-.16-.006-.25.99-1.964 2.004-2.521 1.492-.167-.153-.173-.283-.012-.283.857-.353 1.447-.9 1.868-1.722.178-.33.24-.584.289-1.154.066-.796.099-1.043.197-1.433.057-.228.15-.483.207-.57.1-.148.382-1.01.382-1.168-.001-.581.864-1.246 1.743-1.336 1.003-.105 1.187-.131 1.252-.191.183-.174.382.022.207.204a4.274 4.236 0 0 0-.766 1.116c-.098.223-.228.509-.292.634-.102.2-.183.54-.272 1.137-.027.178.003.208.579.575.054.034.138.096.185.14.467.344.942.807 1.32 1.298.486.723.65 2.588.288 3.271-.072.175-.147.395-.268.577-.583.819-1.612 1.681-2.745 2.025-.774.288-2.39.452-3.91.452zm-38.557-.815c-.815-.013-2.125-.265-2.736-.599-.882-.531-1.265-1.927-1.301-3.081.216-.488.264-.636.422-1.354.425-1.922.054-2.835-1.642-4.041a4.26 4.223 0 0 0-.6-.377c-.068-.023-.125-.094-.125-.16 0-.111.048-.12.646-.116 1.74.012 2.877.343 3.917 1.14.357.263.757.493.968.938.257.305.402.898.335 1.364-.123.854-.16.96-.514 1.465-.64.914-.768 1.266-.768 2.095 0 1.077.787 2.1 1.772 2.303.126.025.26.094.297.153.126.199-.183.277-.671.27zm38.848-.563c-.667-.008-1.919-.201-2.41-.423a10.174 10.084 0 0 0-.41-.177c-1.308-.498-2.026-1.37-2.061-2.506-.023-.734.051-1.01.457-1.727.675-1.743.04-2.859-1.906-4.058a.18.179 0 0 1-.12-.156c0-.12.083-.156.442-.203.086-.01.19.005.233.035.04.03.155.047.252.037.352-.034 1.491.168 1.84.328a4.208 4.17 0 0 0 .57.2c.79.357 1.624.796 2.103 1.638.287.73.206 1.32-.33 2.377a9.169 9.087 0 0 0-.376.797 1.196 1.186 0 0 1-.153.284 2.262 2.242 0 0 0-.232.516c-.26.85.565 2.034 1.616 2.502.335.137.697.138.917.448 0 .064-.173.09-.433.088zm-44.059-.036c-1.34-.566-2.603-1.172-3.646-2.182-1.086-1.02-1.196-1.285-1.198-2.885 0-1.653-.084-1.8-1.324-2.32-.742-.336-1.511-.723-2.123-1.4a12.687 12.574 0 0 0-.27-.316c-.19-.215-.327-.598-.267-.753.035-.089.079-.071.29.118.591.529 1.17.667 2.803.667 3.401 0 4.65 1.363 3.577 3.91a19.38 19.208 0 0 1-.16.37c-.244.546-.26 1.362-.046 2.164.125.464.729 1.167 1.467 1.708l.646.477c.26.189.403.442.251.442zm38.387-.38a.523.518 0 0 1-.273-.119c-.244-.117-.537-.263-.806-.387a62.48 62.48 0 0 0-.757-.4 1.863 1.863 0 0 1-.415-.285 7.815 7.745 0 0 0-.488-.43c-.414-.339-.726-.66-.866-.893-.155-.196-.346-.39-.445-.682-.34-.557-.503-1.352-.512-2.502-.007-.772-.293-1.237-.947-1.527a9.303 9.22 0 0 0-1.235-.47 7.044 6.981 0 0 1-.837-.32 3.193 3.193 0 0 1-.582-.238c-.571-.246-1.028-.84-1.453-1.32 0-.177.103-.145.383.11.281.194.67.45 1.08.573.523.207 1.544.213 2.45.015 1.458-.319 2.46-.115 3.317.674.814.882.36 2.562.158 4.007-.194.927.572 2.331 1.256 2.994a4.118 4.081 0 0 1 .724.648c.334.253.447.396.385.494-.027.044-.075.063-.135.06zm-20.68-.363c-.22 0-.451-.02-.704-.066-.23-.19-.002-.887.39-1.193.087-.068.15-.128.135-.134a11.449 11.347 0 0 0-.8-.09c-.502-.084-1.077-.223-1.528-.586 0-.36.24-.617.71-.755.25-.075.534-.164.628-.198a3.6 3.6 0 0 1 .63-.106c.462-.043.462-.042.265-.149-.655-.348-.807-1.047-.264-1.217.31-.098 1.27-.034 1.597.108 1.037.444 1.23.572 1.354.9-.042.175-.102.522-.168.804-.035.469 0 .7.21 1.35-.022.257.047.364-.335.535-.723.504-1.339.793-2.12.797zm-39.186-.265a1.316 1.305 0 0 1-.467-.066c-.292-.13-.21-.587.18-1.022.257-.287.286-.406.094-.406-.773 0-2.202-.648-2.202-.998 0-.32 1.019-.775 1.902-.852.507-.045.569-.078.4-.216-.321-.265-.39-.931-.119-1.172.373-.331 1.365-.042 2.6.756.52.337.522.335.296.918-.12.308-.145 1.285-.039 1.483.229.425.155.796-.19.973a26.147 25.914 0 0 0-.495.26c-.365.199-1.337.35-1.96.342zm5.227-.578-.069-.003c-2.128-.173-1.743-2.796-.323-3.092.42-.127.816-.045 1.323.213 1.277.673.517 2.928-.93 2.882zm38.846-.12c-1.53-.005-1.999-2.137-.546-2.856 1.616-.8 3.029 1.052 1.817 2.38-.285.313-.55.425-1.12.472a1.662 1.647 0 0 1-.151.006zm-31.62-.121c-.045-.006-.102-.085-.192-.243a.918.91 0 0 0-.347-.344 4.438 4.398 0 0 1-.295-.145c-.26-.147-.613-.26-1.132-.363-.662-.13-.735-.206-.194-.206.21 0 .43-.028.49-.062.06-.033.286-.118.502-.186.52-.167 1.064-.408 1.118-.495.018 0 .178-.128.226-.011 0 .031-.1.162-.223.29-.333.352-.287.417.316.443l.866.038c.493.02.6.052.53.161-.034.057-1.354.18-1.659.156-.048.415.16.446.108.82-.039.104-.072.153-.113.149zm38.898-.122a1.46 1.448 0 0 1-.297-.261 1.225 1.214 0 0 0-.651-.384 3.338 3.338 0 0 1-.478-.158c-.057-.03-.328-.075-.601-.096-.864-.065-1.031-.168-.385-.235.828-.085 2.194-.557 2.194-.758 0-.033.05-.113.112-.18.195-.215.18.158-.017.494-.093.155-.155.298-.138.313.04.042.763.141 1.166.162.586.03.398.14-.3.178-.875.044-1.137.143-.83.305.105.057.291.557.23.618h-.005Zm-42.843-1.336c-.455-.01-.804-.146-.872-.43-.156-.652-.79-1.532-1.107-1.538-.172-.003-.23-.182-.131-.392a3.9 3.9 0 0 0 .174-.485c.382-.918 1.07-1.57 2.11-2.019.251-.052.352.14.391.748.038.566.038.566.368.395.18-.096.426-.186.543-.204.117-.018.34-.08.491-.137 1.347-.5 1.408.34.119 1.598-.499.487-.529.557-.243.559.09 0 .234.04.321.089.086.05.2.112.253.134.405.186.4.375-.02.792-.577.57-1.638.904-2.397.89zm38.338-.283c-.117-.003-.145-.032-.166-.099-.32-.966-.653-1.427-1.307-1.802-.443-.256-.401-.463.337-1.694.21-.348.862-.953 1.131-1.048.41-.143.732.72.478 1.282-.072.16.032.134.251-.062 1.087-.976 2.62-1.289 2.318-.472a9.787 9.7 0 0 0-.146.44 2.078 2.06 0 0 1-.356.587c-.547.636-.782 1.097-.459.898.075-.046.946.202.944.269-.006.753-1.286 1.549-2.702 1.68a3.264 3.235 0 0 1-.325.02Zm-4.952-1.436c-.894-.474-1.632-1.248-2.122-2.235 0-.186.315-.431.568-.445.726-.034.775-.082.6-.576-.107-.537-.312-1.043.046-1.648.317-.153.718.024 1.085.481.453.562.655.845.696.969.056.175.14.128.192-.112.04-.176.632-.626.824-.626.098 0 .36.306.48.563.232.493.252.607.222 1.351-.05 1.289-.1 1.396-.642 1.4-.349 0-1.172.301-1.393.507-.185.12-.353.263-.556.37zm-38.64-.036c-.1-.01-.198-.08-.353-.228a4.66 4.66 0 0 0-.259-.213c-.68-.521-1.36-1.832-1.224-2.367.061-.246.909-.246 1.115 0 .121.148.27.113.222-.05-.116-.397-.119-2.175-.004-2.3.129-.143.278-.16.423-.046a8.656 8.58 0 0 1 1.073 1.576c.118.23.131.238.199.12.29-.506.8-.828 1.022-.646.678.67.559 2.061.317 2.983a3.775 3.742 0 0 0-.128.41c-.037.173-.04.174-.526.162-.627-.015-.835.05-1.608.507-.111.065-.19.098-.27.092zm36.769-.556c-.05.001-.15-.044-.304-.152-.556-.387-1.543-.601-1.8-.39-.098.08-.356.02-.356-.083 0-.042.157-.13.353-.195.194-.066.382-.173.418-.239a28.258 28.258 0 0 1-.74-.725 5.663 5.612 0 0 1-.406-.357c-.124-.105-.338-.212-.383-.395 0-.115.01-.118.111-.03.478.419 1.5 1.03 1.721 1.03.035 0 .045-.129.024-.314-.061-.55.105-.76.19-.235.072.454.51 1.251.89 1.624.286.277.378.458.282.461zm-39.164-1.242a.111.11 0 0 1-.052-.025c-.087-.067-.462-.201-1.015-.367-.313-.093-.417-.1-.653-.037-.276.073-.398.057-.398-.053 0-.062.535-.313.667-.313.143 0 .154-.101.024-.239-.09-.134-.206-.297-.312-.448-.355-.53-.678-.785-.977-1.317.025-.041.22.097.499.358 1.004.938 1.297 1.075 1.39.655a.912.904 0 0 1 .194-.348c.174-.188.323-.218.245-.052-.084.609-.048 1.21.258 1.768.145.223.199.424.131.418zm44.298-.697a.036.036 0 0 1-.02-.011c-.03-.03 0-.279.068-.555.21-.87.172-1.34-.131-1.65a1.879 1.862 0 0 1-.253-.29c0-.12.481.085.662.283.064.068.135.125.159.125.056 0 .38-.656.38-.767 0-.046.033-.118.074-.158.15-.15.25.036.137.253-.163.313-.067.964.12.81.105-.086.628-.022.595.073-.012.039-.09.07-.174.07-.199 0-.588.263-.722.484a2.39 2.368 0 0 1-.252.336 2.072 2.054 0 0 0-.266.388c-.248.484-.328.617-.378.61z" style="fill:#98a280;fill-opacity:1;stroke-width:.99723651;stroke-dasharray:none" transform="matrix(.85728 0 0 .8689 -26.02 -18.574)"/></g></svg>