<svg xmlns="http://www.w3.org/2000/svg" xml:space="preserve" width="875" height="287" viewBox="0 0 231.51 75.935"><path d="M202.01 61.636c-1.423-1.616 1.855-1.12 3.922-2.325 2.582-1.55 1.82-4.572.7-6.67-.685-1.992.788-4.903 3.525-4.925 2.615-.731-1.402-3.55-2.145-4.879-1.417-2.833-4.21-.673-5.595.91-20.678 21.61-16.208 14.701-.216-2.062 1.353-1.169 2.21-1.764.193-2.478-30.726-10.877-29.102 6.97-.843-2.824 2.618-1.165 1.852-1.671.582-2.723-46.537-34.657-3.86 1.619 5.081-.71.873-1.423 4.056-4.975.947-5.533-2.276-.768-3.257-3.141-3.187-5.162 1.967-2.575-.068-5.659-2.8-6.94-2.613-.14-.707-1.634.883-1.1 2.322.28 4.906 1.112 6.375 2.847 1.785 1.684 3.24 4.044 2.282 6.414.96 2.283.996-2.074 2.368-2.345 2.832-1.954 6.819-1.104 9.344.84 1.449 1.51-2.101.493-3.33.543-2.996.51-3.537 2.995-5.107 4.823-1.553 1.008-4.326.613-4.323 2.995-.654 1.43-4.028 4.85-.868 5.352 2.155-1.94 6.035-1.84 7.071.487 5.9-2.49 6.68-2.658 9.06-6.071.816 2.348-1.068 3.468-1.128 4.153-.026.3.535.577 2.34.991 1.47.33 6.646.983 3.217 2.53-2.183 1.041-3.586 1.573-5.025 2.344-.8.546 1.878 3.79.286 4.32-2.206-3.494-7.498-5.16-8.817-4.51-2.346 2.07-5.424 2.242-7.132-.24-2.573 1.604.643 2.684 1.247 4.422 1.381 1.702 2.037 3.851 4.95 3.579 1.519 2.342 3.439 4.464 6.71 4.734 1.51-.248 2.574.759.44.995-2.448.575-5.111 1.74-7.618.59-1.684.026-2.393-1.512-3.056-2.245-1.224 1.717.04 4.3-1.659 6.115-2.123 1.875-7.24 4.74-8.675 3.758zm19.308-22.274c.124-1.396.6-4.316-1.723-2.598-2.023 1.144-.357 2.66 1.722 2.598zm-14.17-2.795c-1.667-.821-6.826.963-2.862 2.127 2.579 1.147 4.699-.43 2.862-2.127zM29.537 61.636c1.423-1.616-1.856-1.12-3.923-2.325-2.582-1.55-1.819-4.572-.699-6.67.684-1.992-.789-4.903-3.526-4.925-2.615-.731 1.402-3.55 2.145-4.879 1.417-2.833 4.211-.673 5.595.91 20.678 21.61 16.208 14.701.216-2.062-1.352-1.169-2.21-1.764-.193-2.478 30.727-10.877 29.103 6.97.843-2.824-2.618-1.165-1.852-1.671-.581-2.723 46.536-34.657 3.86 1.619-5.082-.71-.873-1.423-4.056-4.975-.947-5.533 2.276-.768 3.257-3.141 3.187-5.162-1.967-2.575.068-5.659 2.8-6.94 2.613-.14.707-1.634-.883-1.1-2.322.28-4.906 1.112-6.375 2.847-1.785 1.684-3.24 4.044-2.282 6.414-.96 2.283-.996-2.074-2.368-2.345-2.832-1.954-6.818-1.104-9.343.84-1.45 1.51 2.1.493 3.329.543 2.996.51 3.537 2.995 5.107 4.823 1.553 1.008 4.326.613 4.323 2.995.654 1.43 4.028 4.85.868 5.352-2.155-1.94-6.035-1.84-7.07.487-5.9-2.49-6.68-2.658-9.06-6.071-.816 2.348 1.067 3.468 1.127 4.153.026.3-.535.577-2.34.991-1.47.33-6.646.983-3.216 2.53 2.183 1.041 3.586 1.573 5.025 2.344.799.546-1.878 3.79-.286 4.32 2.205-3.494 7.498-5.16 8.816-4.51 2.346 2.07 5.424 2.242 7.133-.24 2.573 1.604-.644 2.684-1.248 4.422-1.381 1.702-2.037 3.851-4.95 3.579-1.518 2.342-3.438 4.464-6.71 4.734-1.51-.248-2.573.759-.44.995 2.449.575 5.112 1.74 7.618.59 1.684.026 2.393-1.512 3.056-2.245 1.224 1.717-.04 4.3 1.659 6.115 2.124 1.875 7.241 4.74 8.675 3.758zM10.229 39.362c-.125-1.396-.6-4.316 1.723-2.598 2.022 1.144.357 2.66-1.723 2.598zm14.17-2.795c1.667-.821 6.826.963 2.862 2.127-2.58 1.147-4.7-.43-2.862-2.127z" style="display:inline;fill:#241d15;fill-opacity:1;stroke:none;stroke-width:.0949872;stroke-opacity:1"/><path d="M31.79.661h168.799v74.613H31.79Z" style="display:inline;opacity:1;fill:#f2efe5;stroke:#241d15;stroke-width:1.05833143;stroke-linecap:round;stroke-linejoin:round;stroke-dasharray:none;stroke-dashoffset:0;stroke-opacity:1;stop-color:#000"/><path d="M36.982 5.573h158.414v64.789H36.982z" style="display:inline;opacity:1;fill:#d6dacc;fill-opacity:1;stroke:#241d15;stroke-width:1.05833143;stroke-linecap:round;stroke-linejoin:round;stroke-dasharray:8.4665881,2.11663902,1.05833143,2.11663902;stroke-dashoffset:0;stroke-opacity:1;stop-color:#000"/></svg>