<?xml version="1.0" encoding="UTF-8" standalone="no"?>
<!-- Created with Inkscape (http://www.inkscape.org/) -->

<svg
   width="875"
   height="500"
   viewBox="0 0 231.51041 132.29167"
   version="1.1"
   id="svg1903"
   xml:space="preserve"
   inkscape:version="1.2.2 (b0a8486541, 2022-12-01)"
   sodipodi:docname="popup_2.svg"
   xmlns:inkscape="http://www.inkscape.org/namespaces/inkscape"
   xmlns:sodipodi="http://sodipodi.sourceforge.net/DTD/sodipodi-0.dtd"
   xmlns="http://www.w3.org/2000/svg"
   xmlns:svg="http://www.w3.org/2000/svg"><sodipodi:namedview
     id="namedview1905"
     pagecolor="#ffffff"
     bordercolor="#999999"
     borderopacity="1"
     inkscape:showpageshadow="0"
     inkscape:pageopacity="0"
     inkscape:pagecheckerboard="0"
     inkscape:deskcolor="#d1d1d1"
     inkscape:document-units="px"
     showgrid="false"
     showguides="true"
     inkscape:zoom="1"
     inkscape:cx="398.5"
     inkscape:cy="255"
     inkscape:window-width="1920"
     inkscape:window-height="1051"
     inkscape:window-x="0"
     inkscape:window-y="0"
     inkscape:window-maximized="1"
     inkscape:current-layer="layer1"
     inkscape:lockguides="false" /><defs
     id="defs1900"><linearGradient
       id="linearGradient867"
       inkscape:swatch="solid"
       gradientTransform="translate(-16.102499,16.620037)"><stop
         style="stop-color:#241d15;stop-opacity:1;"
         offset="0"
         id="stop865" /></linearGradient><clipPath
       clipPathUnits="userSpaceOnUse"
       id="clipPath2416"><path
         style="fill:none;stroke:#000000;stroke-width:0.264583px;stroke-linecap:butt;stroke-linejoin:miter;stroke-opacity:1"
         d="m 186.08382,25.178475 c 0.28876,-0.05408 0.58038,-0.09466 0.86628,-0.162246 0.80488,-0.190258 0.0806,-0.12479 0.94841,-0.268055 1.12151,-0.185143 2.28496,-0.216325 3.41742,-0.303328 1.35644,-0.10421 2.71892,0.006 4.06798,-0.183405 1.08481,-0.152267 2.11356,-0.473847 3.18228,-0.68425 0.54258,-0.106819 1.15307,-0.13789 1.70871,-0.176352 0.31998,-0.02215 0.64341,0.03252 0.96409,0.02822 0.75122,-0.01009 1.49329,-0.05524 2.2417,-0.07054 0.56465,-0.01155 1.03133,0.04407 1.5833,-0.105812 0.95687,-0.259832 1.77083,-0.802052 2.70415,-1.107494 1.05464,-0.345147 2.10782,-0.692672 3.11957,-1.156873 0.25966,-0.119134 0.42072,-0.305432 0.65056,-0.465573 0.19375,-0.134996 0.41229,-0.236174 0.60354,-0.373868 0.18288,-0.131667 0.29607,-0.33822 0.4938,-0.451461 0.16839,-0.09644 0.36736,-0.132245 0.54867,-0.197515 1.46605,-0.527769 1.596,-0.105081 2.95497,0.09876 0.16285,0.02443 0.33564,-0.06658 0.4938,-0.0917 0.43644,-0.06932 0.99435,0.142621 1.34032,0.402084 0.52835,0.396251 0.98502,0.904353 1.45789,1.361442 0.16024,0.154902 0.29132,0.326609 0.40758,0.51495 0.007,0.01091 0.18903,0.326292 0.20379,0.317435 0.0235,-0.01408 0.023,-0.0864 0.0392,-0.10581 0.005,-0.0056 -0.047,0.288795 -0.047,0.479678 0,0.38301 -0.0329,0.744017 0,1.128659 0.0818,0.956758 -0.0172,2.889999 -0.83084,3.576431 -0.35078,0.295955 -0.79467,0.409298 -1.21491,0.571384 -0.77752,0.299892 -1.45875,0.702429 -1.93601,1.38966 -0.12022,0.173115 -0.35733,0.370063 -0.31352,0.606656 0.0165,0.08901 0.13132,0.217514 0.20378,0.261 0.105,0.06301 0.27778,0.02925 0.39191,0.06349 0.27673,0.08301 0.50899,0.299768 0.76814,0.423243 0.22712,0.10822 0.43624,0.279027 0.63488,0.430303 0.46701,0.355631 0.98222,0.683583 1.48141,0.994629 0.29451,0.18351 0.55464,0.4323 0.86219,0.592543 1.48175,0.772043 3.07291,1.255847 4.51475,2.116235 0.24057,0.143552 0.44499,0.334044 0.65057,0.522002 0.13898,0.127066 0.38638,0.281757 0.50164,0.437356 0.29432,0.39733 0.41377,1.025036 0.63489,1.467252 0.35403,0.708031 0.80981,1.361075 1.13653,2.080964 0.59403,1.308902 0.95211,2.798895 2.01439,3.830381 0.60939,0.591725 1.41331,0.808368 2.18683,1.107495 1.07597,0.416084 2.15426,0.875438 3.27634,1.156873 0.56041,0.140559 1.1467,0.08403 1.71654,0.148137 0.9439,0.106183 2.05007,0.337008 2.91578,0.726572 4.08253,1.83709 6.66249,6.736184 4.47557,10.969141 -0.51306,0.993082 -1.33374,1.784636 -2.08494,2.595912 -0.7096,0.766344 -1.38972,1.598321 -2.2417,2.214994 -1.08211,0.783241 -2.32411,1.370142 -3.5585,1.869337 -3.05187,1.234183 -5.41552,1.640361 -8.72383,1.467257 -2.47507,-0.129506 -5.43737,-0.272793 -7.86947,-0.881764 -3.31996,-0.831281 -5.07616,-1.387914 -7.94785,-2.370185 -3.23103,-1.105183 -6.4204,-2.150239 -9.3979,-3.844486 -2.55751,-1.455266 -4.73454,-3.258716 -7.03863,-5.100118 -1.34818,-1.077453 -2.66757,-2.182067 -3.95041,-3.336597 -1.01058,-0.909498 -2.00953,-1.831856 -3.01768,-2.744047 -1.12922,-1.021739 -2.28814,-2.030643 -3.27633,-3.195516 -1.15937,-1.366655 -2.02668,-2.945876 -2.91578,-4.493464 -1.25788,-2.18949 -2.36894,-4.083248 -2.46901,-6.659078 -0.10313,-2.654485 0.89314,-3.488865 2.44549,-5.382286 0.44179,-0.538848 0.80113,-1.045314 1.34816,-1.481364 0.17488,-0.139399 0.33875,-0.360646 0.54083,-0.465571 0.19002,-0.09866 0.42957,-0.09629 0.63489,-0.141083 0.78743,-0.171799 0.78341,-0.301804 1.50083,0.04938 z"
         id="path2418" /></clipPath><clipPath
       clipPathUnits="userSpaceOnUse"
       id="clipPath2736"><path
         style="fill:none;stroke:#000000;stroke-width:0.264583px;stroke-linecap:butt;stroke-linejoin:miter;stroke-opacity:1"
         d="m 166.48549,48.165964 c 0.65096,-2.562968 2.74019,-4.36609 3.74665,-6.743792 1.04,-2.456932 1.25406,-5.286431 1.88442,-7.861096 0.15739,-0.642835 0.41959,-1.25362 0.50989,-1.915399 0.12619,-0.924734 -0.0575,-1.802471 -0.17735,-2.713466 -0.29574,-2.247505 0.0739,-4.354689 -1.08631,-6.504377 -1.08294,-2.006572 -2.98707,-3.127116 -4.38957,-4.848338 -3.26449,-4.006388 -4.62413,-5.718676 -9.97629,-5.546663 -0.16624,0.0053 -0.57167,0.07382 -0.68726,0.219475 -0.1444,0.181953 -0.17287,0.450551 -0.33254,0.638458 -0.52308,0.615595 -1.87564,0.905065 -2.57168,1.576215 -0.3919,0.377895 -0.58404,1.211841 -1.15281,1.416591 -0.86538,0.311525 -1.96597,0.595661 -2.88203,0.418992 -0.46143,-0.08899 -1.53317,-0.686756 -1.95092,-0.4988 -0.108,0.04859 -0.26806,1.797882 -0.33255,1.995206 -0.36865,1.127951 -2.38171,1.46446 -3.43627,1.396649 -1.22431,-0.07873 -2.464,-0.27013 -3.56931,-0.857941 -0.31531,-0.167685 -0.45586,-0.534845 -0.73158,-0.758182 -1.07113,-0.867607 -2.44775,-1.627042 -3.76883,-2.055057 -1.66771,-0.540324 -3.38852,0.558657 -5.05466,0.558657 -1.39185,0 -2.59753,-0.82182 -3.96834,-0.87789 -3.75274,-0.1535 -8.67001,2.416323 -10.97392,5.26733 -2.48044,3.069441 -3.07445,7.088046 -3.56931,10.893823 -0.63008,4.84573 -1.56051,10.082303 1.48537,14.365457 1.75355,2.465872 4.77711,4.057592 7.0499,5.945712 1.31028,1.088511 2.0723,1.971833 3.14808,3.292075 1.47311,1.807858 5.99959,9.194115 8.06972,9.916165 1.05327,0.36738 2.16993,0.560062 3.28109,0.658427 1.25427,0.111029 5.43117,-0.166781 6.73953,-0.259393 2.03741,-0.144216 4.64359,-0.328512 6.54002,-0.937741 4.40191,-1.414121 8.27269,-4.15693 11.43949,-7.482001 0.90877,-0.954188 1.43898,-2.121046 2.2613,-3.132474 0.40809,-0.501938 0.97878,-0.795755 1.35233,-1.316834 0.29572,-0.412498 0.17104,-0.909251 0.48773,-1.336789 0.23425,-0.316232 0.61551,-0.514815 0.84244,-0.85794 0.71072,-1.074597 0.54897,-1.125821 1.77357,-2.055059 z"
         id="path2738" /></clipPath><clipPath
       clipPathUnits="userSpaceOnUse"
       id="clipPath3176"><path
         style="fill:none;stroke:#000000;stroke-width:0.264583px;stroke-linecap:butt;stroke-linejoin:miter;stroke-opacity:1"
         d="m 25.995209,-39.297169 c -0.214953,-0.202846 -0.45534,-0.381749 -0.644861,-0.608538 -0.135747,-0.162438 -0.08503,-0.415229 -0.144108,-0.618512 -0.125418,-0.431581 -0.364564,-0.879436 -0.565322,-1.276932 -0.858229,-1.69925 -2.539569,-4.537887 -4.079195,-5.6564 -1.679951,-1.220456 -3.943302,-1.577498 -5.963608,-1.795682 -0.583422,-0.06301 -1.212424,-0.06576 -1.773563,-0.249404 -0.09898,-0.03239 -0.05535,-0.101871 -0.110847,-0.119708 -1.239451,-0.398378 -2.467883,-0.648968 -3.635801,-1.227053 -0.5562203,-0.275311 -1.2015576,-0.536258 -1.8068184,-0.678367 -0.1995197,-0.04684 -0.4140623,-0.07101 -0.6096635,-0.129691 -0.00889,-0.0027 -0.1368796,-0.05537 -0.1219306,-0.05985 0.01815,-0.0055 0.1470051,0.0191 0.1662695,0.02993 0.1037008,0.05833 -0.2357914,0.04373 -0.354711,0.0399 -0.5257377,-0.0169 -1.0479723,-0.06683 -1.5629573,-0.17957 -0.2424747,-0.05308 -0.535604,-0.421107 -0.7426775,-0.558658 -0.4154275,-0.275952 -0.8682752,-0.481194 -1.3523409,-0.608537 -0.8313738,-0.218711 -1.69986329,-0.221636 -2.54950123,-0.309254 -1.064387,-0.109764 -2.12361197,-0.280292 -3.18132617,-0.438946 -2.5108985,-0.376627 -5.1903339,-0.856758 -7.6041539,0.22945 -0.291505,0.131175 -0.45551,0.382479 -0.698341,0.578608 -0.254368,0.205448 -0.641739,0.313599 -0.853525,0.558658 -0.31401,0.363342 -0.458415,0.942389 -0.642919,1.37669 -0.35542,0.836613 -0.616934,1.661393 -0.831361,2.553861 -0.05987,0.24918 -0.05575,0.524754 -0.133014,0.76815 -0.143176,0.451028 -0.447362,0.833344 -0.665083,1.247003 -0.09047,0.171877 -0.130775,0.384372 -0.254952,0.538704 -0.216752,0.269381 -0.573731,0.471798 -0.842444,0.67837 -0.731533,0.562357 -1.555493,0.764368 -2.39431,1.117316 -0.805193,0.3388 -2.456357,1.228436 -3.081565,1.845561 -0.503042,0.496537 -0.476941,1.03455 -0.853527,1.486428 -0.120087,0.144097 -0.875697,0.221966 -0.875697,0.339183 0,0.04474 0.09222,0.04569 0.09976,0.08978 0.02696,0.15772 0.01476,0.343044 0.01109,0.498804 -0.02601,1.100016 -0.252986,2.313309 -0.01109,3.401818 0.203968,0.917838 0.799156,1.733416 0.931127,2.683552 0.03781,0.27219 0.0024,0.554134 0.01109,0.828008 0.01016,0.320142 0.136602,0.61999 0.155186,0.937745 0.04939,0.844377 0.08471,1.626464 0.299292,2.454102 0.139605,0.538462 0.47933,0.983144 0.720505,1.476449 0.661742,1.353538 1.744102,3.361792 0.665091,4.818414 -0.864306,1.166778 -3.379515,2.456278 -4.633439,3.242209 -0.703254,0.440785 -1.420624,0.934731 -2.128274,1.316833 -0.07291,0.03937 -0.17804,0.217563 -0.23278,0.269354 -0.644853,0.610123 -1.320395,1.337426 -2.128277,1.735825 -2.361736,1.164661 -5.009038,0.906095 -7.548726,1.127294 -1.211763,0.10554 -2.323399,0.602766 -3.569298,0.5387 -1.776582,-0.09136 -3.504335,-2.367785 -5.243096,-1.905421 -0.964581,0.256501 -2.634842,1.773677 -3.048314,2.633673 -0.28716,0.597279 -0.33566,1.566135 -0.565322,2.224654 -0.176323,0.505582 -0.431712,0.979845 -0.576408,1.496399 -0.346076,1.2354689 -0.423186,2.516973 -0.609663,3.7809087 -0.131374,0.8904473 -0.304291,1.7591696 -0.299291,2.6635948 0.0055,0.9890231 0.151161,1.9240897 0.243866,2.9030269 0.08913,0.94114935 0.100225,1.89648039 0.310373,2.82321 0.40244,1.7747112 1.245781,3.3564512 1.862243,5.0578438 0.403523,1.1136947 0.519358,1.7603284 0.953292,2.8431595 0.854733,2.1328853 2.200624,4.1814753 3.414108,6.1152983 1.01881,1.62359 2.064446,3.260755 3.680143,4.359519 4.592134,3.122909 8.846867,3.013109 14.144167,2.823218 2.22894,-0.0799 4.464547,-0.199377 6.661954,-0.608537 3.573574,-0.665403 7.050916,-2.00425 10.3753392,-3.451706 1.6360617,-0.71234 4.1874493,-1.924518 5.5423832,-2.82321 5.7479063,-3.812424 10.7234064,-8.73279 15.5741056,-13.5873306 2.724814,-2.72697309 5.421561,-5.4569016 7.748262,-8.5394773 0.712507,-0.9439805 1.873562,-2.5316154 2.449727,-3.6312661 0.811328,-1.548469 0.776978,-1.851731 1.396685,-3.232229 0.64607,-1.43922 0.642998,-1.223873 1.363427,-2.713482 0.620493,-1.282978 1.084302,-2.456359 1.574038,-3.76096 0.899718,-2.396756 2.022557,-4.909553 1.851157,-7.53189 -0.08049,-1.231421 -0.476218,-2.310027 -0.74268,-3.501581 -0.175858,-0.786399 -0.220509,-1.585014 -0.432313,-2.364315 -0.231297,-0.851029 -0.531736,-1.688573 -0.764842,-2.543885 -0.223988,-0.821853 -0.723815,-1.516769 -0.875699,-2.364315 -0.06284,-0.350669 0.172151,-0.492017 0.188444,-0.808058 0.01117,-0.216593 -0.03565,-0.432294 -0.05347,-0.648441 z"
         id="path3178" /></clipPath><clipPath
       clipPathUnits="userSpaceOnUse"
       id="clipPath5168"><path
         style="fill:none;stroke:#000000;stroke-width:0.264583px;stroke-linecap:butt;stroke-linejoin:miter;stroke-opacity:1"
         d="m -79.244302,25.374746 c 0.48034,0.302438 0.985125,0.56915 1.441021,0.907314 1.224642,0.908386 2.213197,2.070203 3.502787,2.932948 1.704493,1.14032 3.461758,1.646158 5.342861,2.314432 3.608795,1.282044 7.759422,0.07849 11.417315,-0.279326 1.191752,-0.116578 2.817016,-0.312973 3.990515,0.139666 1.846844,0.712361 3.513889,2.004528 5.076825,3.192325 0.572336,0.434959 1.174358,0.803 1.729226,1.256972 0.01262,0.01034 0.537644,0.43154 0.487728,0.319235 -0.06724,-0.151278 -0.243935,0.07975 -0.110844,0.199523 0.233179,0.209851 0.643347,0.286194 0.908949,0.418991 0.931267,0.465622 1.910387,1.225365 2.48299,2.094966 0.712846,1.08259 1.194118,1.651087 1.241491,2.972847 0.01117,0.311309 -0.02394,0.683207 -0.133014,0.977652 -0.03789,0.10229 -0.289941,0.198352 -0.199527,0.259381 0.540382,0.364755 2.113764,0.199517 2.749026,0.199517 1.65436,0 6.432796,-0.536805 7.759335,0.159615 0.657153,0.345001 1.505376,1.558378 1.817909,2.214674 1.768883,3.714538 -1.195615,6.242219 -2.815539,9.157986 -0.09352,0.168338 -1.068435,2.817997 -1.152816,2.83319 -0.105246,0.01894 -0.05092,-0.163124 -0.155186,-0.139669 -0.128469,0.0289 0.192204,0.180825 0.177358,0.199525 -0.163828,0.20642 -0.706885,0.187833 -0.931119,0.339186 -0.563266,0.380182 -1.204913,1.71964 -1.418852,2.374288 -0.22061,0.675066 -0.07673,1.703428 0,2.374297 0.369967,3.234492 3.311692,4.102288 4.965978,6.484406 1.566952,2.256358 2.441749,4.881533 3.835333,7.222643 0.358254,0.601837 1.987368,2.069841 2.74902,1.795682 0.07813,-0.02812 0.414321,-0.89613 0.443394,-0.937757 0.658323,-0.94257 1.693893,-1.636596 2.74902,-2.055056 3.23495,-1.282973 5.172156,-0.259805 7.493307,2.035114 1.277923,1.263481 2.252708,2.542275 2.837703,4.249788 0.530178,1.547513 0.916067,3.20717 0.953284,4.848338 0.1065005,4.696405 -3.151329,9.204696 -5.56455,12.988766 -2.278138,3.572255 -4.463346,7.488175 -7.626321,10.395015 -3.446788,3.16768 -7.328771,5.00547 -11.572502,6.8635 -3.778562,1.65436 -6.895317,2.12702 -10.973925,0.9976 -3.294784,-0.91238 -7.222238,-2.11214 -10.042802,-4.24977 -4.701175,-3.56291 -8.099973,-9.33768 -11.062602,-14.345519 -1.603836,-2.711019 -2.717096,-5.736622 -4.145706,-8.539477 -1.088247,-2.135085 -2.271189,-4.332706 -3.724484,-6.244987 -3.048066,-4.010724 -6.785123,-7.592174 -8.734801,-12.3503 -1.569042,-3.829201 -2.633241,-8.336629 -2.527326,-12.489982 0.08205,-3.21751 0.623371,-6.390478 0.842444,-9.596926 0.154519,-2.261595 0.08278,-4.530323 0.39905,-6.783687 0.482539,-3.437982 0.344736,-0.692914 0.687255,-4.988012 0.180951,-2.269069 -0.189786,-4.639302 0.731597,-6.823596 1.69096,-4.008713 0.126761,-0.07573 1.041966,-2.134865 0.27315,-0.614566 0.174686,-1.233792 0.354716,-1.835589 0.329689,-1.102069 1.756185,-1.692805 2.682513,-1.924864 z"
         id="path5170" /></clipPath><clipPath
       clipPathUnits="userSpaceOnUse"
       id="clipPath6094"><path
         style="fill:none;stroke:#000000;stroke-width:0.264583px;stroke-linecap:butt;stroke-linejoin:miter;stroke-opacity:1"
         d="m 111.59481,148.72804 c -1.97053,0.40568 -3.91338,0.98316 -5.91159,1.21705 -0.18021,0.0211 0.0642,-0.35715 0.0941,-0.53611 0.14022,-0.8413 0.23427,-1.68239 0.43893,-2.51126 0.3171,-1.28421 1.01194,-3.11506 2.13198,-3.95029 0.89009,-0.66376 1.72377,-0.78789 2.03789,-1.91874 0.18602,-0.66965 0.72602,-0.88494 1.0033,-1.46724 0.80421,-1.68886 1.59987,-4.60285 2.06926,-6.43335 0.17339,-0.67616 0.0502,-1.43069 0.21947,-2.11624 0.1063,-0.4305 0.45021,-0.76155 0.47028,-1.21329 0.0553,-1.24353 -0.079,-1.9238 0.31353,-3.16024 0.34668,-1.09199 -0.0778,-1.54511 1.06599,-2.05982 0.67631,-0.30433 2.48437,-1.41801 3.00982,-1.9187 1.00938,-0.96184 1.24246,-2.25684 2.63362,-2.79344 0.83252,-0.32112 1.88001,-0.0449 2.75901,-0.28216 1.40252,-0.37863 2.70451,-1.46191 4.16987,-1.66477 1.56573,-0.21677 3.24803,-0.0282 4.8283,-0.0282 1.60631,0 3.21839,-0.3706 4.82827,-0.22573 2.43626,0.21923 8.20412,2.32659 10.44037,3.66814 1.38407,0.83031 3.40018,0.46119 4.67152,1.52367 3.41677,2.85544 4.66123,5.35839 6.96025,9.02928 0.82033,1.30983 1.86226,2.50617 2.38279,3.9785 1.17418,3.32116 0.76479,7.28845 1.12868,10.75047 0.22198,2.11194 1.4011,6.81856 -0.25081,8.69067 -0.59118,0.66997 -1.82428,0.70834 -2.63361,0.84648 -3.36362,0.57412 -6.61132,-0.30679 -9.34304,-2.28553 -0.69192,-0.5012 -1.30785,-1.16387 -2.03791,-1.60834 -0.67106,-0.40855 -1.44566,-0.48149 -2.13198,-0.84648 -1.26207,-0.67118 -2.95344,-2.25968 -3.73094,-3.4142 -0.78832,-1.17061 -1.51855,-3.46591 -1.75573,-4.85323 -0.0782,-0.45762 0.24683,-1.46377 0,-1.83406 -0.46741,-0.70116 -2.09813,-1.06385 -2.82172,-1.15688 -3.99362,-0.51347 -3.88045,0.32451 -7.02294,2.20089 -1.16074,0.69307 -1.40558,0.62028 -2.25739,1.41082 -1.02887,0.95486 -1.83486,2.29067 -2.82172,3.30133 -0.50894,0.52121 -1.1342,0.84678 -1.63033,1.38259 -0.7418,0.80113 -1.063,1.90744 -1.88114,2.68056 -1.3945,1.31774 -4.52394,2.1685 -6.33322,2.25732 -1.47593,0.0725 -2.93436,0.4389 -3.98175,-0.84648 -0.53948,-0.66207 -0.0451,-1.46914 -0.31353,-2.14447 -0.22772,-0.57288 -0.53189,-1.11234 -0.79784,-1.66851 z"
         id="path6096" /></clipPath><clipPath
       clipPathUnits="userSpaceOnUse"
       id="clipPath6122"><path
         style="fill:none;stroke:#000000;stroke-width:0.264583px;stroke-linecap:butt;stroke-linejoin:miter;stroke-opacity:1"
         d="m 125.59281,110.22166 c -0.59904,-0.70123 -1.1276,-1.45817 -1.70705,-2.17478 -0.63961,-0.791 -0.92554,-1.09142 -1.6738,-1.80565 -0.98701,-0.94212 -0.98805,-0.82089 -1.97309,-1.89545 -0.57858,-0.63116 -0.84912,-1.44594 -1.40777,-2.09496 -0.28676,-0.33315 -0.62608,-0.61256 -0.92004,-0.93774 -0.27377,-0.30286 -0.498,-0.67892 -0.79809,-0.9577 -0.18569,-0.1725 -0.39609,-0.307 -0.56533,-0.498803 -0.38782,-0.439518 -1.99168,-3.000883 -2.39431,-3.052664 -0.49397,-0.06353 -1.00838,-0.01447 -1.47427,0.169595 -0.45958,0.181583 -0.93734,0.420796 -1.39669,0.618508 -0.185,0.07963 -0.29819,0.246462 -0.49881,0.309264 -0.2863,0.08962 -0.63278,0.06533 -0.93112,0.09976 -0.1493,0.01722 -0.40101,0.06533 -0.54316,-0.01995 -0.54409,-0.326437 -0.6332,-1.521034 -0.7981,-2.084985 -0.18538,-0.63396 -0.60149,-2.373148 -0.87569,-2.81324 -0.72787,-1.168194 -2.42111,-1.911025 -3.75774,-1.386668 -1.37477,0.539313 -2.95503,1.262962 -3.82425,2.523934 -0.71802,1.041633 -0.620957,3.515169 -0.764848,4.688731 -0.123471,1.007018 -0.347192,2.000198 -0.266034,3.022728 0.03057,0.3852 0.124423,0.7631 0.166267,1.14724 0.135663,1.24537 -0.156824,2.79803 0.731597,3.83079 0.911218,1.05927 3.178398,0.16119 4.345228,0.52873 0.77823,0.24514 1.23286,1.07521 1.6738,1.7059 1.03477,1.48005 1.74988,2.575 2.51624,4.1999 0.21296,0.45153 0.53194,0.84815 0.74269,1.29689 0.14584,0.31052 0.26555,1.07891 0.53206,1.36671 0.46151,0.49836 1.22073,0.82759 1.79574,1.16719 0.54545,0.32215 1.00111,0.77403 1.56295,1.07742 1.19283,0.64411 2.76619,0.48882 4.09028,0.48882 0.72765,0 1.44254,0.078 2.17262,0.0399 0.73511,-0.0384 1.48241,-0.15962 2.21695,-0.15962 0.77283,0 1.51348,0.17149 2.29455,0.0998 1.0131,-0.093 1.86416,-0.64237 2.90421,-0.67837 1.02559,-0.0355 2.09318,-0.0707 3.11482,0 1.50986,0.10453 3.01079,0.36607 4.52258,0.43894 1.57184,0.0758 3.19222,0.0756 4.76646,0.0299 0.46511,-0.0135 0.91004,-0.1464 1.37451,-0.12968 2.1012,0.0756 4.20602,0.20293 6.30724,0.25937 1.55686,0.0418 2.14551,-0.21972 3.54712,-0.50878 1.21573,-0.25072 2.43726,-0.298 3.64689,-0.62848 0.6863,-0.18751 1.59737,-0.57346 2.17261,-0.98763 0.40868,-0.29424 0.69822,-0.68775 1.05306,-1.03751 0.75441,-0.74361 1.56621,-1.45088 2.20587,-2.30446 0.26687,-0.35613 0.31559,-0.86648 0.49881,-1.26696 0.22655,-0.49516 0.5016,-1.26135 0.76486,-1.67596 0.19094,-0.30073 0.50784,-0.5291 0.654,-0.85794 0.1065,-0.23962 0.15177,-0.51375 0.26603,-0.7482 0.18558,-0.38081 1.16552,-1.49763 1.60729,-1.68595 0.58078,-0.24758 1.23361,-0.59611 1.87333,-0.67837 0.5043,-0.0648 0.96812,0.13088 1.46318,0.15962 1.20215,0.0698 3.03782,-0.537 3.66907,-1.57622 1.30605,-2.15014 -0.28816,-5.315206 -1.91767,-6.81361 -0.58867,-0.541303 -1.39879,-0.802582 -2.08394,-1.187143 -0.7346,-0.412311 -1.39163,-1.264931 -2.23912,-1.43655 -1.06037,-0.214728 -3.12459,-0.429231 -3.81316,0.598559 -0.20874,0.311562 -0.47245,0.737497 -0.60967,1.087387 -0.26245,0.669208 0.2068,0.674063 -0.53207,1.117314 -0.37463,0.224748 -1.28211,0.0655 -1.5962,-0.199517 -0.23465,-0.197996 -0.23825,-0.541983 -0.5099,-0.728252 -0.63708,-0.436846 -1.29248,-0.800659 -2.0396,-1.017548 -0.29858,-0.08668 -0.71155,-0.300445 -0.99763,-0.109739 -0.88141,0.587579 -1.58047,1.368714 -2.38322,2.055056 -0.67483,0.576964 -1.42501,1.035373 -1.98418,1.735823 -0.92537,1.15917 -1.65734,2.53941 -2.7601,3.54149 -0.55039,0.50015 -1.1172,0.98361 -1.70706,1.43654 -0.86534,0.66447 -1.89617,1.02676 -2.72685,1.76576 -0.48878,0.43483 -0.94222,0.89336 -1.30801,1.43655 -0.51775,0.76883 -0.48897,1.42444 -1.40776,1.87549 -1.27959,0.62817 -1.59435,-1.82365 -2.73794,-1.9952 -0.28212,-0.0423 -0.72763,-0.0101 -0.98654,0.0898 -0.18634,0.0719 -0.73011,3.09257 -1.91767,3.09257 -0.31151,0 -0.30808,-0.14347 -0.39905,-0.38907 -0.10589,-0.2859 0.003,-0.58632 -0.0111,-0.88786 -0.0292,-0.60457 -0.60056,-1.5091 -1.10847,-1.83559 -0.29128,-0.18725 -0.63011,-0.22812 -0.96438,-0.28931 -0.18346,-0.0336 -0.57471,-0.15631 -0.77593,-0.0399 -0.77499,0.44837 -1.19201,1.53899 -2.09502,1.94532 -0.49929,0.22467 -1.24061,0.29928 -1.78465,0.29928 -0.0395,0 -0.54512,-0.1147 -0.58749,-0.0998 -0.2427,0.0856 -0.46556,0.21946 -0.69834,0.3292 z"
         id="path6124" /></clipPath><clipPath
       clipPathUnits="userSpaceOnUse"
       id="clipPath1097"><path
         style="fill:none;stroke:#000000;stroke-width:0.264583px;stroke-linecap:butt;stroke-linejoin:miter;stroke-opacity:1"
         d="m 88.915525,45.46833 c -7.449722,-1.674788 -15.323106,-1.898623 -22.542418,0.902928 -1.615996,0.627108 -3.281693,1.467395 -4.483404,2.765208 -1.824239,1.970122 -3.064947,4.426707 -4.922338,6.376916 -1.354965,1.422673 -3.577262,2.734133 -4.201228,4.712142 -0.353359,1.120172 -0.217266,2.287357 -0.548672,3.400081 -0.640943,2.152015 -2.929641,3.285257 -3.229301,5.516316 -0.259019,1.92849 0.24097,4.215643 1.332479,5.826691 0.522288,0.770888 1.412399,1.551133 1.755735,2.426613 0.162105,0.413351 0.04703,0.766927 0.04703,1.142773 0,0.899488 0.591487,3.307913 0.862193,4.331218 0.496413,1.876499 1.562375,3.485655 2.273051,5.276474 0.42664,1.075079 0.703278,2.212838 1.238424,3.244887 0.402966,0.777134 0.866487,1.526289 1.222748,2.32786 0.279583,0.62905 0.437666,1.338109 0.783813,1.932821 0.615286,1.057121 1.79333,1.778468 2.711984,2.553592 1.694783,1.429985 3.197873,3.07546 4.687197,4.68393 1.162704,1.25571 2.487271,5.63908 3.448767,6.26404 0.886391,0.57614 1.995133,-0.75174 2.837402,-0.84649 0.846326,-0.0952 1.577345,0.75593 2.414135,0.88882 0.477314,0.0758 0.885426,-0.0578 1.348161,-0.14108 1.065334,-0.19176 2.078085,0.30351 2.962807,0.87471 1.968849,1.27114 2.488334,5.04584 4.138525,6.68729 0.770953,0.76687 1.677775,0.91509 2.555226,1.34028 0.479227,0.23222 0.715635,0.83501 1.254099,0.97347 0.754909,0.19411 1.583171,-0.0242 2.351437,0.0423 0.993015,0.0859 1.868612,0.52734 2.774693,0.91703 1.663716,0.71552 2.890983,1.93819 4.357992,2.96272 1.697376,1.18542 3.573129,1.93903 5.596418,2.38429 4.01165,0.88283 8.46217,-0.72635 12.10205,-2.14444 1.27456,-0.49657 4.15505,-2.05294 5.23586,-2.76521 1.41661,-0.93358 2.8203,-1.89473 4.13852,-2.96273 5.56172,-4.50603 9.32949,-11.52768 9.89171,-18.651068 0.19331,-2.449346 -0.732,-6.378726 -1.50491,-8.606015 -0.56036,-1.614784 -1.11941,-3.260791 -2.02225,-4.712144 -2.75292,-4.425487 -5.74338,-8.708496 -8.90409,-12.85258 -1.39099,-1.823767 -3.0908,-3.392429 -4.71855,-5.008417 -1.84948,-1.83611 -7.39251,-6.795341 -9.45277,-8.577799 -4.6654,-4.036333 -9.288341,-8.016227 -14.625931,-11.145491 -2.930295,-1.717942 -6.273165,-3.224707 -9.374383,-4.542846 -0.204933,-0.08711 -3.406685,-1.452583 -4.154197,-1.368496 -0.0145,0.0016 0.626094,1.040715 0.6584,1.086332 0.700154,0.988639 1.370732,1.850326 2.367111,2.567696 1.833234,1.31989 3.869205,1.917176 6.098053,2.017474 0.129947,0.0058 0.772284,0.158253 0.877869,0.07054 0.558686,-0.464121 0.378595,-1.596295 0.36055,-2.172666 z"
         id="path1099" /></clipPath><clipPath
       clipPathUnits="userSpaceOnUse"
       id="clipPath1869"><path
         style="fill:none;stroke:#000000;stroke-width:0.264583px;stroke-linecap:butt;stroke-linejoin:miter;stroke-opacity:1"
         d="m 71.471739,60.298948 c -0.864614,-0.09311 -1.726245,-0.338526 -2.59384,-0.279331 -6.381245,0.435385 -15.795421,4.621602 -18.068171,11.013525 -1.088834,3.062255 -0.157871,7.022224 0.642911,10.055825 0.176686,0.669335 0.515176,1.305647 0.576408,1.995199 0.531217,5.981991 0.745151,11.988279 1.197155,17.976774 0.01836,0.24324 0.465495,-0.17955 0.70943,-0.17955 0.814972,0 1.818325,-0.0882 2.571668,0.29927 0.727435,0.3741 1.096528,1.18089 1.773563,1.61611 0.709464,0.45606 1.567447,0.65363 2.305632,1.05745 1.071594,0.58623 1.909485,2.45761 2.28346,3.55147 1.357926,3.97185 -5.027853,5.61076 -3.968348,8.53947 1.092978,3.02124 2.317239,6.06691 4.633431,8.35991 0.401762,0.39773 0.963909,0.56126 1.352349,0.93774 0.611436,0.5926 1.194393,1.25837 1.950921,1.67596 2.246056,1.2398 5.152774,2.24002 6.916899,4.13008 0.86325,0.92487 2.250307,3.26167 2.793359,4.3695 0.268566,0.54788 0.375047,1.10195 0.753767,1.59616 0.921025,1.2019 2.268648,1.78931 3.303262,2.87309 1.298339,1.36003 4.473432,4.75138 5.963599,5.48682 2.902755,1.43259 7.372631,1.12 10.375347,0.29927 6.702309,-1.83193 11.981769,-5.41955 14.676239,-11.97122 0.95336,-2.31811 1.20078,-4.61062 1.77357,-7.02311 1.26719,-5.33726 2.62191,-8.61835 2.06176,-14.44528 -0.37154,-3.86503 -2.79104,-7.63504 -4.74428,-10.77409 -2.90463,-4.668026 -6.39244,-9.198076 -10.863074,-12.47003 -3.34395,-2.447356 -7.014072,-4.277516 -10.397514,-6.644018 -2.320631,-1.623137 -4.011305,-3.879332 -6.030124,-5.825996 -1.371002,-1.322001 -2.997544,-2.361453 -4.300892,-3.750982 -0.803563,-0.856694 -1.245481,-1.867421 -1.862238,-2.853139 -0.467386,-0.746988 -1.10944,-1.340699 -1.640543,-2.035114 -0.526476,-0.688369 -0.767292,-1.369306 -1.219327,-2.075014 -0.485347,-0.757716 -1.123305,-1.398701 -1.574043,-2.174758 -0.576147,-0.991973 -0.958774,-2.284788 -1.352336,-3.331991 z"
         id="path1871" /></clipPath><clipPath
       clipPathUnits="userSpaceOnUse"
       id="clipPath3176-3"><path
         style="fill:none;stroke:#000000;stroke-width:0.264583px;stroke-linecap:butt;stroke-linejoin:miter;stroke-opacity:1"
         d="m 25.995209,-39.297169 c -0.214953,-0.202846 -0.45534,-0.381749 -0.644861,-0.608538 -0.135747,-0.162438 -0.08503,-0.415229 -0.144108,-0.618512 -0.125418,-0.431581 -0.364564,-0.879436 -0.565322,-1.276932 -0.858229,-1.69925 -2.539569,-4.537887 -4.079195,-5.6564 -1.679951,-1.220456 -3.943302,-1.577498 -5.963608,-1.795682 -0.583422,-0.06301 -1.212424,-0.06576 -1.773563,-0.249404 -0.09898,-0.03239 -0.05535,-0.101871 -0.110847,-0.119708 -1.239451,-0.398378 -2.467883,-0.648968 -3.635801,-1.227053 -0.5562203,-0.275311 -1.2015576,-0.536258 -1.8068184,-0.678367 -0.1995197,-0.04684 -0.4140623,-0.07101 -0.6096635,-0.129691 -0.00889,-0.0027 -0.1368796,-0.05537 -0.1219306,-0.05985 0.01815,-0.0055 0.1470051,0.0191 0.1662695,0.02993 0.1037008,0.05833 -0.2357914,0.04373 -0.354711,0.0399 -0.5257377,-0.0169 -1.0479723,-0.06683 -1.5629573,-0.17957 -0.2424747,-0.05308 -0.535604,-0.421107 -0.7426775,-0.558658 -0.4154275,-0.275952 -0.8682752,-0.481194 -1.3523409,-0.608537 -0.8313738,-0.218711 -1.69986329,-0.221636 -2.54950123,-0.309254 -1.064387,-0.109764 -2.12361197,-0.280292 -3.18132617,-0.438946 -2.5108985,-0.376627 -5.1903339,-0.856758 -7.6041539,0.22945 -0.291505,0.131175 -0.45551,0.382479 -0.698341,0.578608 -0.254368,0.205448 -0.641739,0.313599 -0.853525,0.558658 -0.31401,0.363342 -0.458415,0.942389 -0.642919,1.37669 -0.35542,0.836613 -0.616934,1.661393 -0.831361,2.553861 -0.05987,0.24918 -0.05575,0.524754 -0.133014,0.76815 -0.143176,0.451028 -0.447362,0.833344 -0.665083,1.247003 -0.09047,0.171877 -0.130775,0.384372 -0.254952,0.538704 -0.216752,0.269381 -0.573731,0.471798 -0.842444,0.67837 -0.731533,0.562357 -1.555493,0.764368 -2.39431,1.117316 -0.805193,0.3388 -2.456357,1.228436 -3.081565,1.845561 -0.503042,0.496537 -0.476941,1.03455 -0.853527,1.486428 -0.120087,0.144097 -0.875697,0.221966 -0.875697,0.339183 0,0.04474 0.09222,0.04569 0.09976,0.08978 0.02696,0.15772 0.01476,0.343044 0.01109,0.498804 -0.02601,1.100016 -0.252986,2.313309 -0.01109,3.401818 0.203968,0.917838 0.799156,1.733416 0.931127,2.683552 0.03781,0.27219 0.0024,0.554134 0.01109,0.828008 0.01016,0.320142 0.136602,0.61999 0.155186,0.937745 0.04939,0.844377 0.08471,1.626464 0.299292,2.454102 0.139605,0.538462 0.47933,0.983144 0.720505,1.476449 0.661742,1.353538 1.744102,3.361792 0.665091,4.818414 -0.864306,1.166778 -3.379515,2.456278 -4.633439,3.242209 -0.703254,0.440785 -1.420624,0.934731 -2.128274,1.316833 -0.07291,0.03937 -0.17804,0.217563 -0.23278,0.269354 -0.644853,0.610123 -1.320395,1.337426 -2.128277,1.735825 -2.361736,1.164661 -5.009038,0.906095 -7.548726,1.127294 -1.211763,0.10554 -2.323399,0.602766 -3.569298,0.5387 -1.776582,-0.09136 -3.504335,-2.367785 -5.243096,-1.905421 -0.964581,0.256501 -2.634842,1.773677 -3.048314,2.633673 -0.28716,0.597279 -0.33566,1.566135 -0.565322,2.224654 -0.176323,0.505582 -0.431712,0.979845 -0.576408,1.496399 -0.346076,1.2354689 -0.423186,2.516973 -0.609663,3.7809087 -0.131374,0.8904473 -0.304291,1.7591696 -0.299291,2.6635948 0.0055,0.9890231 0.151161,1.9240897 0.243866,2.9030269 0.08913,0.94114935 0.100225,1.89648039 0.310373,2.82321 0.40244,1.7747112 1.245781,3.3564512 1.862243,5.0578438 0.403523,1.1136947 0.519358,1.7603284 0.953292,2.8431595 0.854733,2.1328853 2.200624,4.1814753 3.414108,6.1152983 1.01881,1.62359 2.064446,3.260755 3.680143,4.359519 4.592134,3.122909 8.846867,3.013109 14.144167,2.823218 2.22894,-0.0799 4.464547,-0.199377 6.661954,-0.608537 3.573574,-0.665403 7.050916,-2.00425 10.3753392,-3.451706 1.6360617,-0.71234 4.1874493,-1.924518 5.5423832,-2.82321 5.7479063,-3.812424 10.7234064,-8.73279 15.5741056,-13.5873306 2.724814,-2.72697309 5.421561,-5.4569016 7.748262,-8.5394773 0.712507,-0.9439805 1.873562,-2.5316154 2.449727,-3.6312661 0.811328,-1.548469 0.776978,-1.851731 1.396685,-3.232229 0.64607,-1.43922 0.642998,-1.223873 1.363427,-2.713482 0.620493,-1.282978 1.084302,-2.456359 1.574038,-3.76096 0.899718,-2.396756 2.022557,-4.909553 1.851157,-7.53189 -0.08049,-1.231421 -0.476218,-2.310027 -0.74268,-3.501581 -0.175858,-0.786399 -0.220509,-1.585014 -0.432313,-2.364315 -0.231297,-0.851029 -0.531736,-1.688573 -0.764842,-2.543885 -0.223988,-0.821853 -0.723815,-1.516769 -0.875699,-2.364315 -0.06284,-0.350669 0.172151,-0.492017 0.188444,-0.808058 0.01117,-0.216593 -0.03565,-0.432294 -0.05347,-0.648441 z"
         id="path3178-6" /></clipPath><clipPath
       clipPathUnits="userSpaceOnUse"
       id="clipPath8862"><path
         style="fill:none;stroke:#000000;stroke-width:0.264583px;stroke-linecap:butt;stroke-linejoin:miter;stroke-opacity:1"
         d="m 34.621123,72.338966 c 1.204505,1.033518 2.763872,1.31826 4.240421,1.742366 0.273328,0.07851 0.514102,0.218734 0.775976,0.324488 0.803277,0.324395 1.685321,0.603139 2.547387,0.719518 1.159952,0.156597 2.368963,0.106254 3.542829,0.126974 0.459041,0.0081 0.914257,0.07817 1.371669,0.09876 0.530698,0.02389 1.066797,-0.04149 1.59898,-0.03527 1.469324,0.01717 2.933697,0.08465 4.405016,0.08465 2.167414,0 4.355962,0.01791 6.521312,-0.08465 3.133908,-0.148444 6.264855,-0.379476 9.397905,-0.536112 1.667126,-0.08335 3.332546,-0.05202 5.000715,-0.08465 0.875234,-0.01712 1.75042,-0.09331 2.625772,-0.105812 1.663145,-0.02376 3.322648,0.100251 4.985041,0.126976 1.817751,0.02922 3.637169,0.03573 5.45533,0.07054 1.113526,0.02133 2.231975,0.133371 3.346876,0.09876 0.351253,-0.0109 0.693256,-0.108119 1.042469,-0.126976 1.763125,-0.09521 3.753165,-0.28756 5.400463,-0.93114 0.631021,-0.246534 1.238663,-0.537483 1.88899,-0.733629 0.557507,-0.168153 1.359356,-0.343427 1.896816,-0.479682 3.30078,-0.836792 6.09701,-1.877509 9.25682,-0.04938 0.91964,0.532061 1.61003,0.996405 1.56762,2.17972 -0.06,1.672481 -0.51976,4.408212 -1.32464,5.918398 -0.88808,1.66628 -2.10685,3.133706 -2.71983,4.94493 -1.14416,3.380796 -0.55737,2.258245 -1.77141,5.25531 -0.76521,1.88902 -1.86445,3.663598 -2.97065,5.368179 -1.24718,1.921828 -2.54153,3.834076 -4.138521,5.488096 -1.579168,1.63556 -3.444266,2.94486 -5.267216,4.2889 -2.239754,1.65134 -4.543809,3.13878 -7.093495,4.27479 -1.103368,0.4916 -2.264971,0.84118 -3.386064,1.2909 -2.35636,0.94524 -4.666773,2.045 -7.08566,2.82869 -1.966714,0.6372 -4.038457,1.04031 -6.051024,1.48843 -1.379429,0.30714 -2.238176,0.50602 -3.652562,0.63486 -1.580467,0.14397 -3.973817,0.11591 -5.4083,0.0988 -3.477146,-0.0416 -7.06931,-0.18645 -10.479561,-0.91703 -7.669736,-1.64308 -14.355506,-4.74961 -20.896421,-9.03631 -2.16644,-1.41982 -4.415043,-2.87867 -6.301846,-4.66983 C 19.465128,98.700552 16.291095,94.861151 14.132287,90.566787 13.472272,89.253863 12.861299,87.916709 12.204111,86.60237 11.271922,84.738048 10.220828,82.960918 9.6096935,80.952029 9.2216136,79.676357 8.9779466,76.672764 9.1629205,75.344016 c 0.1491869,-1.071671 0.587579,-2.380755 1.1600415,-3.336594 0.514815,-0.859583 1.396636,-1.284234 2.304407,-1.636554 1.966619,-0.763272 3.957524,-0.659164 5.988321,-0.204567 0.892714,0.199834 1.779407,0.439761 2.696312,0.507896 1.088824,0.08091 2.120154,-0.446772 3.197951,-0.317436 0.384786,0.04617 0.758767,0.1632 1.144366,0.211624 1.161752,0.145889 2.350284,0.300924 3.4958,0.543166 0.63019,0.133268 1.2075,0.413739 1.834121,0.543166 0.828553,0.171138 1.69014,0.233283 2.53171,0.317436 0.04589,0.0046 0.6662,-0.0988 0.744623,-0.02117 0.125465,0.124206 0.240366,0.258651 0.36055,0.387977 z"
         id="path8864" /></clipPath><clipPath
       clipPathUnits="userSpaceOnUse"
       id="clipPath3254"><path
         style="fill:none;stroke:#000000;stroke-width:0.264583px;stroke-linecap:butt;stroke-linejoin:miter;stroke-opacity:1"
         d="m -26.07969,55.00253 c 7.639716,-2.61533 15.632054,-4.790702 22.7413522,-8.720029 2.2634053,-1.25099 4.30266501,-2.864361 6.7495072,-3.767381 2.7332794,-1.008729 5.6743674,-1.452062 8.4897916,-2.18001 1.44412,-0.373386 6.358883,-1.756622 6.843566,-1.883694 2.990283,-0.783984 6.046155,-1.328208 9.007179,-2.22233 3.250618,-0.98157 6.708249,-2.244839 9.665663,-3.936709 1.60809,-0.919951 2.921069,-2.365674 4.656453,-3.068942 3.361068,-1.362083 7.228374,-1.510154 10.794494,-1.693203 2.660772,-0.136578 7.032932,-0.6433 9.618631,0.105822 2.558364,0.741207 5.095851,1.609207 7.502062,2.751463 3.295914,1.564611 6.889334,5.73564 8.936632,8.656521 2.620018,3.737986 5.113303,7.711612 6.349693,12.148767 0.865053,3.104502 0.839195,4.893704 1.17588,8.254389 0.456742,4.559027 0.988393,9.077708 1.316974,13.651492 0.118621,1.651185 0.283094,3.180701 0.752554,4.783317 0.538099,1.836925 1.772754,4.122671 1.787327,6.116711 0.02814,3.850214 -5.265777,9.28583 -8.419237,11.005855 -6.016279,3.281518 -12.898461,3.526758 -19.401885,5.227761 -4.099878,1.07235 -8.075695,2.55421 -12.229066,3.42875 -2.951839,0.62154 -5.948015,0.81131 -8.913103,1.33341 -2.405938,0.42365 -5.143778,1.65308 -7.61964,0.93126 -2.739115,-0.79856 -5.263912,-2.20971 -7.948893,-3.17476 C 21.183279,101.10017 16.690187,99.572057 12.700549,96.655436 10.636655,95.146629 8.0336368,92.670269 6.1391844,90.91969 3.6456403,88.615522 1.0070035,86.38201 -1.0101127,83.61773 c -1.2275444,-1.682239 -2.1588804,-3.56199 -3.38651,-5.248936 -0.8970008,-1.232612 -2.0184906,-2.265934 -2.9161576,-3.5134 -1.2245544,-1.701731 -2.5570124,-3.071346 -4.4918287,-3.979036 -0.864429,-0.405535 -3.219666,-1.196954 -4.25666,-1.883704 -3.073942,-2.035712 -3.917198,-6.056773 -6.349701,-8.593032 -0.764171,-0.796763 -1.217557,-1.32089 -2.093049,-1.883693 -0.336808,-0.216514 -0.834022,-0.267274 -1.128839,-0.550291 -0.06299,-0.06046 -0.980873,-1.782342 -0.964217,-1.841359 0.111831,-0.396296 0.344923,-0.747835 0.517385,-1.121749 z"
         id="path3256" /></clipPath></defs><g
     inkscape:label="Layer 1"
     inkscape:groupmode="layer"
     id="layer1"><path
       id="path3796"
       style="fill:#241d15;fill-opacity:1;stroke-width:0.0728929"
       d="m 213.77999,42.433214 c 0.39653,0 0.80941,1.203669 0.72658,2.117358 -0.0445,0.490846 -0.0362,0.495716 0.43987,0.269698 1.01786,-0.483257 1.81465,-0.164421 1.63004,0.651812 -0.0527,0.233052 -0.1228,0.570929 -0.15573,0.751338 -0.11967,0.65758 -0.71132,1.508219 -1.63365,2.347864 -0.35876,0.326596 -0.38881,0.329927 -0.78537,0.07632 -0.1724,-0.110252 -0.36591,-0.233738 -0.43007,-0.273823 -0.0642,-0.0401 -0.2562,-0.165245 -0.42647,-0.278464 -0.40769,-0.271096 -1.18198,-0.432801 -2.06373,-0.431104 -0.98198,0.0018 -1.39282,-0.821309 -1.39232,-2.789282 5.1e-4,-2.047311 0.83649,-2.507969 1.78578,-0.984422 0.3158,0.506838 0.50659,0.620701 0.56157,0.335189 0.13074,-0.678874 1.21389,-1.792484 1.7435,-1.792483 z m -7.06371,1.940482 c 1.23756,0.520706 2.01409,1.753163 2.56445,2.596935 0.60908,0.939988 0.60591,0.903368 0.0964,1.217507 -0.69289,0.42724 -1.36186,1.357422 -1.58674,2.206054 -0.14098,0.532053 -0.22944,0.74358 -0.37025,0.884381 -0.25214,0.252151 -2.05133,0.05414 -2.56445,-0.282074 -1.50038,-0.607018 -2.45267,-2.055556 -0.44864,-2.285983 0.79505,-0.05887 0.81474,-0.08255 0.41719,-0.502267 -1.05451,-1.113285 -1.52194,-2.005399 -1.19378,-2.277732 0.43378,-0.374066 1.6659,0.235848 2.51029,0.320234 0.0219,-0.0218 0.0397,-0.383909 0.0397,-0.804967 0,-0.742495 0.20461,-1.125044 0.53578,-1.072086 z m 11.29481,3.638081 c 1.12859,-0.0088 1.77748,0.508451 1.217,1.243291 -0.18892,0.392627 -0.42724,0.613847 -0.60076,0.993188 -0.16528,0.294173 2.40322,0.623085 2.45255,1.329919 -0.1416,0.766935 -0.82717,0.881847 -1.4145,1.060227 -0.24055,0.07333 -0.55223,0.153154 -0.69255,0.177392 -0.63862,0.110273 -0.6448,0.238028 -0.0412,0.853442 0.76617,0.781227 0.78606,1.112516 0.0861,1.452138 -0.66797,0.324096 -1.68654,0.0675 -3.45915,-0.870974 -0.3518,-0.152393 -1.42737,-0.58123 -0.92201,-1.016394 0.53334,-0.419541 0.6889,-2.267379 0.26659,-3.163661 -0.12708,-0.269741 -0.23102,-0.536664 -0.23102,-0.593025 0,-0.30373 1.13859,-0.999746 2.07766,-1.270107 0.45581,-0.131228 0.88514,-0.192515 1.26133,-0.19544 z m -5.73584,0.0083 c 0.9587,-0.0019 1.35773,1.125688 0.67089,1.895617 -0.33401,0.374427 -0.33641,0.375642 -0.75288,0.36252 -1.61247,-0.05081 -1.53248,-2.254944 0.082,-2.258137 z m -13.62823,8.517905 c -0.0544,-0.200456 -0.14042,-0.530899 -0.19131,-0.734321 -0.0509,-0.203429 -0.16737,-0.500104 -0.25888,-0.659031 -0.28926,-0.502603 0.59636,-1.421347 1.80228,-1.870351 0.89664,-0.333848 2.58129,-0.15265 2.69234,0.28981 0.05,0.199221 0.19592,0.186534 0.23464,-0.02063 0.0385,-0.206483 0.14897,-0.318503 0.59353,-0.601275 0.2205,-0.140262 0.41724,-0.274045 0.4373,-0.297545 0.58692,-0.6879 3.79071,-0.783806 3.79071,-0.113448 0,0.08911 0.0462,0.200749 0.10314,0.248039 0.0847,0.0704 0.0968,0.05939 0.0655,-0.06033 -0.10046,-0.384117 0.96281,-1.08981 1.34643,-0.893663 0.36312,0.185665 0.6555,0.02079 0.80084,-0.45173 0.13102,-0.425807 0.13788,-0.681812 0.0129,-0.479578 -0.23282,0.376711 -1.47534,0.0346 -1.68162,-0.463075 -0.52604,-1.424111 1.42207,-1.9494 2.04826,-1.038566 0.21867,0.353779 0.2005,0.887654 -0.0397,1.166972 -0.23553,0.273865 -0.11876,0.325252 0.2862,0.125825 0.59284,-0.291966 1.1404,-0.21549 1.59652,0.222771 0.30236,0.290502 0.30258,0.290346 0.36974,0.08096 0.35634,-1.111017 2.24362,-0.819818 2.2994,0.354784 -0.1061,1.11573 -1.50867,1.732978 -2.25144,0.736908 -0.6901,-0.06479 -0.31944,0.481993 -0.36251,0.668833 0.56964,0.122201 0.93307,0.429338 0.98124,1.000392 0.35023,0.654408 -0.77923,1.620154 -1.68049,1.406266 -1.19401,-0.198759 -1.0211,-1.35563 -0.90604,-1.761544 0.15554,-0.262539 0.15509,-0.268092 0.0526,-0.4244 -0.27762,-0.181904 -0.44601,-0.123388 -0.46926,0.162438 -0.0273,0.336066 -0.21534,0.58719 -0.56105,0.749275 -0.51475,0.239427 -0.80789,0.216065 -1.13655,0.08972 -0.41724,-0.0291 0.26948,0.644455 1.0329,1.013299 0.36702,0.177328 0.3962,0.332853 0.16655,0.876131 -0.10657,0.252106 -0.23629,0.610107 -0.28877,0.795684 -0.44091,1.558988 -1.5467,2.614984 -2.73824,2.614984 -0.47112,0 -0.56934,-0.757666 -0.23875,-1.840956 0.1071,-0.351074 0.18052,-0.652834 0.16295,-0.670376 -0.89046,0.139609 -1.73044,0.336864 -2.57682,0.433676 -0.73368,0.169878 -0.88606,0.760873 -1.4604,1.047331 -0.32979,0.119261 -0.32761,0.126152 0.1542,0.595604 0.9806,0.955449 0.74366,1.347572 -0.81013,1.341784 -1.82402,-0.0067 -3.74747,-0.86899 -3.5138,-1.574869 0.21799,-0.71991 0.29705,-1.426884 0.13562,-2.065798 z m 4.19552,-2.513912 c -0.0403,-0.02202 -0.1332,0.06767 -0.23154,0.236179 -0.076,0.130296 -0.35261,0.459906 -0.61468,0.732773 -0.52083,0.542019 -0.51941,0.630536 0.008,0.632732 0.3566,0.0015 1.52015,0.290502 1.66665,0.414086 0.16337,0.137816 0.3255,0.120517 0.40223,-0.04332 0.14853,-0.317529 1.21968,-1.317031 1.4114,-1.317031 0.15494,0 0.0696,-0.146303 -0.0882,-0.151093 -0.73099,-0.02189 -1.38237,-0.07853 -1.65789,-0.144389 -0.3383,-0.06 -0.69372,-0.181712 -0.89624,-0.359937 z m 11.48458,0.269182 c 0.11269,0.0065 0.24552,0.107334 0.50948,0.308373 2.71473,2.067597 3.0606,5.435092 0.37077,3.609719 -0.44538,-0.302221 -0.51897,-0.166876 -0.39501,0.724522 0.11416,0.820708 -0.0623,1.484031 -0.46461,1.74762 -0.28615,0.187478 -0.22362,0.264541 0.21503,0.264541 1.48807,-0.347763 1.90032,0.202815 1.67336,-1.146852 -0.27542,-1.638507 2.31888,-0.136752 3.67315,2.126124 0.39694,0.663262 0.39568,0.668623 -0.26866,1.224727 -0.63232,0.52929 -1.00093,1.035183 -1.23608,1.695536 -0.18805,0.777759 -0.29717,1.721238 -0.19956,2.242152 0.0798,1.567395 2.81283,2.686345 2.61962,3.320942 -0.11059,0.599141 -0.39752,1.125643 -0.62088,1.64397 -0.27035,0.628749 -0.65029,1.103551 -1.24483,1.554757 -1.07567,0.816333 -1.49794,0.380095 -1.26289,-1.305172 0.13671,-0.980207 0.19289,-0.928502 -0.58941,-0.542489 -1.04361,0.514951 -1.75668,0.77609 -2.11942,0.77609 -0.28542,0 -0.32328,0.01753 -0.27847,0.127887 0.0285,0.07016 0.0694,0.414462 0.0908,0.76526 0.0213,0.350798 0.0419,0.637596 0.0469,0.636857 0.0712,-0.0069 0.73444,-0.234747 0.9442,-0.324358 1.1804,-0.504303 1.54378,0.532425 0.74979,2.139016 -0.29559,0.775139 -0.90679,1.371308 -1.55889,1.866225 h -5.1e-4 c -1.33663,-0.713066 -2.32228,-0.90718 -4.20378,-0.663157 -0.0576,-0.0221 -0.17102,-0.226058 -0.25165,-0.453278 -0.0806,-0.227218 -0.23327,-0.642936 -0.33931,-0.923572 -0.10605,-0.280636 -0.32299,-0.904008 -0.48215,-1.3851 -0.15918,-0.481103 -0.3363,-0.967354 -0.39398,-1.080854 -0.34829,-0.813094 -0.66492,-1.675817 -0.86994,-2.417996 -0.0127,-0.08018 -0.12448,-0.370233 -0.24855,-0.644593 -0.15565,-0.510861 -0.40534,-1.028155 -0.55591,-1.469155 -0.39903,-1.176442 -0.57728,-1.14339 -3.57568,0.659547 -0.51783,0.311381 -0.99078,0.607074 -1.05095,0.656969 -0.0601,0.04988 -0.27344,0.180553 -0.4739,0.290839 -0.20044,0.110268 -0.54477,0.317917 -0.76526,0.461013 -0.2205,0.143098 -0.59743,0.360733 -0.83797,0.483703 -0.24054,0.12298 -0.57607,0.312576 -0.74566,0.421306 -0.16959,0.10868 -0.32763,0.197502 -0.35118,0.197502 -0.0235,0 -0.14724,0.07679 -0.27486,0.170689 -0.44105,0.324644 -1.25405,0.697911 -1.36601,0.62706 -0.0578,-0.03662 -0.18423,-0.06683 -0.28053,-0.06756 -0.58633,-2.308596 0.6201,-4.17808 -0.39811,-5.962741 0.23983,-4.940337 -0.7212,-5.578826 2.23237,-6.444378 0.21011,0.172558 0.67309,0.494655 1.02876,0.716272 0.35567,0.221608 0.84754,0.54328 1.09323,0.714724 0.24569,0.171445 0.59413,0.385895 0.77454,0.476483 0.79979,0.40161 2.73756,1.688473 3.61643,2.401494 0.84958,0.689252 1.46912,0.113665 1.85797,-1.725445 0.036,-0.17039 0.0951,-0.449454 0.13098,-0.61984 0.036,-0.170387 0.15149,-0.634989 0.25629,-1.032896 0.20902,-1.288256 0.82598,-2.521285 1.1314,-3.686555 0.24174,-0.574619 0.27428,-1.40177 0.72556,-1.734212 0.10493,-0.06669 0.20715,-0.143692 0.22741,-0.171204 0.0203,-0.02752 0.44806,-0.06128 0.95039,-0.07477 1.05174,-0.02827 1.73766,-0.291432 2.39685,-0.919448 0.18383,-0.175134 0.27664,-0.262809 0.38934,-0.25629 z m 9.70602,2.693882 c 0.43158,0.06892 0.76173,0.815362 0.79311,2.132828 0.0172,0.722426 0.0705,0.767294 0.46049,0.388819 1.70715,-1.656722 2.5292,0.129732 1.12727,2.449967 -0.28982,0.646582 -0.53606,0.870248 -1.03651,1.212358 -0.48283,0.332127 -0.57272,0.32393 -1.19945,-0.109323 -0.28997,-0.200456 -0.56411,-0.364066 -0.60901,-0.364066 -0.045,0 -0.16402,-0.05408 -0.26404,-0.119637 -0.25016,-0.163905 -0.33326,-0.04855 -0.0918,0.127372 0.44605,0.324913 0.51371,0.40889 0.56879,0.710083 0.0729,0.398558 -0.15764,0.912191 -0.55744,1.241744 h -5.2e-4 c -0.30922,0.25489 -0.39611,0.221384 -0.78949,0.115512 -0.3214,-0.116655 -0.4105,0.0104 -0.76317,-0.468749 -0.40312,-0.753246 0.22777,-1.748551 1.11024,-1.751744 0.11024,-3.99e-4 0.20059,-0.03314 0.20059,-0.07323 0,-0.08787 -0.24195,-0.103952 -1.20409,-0.07941 -0.8607,0.02193 -0.89033,0.003 -1.13707,-0.725554 -0.0877,-0.258988 -0.20052,-0.569185 -0.25062,-0.689456 -0.37993,-0.913443 -0.44313,-1.820611 -0.17997,-2.587653 0.0887,-0.495567 0.47078,-0.793508 0.90192,-0.801874 0.29996,0 0.46945,0.18829 0.82869,0.920993 0.71553,1.440605 0.69262,0.261535 0.9937,-0.410991 0.36545,-0.815583 0.76271,-1.171587 1.09839,-1.117981 z m -11.84143,2.011128 c -0.095,-0.0046 -0.20489,0.160282 -0.395,0.534755 -0.70089,1.380553 -1.39322,1.470799 -1.79661,0.234632 -0.1739,-0.532793 -0.17421,-0.532939 -0.22381,-0.02269 -0.0273,0.280636 -0.11952,0.719231 -0.20524,0.974107 -0.2289,1.335517 -1.95698,5.180945 0.47241,5.368685 0.88556,-0.07514 1.29045,-0.07699 2.44223,-0.01083 1.45711,0.08372 2.0914,0.09331 2.24112,0.03404 0.0701,-0.02774 0.22626,-0.05373 0.34654,-0.05672 0.48889,-0.01395 0.41261,-0.12286 -0.35479,-0.508971 -1.75912,-0.885107 -1.63398,-2.118905 0.21503,-2.118905 0.3432,0 0.31757,-0.120596 -0.1186,-0.549708 -0.47668,-0.468953 -0.96705,-1.361438 -0.92873,-1.69038 0.0153,-0.131097 0.005,-0.238242 -0.0227,-0.238242 -0.0277,0 -0.19918,-0.122967 -0.38109,-0.273307 -0.42129,-0.348201 -0.75564,-0.794032 -1.12159,-1.494424 -0.0604,-0.115606 -0.11217,-0.179307 -0.16914,-0.182033 z m -11.3175,2.882619 c -0.0706,0.0072 -0.0122,0.164735 0.14851,0.474937 0.60595,1.169655 0.11382,1.616715 -1.2206,1.108699 -0.67908,-0.258523 -0.744,-0.247411 -0.69151,0.117059 0.0252,0.175278 0.0561,0.760884 0.0686,1.301561 0.0223,0.962901 0.0265,0.983948 0.19543,1.031347 0.0949,0.02664 0.20493,0.04737 0.24494,0.04537 0.0401,-0.0019 0.48329,-0.0291 0.98443,-0.06033 0.50114,-0.03123 1.35388,-0.07337 1.8951,-0.09333 1.23376,-0.04547 2.69206,-0.163599 2.86405,-0.232054 0.17292,-0.06887 0.11109,-0.135179 -0.77969,-0.835907 -0.38222,-0.300684 -0.68762,-0.592637 -0.67863,-0.648719 0.009,-0.05736 -0.0518,-0.107494 -0.13923,-0.114479 -0.15019,-0.01237 -0.99581,-0.635052 -2.26484,-1.668206 -0.35646,-0.290201 -0.55598,-0.433158 -0.62655,-0.425948 z m 27.78814,0.470784 c 0.10644,-0.0044 0.2112,-0.0035 0.31301,0.0031 1.26633,0.08204 1.43374,0.726406 0.44554,1.714616 -0.42038,0.420381 -0.40406,0.442685 0.49041,0.670892 1.24676,0.318079 1.59975,0.530702 1.59911,0.963796 -6.5e-4,0.423571 -0.71714,0.979548 -1.42378,1.104574 -1.15414,0.204187 -1.19088,0.232185 -0.70803,0.54249 1.25546,0.806803 1.41054,1.744529 0.30941,1.868287 -0.39067,0.0439 -1.65368,-0.1645 -1.9544,-0.322297 -0.0677,-0.03553 -0.23766,-0.113392 -0.37799,-0.173266 -1.64672,-0.703172 -1.91457,-0.927018 -1.70636,-1.425323 0.0593,-0.1418 0.10128,-0.395052 0.0923,-0.563117 -0.019,-0.367293 -0.0672,-0.360497 -0.64924,0.09231 -0.49883,0.383853 -1.13296,0.309036 -1.55579,-0.227931 -0.17579,-0.236051 -0.24557,-0.232965 -0.35117,0.01547 -0.0469,0.110256 -0.15046,0.274371 -0.22999,0.364581 -0.0795,0.09025 -0.13042,0.167179 -0.11345,0.170173 0.017,0.0033 0.0961,0.01447 0.17635,0.02475 1.39701,0.178942 1.7738,2.002636 0.46463,2.248855 -0.92523,0.174011 -1.22316,-0.697247 -1.2928,-1.620765 -0.11886,-0.625388 -1.06384,-0.647842 -1.0958,0.06446 -0.0102,0.254013 -0.0664,0.466873 -0.15729,0.594573 -1.46849,1.419718 -3.03797,-1.572627 -0.47957,-1.718747 0.11483,0.05988 0.22101,0.109323 0.23618,0.109323 0.0555,0 0.005,-1.100189 -0.0526,-1.135515 -0.28304,0.204375 -0.40712,0.172893 -0.71988,0.127374 -0.97902,-0.03837 -1.35393,-1.432191 -0.55435,-2.06115 0.67267,-0.52912 1.89612,0.03725 1.84663,0.854988 -0.0171,0.282463 -0.0174,0.282219 0.43419,0.258868 0.59122,-0.03061 1.01644,0.15161 1.30517,0.559507 0.22784,0.32188 0.37001,0.377884 0.44555,0.174813 0.22483,-0.604301 1.13569,-0.990121 1.65015,-0.698738 0.3701,0.209628 0.62239,0.541356 0.6678,0.878193 0.0721,0.534846 0.0956,0.538877 0.10262,0.01599 0.006,-0.478697 -0.12509,-0.996106 -0.35891,-1.416557 -0.41624,-0.7485 1.60571,-1.992906 3.20234,-2.058571 z m -29.25884,4.426032 c -0.0122,0.02097 -0.0451,0.251465 -0.0732,0.512065 -0.0281,0.260588 -0.0977,0.638921 -0.1547,0.841063 -0.0913,0.323377 -0.18464,0.980813 -0.13924,0.980813 0.009,0 0.27467,-0.08181 0.59045,-0.182033 1.32045,-0.419084 2.1029,0.235642 1.40212,1.173159 -0.0326,0.04375 -0.0378,0.101027 -0.0113,0.127372 0.0735,0.07354 0.14355,0.05782 0.23566,-0.05312 0.0462,-0.05562 0.40786,-0.320452 0.80394,-0.588385 0.5136,-0.340112 1.0203,-0.799772 1.51041,-1.071056 0.85274,-0.707481 2.82011,-1.511001 1.04269,-1.514535 -0.52252,2.99e-4 -0.97332,-0.01357 -1.00196,-0.03093 -0.0287,-0.01736 -0.67545,-0.05466 -1.43718,-0.0825 -0.76172,-0.02792 -1.69118,-0.0727 -2.06528,-0.100041 -0.3741,-0.02734 -0.69017,-0.03282 -0.70234,-0.01187 z m 15.37637,0.274834 c -0.31791,-0.0068 -0.95132,0.0224 -1.85694,0.08869 -1.51909,0.111204 -2.67571,0.174017 -3.33281,0.181002 -0.94621,0.01 -1.03265,0.21844 -0.60797,1.466062 0.38426,1.244984 0.57538,2.504863 1.06383,3.557636 0.0894,0.226402 0.22036,0.519941 0.31714,0.702351 0.0771,0 0.15216,-0.254504 0.15315,-0.520831 0.004,-0.771069 0.73977,-0.607734 1.44956,0.321781 0.77589,1.377762 1.45203,-1.8731 2.38345,-0.959155 0.1781,0.288121 0.32803,0.208525 0.28053,-0.149028 0.0465,-0.643367 0.36127,-1.146765 0.73689,-1.590341 0.50794,-0.59506 0.47053,-0.674534 -0.32074,-0.675532 -1.45951,-0.0023 -2.06621,-0.572184 -1.51093,-1.419651 0.15871,-0.242199 0.95672,-0.819617 1.20926,-0.875099 0.35562,-0.0781 0.35349,-0.12106 0.0356,-0.127888 z m 10.51202,1.538256 c 0.22874,2.08e-4 0.4155,0.14442 0.60592,0.230512 1.74624,0.672048 3.18491,4.161499 1.54031,3.736058 -0.45688,-0.01147 -1.02949,-0.447797 -1.02825,-0.0016 0.0705,2.892403 -0.99763,3.349719 -2.30042,0.984422 -0.22824,-0.414363 -0.34366,-0.294554 -0.71782,0.747213 -0.0648,0.180408 -0.21388,0.430135 -0.33158,0.55538 -0.71879,0.764862 -1.70327,-0.934098 -1.71564,-2.961002 -0.0106,-1.74397 -0.001,-1.765776 0.80754,-1.867771 1.25359,-0.158095 2.34258,-0.651027 2.90737,-1.316 0.0507,-0.05977 0.14035,-0.09691 0.23257,-0.107261 z m -24.3785,3.666959 c 0.18782,-0.01205 0.36532,-0.0089 0.52496,0.01289 1.934,0.263522 2.21565,0.974007 0.77042,1.943576 -0.99751,0.669164 -0.99411,0.629669 -0.0825,0.986484 2.21383,0.866548 2.03652,2.168493 -0.28311,2.078684 -0.47073,-0.01826 -1.0312,-0.02349 -1.08549,-0.01032 -0.0156,0.0038 0.11592,0.147053 0.29187,0.318172 1.10287,1.07253 1.44803,2.046674 0.77712,2.192645 v -5.16e-4 c -0.56165,0.122193 -1.2038,-0.03353 -2.13386,-0.517221 -0.28198,-0.146659 -1.12702,-0.821991 -1.63984,-1.310327 -0.2205,-0.209967 -0.42475,-0.382268 -0.45379,-0.383146 -0.231,-0.0067 -0.28008,-0.463154 -0.0774,-0.719881 0.33555,-0.424922 0.53113,-0.804392 0.53113,-1.030833 0,-0.115706 0.0572,-0.253506 0.12737,-0.305795 0.23331,-0.174241 0.16844,-1.415274 -0.0964,-1.844567 -0.30313,-0.491357 1.51475,-1.325556 2.8295,-1.409853 z m 6.04319,1.265981 c 0.39366,0.01782 1.00445,0.392541 1.75638,1.121075 0.36041,0.272319 0.51438,0.687168 0.71061,1.017425 0.25378,0.527121 0.64389,1.176734 0.40067,1.576932 -0.14504,0.07636 -0.32978,0.226948 -0.82817,0.676048 -0.26478,0.238705 -0.26457,0.23903 -0.0459,0.182549 1.02732,-0.26494 1.71917,0.215962 1.64912,1.146344 -0.16243,1.46025 -2.20158,1.124336 -2.26896,-0.033 0,-0.510579 -0.21663,-0.118836 -0.44142,0.798264 -0.0393,0.160361 -0.11095,0.368775 -0.15934,0.463076 -0.29146,0.568537 -3.87355,-0.430622 -4.43893,-1.238135 -0.45152,-0.644895 -0.11668,-0.922309 1.48617,-1.231945 0.4313,-0.08331 0.51905,-0.18881 0.30476,-0.366644 -1.75312,-1.454972 -1.43938,-3.003023 0.44245,-2.182848 0.20047,0.08735 0.54165,0.177745 0.75805,0.200596 0.44328,0.04675 0.42937,0.11693 0.22277,-1.108699 -0.11797,-0.699809 0.0581,-1.03886 0.45173,-1.021034 z m 10.87505,3.510193 c 0.83838,-0.0194 1.72442,0.219337 1.72442,0.624998 0,0.149283 -0.45748,0.995443 -0.62139,1.149437 -0.22583,0.212172 -0.0709,0.326369 0.84003,0.618809 0.22051,0.07079 0.43218,0.157304 0.4703,0.191831 0.0381,0.03443 0.13382,0.0624 0.21245,0.0624 0.2153,0 0.73115,0.327929 0.8421,0.53527 0.25042,0.46791 -0.83825,1.237276 -2.12613,1.502676 -0.52686,0.108549 -0.52594,0.153863 0.0181,0.804966 0.59421,0.711237 0.60108,1.064672 0.0232,1.238135 -0.9298,0.2791 -3.2702,-0.194159 -3.8593,-0.780217 -0.27335,-0.271874 -0.28816,-0.590894 -0.0691,-1.51505 0.2857,-1.20536 0.20602,-1.743736 -0.40377,-2.720181 -0.10953,-0.17537 0.0638,-0.417471 0.43007,-0.600246 0.109,-0.05439 0.26373,-0.1529 0.34396,-0.21916 0.0802,-0.06615 0.29349,-0.197589 0.4739,-0.292388 0.18042,-0.09475 0.38078,-0.215462 0.44555,-0.26815 0.26696,-0.217281 0.75264,-0.321488 1.25566,-0.333126 z m -5.75235,0.231538 c 0.11465,-0.01529 0.23587,-0.01559 0.36253,0.0021 1.13166,0.157716 1.25568,1.577886 0.18409,2.108076 -0.28735,0.14219 -0.28697,0.142363 -0.0315,0.337251 0.14053,0.107184 0.25526,0.238268 0.25526,0.291356 0,0.0532 0.0491,0.137711 0.10932,0.187705 0.28129,0.02442 0.53055,-0.609447 0.905,-0.727583 0.89596,-0.06735 1.68701,0.766196 1.28043,1.656345 -0.35156,0.70471 -1.56409,0.851075 -1.94873,0.235148 -0.13151,-0.210555 -0.31515,-0.174952 -0.42131,0.08148 -0.17012,0.290725 -0.57552,0.423337 -0.21297,0.578071 1.04209,0.431627 1.11151,1.800455 0.10777,2.123542 -1.1517,0.370697 -1.95764,-0.758756 -1.26392,-1.771337 0.17366,-0.253473 0.17352,-0.25405 -0.11809,-0.392427 -0.62686,0.08515 -0.3649,0.302972 -0.95606,0.68894 -0.35178,0.308867 -1.09532,0.388139 -1.43718,0.153156 -1.07625,-0.739775 -0.47767,-2.09701 0.91223,-2.06837 0.49201,0.01017 0.49247,0.01 0.49247,-0.226896 0,-0.431369 0.46916,-0.979736 0.96585,-1.128811 0.32987,-0.09899 0.32852,-0.08441 0.0444,-0.480094 -0.49594,-0.690585 -0.0321,-1.54055 0.77041,-1.647578 z m -5.06391,4.146536 c 0.7623,-0.01736 0.76243,-0.01731 1.12004,0.70338 0.24399,0.491739 0.48119,0.846149 0.74669,1.115919 0.21402,0.21746 0.40904,0.459079 0.43368,0.536815 1.26757,1.186303 -0.0301,4.018112 -1.36086,4.713266 -0.88002,0.300914 -1.11753,0.02146 -1.07312,-1.263409 0.0257,-0.743388 -0.0553,-0.849484 -0.50845,-0.663666 -1.95157,0.800287 -2.4577,0.848485 -2.44533,0.234114 0.0146,-0.721744 0.3707,-1.703559 0.89418,-2.46441 0.21847,-0.317399 0.2247,-0.341888 0.0851,-0.341888 -0.18784,0 -1.0474,-0.236589 -1.38767,-0.382111 -1.60783,-0.68763 0.68709,-2.124046 3.49576,-2.18801 z m 7.84907,1.863131 c 0.23942,0.0041 0.54165,0.255196 1.14325,0.845188 2.41185,2.36539 2.41374,4.038772 0.003,2.893963 -0.55596,-0.264082 -0.55622,-0.264042 -0.50742,0.01028 0.22438,1.260655 0.0838,2.644021 -0.28414,2.793405 -0.33041,0.134126 -0.57857,-0.02884 -1.58363,-1.04114 -0.7128,-0.717932 -0.75438,-0.711745 -1.17884,0.178424 -0.54416,1.141177 -1.36019,0.646044 -1.75277,-1.063841 -0.21033,-0.916044 0.12202,-3.068524 0.47493,-3.076507 0.28964,-0.02797 0.5931,-0.08208 0.84056,-0.08771 0.71829,-0.01377 1.79598,-0.551533 2.43088,-1.212865 0.14935,-0.155572 0.27043,-0.241719 0.41409,-0.239275 z"
       sodipodi:nodetypes="scsccssssccssssccssscccccsscsccccsscccssccscssscccsscscsccscsccssscccccccccccsscsccccscsccsccscsccccscccsccsscccccssscsccccccsssccccssssscsccccccssscccccscssscccccssccsccccsscsccccccccscccccsccsssssssssssscccsccsccssssssssscsscccccssccsccccsccsscscsccssssscssccscccccsssscccccccccccscsscsccssssccscssscscccsscssccssssscccscccsscccsscssscscccsccsscccsscsscscccccccsscccsssccssccsccccssssccccssssccccccc" /><path
       id="path8713"
       style="fill:#241d15;fill-opacity:1;stroke-width:0.0728929"
       d="m 17.730429,42.433214 c -0.396532,0 -0.809409,1.203669 -0.726584,2.117358 0.04451,0.490846 0.03617,0.495716 -0.43987,0.269698 -1.017858,-0.483257 -1.814654,-0.164421 -1.630044,0.651812 0.05268,0.233052 0.1228,0.570929 0.15573,0.751338 0.119678,0.65758 0.711327,1.508219 1.633657,2.347864 0.358762,0.326596 0.388808,0.329927 0.78537,0.07632 0.172395,-0.110252 0.365907,-0.233738 0.43007,-0.273823 0.06417,-0.0401 0.256199,-0.165245 0.426469,-0.278464 0.407688,-0.271096 1.181981,-0.432801 2.063728,-0.431104 0.981983,0.0018 1.392825,-0.821309 1.392316,-2.789282 -5.09e-4,-2.047311 -0.836482,-2.507969 -1.785775,-0.984422 -0.315802,0.506838 -0.506589,0.620701 -0.561573,0.335189 -0.130733,-0.678874 -1.213883,-1.792484 -1.743494,-1.792483 z m 7.063707,1.940482 c -1.23756,0.520706 -2.014094,1.753163 -2.564448,2.596935 -0.609083,0.939988 -0.60591,0.903368 -0.09644,1.217507 0.692885,0.42724 1.361861,1.357422 1.586736,2.206054 0.140982,0.532053 0.229445,0.74358 0.370248,0.884381 0.252146,0.252151 2.051333,0.05414 2.564448,-0.282074 1.500383,-0.607018 2.452675,-2.055556 0.448642,-2.285983 -0.795049,-0.05887 -0.814738,-0.08255 -0.417188,-0.502267 1.05451,-1.113285 1.521943,-2.005399 1.193785,-2.277732 -0.433786,-0.374066 -1.665909,0.235848 -2.510293,0.320234 -0.02185,-0.0218 -0.03972,-0.383909 -0.03972,-0.804967 0,-0.742495 -0.204607,-1.125044 -0.535777,-1.072086 z m -11.294813,3.638081 c -1.128584,-0.0088 -1.777482,0.508451 -1.216997,1.243291 0.188921,0.392627 0.427238,0.613847 0.600757,0.993188 0.165282,0.294173 -2.403218,0.623085 -2.452545,1.329919 0.141596,0.766935 0.827169,0.881847 1.4145,1.060227 0.240551,0.07333 0.552232,0.153154 0.692546,0.177392 0.638619,0.110273 0.644806,0.238028 0.04125,0.853442 -0.76617,0.781227 -0.786058,1.112516 -0.08612,1.452138 0.667968,0.324096 1.686545,0.0675 3.459148,-0.870974 0.351805,-0.152393 1.427373,-0.58123 0.922017,-1.016394 -0.533342,-0.419541 -0.688903,-2.267379 -0.266596,-3.163661 0.127082,-0.269741 0.231021,-0.536664 0.231021,-0.593025 0,-0.30373 -1.138593,-0.999746 -2.077657,-1.270107 -0.455807,-0.131228 -0.885139,-0.192515 -1.261334,-0.19544 z m 5.735845,0.0083 c -0.958703,-0.0019 -1.357729,1.125688 -0.670892,1.895617 0.334014,0.374427 0.336409,0.375642 0.752879,0.36252 1.612471,-0.05081 1.53248,-2.254944 -0.08199,-2.258137 z m 13.628225,8.517905 c 0.05436,-0.200456 0.140423,-0.530899 0.191315,-0.734321 0.05089,-0.203429 0.167367,-0.500104 0.258873,-0.659031 0.289259,-0.502603 -0.59636,-1.421347 -1.80228,-1.870351 -0.896634,-0.333848 -2.581283,-0.15265 -2.692338,0.28981 -0.05,0.199221 -0.195917,0.186534 -0.234634,-0.02063 -0.03852,-0.206483 -0.148975,-0.318503 -0.593536,-0.601275 -0.220503,-0.140262 -0.417238,-0.274045 -0.437295,-0.297545 -0.586919,-0.6879 -3.790716,-0.783806 -3.790716,-0.113448 0,0.08911 -0.04615,0.200749 -0.103132,0.248039 -0.08472,0.0704 -0.09683,0.05939 -0.06549,-0.06033 0.100458,-0.384117 -0.962814,-1.08981 -1.346433,-0.893663 -0.363123,0.185665 -0.655504,0.02079 -0.800838,-0.45173 -0.131023,-0.425807 -0.137879,-0.681812 -0.01289,-0.479578 0.232817,0.376711 1.475341,0.0346 1.681614,-0.463075 0.526038,-1.424111 -1.422068,-1.9494 -2.048261,-1.038566 -0.218668,0.353779 -0.200497,0.887654 0.03971,1.166972 0.235532,0.273865 0.118759,0.325252 -0.286195,0.125825 -0.592837,-0.291966 -1.140399,-0.21549 -1.596525,0.222771 -0.302361,0.290502 -0.30258,0.290346 -0.369739,0.08096 -0.356336,-1.111017 -2.243617,-0.819818 -2.299399,0.354784 0.106103,1.11573 1.508673,1.732978 2.251444,0.736908 0.690101,-0.06479 0.319435,0.481993 0.362506,0.668833 -0.569641,0.122201 -0.933065,0.429338 -0.981237,1.000392 -0.350229,0.654408 0.779224,1.620154 1.680488,1.406266 1.194015,-0.198759 1.021105,-1.35563 0.906041,-1.761544 -0.155542,-0.262539 -0.155092,-0.268092 -0.0526,-0.4244 0.277623,-0.181904 0.446007,-0.123388 0.469258,0.162438 0.02725,0.336066 0.215345,0.58719 0.561054,0.749275 0.514747,0.239427 0.807887,0.216065 1.136547,0.08972 0.417238,-0.0291 -0.26948,0.644455 -1.032896,1.013299 -0.367024,0.177328 -0.396202,0.332853 -0.166558,0.876131 0.106575,0.252106 0.236291,0.610107 0.288779,0.795684 0.440908,1.558988 1.5467,2.614984 2.738232,2.614984 0.471124,0 0.569347,-0.757666 0.238755,-1.840956 -0.107103,-0.351074 -0.180518,-0.652834 -0.162955,-0.670376 0.890466,0.139609 1.730441,0.336864 2.576822,0.433676 0.733681,0.169878 0.886064,0.760873 1.460396,1.047331 0.329793,0.119261 0.327617,0.126152 -0.154194,0.595604 -0.980597,0.955449 -0.743658,1.347572 0.810127,1.341784 1.824024,-0.0067 3.747468,-0.86899 3.513802,-1.574869 -0.217988,-0.71991 -0.29705,-1.426884 -0.135622,-2.065798 z M 28.667877,54.02407 c 0.04031,-0.02202 0.133199,0.06767 0.231541,0.236179 0.07603,0.130296 0.352605,0.459906 0.61468,0.732773 0.52083,0.542019 0.519403,0.630536 -0.0083,0.632732 -0.356606,0.0015 -1.520157,0.290502 -1.666657,0.414086 -0.163365,0.137816 -0.325492,0.120517 -0.402229,-0.04332 -0.148527,-0.317529 -1.219682,-1.317031 -1.411396,-1.317031 -0.154943,0 -0.06957,-0.146303 0.08818,-0.151093 0.730985,-0.02189 1.382369,-0.07853 1.657886,-0.144389 0.338305,-0.06 0.693718,-0.181712 0.89624,-0.359937 z m -11.484582,0.269182 c -0.112691,0.0065 -0.245521,0.107334 -0.509482,0.308373 -2.714732,2.067597 -3.0606,5.435092 -0.370766,3.609719 0.445378,-0.302221 0.518972,-0.166876 0.395005,0.724522 -0.114159,0.820708 0.06233,1.484031 0.464618,1.74762 0.286145,0.187478 0.223617,0.264541 -0.215036,0.264541 -1.488071,-0.347763 -1.900315,0.202815 -1.673362,-1.146852 0.275427,-1.638507 -2.318879,-0.136752 -3.673146,2.126124 -0.39694,0.663262 -0.395683,0.668623 0.268662,1.224727 0.632313,0.52929 1.000924,1.035183 1.236078,1.695536 0.188052,0.777759 0.297169,1.721238 0.199562,2.242152 -0.07981,1.567395 -2.812837,2.686345 -2.61962,3.320942 0.110592,0.599141 0.397522,1.125643 0.620876,1.64397 0.27035,0.628749 0.650296,1.103551 1.244829,1.554757 1.075676,0.816333 1.497944,0.380095 1.262891,-1.305172 -0.136712,-0.980207 -0.192893,-0.928502 0.589413,-0.542489 1.043604,0.514951 1.756677,0.77609 2.11942,0.77609 0.285416,0 0.323276,0.01753 0.278471,0.127887 -0.02854,0.07016 -0.0694,0.414462 -0.09076,0.76526 -0.02135,0.350798 -0.04194,0.637596 -0.04693,0.636857 -0.07116,-0.0069 -0.734447,-0.234747 -0.944204,-0.324358 -1.180394,-0.504303 -1.543776,0.532425 -0.749785,2.139016 0.295587,0.775139 0.906782,1.371308 1.558885,1.866225 h 5.09e-4 c 1.336634,-0.713066 2.322286,-0.90718 4.203783,-0.663157 0.05758,-0.0221 0.171018,-0.226058 0.251648,-0.453278 0.08062,-0.227218 0.233267,-0.642936 0.339313,-0.923572 0.106046,-0.280636 0.322987,-0.904008 0.482151,-1.3851 0.159174,-0.481103 0.336299,-0.967354 0.393977,-1.080854 0.348294,-0.813094 0.664918,-1.675817 0.86994,-2.417996 0.01274,-0.08018 0.124476,-0.370233 0.248553,-0.644593 0.155649,-0.510861 0.405333,-1.028155 0.555905,-1.469155 0.399027,-1.176442 0.577281,-1.14339 3.575682,0.659547 0.517825,0.311381 0.990775,0.607074 1.050948,0.656969 0.06013,0.04988 0.273442,0.180553 0.473899,0.290839 0.200446,0.110268 0.544768,0.317917 0.765261,0.461013 0.220505,0.143098 0.597428,0.360733 0.837969,0.483703 0.240542,0.12298 0.576073,0.312576 0.745664,0.421306 0.169592,0.10868 0.327627,0.197502 0.351177,0.197502 0.02352,0 0.147239,0.07679 0.274859,0.170689 0.441057,0.324644 1.254049,0.697911 1.366013,0.62706 0.0578,-0.03662 0.18423,-0.06683 0.280527,-0.06756 0.586333,-2.308596 -0.620102,-4.17808 0.398108,-5.962741 -0.239825,-4.940337 0.7212,-5.578826 -2.232361,-6.444378 -0.210115,0.172558 -0.673097,0.494655 -1.028765,0.716272 -0.355668,0.221608 -0.847538,0.54328 -1.093229,0.714724 -0.245691,0.171445 -0.594134,0.385895 -0.774542,0.476483 -0.79979,0.40161 -2.737563,1.688473 -3.616425,2.401494 -0.849584,0.689252 -1.469124,0.113665 -1.857972,-1.725445 -0.03597,-0.17039 -0.09506,-0.449454 -0.130984,-0.61984 -0.03596,-0.170387 -0.15149,-0.634989 -0.256288,-1.032896 -0.209019,-1.288256 -0.825978,-2.521285 -1.131396,-3.686555 -0.241746,-0.574619 -0.274285,-1.40177 -0.725559,-1.734212 -0.104938,-0.06669 -0.207153,-0.143692 -0.22741,-0.171204 -0.02026,-0.02752 -0.448062,-0.06128 -0.95039,-0.07477 -1.051747,-0.02827 -1.737667,-0.291432 -2.396854,-0.919448 -0.183831,-0.175134 -0.276635,-0.262809 -0.389337,-0.25629 z m -9.706022,2.693882 c -0.431578,0.06892 -0.761729,0.815362 -0.793103,2.132828 -0.01719,0.722426 -0.07051,0.767294 -0.460497,0.388819 -1.707151,-1.656722 -2.529193,0.129732 -1.127267,2.449967 0.289819,0.646582 0.536059,0.870248 1.036507,1.212358 0.482829,0.332127 0.572719,0.32393 1.199454,-0.109323 0.289967,-0.200456 0.564108,-0.364066 0.609012,-0.364066 0.04499,0 0.164014,-0.05408 0.264033,-0.119637 0.250161,-0.163905 0.333265,-0.04855 0.09179,0.127372 -0.446047,0.324913 -0.513704,0.40889 -0.568788,0.710083 -0.07289,0.398558 0.157637,0.912191 0.557442,1.241744 h 5.19e-4 c 0.309216,0.25489 0.396108,0.221384 0.78949,0.115512 0.321399,-0.116655 0.4105,0.0104 0.763175,-0.468749 0.403119,-0.753246 -0.227778,-1.748551 -1.110243,-1.751744 -0.110246,-3.99e-4 -0.200596,-0.03314 -0.200596,-0.07323 0,-0.08787 0.241959,-0.103952 1.204095,-0.07941 0.860701,0.02193 0.890328,0.003 1.137068,-0.725554 0.0877,-0.258988 0.200525,-0.569185 0.250618,-0.689456 0.379938,-0.913443 0.443135,-1.820611 0.179971,-2.587653 -0.08866,-0.495567 -0.470781,-0.793508 -0.901914,-0.801874 -0.299965,0 -0.469458,0.18829 -0.828689,0.920993 C 8.853813,59.956719 8.876722,58.777649 8.575641,58.105123 8.210194,57.28954 7.812934,56.933536 7.477253,56.987142 Z m 11.841429,2.011128 c 0.09496,-0.0046 0.204896,0.160282 0.395005,0.534755 0.700888,1.380553 1.393214,1.470799 1.796612,0.234632 0.173901,-0.532793 0.174211,-0.532939 0.223806,-0.02269 0.02731,0.280636 0.119518,0.719231 0.205237,0.974107 0.228907,1.335517 1.956983,5.180945 -0.472406,5.368685 -0.885558,-0.07514 -1.290452,-0.07699 -2.442228,-0.01083 -1.457109,0.08372 -2.091398,0.09331 -2.241121,0.03404 -0.07008,-0.02774 -0.226262,-0.05373 -0.346538,-0.05672 -0.488896,-0.01395 -0.412617,-0.12286 0.354791,-0.508971 1.759111,-0.885107 1.633975,-2.118905 -0.215036,-2.118905 -0.343195,0 -0.317569,-0.120596 0.118599,-0.549708 0.476682,-0.468953 0.967055,-1.361438 0.928736,-1.69038 -0.01527,-0.131097 -0.005,-0.238242 0.02268,-0.238242 0.02767,0 0.19918,-0.122967 0.381085,-0.273307 0.421289,-0.348201 0.755642,-0.794032 1.121589,-1.494424 0.06041,-0.115606 0.112173,-0.179307 0.169143,-0.182033 z m 11.317504,2.882619 c 0.07057,0.0072 0.01219,0.164735 -0.148516,0.474937 -0.60595,1.169655 -0.113819,1.616715 1.2206,1.108699 0.679084,-0.258523 0.744007,-0.247411 0.691518,0.117059 -0.02525,0.175278 -0.05611,0.760884 -0.06859,1.301561 -0.02232,0.962901 -0.02646,0.983948 -0.195437,1.031347 -0.09489,0.02664 -0.204925,0.04737 -0.244941,0.04537 -0.0401,-0.0019 -0.483288,-0.0291 -0.984429,-0.06033 -0.50114,-0.03123 -1.353878,-0.07337 -1.895094,-0.09333 -1.233761,-0.04547 -2.692059,-0.163599 -2.864055,-0.232054 -0.172914,-0.06887 -0.111087,-0.135179 0.779691,-0.835907 0.382222,-0.300684 0.687617,-0.592637 0.678636,-0.648719 -0.009,-0.05736 0.05181,-0.107494 0.139226,-0.114479 0.150192,-0.01237 0.995814,-0.635052 2.264842,-1.668206 0.356455,-0.290201 0.555974,-0.433158 0.626545,-0.425948 z M 2.848069,62.351665 c -0.106444,-0.0044 -0.211203,-0.0035 -0.313018,0.0031 -1.266323,0.08204 -1.433739,0.726406 -0.445539,1.714616 0.420382,0.420381 0.404066,0.442685 -0.490402,0.670892 C 0.352345,65.058352 -6.49e-4,65.270975 0,65.704069 c 6.49e-4,0.423571 0.717134,0.979548 1.42378,1.104574 1.15414,0.204187 1.190873,0.232185 0.708023,0.54249 -1.255455,0.806803 -1.410538,1.744529 -0.309406,1.868287 0.390665,0.0439 1.653675,-0.1645 1.954399,-0.322297 0.06769,-0.03553 0.237657,-0.113392 0.377991,-0.173266 1.646718,-0.703172 1.914573,-0.927018 1.706362,-1.425323 -0.05927,-0.1418 -0.101286,-0.395052 -0.0923,-0.563117 0.01901,-0.367293 0.0672,-0.360497 0.649239,0.09231 0.498825,0.383853 1.132955,0.309036 1.55579,-0.227931 0.175789,-0.236051 0.245571,-0.232965 0.351167,0.01547 0.04688,0.110256 0.150463,0.274371 0.229995,0.364581 0.07955,0.09025 0.130414,0.167179 0.11345,0.170173 -0.01701,0.0033 -0.09613,0.01447 -0.176357,0.02475 -1.397007,0.178942 -1.7738,2.002636 -0.464628,2.248855 0.925234,0.174011 1.223161,-0.697247 1.292797,-1.620765 0.118866,-0.625388 1.063846,-0.647842 1.095805,0.06446 0.01017,0.254013 0.06638,0.466873 0.157287,0.594573 1.468488,1.419718 3.037973,-1.572627 0.479576,-1.718747 -0.114838,0.05988 -0.221012,0.109323 -0.23618,0.109323 -0.05551,0 -0.0046,-1.100189 0.0526,-1.135515 0.28304,0.204375 0.40712,0.172893 0.719878,0.127374 0.97902,-0.03837 1.353927,-1.432191 0.554347,-2.06115 -0.672667,-0.52912 -1.896121,0.03725 -1.846626,0.854988 0.0171,0.282463 0.01743,0.282219 -0.434193,0.258868 -0.59122,-0.03061 -1.016441,0.15161 -1.305171,0.559507 -0.227839,0.32188 -0.370007,0.377884 -0.445548,0.174813 -0.224834,-0.604301 -1.135689,-0.990121 -1.650151,-0.698738 -0.370098,0.209628 -0.622395,0.541356 -0.667799,0.878193 -0.07212,0.534846 -0.09564,0.538877 -0.102622,0.01599 -0.0058,-0.478697 0.125094,-0.996106 0.358911,-1.416557 0.416239,-0.7485 -1.605706,-1.992906 -3.202341,-2.058571 z m 29.258837,4.426032 c 0.01217,0.02097 0.04509,0.251465 0.07323,0.512065 0.02811,0.260588 0.09772,0.638921 0.154703,0.841063 0.09131,0.323377 0.18464,0.980813 0.139236,0.980813 -0.0092,0 -0.274669,-0.08181 -0.590452,-0.182033 -1.320449,-0.419084 -2.102895,0.235642 -1.402116,1.173159 0.03263,0.04375 0.03779,0.101027 0.01135,0.127372 -0.07355,0.07354 -0.143556,0.05782 -0.235662,-0.05312 -0.04616,-0.05562 -0.407858,-0.320452 -0.80394,-0.588385 -0.5136,-0.340112 -1.020296,-0.799772 -1.510407,-1.071056 -0.852745,-0.707481 -2.82011,-1.511001 -1.042696,-1.514535 0.522526,2.99e-4 0.973323,-0.01357 1.001962,-0.03093 0.02872,-0.01736 0.675453,-0.05466 1.437182,-0.0825 0.761719,-0.02792 1.691175,-0.0727 2.065274,-0.100041 0.374109,-0.02734 0.690171,-0.03282 0.702345,-0.01187 z m -15.376374,0.274834 c 0.317918,-0.0068 0.95132,0.0224 1.856945,0.08869 1.519089,0.111204 2.675713,0.174017 3.332804,0.181002 0.94621,0.01 1.032658,0.21844 0.607974,1.466062 -0.384255,1.244984 -0.575381,2.504863 -1.063833,3.557636 -0.08943,0.226402 -0.220354,0.519941 -0.317135,0.702351 -0.07706,0 -0.152159,-0.254504 -0.153156,-0.520831 -0.004,-0.771069 -0.739766,-0.607734 -1.449556,0.321781 -0.775893,1.377762 -1.452032,-1.8731 -2.38345,-0.959155 -0.178104,0.288121 -0.328028,0.208525 -0.280528,-0.149028 -0.0465,-0.643367 -0.361272,-1.146765 -0.736893,-1.590341 -0.507935,-0.59506 -0.470524,-0.674534 0.320742,-0.675532 1.459505,-0.0023 2.066213,-0.572184 1.510927,-1.419651 -0.158705,-0.242199 -0.956718,-0.819617 -1.209253,-0.875099 -0.355628,-0.0781 -0.353494,-0.12106 -0.03558,-0.127888 z M 6.218514,68.590787 c -0.228742,2.08e-4 -0.415494,0.14442 -0.605919,0.230512 -1.746238,0.672048 -3.184908,4.161499 -1.540314,3.736058 0.456883,-0.01147 1.029494,-0.447797 1.028256,-0.0016 -0.07054,2.892403 0.997631,3.349719 2.300417,0.984422 0.228238,-0.414363 0.343664,-0.294554 0.717823,0.747213 0.0648,0.180408 0.213877,0.430135 0.331579,0.55538 0.71879,0.764862 1.703271,-0.934098 1.715644,-2.961002 0.01064,-1.74397 9.98e-4,-1.765776 -0.807543,-1.867771 -1.253591,-0.158095 -2.342579,-0.651027 -2.907374,-1.316 -0.05074,-0.05977 -0.140344,-0.09691 -0.232569,-0.107261 z m 24.378505,3.666959 c -0.187823,-0.01205 -0.365329,-0.0089 -0.524961,0.01289 -1.934002,0.263522 -2.215656,0.974007 -0.770421,1.943576 0.997511,0.669164 0.994108,0.629669 0.08252,0.986484 -2.21383,0.866548 -2.036525,2.168493 0.283103,2.078684 0.470733,-0.01826 1.031209,-0.02349 1.085494,-0.01032 0.01559,0.0038 -0.115924,0.147053 -0.291873,0.318172 -1.102868,1.07253 -1.44803,2.046674 -0.777116,2.192645 v -5.16e-4 c 0.561652,0.122193 1.203804,-0.03353 2.133859,-0.517221 0.281982,-0.146659 1.127016,-0.821991 1.639843,-1.310327 0.220493,-0.209967 0.424751,-0.382268 0.45379,-0.383146 0.231002,-0.0067 0.280077,-0.463154 0.07735,-0.719881 -0.33555,-0.424922 -0.531137,-0.804392 -0.531137,-1.030833 0,-0.115706 -0.05722,-0.253506 -0.12737,-0.305795 -0.233308,-0.174241 -0.168435,-1.415274 0.09643,-1.844567 0.30313,-0.491357 -1.514747,-1.325556 -2.829498,-1.409853 z m -6.043194,1.265981 c -0.393659,0.01782 -1.004448,0.392541 -1.756378,1.121075 -0.360415,0.272319 -0.51438,0.687168 -0.710608,1.017425 -0.253785,0.527121 -0.643898,1.176734 -0.40067,1.576932 0.145034,0.07636 0.329773,0.226948 0.82817,0.676048 0.26478,0.238705 0.26457,0.23903 0.04589,0.182549 -1.027328,-0.26494 -1.719175,0.215962 -1.649124,1.146344 0.162435,1.46025 2.201585,1.124336 2.268963,-0.033 0,-0.510579 0.216623,-0.118836 0.441417,0.798264 0.03931,0.160361 0.110946,0.368775 0.159344,0.463076 0.291453,0.568537 3.873541,-0.430622 4.438926,-1.238135 0.451515,-0.644895 0.116683,-0.922309 -1.486168,-1.231945 -0.431299,-0.08331 -0.519053,-0.18881 -0.304767,-0.366644 1.753125,-1.454972 1.439388,-3.003023 -0.442444,-2.182848 -0.200467,0.08735 -0.541655,0.177745 -0.758047,0.200596 -0.443283,0.04675 -0.429373,0.11693 -0.22277,-1.108699 0.117961,-0.699809 -0.05807,-1.03886 -0.451734,-1.021034 z M 13.678774,77.03392 c -0.838378,-0.0194 -1.724414,0.219337 -1.724414,0.624998 0,0.149283 0.457472,0.995443 0.621386,1.149437 0.225832,0.212172 0.07092,0.326369 -0.840034,0.618809 -0.220504,0.07079 -0.432177,0.157304 -0.470297,0.191831 -0.0381,0.03443 -0.133816,0.0624 -0.21245,0.0624 -0.215304,0 -0.731154,0.327929 -0.8421,0.53527 -0.250421,0.46791 0.838248,1.237276 2.126126,1.502676 0.526866,0.108549 0.525948,0.153863 -0.01805,0.804966 -0.594204,0.711237 -0.60108,1.064672 -0.0232,1.238135 0.929804,0.2791 3.270207,-0.194159 3.859301,-0.780217 0.273353,-0.271874 0.288161,-0.590894 0.0691,-1.51505 -0.285696,-1.20536 -0.206014,-1.743736 0.403777,-2.720181 0.109528,-0.17537 -0.06379,-0.417471 -0.430071,-0.600246 -0.109,-0.05439 -0.263733,-0.1529 -0.343963,-0.21916 -0.08017,-0.06615 -0.293489,-0.197589 -0.473899,-0.292388 -0.180418,-0.09475 -0.380785,-0.215462 -0.445547,-0.26815 -0.266966,-0.217281 -0.752639,-0.321488 -1.255666,-0.333126 z m 5.752349,0.231538 c -0.114647,-0.01529 -0.235871,-0.01559 -0.362523,0.0021 -1.131668,0.157716 -1.255685,1.577886 -0.184091,2.108076 0.287343,0.14219 0.286963,0.142363 0.03145,0.337251 -0.140533,0.107184 -0.255261,0.238268 -0.255261,0.291356 0,0.0532 -0.04915,0.137711 -0.109318,0.187705 -0.281293,0.02442 -0.530557,-0.609447 -0.905008,-0.727583 -0.895952,-0.06735 -1.687006,0.766196 -1.280423,1.656345 0.351557,0.70471 1.564083,0.851075 1.948729,0.235148 0.131503,-0.210555 0.315145,-0.174952 0.42131,0.08148 0.170121,0.290725 0.575522,0.423337 0.212972,0.578071 -1.042097,0.431627 -1.11151,1.800455 -0.107772,2.123542 1.151695,0.370697 1.957642,-0.758756 1.263918,-1.771337 -0.173663,-0.253473 -0.173523,-0.25405 0.11809,-0.392427 0.626858,0.08515 0.364902,0.302972 0.956059,0.68894 0.351777,0.308867 1.095325,0.388139 1.437182,0.153156 1.076245,-0.739775 0.47767,-2.09701 -0.912232,-2.06837 -0.492009,0.01017 -0.492468,0.01 -0.492468,-0.226896 0,-0.431369 -0.469159,-0.979736 -0.965849,-1.128811 -0.329872,-0.09899 -0.328525,-0.08441 -0.04436,-0.480094 0.495942,-0.690585 0.0321,-1.54055 -0.770412,-1.647578 z m 5.063916,4.146536 c -0.762299,-0.01736 -0.762438,-0.01731 -1.120042,0.70338 -0.243995,0.491739 -0.481193,0.846149 -0.746692,1.115919 -0.214018,0.21746 -0.409035,0.459079 -0.433683,0.536815 -1.267562,1.186303 0.03008,4.018112 1.360863,4.713266 0.88002,0.300914 1.117527,0.02146 1.073121,-1.263409 -0.0257,-0.743388 0.05532,-0.849484 0.508445,-0.663666 1.951575,0.800287 2.457704,0.848485 2.445331,0.234114 -0.01456,-0.721744 -0.370697,-1.703559 -0.89418,-2.46441 -0.218468,-0.317399 -0.224695,-0.341888 -0.08508,-0.341888 0.187844,0 1.047407,-0.236589 1.387677,-0.382111 1.607821,-0.68763 -0.687097,-2.124046 -3.49576,-2.18801 z m -7.849077,1.863131 c -0.239414,0.0041 -0.541646,0.255196 -1.143244,0.845188 -2.411851,2.36539 -2.413747,4.038772 -0.0031,2.893963 0.555955,-0.264082 0.556214,-0.264042 0.507418,0.01028 -0.224377,1.260655 -0.08383,2.644021 0.284139,2.793405 0.330411,0.134126 0.578566,-0.02884 1.583632,-1.04114 0.712803,-0.717932 0.754375,-0.711745 1.178837,0.178424 0.54416,1.141177 1.360195,0.646044 1.752776,-1.063841 0.210325,-0.916044 -0.122023,-3.068524 -0.474937,-3.076507 -0.289642,-0.02797 -0.593096,-0.08208 -0.840553,-0.08771 -0.718291,-0.01377 -1.795983,-0.551533 -2.430881,-1.212865 -0.149354,-0.155572 -0.270438,-0.241719 -0.414094,-0.239275 z"
       sodipodi:nodetypes="scsccssssccssssccssscccccsscsccccsscccssccscssscccsscscsccscsccssscccccccccccsscsccccscsccsccscsccccscccsccsscccccssscsccccccsssccccssssscsccccccssscccccscssscccccssccsccccsscsccccccccscccccsccsssssssssssscccsccsccssssssssscsscccccssccsccccsccsscscsccssssscssccscccccsssscccccccccccscsscsccssssccscssscscccsscssccssssscccscccsscccsscssscscccsccsscccsscsscscccccccsscccsssccssccsccccssssccccssssccccccc" /><rect
       style="display:inline;fill:#f2efe5;stroke:#241d15;stroke-width:1.32292;stroke-linecap:round;stroke-linejoin:round;stroke-dasharray:none;stroke-dashoffset:0;stroke-opacity:1;stop-color:#000000"
       id="rect8880"
       width="168.7988"
       height="74.613457"
       x="31.789766"
       y="28.839106" /><rect
       style="display:inline;fill:#f2efe5;stroke:#241d15;stroke-width:1.32292;stroke-linecap:round;stroke-linejoin:round;stroke-dasharray:10.5833, 2.64581, 1.32292, 2.64581;stroke-dashoffset:0;stroke-opacity:1;stop-color:#000000"
       id="rect10881"
       width="158.41403"
       height="64.790283"
       x="36.982151"
       y="33.75069" /><rect
       style="fill:none;stroke:none;stroke-width:11.3433;stroke-linecap:round;stroke-linejoin:round;stroke-dasharray:90.7455, 22.6861, 11.3433, 22.6861;stroke-dashoffset:0;stop-color:#000000"
       id="rect3460"
       width="231.51042"
       height="132.29167"
       x="-2.751465e-06"
       y="-2.6621792e-06" /></g></svg>
