<svg xmlns="http://www.w3.org/2000/svg" xml:space="preserve" width="875" height="287" viewBox="0 0 231.51 75.935"><path d="M190.597 17.48c-8.342 7.785 4.28-.268 8.404.131 2.707-.964 6.42 7.162 7.502 3.054.898-3.952 4.653-5.626 7.748-6.139 2.844-.272-4.156 2.368-2.866 5.828.385 3.37-1.127 6.238-2.837 8.27 1.716 3.055-1.82 7.622-1.482 8.723 2.986-1.604 6.536-1.807 7.236-6.29 3.327-1.611 4.266-5.749 3.726-8.938 2.609 1.652 2.787 6.348 1.714 8.819 1.92.73 5.89-3.869 3.96.801-.805 1.773 6.119-1.616 4.672.471-.69.734-4.948 2.445-3.504 3.418 1.398.941 6.625 1.359 6.64 2.54-.017 1.476-7.361 2.168-6.973 3.41.553.995 4.16 3.14 2.824 3.888-.687.393-6.718-5.729-3.34-.747 1.301 2.925-2.487-.375-3.615-1.3-2.265-1.229 1.321 7.864-2.576 9.799-.36-8.943-3.423-7.8-4.74-11.549-1.554-1.349-4.316-1.41-6.16-2.585-1.106.954 3.053 5.301 1.086 8.022 3.294 1.008 3.547 5.665 2.68 9.091-.682 3.327 3.688 5.12 3.688 5.12-3.915 1.885-7.1-2.39-8.514-6.474-1.825-.958-4.837 4.35-7.694 3.457-2.466 13.62 4.031-45.74-7.58-40.82zm15.418 35.011c2.681-2.436-2.782-2.392 0 0zm-.602-11.476c-1.648-4.097-2.187 2.309-3.918 3.138.414 2.223.044 4.715-1.904 2.375-1.232-1.832-1.37-4.862-2.874-1.142-1.58 1.552-1.54 6.617-1.54 6.617 7.621 3.445 11.31-6.772 10.236-10.988zm-10.084 3.604s2.793-8.922-.29-13.61zm23.233-5.185c3.225-1.377 1.56-3.569-2.91-2.798-2.132.513-4.77 1.767-1.207 2.623 1.357.396 2.682.496 4.117.175zm-16.943-.268c2.391-2.374-4.727-2.204-2.204.024.769.264 1.438.126 2.204-.024zm2.907-2.17c2.757-2.48 1.408-7.828-.81-10.197-2.451-2.052-6.085-3.015-9.034-2.546-.364 2.101 2.158 7.004 2.99 8.428.352-3.1 5.91-6.665 3.388-1.35.64 2.102 3.466 3.896 3.466 5.665zm1.016-11.298c3.013-2.68-3.253-2.578 0 0zM40.913 17.48c8.342 7.785-4.28-.268-8.404.131-2.707-.964-6.42 7.162-7.502 3.054-.898-3.952-4.653-5.626-7.748-6.139-2.844-.272 4.156 2.368 2.866 5.828-.385 3.37 1.127 6.238 2.837 8.27-1.716 3.055 1.82 7.622 1.482 8.723-2.986-1.604-6.536-1.807-7.236-6.29-3.327-1.611-4.266-5.749-3.726-8.938-2.609 1.652-2.787 6.348-1.714 8.819-1.92.73-5.89-3.869-3.96.801.805 1.773-6.119-1.616-4.672.471.69.734 4.948 2.445 3.504 3.418-1.398.941-6.625 1.359-6.64 2.54.017 1.476 7.361 2.168 6.973 3.41-.553.995-4.16 3.14-2.824 3.888.687.393 6.718-5.729 3.34-.748-1.301 2.926 2.487-.374 3.615-1.298 2.265-1.23-1.321 7.863 2.576 9.798.36-8.943 3.423-7.8 4.74-11.549 1.554-1.349 4.316-1.41 6.16-2.585 1.106.954-3.053 5.301-1.086 8.022-3.294 1.008-3.547 5.665-2.68 9.091.682 3.327-3.688 5.12-3.688 5.12 3.915 1.885 7.1-2.39 8.514-6.474 1.825-.958 4.837 4.35 7.694 3.457 2.466 13.62-4.031-45.74 7.58-40.82zM25.495 52.49c-2.681-2.436 2.782-2.392 0 0zm.602-11.476c1.648-4.097 2.187 2.309 3.918 3.138-.414 2.223-.044 4.715 1.904 2.375 1.232-1.832 1.37-4.862 2.874-1.142 1.58 1.552 1.54 6.617 1.54 6.617-7.621 3.445-11.31-6.772-10.236-10.988zm10.084 3.604s-2.793-8.922.29-13.61zm-23.233-5.185c-3.225-1.377-1.56-3.569 2.91-2.798 2.132.513 4.77 1.767 1.207 2.623-1.357.396-2.682.496-4.117.175zm16.943-.268c-2.391-2.374 4.727-2.204 2.204.024-.769.264-1.438.126-2.204-.024zm-2.907-2.17c-2.757-2.48-1.408-7.828.81-10.197 2.451-2.052 6.085-3.015 9.034-2.546.364 2.101-2.158 7.004-2.99 8.428-.352-3.1-5.91-6.665-3.388-1.35-.64 2.102-3.466 3.896-3.466 5.665zm-1.016-11.298c-3.013-2.68 3.253-2.578 0 0z" style="display:inline;fill:#241d15;fill-opacity:1;stroke:none;stroke-width:.0603136;stroke-opacity:1"/><path d="M31.79.661h168.799v74.613H31.79Z" style="display:inline;opacity:1;fill:#f2efe5;stroke:#241d15;stroke-width:1.05833143;stroke-linecap:round;stroke-linejoin:round;stroke-dasharray:none;stroke-dashoffset:0;stroke-opacity:1;stop-color:#000"/><path d="M36.982 5.573h158.414v64.789H36.982Z" style="display:inline;opacity:1;fill:#ebd0ca;fill-opacity:1;stroke:#241d15;stroke-width:1.05833143;stroke-linecap:round;stroke-linejoin:round;stroke-dasharray:8.46658276,2.11663902,1.05833143,2.11663902;stroke-dashoffset:0;stroke-opacity:1;stop-color:#000"/></svg>