<svg xmlns="http://www.w3.org/2000/svg" xml:space="preserve" width="875" height="385" viewBox="0 0 231.51 101.865"><path d="M213.78 63.526c.397 0 .81 1.208.727 2.126-.045.492-.037.498.44.27 1.017-.485 1.814-.165 1.63.656-.053.234-.123.572-.156.753-.12.66-.712 1.516-1.634 2.358-.36.327-.39.33-.785.076l-.43-.275a25.79 25.894 0 0 1-.427-.28c-.407-.271-1.182-.434-2.064-.432-.982 0-1.392-.825-1.392-2.8 0-2.056.837-2.52 1.786-.99.316.51.507.624.56.338.132-.682 1.215-1.8 1.745-1.8zm-7.064 1.948c1.238.522 2.014 1.76 2.565 2.608.609.943.606.906.096 1.223-.693.428-1.362 1.362-1.587 2.214-.14.535-.23.746-.37.888-.252.253-2.051.054-2.564-.283-1.5-.61-2.453-2.064-.45-2.295.796-.06.816-.084.418-.504-1.054-1.12-1.522-2.014-1.194-2.287.434-.376 1.666.236 2.51.32.023-.021.04-.385.04-.807 0-.745.205-1.13.536-1.077zm11.295 3.653c1.129-.01 1.778.51 1.217 1.249-.19.393-.427.615-.6.997-.166.295 2.403.625 2.452 1.335-.142.77-.827.885-1.415 1.064-.24.074-.552.154-.692.178-.64.11-.645.24-.041.858.766.783.786 1.116.086 1.457-.668.326-1.687.068-3.46-.874-.351-.154-1.427-.583-.921-1.021.533-.422.688-2.276.266-3.176-.127-.271-.23-.54-.23-.595 0-.305 1.138-1.004 2.077-1.275a4.745 4.764 0 0 1 1.26-.197zm-5.736.009c.959-.002 1.358 1.13.67 1.902-.333.377-.335.378-.752.365-1.612-.051-1.532-2.264.082-2.267zm-13.628 8.55c-.054-.2-.14-.531-.191-.736a3.11 3.11 0 0 0-.26-.662c-.288-.505.597-1.426 1.803-1.877.897-.335 2.58-.154 2.692.29.05.2.196.188.235-.02.039-.208.15-.32.594-.603.22-.14.417-.275.437-.3.587-.69 3.79-.787 3.79-.113 0 .09.047.2.104.249.084.07.097.06.065-.06-.1-.387.963-1.095 1.347-.898.363.186.655.02.8-.454.132-.427.138-.684.013-.482-.232.379-1.475.036-1.681-.464-.526-1.43 1.422-1.958 2.048-1.043.219.356.2.89-.04 1.172-.235.275-.118.326.287.127.592-.294 1.14-.217 1.596.222.302.292.303.292.37.082.356-1.115 2.243-.824 2.3.356-.107 1.12-1.51 1.74-2.252.74-.69-.065-.32.484-.363.672.57.122.933.432.982 1.004.35.657-.78 1.626-1.681 1.412-1.194-.2-1.021-1.36-.906-1.77.156-.263.155-.268.053-.424-.278-.183-.446-.125-.47.162-.027.338-.215.59-.56.753-.515.24-.81.216-1.137.09-.417-.03.27.646 1.033 1.017.367.179.396.334.166.88a8.777 8.777 0 0 0-.29.799c-.44 1.566-1.545 2.625-2.737 2.625-.47 0-.57-.761-.24-1.847.109-.354.182-.657.164-.674-.89.14-1.73.338-2.576.435-.734.17-.886.764-1.46 1.052-.33.12-.328.126.153.597.98.96.744 1.354-.81 1.348-1.824-.007-3.747-.873-3.514-1.582.218-.723.297-1.432.136-2.074zm4.196-2.522c-.04-.022-.134.067-.232.237-.076.13-.353.462-.615.735-.52.545-.52.633.007.635.358.002 1.52.292 1.668.416.163.139.325.12.402-.043.148-.32 1.22-1.322 1.411-1.322.155 0 .07-.147-.089-.152-.73-.022-1.382-.08-1.657-.146-.339-.06-.694-.181-.897-.361zm11.484.27c.113.006.246.107.51.31 2.714 2.076 3.06 5.456.37 3.624-.445-.303-.52-.168-.395.727.114.824-.063 1.49-.465 1.755-.286.187-.224.265.215.265 1.488-.35 1.9.204 1.673-1.15-.275-1.646 2.32-.138 3.673 2.134.398.665.397.67-.267 1.229-.633.532-1.001 1.04-1.236 1.702-.19.782-.298 1.728-.2 2.25.08 1.576 2.813 2.699 2.62 3.336-.111.602-.398 1.13-.621 1.65-.27.632-.65 1.109-1.245 1.562-1.076.819-1.498.38-1.263-1.31.137-.985.193-.933-.59-.546-1.043.517-1.756.78-2.12.78-.284 0-.322.017-.277.128.028.07.07.416.09.768.022.352.042.64.047.64.072-.008.735-.236.945-.326 1.18-.506 1.543.534.75 2.148-.296.778-.907 1.376-1.56 1.873-1.337-.716-2.322-.91-4.204-.665-.057-.023-.17-.227-.251-.455a67.426 67.426 0 0 0-.34-.928 45.04 45.22 0 0 1-.483-1.39c-.16-.483-.336-.971-.394-1.085a19.864 19.944 0 0 1-.87-2.43c-.013-.08-.124-.37-.248-.645-.156-.513-.406-1.033-.556-1.476-.4-1.18-.578-1.148-3.576.663-.518.312-.99.609-1.05.66-.06.05-.274.18-.475.29-.2.112-.545.32-.765.464-.22.144-.597.362-.838.486a11.4 11.4 0 0 0-.746.422c-.17.11-.327.199-.35.199-.024 0-.148.077-.276.17-.44.328-1.254.702-1.366.63a.637.64 0 0 0-.28-.066c-.587-2.32.62-4.196-.398-5.987.24-4.96-.722-5.602 2.232-6.471.21.173.673.497 1.03.72.354.222.846.545 1.092.717.246.172.594.387.775.478.8.403 2.737 1.695 3.616 2.41.85.694 1.47.116 1.858-1.731l.13-.622c.037-.171.152-.638.257-1.037.21-1.294.826-2.532 1.132-3.701.241-.578.274-1.408.725-1.742a1.3 1.305 0 0 0 .228-.17c.02-.03.448-.063.95-.077 1.052-.028 1.738-.292 2.397-.923.184-.176.276-.264.39-.257zm9.706 2.705c.432.07.762.818.793 2.14.017.726.07.77.46.392 1.708-1.664 2.53.13 1.128 2.46-.29.648-.536.873-1.036 1.217-.483.333-.573.325-1.2-.11-.29-.202-.564-.366-.61-.366-.045 0-.164-.054-.264-.12-.25-.164-.333-.05-.092.128.446.326.514.41.57.713.072.4-.159.915-.558 1.247-.31.256-.397.222-.79.115-.32-.116-.41.01-.764-.47-.403-.757.228-1.756 1.11-1.76.11 0 .201-.032.201-.072 0-.088-.242-.105-1.204-.08-.86.022-.89.003-1.137-.728-.088-.261-.2-.573-.25-.693-.38-.917-.444-1.827-.18-2.598.088-.497.47-.797.901-.805.3 0 .47.19.83.924.715 1.447.692.263.993-.412.365-.82.762-1.176 1.098-1.122zm-11.841 2.018c-.096-.004-.206.162-.396.537-.7 1.387-1.394 1.477-1.797.236-.174-.535-.174-.535-.224-.023-.027.282-.12.723-.205.979-.229 1.34-1.957 5.2.472 5.39.886-.076 1.29-.078 2.443-.01 1.457.083 2.091.093 2.24.032a1.29 1.29 0 0 1 .348-.056c.49-.014.413-.123-.354-.512-1.76-.887-1.634-2.126.215-2.126.343 0 .317-.12-.12-.553-.476-.47-.966-1.366-.928-1.696.016-.132.005-.24-.022-.24-.028 0-.2-.123-.382-.274-.42-.35-.755-.798-1.121-1.5-.06-.117-.112-.181-.17-.183zm-11.319 2.894c-.07.008-.012.166.15.477.605 1.175.113 1.624-1.22 1.114-.68-.26-.746-.248-.693.117.025.176.056.763.068 1.308.023.966.027.987.196 1.035.095.027.205.047.245.045l.984-.06a90.701 91.065 0 0 1 1.895-.094c1.235-.046 2.693-.164 2.865-.233.173-.07.11-.136-.78-.84-.382-.301-.687-.594-.678-.651.009-.057-.052-.108-.14-.114-.15-.013-.995-.64-2.264-1.676-.357-.291-.556-.435-.627-.428zm27.788.473c.107-.004.212-.003.313.003 1.267.083 1.434.73.446 1.722-.42.422-.404.445.49.673 1.247.32 1.6.533 1.6.969 0 .425-.718.984-1.424 1.108-1.155.205-1.19.233-.708.545 1.255.81 1.41 1.75.31 1.876-.39.044-1.655-.166-1.955-.323a6.953 6.98 0 0 0-.378-.175c-1.647-.706-1.915-.93-1.707-1.43a1.53 1.53 0 0 0 .093-.566c-.02-.37-.068-.361-.65.092-.499.386-1.133.312-1.555-.23-.176-.236-.246-.233-.352.017-.047.11-.15.276-.23.366-.08.09-.13.168-.113.17.017.005.096.016.176.026 1.397.18 1.774 2.01.465 2.259-.925.173-1.223-.701-1.293-1.63-.119-.626-1.064-.65-1.096.067-.01.255-.066.468-.157.596-1.468 1.426-3.038-1.578-.48-1.725.115.06.221.11.237.11.055 0 .005-1.105-.053-1.141-.283.206-.407.174-.72.128-.979-.04-1.354-1.437-.554-2.07.672-.531 1.896.038 1.846.86-.017.283-.017.283.435.26.59-.032 1.016.15 1.305.56.228.324.37.38.445.177.225-.607 1.136-.994 1.65-.702.37.21.623.543.668.88.072.538.096.543.103.017a2.93 2.942 0 0 0-.359-1.421c-.416-.752 1.606-2.001 3.202-2.068zm-29.258 4.444a4.321 4.338 0 0 0-.074.514 6.265 6.265 0 0 1-.154.845c-.092.325-.185.985-.14.985.01 0 .275-.083.59-.183 1.321-.42 2.104.237 1.403 1.177-.033.045-.038.102-.01.129.072.073.142.057.234-.054.046-.055.408-.321.804-.59.514-.342 1.02-.804 1.51-1.076.853-.71 2.82-1.517 1.043-1.52-.522 0-.973-.014-1.002-.031-.028-.018-.675-.055-1.437-.083a76.865 77.174 0 0 1-2.065-.1c-.374-.028-.69-.034-.702-.013zm15.376.276c-.318-.007-.95.022-1.857.09-1.52.11-2.676.174-3.333.18-.946.01-1.033.22-.608 1.473.384 1.25.576 2.515 1.064 3.572.09.227.22.522.317.705.077 0 .152-.256.153-.523.004-.774.74-.61 1.45.324.776 1.382 1.452-1.881 2.383-.964.178.29.328.21.28-.15.047-.646.362-1.151.738-1.595.508-.6.47-.678-.32-.68-1.46-.002-2.067-.574-1.512-1.425.16-.243.957-.823 1.21-.878.355-.08.353-.122.035-.13zm10.512 1.544c.23 0 .415.146.606.23 1.746.677 3.185 4.18 1.54 3.753-.457-.012-1.03-.45-1.028-.002.07 2.905-.998 3.364-2.3.99-.229-.417-.344-.297-.718.75-.065.18-.214.43-.332.557-.719.768-1.703-.938-1.716-2.972-.01-1.752 0-1.774.808-1.877 1.254-.158 2.343-.652 2.907-1.321a.363.363 0 0 1 .233-.108zm-24.379 3.682c.188-.012.366-.01.525.013 1.934.265 2.216.978.77 1.952-.996.672-.992.633-.081.99 2.214.87 2.037 2.178-.283 2.087-.47-.018-1.031-.024-1.085-.01-.016.003.116.148.292.32 1.102 1.076 1.448 2.054.777 2.2-.562.123-1.204-.034-2.134-.52-.282-.146-1.127-.824-1.64-1.314-.22-.21-.425-.385-.454-.386-.23-.007-.28-.464-.077-.722.335-.427.53-.808.53-1.035 0-.116.058-.255.128-.307.234-.175.169-1.421-.096-1.852-.303-.493 1.515-1.33 2.83-1.416zm6.044 1.27c.394.019 1.005.396 1.757 1.127.36.274.514.69.71 1.022.254.529.644 1.18.4 1.583-.144.076-.33.228-.827.679-.265.239-.264.24-.046.183 1.028-.266 1.72.216 1.65 1.15-.163 1.467-2.202 1.13-2.27-.032 0-.513-.216-.12-.441.8-.04.16-.111.37-.16.466-.29.57-3.873-.432-4.438-1.243-.452-.647-.117-.927 1.486-1.237.43-.083.519-.19.305-.368-1.754-1.461-1.44-3.015.442-2.192.2.088.542.179.758.2.443.049.43.12.223-1.112-.118-.702.058-1.043.452-1.024zm10.876 3.525c.838-.02 1.724.22 1.724.628 0 .15-.458 1-.622 1.154-.226.213-.07.328.84.622.22.07.432.158.47.192a.373.374 0 0 0 .212.063c.216 0 .732.33.843.537.25.47-.839 1.242-2.127 1.51-.526.108-.526.154.02.807.593.714.6 1.069.022 1.243-.93.28-3.27-.194-3.86-.783-.273-.273-.288-.593-.069-1.52.286-1.212.206-1.752-.403-2.732-.11-.177.063-.42.43-.602a2.18 2.189 0 0 0 .344-.221c.08-.066.293-.2.473-.293.18-.096.381-.217.446-.27.267-.218.753-.323 1.256-.335zm-5.753.233a1.34 1.34 0 0 1 .363.002c1.13.159 1.255 1.585.184 2.117-.287.142-.287.142-.032.338.14.109.256.24.256.293 0 .053.049.138.109.188.28.025.53-.611.905-.73.896-.068 1.687.77 1.28 1.663-.351.708-1.564.854-1.948.236-.132-.211-.315-.176-.422.082-.17.29-.575.425-.213.58 1.042.434 1.112 1.808.108 2.132-1.152.372-1.957-.761-1.264-1.777.174-.255.174-.256-.118-.395-.627.085-.365.304-.956.692-.352.31-1.095.39-1.437.154-1.076-.743-.478-2.106.912-2.078.492.01.493.01.493-.228 0-.431.469-.984.965-1.132.33-.1.329-.086.045-.482-.496-.694-.032-1.547.77-1.655zm-5.064 4.163c.763-.017.763-.017 1.12.707.244.494.482.85.747 1.12.214.218.41.46.434.54 1.267 1.19-.03 4.033-1.361 4.73-.88.302-1.118.022-1.073-1.268.026-.746-.055-.853-.51-.665-1.95.803-2.456.85-2.444.234.015-.724.37-1.71.894-2.474.219-.32.225-.343.085-.343-.188 0-1.047-.238-1.387-.384-1.608-.69.687-2.133 3.495-2.197zm7.85 1.87c.239.005.54.257 1.143.85 2.412 2.374 2.413 4.055.003 2.905-.556-.265-.557-.265-.508.01.225 1.265.084 2.655-.284 2.805-.33.135-.578-.028-1.583-1.045-.713-.721-.755-.714-1.18.18-.543 1.144-1.36.648-1.752-1.07-.21-.92.121-3.08.474-3.088.29-.03.593-.083.84-.088.72-.014 1.796-.554 2.431-1.218.15-.156.27-.243.414-.24zM17.73 63.526c-.396 0-.81 1.208-.726 2.126.044.492.036.498-.44.27-1.018-.485-1.815-.165-1.63.656.053.234.123.572.156.753.12.66.71 1.516 1.633 2.358.36.327.39.33.786.076l.43-.275c.064-.04.256-.165.426-.28.408-.271 1.182-.434 2.064-.432.982 0 1.393-.825 1.392-2.8 0-2.056-.836-2.52-1.786-.99-.315.51-.506.624-.561.338-.13-.682-1.214-1.8-1.744-1.8zm7.064 1.948c-1.237.522-2.014 1.76-2.564 2.608-.61.943-.606.906-.097 1.223.693.428 1.362 1.362 1.587 2.214.14.535.23.746.37.888.252.253 2.052.054 2.565-.283 1.5-.61 2.452-2.064.448-2.295-.795-.06-.814-.084-.417-.504 1.055-1.12 1.522-2.014 1.194-2.287-.434-.376-1.666.236-2.51.32-.022-.021-.04-.385-.04-.807 0-.745-.205-1.13-.536-1.077zM13.5 69.127c-1.128-.01-1.777.51-1.217 1.249.19.393.428.615.6.997.166.295-2.402.625-2.451 1.335.14.77.827.885 1.414 1.064.24.074.552.154.693.178.638.11.644.24.04.858-.766.783-.786 1.116-.086 1.457.668.326 1.686.068 3.46-.874.351-.154 1.426-.583.921-1.021-.533-.422-.689-2.276-.267-3.176.127-.271.231-.54.231-.595 0-.305-1.138-1.004-2.077-1.275a4.745 4.764 0 0 0-1.261-.197zm5.736.009c-.96-.002-1.358 1.13-.67 1.902.333.377.336.378.752.365 1.612-.051 1.532-2.264-.083-2.267zm13.628 8.55c.055-.2.14-.531.192-.736.05-.204.167-.502.259-.662.289-.505-.597-1.426-1.803-1.877-.896-.335-2.581-.154-2.692.29-.05.2-.196.188-.235-.02-.038-.208-.15-.32-.593-.603a5.132 5.153 0 0 1-.438-.3c-.586-.69-3.79-.787-3.79-.113 0 .09-.046.2-.103.249-.085.07-.097.06-.066-.06.1-.387-.963-1.095-1.346-.898-.363.186-.656.02-.801-.454-.131-.427-.138-.684-.013-.482.233.379 1.475.036 1.682-.464.526-1.43-1.422-1.958-2.05-1.043-.217.356-.2.89.04 1.172.237.275.12.326-.285.127-.593-.294-1.14-.217-1.597.222-.303.292-.303.292-.37.082-.357-1.115-2.244-.824-2.3.356.106 1.12 1.51 1.74 2.252.74.69-.065.32.484.362.672-.57.122-.933.432-.98 1.004-.35.657.78 1.626 1.68 1.412 1.193-.2 1.021-1.36.905-1.77-.155-.263-.155-.268-.052-.424.277-.183.446-.125.47.162.026.338.214.59.56.753.515.24.808.216 1.137.09.417-.03-.27.646-1.033 1.017-.367.179-.396.334-.167.88.107.252.237.612.29.799.44 1.566 1.546 2.625 2.737 2.625.471 0 .57-.761.24-1.847-.108-.354-.18-.657-.164-.674.89.14 1.73.338 2.577.435.734.17.886.764 1.46 1.052.33.12.328.126-.154.597-.98.96-.744 1.354.81 1.348 1.824-.007 3.748-.873 3.514-1.582-.218-.723-.297-1.432-.136-2.074zm-4.196-2.522c.04-.022.133.067.23.237.077.13.354.462.616.735.52.545.52.633-.008.635-.357.002-1.52.292-1.667.416-.163.139-.325.12-.402-.043-.15-.32-1.22-1.322-1.411-1.322-.155 0-.07-.147.088-.152.73-.022 1.382-.08 1.658-.146.338-.06.693-.181.896-.361zm-11.485.27c-.112.006-.245.107-.51.31-2.714 2.076-3.06 5.456-.37 3.624.445-.303.519-.168.395.727-.114.824.062 1.49.465 1.755.286.187.223.265-.215.265-1.488-.35-1.9.204-1.674-1.15.276-1.646-2.32-.138-3.673 2.134-.397.665-.396.67.269 1.229.632.532 1 1.04 1.236 1.702.188.782.297 1.728.2 2.25-.08 1.576-2.813 2.699-2.62 3.336.11.602.397 1.13.62 1.65.27.632.65 1.109 1.246 1.562 1.075.819 1.497.38 1.262-1.31-.136-.985-.192-.933.59-.546 1.043.517 1.756.78 2.12.78.285 0 .323.017.278.128-.03.07-.07.416-.091.768-.021.352-.042.64-.047.64-.072-.008-.735-.236-.945-.326-1.18-.506-1.543.534-.75 2.148.297.778.908 1.376 1.56 1.873 1.337-.716 2.323-.91 4.204-.665.058-.023.17-.227.252-.455.08-.228.233-.646.34-.928.105-.281.322-.908.48-1.39.16-.483.338-.971.395-1.085.349-.817.665-1.684.87-2.43.013-.08.125-.37.249-.645.155-.513.405-1.033.556-1.476.399-1.18.577-1.148 3.575.663.518.312.99.609 1.05.66.06.05.274.18.474.29.2.112.545.32.765.464.221.144.598.362.838.486.241.124.577.313.746.422.17.11.328.199.351.199.024 0 .148.077.275.17.441.328 1.254.702 1.366.63a.637.64 0 0 1 .28-.066c.588-2.32-.62-4.196.4-5.987-.24-4.96.72-5.602-2.233-6.471-.21.173-.673.497-1.028.72-.356.222-.848.545-1.094.717a7.907 7.939 0 0 1-.774.478c-.8.403-2.738 1.695-3.617 2.41-.85.694-1.47.116-1.857-1.731l-.131-.622a30.53 30.653 0 0 0-.257-1.037c-.21-1.294-.827-2.532-1.132-3.701-.242-.578-.274-1.408-.726-1.742a1.3 1.305 0 0 1-.227-.17c-.02-.03-.448-.063-.95-.077-1.052-.028-1.738-.292-2.397-.923-.183-.176-.276-.264-.39-.257zm-9.706 2.705c-.431.07-.761.818-.793 2.14-.017.726-.07.77-.46.392-1.707-1.664-2.53.13-1.128 2.46.29.648.536.873 1.037 1.217.483.333.573.325 1.2-.11.29-.202.563-.366.608-.366.045 0 .164-.054.264-.12.25-.164.334-.05.092.128-.446.326-.514.41-.57.713-.071.4.159.915.559 1.247.31.256.396.222.79.115.32-.116.41.01.763-.47.403-.757-.228-1.756-1.11-1.76-.11 0-.2-.032-.2-.072 0-.088.24-.105 1.203-.08.86.022.89.003 1.137-.728.088-.261.2-.573.25-.693.38-.917.444-1.827.18-2.598-.088-.497-.47-.797-.901-.805-.3 0-.47.19-.83.924-.714 1.447-.691.263-.992-.412-.366-.82-.763-1.176-1.1-1.122zm11.842 2.018c.095-.004.205.162.395.537.7 1.387 1.393 1.477 1.796.236.174-.535.175-.535.224-.023.027.282.12.723.205.979.23 1.34 1.957 5.2-.472 5.39-.886-.076-1.29-.078-2.442-.01-1.457.083-2.092.093-2.241.032a1.258 1.263 0 0 0-.347-.056c-.49-.014-.413-.123.355-.512 1.759-.887 1.634-2.126-.215-2.126-.343 0-.318-.12.118-.553.477-.47.967-1.366.93-1.696-.016-.132-.006-.24.022-.24.028 0 .199-.123.38-.274.421-.35.756-.798 1.122-1.5.06-.117.112-.181.17-.183zm11.317 2.894c.07.008.012.166-.148.477-.606 1.175-.114 1.624 1.22 1.114.68-.26.744-.248.692.117-.025.176-.056.763-.07 1.308-.021.966-.025.987-.194 1.035a1.106 1.11 0 0 1-.246.045l-.985-.06a90.702 91.066 0 0 0-1.895-.094c-1.233-.046-2.692-.164-2.864-.233-.173-.07-.11-.136.78-.84.383-.301.689-.594.68-.651-.01-.057.05-.108.138-.114.15-.013.996-.64 2.265-1.676.356-.291.556-.435.626-.428zm-27.788.473a2.959 2.97 0 0 0-.313.003c-1.266.083-1.434.73-.445 1.722.42.422.404.445-.49.673-1.248.32-1.6.533-1.6.969 0 .425.717.984 1.424 1.108 1.154.205 1.19.233.708.545-1.256.81-1.41 1.75-.31 1.876.39.044 1.654-.166 1.955-.323.067-.036.237-.115.378-.175 1.647-.706 1.914-.93 1.706-1.43a1.529 1.535 0 0 1-.092-.566c.019-.37.067-.361.65.092.498.386 1.132.312 1.555-.23.176-.236.245-.233.35.017.048.11.15.276.23.366.08.09.13.168.114.17a5.238 5.259 0 0 1-.176.026c-1.397.18-1.774 2.01-.464 2.259.925.173 1.223-.701 1.292-1.63.12-.626 1.064-.65 1.096.067.01.255.066.468.157.596 1.469 1.426 3.038-1.578.48-1.725-.115.06-.221.11-.236.11-.056 0-.005-1.105.052-1.141.283.206.408.174.72.128.98-.04 1.354-1.437.555-2.07-.673-.531-1.897.038-1.847.86.017.283.017.283-.434.26-.591-.032-1.017.15-1.305.56-.228.324-.37.38-.446.177-.225-.607-1.136-.994-1.65-.702-.37.21-.622.543-.668.88-.072.538-.096.543-.102.017a2.933 2.945 0 0 1 .358-1.421c.417-.752-1.605-2.001-3.202-2.068zm29.259 4.444c.012.02.045.253.073.514.028.26.098.643.155.845.09.325.184.985.14.985-.01 0-.276-.083-.591-.183-1.32-.42-2.103.237-1.402 1.177.032.045.037.102.01.129-.073.073-.143.057-.235-.054-.046-.055-.408-.321-.804-.59-.513-.342-1.02-.804-1.51-1.076-.853-.71-2.82-1.517-1.043-1.52.523 0 .973-.014 1.002-.031.029-.018.676-.055 1.437-.083a76.864 77.173 0 0 0 2.066-.1c.374-.028.69-.034.702-.013zm-15.377.277c.317-.007.95.022 1.856.09 1.52.11 2.676.174 3.333.18.946.01 1.033.22.608 1.473-.384 1.25-.575 2.515-1.064 3.572-.09.227-.22.522-.317.705-.077 0-.152-.256-.153-.523-.004-.774-.74-.61-1.45.324-.775 1.382-1.451-1.881-2.383-.964-.178.29-.328.21-.28-.15-.047-.646-.362-1.151-.737-1.595-.508-.6-.47-.678.32-.68 1.46-.002 2.067-.574 1.51-1.425-.157-.243-.955-.823-1.208-.878-.356-.08-.353-.122-.035-.13zM6.219 89.788c-.23 0-.416.146-.606.23-1.747.677-3.185 4.18-1.54 3.753.456-.012 1.029-.45 1.028-.002-.071 2.905.997 3.364 2.3.99.228-.417.344-.297.718.75.065.18.214.43.33.557.72.768 1.705-.938 1.717-2.972.01-1.752 0-1.774-.808-1.877-1.253-.158-2.342-.652-2.907-1.321a.362.363 0 0 0-.232-.108zm24.378 3.682a2.665 2.676 0 0 0-.525.013c-1.934.265-2.216.978-.77 1.952.997.672.994.633.082.99-2.214.87-2.036 2.178.283 2.087.47-.018 1.03-.024 1.086-.01.015.003-.116.148-.292.32-1.103 1.076-1.448 2.054-.777 2.2.56.123 1.204-.034 2.134-.52.282-.146 1.127-.824 1.64-1.314.22-.21.424-.385.453-.386.23-.007.28-.464.078-.722-.336-.427-.532-.808-.532-1.035 0-.116-.057-.255-.127-.307-.233-.175-.168-1.421.097-1.852.303-.493-1.515-1.33-2.83-1.416zm-6.043 1.272c-.394.018-1.005.395-1.757 1.126-.36.274-.514.69-.71 1.022-.254.529-.644 1.18-.4 1.583.144.076.329.228.827.679.265.239.265.24.046.183-1.027-.266-1.72.216-1.65 1.15.164 1.467 2.203 1.13 2.27-.032 0-.513.217-.12.44.8.04.16.112.37.16.466.292.57 3.874-.432 4.44-1.243.45-.647.116-.927-1.486-1.237-.432-.083-.52-.19-.305-.368 1.753-1.461 1.44-3.015-.443-2.192a3.01 3.01 0 0 1-.758.2c-.443.049-.43.12-.222-1.112.118-.702-.06-1.043-.452-1.024zm-10.875 3.524c-.84-.02-1.725.22-1.725.628 0 .15.458 1 .622 1.154.226.213.07.328-.84.622-.22.07-.432.158-.47.192a.373.374 0 0 1-.213.063c-.215 0-.731.33-.842.537-.25.47.838 1.242 2.126 1.51.527.108.526.154-.018.807-.594.714-.601 1.069-.023 1.243.93.28 3.27-.194 3.859-.783.273-.273.288-.593.07-1.52-.287-1.212-.207-1.752.403-2.732.11-.177-.064-.42-.43-.602a2.18 2.189 0 0 1-.344-.221 3.597 3.611 0 0 0-.474-.293 3.708 3.723 0 0 1-.446-.27c-.267-.218-.752-.323-1.255-.335zm5.752.233a1.337 1.342 0 0 0-.362.002c-1.132.159-1.256 1.585-.184 2.117.287.142.286.142.03.338-.14.109-.254.24-.254.293 0 .053-.05.138-.11.188-.28.025-.53-.611-.905-.73-.896-.068-1.687.77-1.28 1.663.352.708 1.564.854 1.949.236.13-.211.315-.176.42.082.17.29.577.425.214.58-1.042.434-1.112 1.808-.108 2.132 1.152.372 1.958-.761 1.264-1.777-.174-.255-.173-.256.118-.395.627.085.365.304.956.692.352.31 1.096.39 1.437.154 1.077-.743.478-2.106-.912-2.078-.492.01-.492.01-.492-.228 0-.431-.47-.984-.966-1.132-.33-.1-.33-.086-.044-.482.495-.694.032-1.547-.77-1.655zm5.064 4.163c-.762-.017-.762-.017-1.12.707-.244.494-.481.85-.747 1.12-.214.218-.41.46-.433.54-1.268 1.19.03 4.033 1.36 4.73.88.302 1.118.022 1.074-1.268-.026-.746.055-.853.508-.665 1.952.803 2.458.85 2.445.234-.014-.724-.37-1.71-.894-2.474-.218-.32-.224-.343-.085-.343.188 0 1.048-.238 1.388-.384 1.608-.69-.687-2.133-3.496-2.197zm-7.85 1.87c-.24.005-.541.257-1.142.85-2.412 2.374-2.414 4.055-.003 2.905.556-.265.556-.265.507.01-.224 1.265-.084 2.655.284 2.805.33.135.579-.028 1.584-1.045.713-.721.754-.714 1.179.18.544 1.144 1.36.648 1.752-1.07.21-.92-.122-3.08-.475-3.088-.29-.03-.593-.083-.84-.088-.718-.014-1.796-.554-2.43-1.218-.15-.156-.271-.243-.415-.24z" style="fill:#241d15;fill-opacity:1;stroke-width:.0730391" transform="translate(0 -36.402)"/><path d="M31.406.264H200.21V101.6H31.405Z" style="display:inline;fill:#f2efe5;stroke:#241d15;stroke-width:.529168;stroke-linecap:round;stroke-linejoin:round;stroke-dasharray:none;stroke-dashoffset:0;stroke-opacity:1;stop-color:#000"/><path d="M33.38 38.61v70.824h164.75V38.609Z" style="display:inline;fill:#f2dea0;fill-opacity:1;stroke:none;stroke-width:.529049;stroke-linecap:round;stroke-linejoin:round;stroke-dasharray:none;stroke-dashoffset:0;stroke-opacity:1;stop-color:#000" transform="matrix(1.01176 0 0 1.40092 -1.31 -52.766)"/><path d="M36.432 4.63h158.75v92.605H36.433Z" style="display:inline;fill:#f2efe5;stroke:none;stroke-width:.632042;stroke-linecap:round;stroke-linejoin:round;stroke-dasharray:none;stroke-dashoffset:0;stroke-opacity:1;stop-color:#000"/><path d="M37.914 43.23v115.987h155.674V43.23Z" style="display:inline;fill:#f2efe5;stroke:#241d15;stroke-width:.602432;stroke-linecap:round;stroke-linejoin:round;stroke-dasharray:4.81946,1.20487,.602432,1.20487;stroke-dashoffset:0;stroke-opacity:1;stop-color:#000" transform="matrix(1.00398 0 0 .7784 -.404 -27.86)"/></svg>