<?xml version="1.0" encoding="UTF-8" standalone="no"?>
<!-- Created with Inkscape (http://www.inkscape.org/) -->

<svg
   width="226.5"
   height="90"
   viewBox="0 0 59.928124 23.8125"
   version="1.1"
   id="svg825"
   xmlns="http://www.w3.org/2000/svg"
   xmlns:svg="http://www.w3.org/2000/svg">
  <defs
     id="defs822" />
  <g
     id="layer1">
    <g
       id="g1258"
       transform="matrix(0.89658745,0,0,0.89668359,-70.63026,-127.17996)">
      <path
         d="m 94.484904,159.74546 c -3.462866,2.24554 -7.058377,2.12426 -7.058377,2.12426 0,0 -0.09913,-0.4589 -0.05927,-1.2499 0.03951,-0.79166 0.471311,-0.56843 0.78352,-1.19337 0.113241,-0.22737 0.210961,-0.38379 0.388761,-0.91571 0.0063,-0.0221 -0.207434,-3.81166 -0.262114,-5.41983 -0.02963,-0.86677 -0.192264,-2.31232 -0.383117,-3.71863 -0.112889,-0.83368 -0.36583,-1.49377 -0.483305,-2.28476 -0.168981,-1.1424 -0.365831,-2.43089 -0.365831,-2.43089 -0.140758,0.36382 -0.342547,1.72462 -0.545394,3.26115 -0.09701,0.73723 -0.194734,1.51447 -0.28575,2.24137 -0.19297,1.53928 -0.673806,5.65962 -0.746125,5.88285 -0.109714,0.33969 -0.121709,-0.0896 -0.121709,-0.0896 0,0 0.284692,-4.32153 0.371122,-6.21704 0.04127,-0.92671 0.111478,-1.94507 0.227189,-2.92212 0.08678,-0.73311 0.19932,-1.44417 0.344311,-2.07462 0,0 0.494948,-1.49518 0.652639,-1.52552 0.158045,-0.0289 0.729192,0.94259 0.922161,1.80799 0.436034,1.95202 0.694267,2.20211 1.026584,4.25401 0.316441,1.94856 0.605014,3.57946 0.644878,3.84612 0.141111,0.96739 0.07126,3.98459 -0.172862,5.18626 -0.05786,0.32794 -0.07514,0.44852 -0.28963,0.66558 -0.502003,0.50779 -0.858308,1.11277 -0.858308,1.50827 0,0.39617 -0.06632,0.38858 0.02787,0.61736 0,0 0.661811,0.99081 4.465814,-1.27607 0,0 1.188508,-0.62286 1.188508,-1.99746 v -13.90304 c 0,0 -3.771547,-1.27537 -6.677025,-1.27537 -2.905125,0 -6.542969,1.27261 -6.542969,1.27261 v 13.84307 c 0,0.85165 0.123825,2.45015 1.340555,2.99519 0,0 -3.240263,-1.10864 -3.240263,-3.0124 v -15.00131 c 0,0 4.945944,-0.9102 8.444441,-0.9102 3.49885,0 8.532989,0.9102 8.532989,0.9102 0,0 0,13.72524 0,15.01923 0,1.29399 -1.269295,1.98229 -1.269295,1.98229"
         style="fill:#231f20;fill-opacity:1;fill-rule:nonzero;stroke:none;stroke-width:0.0352778"
         id="path18" />
      <path
         d="m 141.4876,148.12655 c -0.34572,0.19294 -0.81068,0.28868 -1.39453,0.28868 -0.58808,0 -1.04528,-0.17777 -1.3716,-0.53396 -0.32632,-0.35624 -0.4893,-0.85373 -0.4893,-1.49173 0,-0.64286 0.16298,-1.15548 0.4893,-1.53585 0.3168,-0.36653 0.73766,-0.54984 1.26224,-0.54984 0.23213,0 0.43251,0.0255 0.60149,0.0765 v -1.61434 h 0.9024 z m -0.9024,-0.38033 v -2.87803 c -0.11924,-0.0345 -0.2533,-0.0517 -0.40146,-0.0517 -0.70168,0 -1.0534,0.50712 -1.0534,1.52065 0,0.99906 0.32879,1.49863 0.98707,1.49863 0.21767,0 0.37324,-0.0296 0.46779,-0.0896"
         style="fill:#231f20;fill-opacity:1;fill-rule:nonzero;stroke:none;stroke-width:0.0352778"
         id="path20" />
      <path
         d="m 145.6151,146.31581 -2.44863,0.35483 c 0.0737,0.7414 0.4378,1.11209 1.09079,1.11209 0.38594,0 0.72178,-0.0731 1.00895,-0.21844 l 0.21448,0.56985 c -0.34113,0.18739 -0.78069,0.28109 -1.32009,0.28109 -0.57326,0 -1.02694,-0.18052 -1.35819,-0.54155 -0.33091,-0.36036 -0.49671,-0.87436 -0.49671,-1.54203 0,-0.64766 0.15204,-1.15273 0.45614,-1.51585 0.30444,-0.36378 0.72107,-0.545 1.24989,-0.545 0.53446,0 0.9398,0.17363 1.21743,0.52228 0.27693,0.34795 0.40535,0.85507 0.38594,1.52273 z m -0.84596,-0.35486 c 0,-0.75653 -0.26246,-1.13481 -0.78775,-1.13481 -0.27693,0 -0.49001,0.11095 -0.63888,0.33419 -0.16263,0.24182 -0.24024,0.59323 -0.23001,1.05283 l 1.65664,-0.25221"
         style="fill:#231f20;fill-opacity:1;fill-rule:nonzero;stroke:none;stroke-width:0.0352778"
         id="path22" />
      <path
         d="m 100.11065,159.00823 h -1.418871 v -8.7733 h 1.418871 v 8.7733"
         style="fill:#231f20;fill-opacity:1;fill-rule:nonzero;stroke:none;stroke-width:0.0352778"
         id="path24" />
      <path
         d="m 106.6568,155.87937 c 0,0.96877 -0.21273,1.7398 -0.63959,2.31306 -0.46531,0.62011 -1.12042,0.93017 -1.96533,0.93017 -0.8449,0 -1.50001,-0.31006 -1.96497,-0.93017 -0.42651,-0.57326 -0.63958,-1.34429 -0.63958,-2.31306 0,-0.97631 0.21307,-1.75147 0.63958,-2.32473 0.46496,-0.62012 1.12007,-0.93017 1.96497,-0.93017 0.85267,0 1.50778,0.31005 1.96533,0.93017 0.42686,0.57326 0.63959,1.34842 0.63959,2.32473 z m -1.40794,-0.011 c 0,-1.56546 -0.39899,-2.34887 -1.19698,-2.34887 -0.79763,0 -1.19662,0.78341 -1.19662,2.34887 0,1.52685 0.39899,2.29097 1.19662,2.29097 0.79799,0 1.19698,-0.76412 1.19698,-2.29097"
         style="fill:#231f20;fill-opacity:1;fill-rule:nonzero;stroke:none;stroke-width:0.0352778"
         id="path26" />
      <path
         d="m 111.52125,157.20437 c 0,0.52709 -0.20497,0.97635 -0.6163,1.34842 -0.41134,0.37208 -0.95003,0.5581 -1.61714,0.5581 -0.71367,0 -1.29116,-0.15089 -1.73355,-0.45269 l 0.37218,-0.90607 c 0.30304,0.24116 0.69427,0.36107 1.17616,0.36107 0.28681,0 0.51929,-0.0827 0.6978,-0.24945 0.1785,-0.16673 0.2674,-0.37825 0.2674,-0.63387 0,-0.26392 -0.0695,-0.47061 -0.20884,-0.6222 -0.1397,-0.15159 -0.37606,-0.28871 -0.70944,-0.41271 -0.9532,-0.36449 -1.4298,-0.95017 -1.4298,-1.75631 0,-0.51195 0.18379,-0.94121 0.55174,-1.29053 0.36795,-0.34935 0.84702,-0.52366 1.43545,-0.52366 0.635,0 1.17687,0.14746 1.62666,0.44235 l -0.34854,0.82543 c -0.28611,-0.23287 -0.61878,-0.35003 -0.99801,-0.35003 -0.27834,0 -0.49742,0.0799 -0.65582,0.23841 -0.15839,0.15846 -0.23777,0.35486 -0.23777,0.58705 0,0.41067 0.30939,0.73999 0.92957,0.98806 0.99907,0.40305 1.49825,1.01904 1.49825,1.84863"
         style="fill:#231f20;fill-opacity:1;fill-rule:nonzero;stroke:none;stroke-width:0.0352778"
         id="path28" />
      <path
         d="m 121.98852,159.00823 h -1.65524 l -0.66992,-2.23587 h -2.80529 l -0.69532,2.23587 h -1.4404 l 2.88114,-8.69749 h 1.51659 z m -2.5527,-3.17154 -0.89712,-3.06271 c -0.12664,-0.42993 -0.20214,-0.78067 -0.22754,-1.05075 h -0.0247 c -0.0423,0.22807 -0.12312,0.57809 -0.2406,1.05075 l -0.93556,3.06271 h 2.32551"
         style="fill:#231f20;fill-opacity:1;fill-rule:nonzero;stroke:none;stroke-width:0.0352778"
         id="path30" />
      <path
         d="m 127.82487,159.00823 h -1.41922 v -4.44211 c 0,-0.6973 -0.37536,-1.04662 -1.12713,-1.04662 -0.3563,0 -0.68121,0.0586 -0.97613,0.17431 v 5.31442 h -1.41888 v -5.93041 c 0.64312,-0.30176 1.46086,-0.45335 2.45287,-0.45335 0.8763,0 1.52365,0.1936 1.94204,0.58152 0.36407,0.32589 0.54645,0.7717 0.54645,1.33738 v 4.46486"
         style="fill:#231f20;fill-opacity:1;fill-rule:nonzero;stroke:none;stroke-width:0.0352778"
         id="path32" />
      <path
         d="m 134.22144,158.66921 c -0.54293,0.3018 -1.27282,0.45339 -2.18687,0.45339 -0.92322,0 -1.64077,-0.27905 -2.15265,-0.83714 -0.51188,-0.55813 -0.768,-1.33671 -0.768,-2.33715 0,-1.00736 0.25612,-1.80937 0.768,-2.40676 0.49671,-0.57326 1.1557,-0.8599 1.97732,-0.8599 0.36477,0 0.6791,0.0393 0.94262,0.11783 v -2.53629 h 1.41958 z m -1.41958,-0.59253 v -4.51033 c -0.18591,-0.0537 -0.39546,-0.0806 -0.6283,-0.0806 -1.10101,0 -1.6517,0.79375 -1.6517,2.38192 0,1.56616 0.51576,2.34819 1.54728,2.34819 0.34114,0 0.58526,-0.0462 0.73272,-0.13917"
         style="fill:#231f20;fill-opacity:1;fill-rule:nonzero;stroke:none;stroke-width:0.0352778"
         id="path34" />
      <path
         d="m 140.67868,155.8339 -3.83822,0.55813 c 0.11642,1.16304 0.68651,1.74459 1.70921,1.74459 0.60466,0 1.13171,-0.11645 1.58186,-0.34865 l 0.3369,0.89366 c -0.53446,0.29351 -1.22485,0.44097 -2.0694,0.44097 -0.89958,0 -1.60831,-0.28318 -2.12795,-0.84885 -0.51929,-0.56572 -0.77929,-1.37118 -0.77929,-2.4178 0,-1.01491 0.23848,-1.80728 0.71544,-2.37642 0.4766,-0.56981 1.12959,-0.85506 1.95932,-0.85506 0.83785,0 1.4732,0.27354 1.90747,0.81992 0.43392,0.54639 0.63571,1.34359 0.60466,2.38951 z m -1.3282,-0.5581 c 0,-1.18579 -0.41064,-1.77905 -1.23261,-1.77905 -0.43427,0 -0.76729,0.17501 -0.99977,0.52299 -0.25647,0.38033 -0.37606,0.93084 -0.36125,1.65156 l 2.59363,-0.3955"
         style="fill:#231f20;fill-opacity:1;fill-rule:nonzero;stroke:none;stroke-width:0.0352778"
         id="path36" />
      <path
         d="m 145.55478,157.20437 c 0,0.52709 -0.20567,0.97635 -0.6163,1.34842 -0.41134,0.37208 -0.95039,0.5581 -1.61749,0.5581 -0.71332,0 -1.29081,-0.15089 -1.7339,-0.45269 l 0.37253,-0.90607 c 0.30268,0.24116 0.69462,0.36107 1.17546,0.36107 0.28751,0 0.52034,-0.0827 0.69814,-0.24945 0.17851,-0.16673 0.26811,-0.37825 0.26811,-0.63387 0,-0.26392 -0.0702,-0.47061 -0.20919,-0.6222 -0.1397,-0.15159 -0.37606,-0.28871 -0.70944,-0.41271 -0.9532,-0.36449 -1.42981,-0.95017 -1.42981,-1.75631 0,-0.51195 0.18415,-0.94121 0.55175,-1.29053 0.3683,-0.34935 0.84631,-0.52366 1.4351,-0.52366 0.63535,0 1.17722,0.14746 1.62665,0.44235 l -0.34819,0.82543 c -0.28645,-0.23287 -0.61877,-0.35003 -0.99836,-0.35003 -0.27834,0 -0.49671,0.0799 -0.65546,0.23841 -0.15875,0.15846 -0.23777,0.35486 -0.23777,0.58705 0,0.41067 0.30974,0.73999 0.92922,0.98806 0.99906,0.40305 1.49895,1.01904 1.49895,1.84863"
         style="fill:#231f20;fill-opacity:1;fill-rule:nonzero;stroke:none;stroke-width:0.0352778"
         id="path38" />
      <path
         d="m 106.17843,148.35462 h -0.90346 v -2.83393 c 0,-0.44514 -0.24025,-0.66767 -0.72002,-0.66767 -0.22755,0 -0.43533,0.0372 -0.62301,0.11091 v 3.39069 h -0.90311 v -3.78273 c 0.40993,-0.19293 0.93133,-0.28868 1.56316,-0.28868 0.55844,0 0.97155,0.12401 1.23754,0.37067 0.23213,0.20673 0.3489,0.49128 0.3489,0.85301 v 2.84773"
         style="fill:#231f20;fill-opacity:1;fill-rule:nonzero;stroke:none;stroke-width:0.0352778"
         id="path40" />
      <path
         d="m 108.12612,143.21867 c 0,0.124 -0.0483,0.22945 -0.14429,0.31556 -0.097,0.0868 -0.21414,0.13021 -0.35243,0.13021 -0.13899,0 -0.25611,-0.0434 -0.35277,-0.13021 -0.0967,-0.0861 -0.14464,-0.19156 -0.14464,-0.31556 0,-0.12403 0.048,-0.23015 0.14464,-0.31901 0.0967,-0.0889 0.21378,-0.13367 0.35277,-0.13367 0.13829,0 0.25542,0.0434 0.35243,0.12954 0.096,0.0868 0.14429,0.19427 0.14429,0.32314 z m -0.0476,5.13595 h -0.90276 v -3.99976 h 0.90276 v 3.99976"
         style="fill:#231f20;fill-opacity:1;fill-rule:nonzero;stroke:none;stroke-width:0.0352778"
         id="path42" />
      <path
         d="m 112.19752,144.35486 -1.28375,3.99976 h -0.86043 l -1.30598,-3.99976 h 0.96449 l 0.7052,2.58174 c 0.0543,0.19293 0.0861,0.3762 0.0967,0.54917 h 0.0145 c 0.0247,-0.14334 0.0593,-0.32661 0.10407,-0.54917 l 0.71967,-2.58174 h 0.8456"
         style="fill:#231f20;fill-opacity:1;fill-rule:nonzero;stroke:none;stroke-width:0.0352778"
         id="path44" />
      <path
         d="m 115.98706,146.32753 -2.44792,0.35553 c 0.0737,0.74136 0.43779,1.11139 1.09008,1.11139 0.38629,0 0.72249,-0.0731 1.00965,-0.21844 l 0.2152,0.57051 c -0.34149,0.18743 -0.78141,0.28113 -1.3208,0.28113 -0.57433,0 -1.02659,-0.18052 -1.35785,-0.54159 -0.33196,-0.36032 -0.49741,-0.87436 -0.49741,-1.54202 0,-0.64767 0.1524,-1.15341 0.45614,-1.51652 0.30445,-0.36312 0.72108,-0.54431 1.25024,-0.54431 0.53411,0 0.9398,0.17361 1.21709,0.52159 0.27693,0.34861 0.40569,0.85573 0.38558,1.52273 z m -0.84455,-0.35416 c 0,-0.75723 -0.26317,-1.13552 -0.78846,-1.13552 -0.27728,0 -0.49036,0.11162 -0.63852,0.33419 -0.16405,0.24253 -0.2406,0.59393 -0.23037,1.0535 l 1.65735,-0.25217"
         style="fill:#231f20;fill-opacity:1;fill-rule:nonzero;stroke:none;stroke-width:0.0352778"
         id="path46" />
      <path
         d="m 118.73696,144.28734 -0.1785,0.66213 c -0.13406,-0.0448 -0.2727,-0.0668 -0.41663,-0.0668 -0.17321,0 -0.31715,0.0324 -0.4311,0.0964 v 3.37552 h -0.90311 v -3.78548 c 0.44027,-0.21223 1.08374,-0.3066 1.92934,-0.2818"
         style="fill:#231f20;fill-opacity:1;fill-rule:nonzero;stroke:none;stroke-width:0.0352778"
         id="path48" />
      <path
         d="m 121.62022,147.20534 c 0,0.33624 -0.13053,0.62354 -0.39335,0.86057 -0.26211,0.23841 -0.60607,0.3569 -1.03117,0.3569 -0.45614,0 -0.82479,-0.0965 -1.10666,-0.29005 l 0.23777,-0.5788 c 0.19297,0.15434 0.44274,0.23153 0.74965,0.23153 0.18309,0 0.33197,-0.0538 0.44591,-0.15985 0.1136,-0.10611 0.17039,-0.24116 0.17039,-0.40446 0,-0.16813 -0.0445,-0.30042 -0.13335,-0.39687 -0.0892,-0.0965 -0.23953,-0.18468 -0.45261,-0.26321 -0.60784,-0.2329 -0.91158,-0.60635 -0.91158,-1.12106 0,-0.32589 0.11713,-0.60081 0.35208,-0.82334 0.23459,-0.22257 0.53939,-0.33349 0.91581,-0.33349 0.40463,0 0.75071,0.093 1.03716,0.2811 l -0.22295,0.52574 c -0.18168,-0.14883 -0.39476,-0.22327 -0.63641,-0.22327 -0.17851,0 -0.31856,0.051 -0.41946,0.15229 -0.10089,0.10199 -0.15169,0.2267 -0.15169,0.3755 0,0.26183 0.19755,0.47269 0.59337,0.63048 0.63818,0.25767 0.95709,0.65113 0.95709,1.18029"
         style="fill:#231f20;fill-opacity:1;fill-rule:nonzero;stroke:none;stroke-width:0.0352778"
         id="path50" />
      <path
         d="m 123.3901,143.21867 c 0,0.124 -0.0487,0.22945 -0.14499,0.31556 -0.0967,0.0868 -0.21413,0.13021 -0.35278,0.13021 -0.13828,0 -0.25541,-0.0434 -0.35277,-0.13021 -0.0956,-0.0861 -0.14464,-0.19156 -0.14464,-0.31556 0,-0.12403 0.049,-0.23015 0.14464,-0.31901 0.0974,-0.0889 0.21449,-0.13367 0.35277,-0.13367 0.13865,0 0.25612,0.0434 0.35278,0.12954 0.0963,0.0868 0.14499,0.19427 0.14499,0.32314 z m -0.0476,5.13595 h -0.90347 v -3.99976 h 0.90347 v 3.99976"
         style="fill:#231f20;fill-opacity:1;fill-rule:nonzero;stroke:none;stroke-width:0.0352778"
         id="path52" />
      <path
         d="m 127.45022,148.13826 c -0.34572,0.19294 -0.81068,0.28939 -1.39453,0.28939 -0.58808,0 -1.04528,-0.17847 -1.3723,-0.53467 -0.32597,-0.35553 -0.48931,-0.85302 -0.48931,-1.49172 0,-0.64287 0.16369,-1.15482 0.49001,-1.53515 0.3168,-0.36657 0.73696,-0.54984 1.26189,-0.54984 0.23248,0 0.43286,0.0255 0.60078,0.0765 v -1.61505 h 0.90346 z m -0.90346,-0.37966 v -2.87803 c -0.11818,-0.0344 -0.25188,-0.0517 -0.40076,-0.0517 -0.70202,0 -1.05304,0.50645 -1.05304,1.52068 0,0.99907 0.32879,1.4986 0.98637,1.4986 0.21766,0 0.37394,-0.0303 0.46743,-0.0896"
         style="fill:#231f20;fill-opacity:1;fill-rule:nonzero;stroke:none;stroke-width:0.0352778"
         id="path54" />
      <path
         d="m 131.30185,148.13826 c -0.36089,0.19294 -0.84243,0.28939 -1.44604,0.28939 -1.08761,0 -1.63124,-0.40513 -1.63124,-1.21613 0,-0.4837 0.21978,-0.84681 0.66005,-1.08935 0.34537,-0.18739 0.86924,-0.31623 1.57198,-0.38516 v -0.21495 c 0,-0.43959 -0.26459,-0.65941 -0.79375,-0.65941 -0.33091,0 -0.66429,0.0806 -1.00084,0.24254 l -0.20778,-0.51883 c 0.41557,-0.20257 0.87242,-0.30315 1.37195,-0.30315 0.9839,0 1.47567,0.45957 1.47567,1.37873 z m -0.84525,-0.32452 v -1.64747 c -0.47414,0.0593 -0.80963,0.15092 -1.00683,0.27492 -0.24659,0.15297 -0.37042,0.40033 -0.37042,0.7421 0,0.4947 0.27905,0.74207 0.83644,0.74207 0.21202,0 0.39229,-0.0372 0.54081,-0.11162"
         style="fill:#231f20;fill-opacity:1;fill-rule:nonzero;stroke:none;stroke-width:0.0352778"
         id="path56" />
      <path
         d="m 135.37467,148.13826 c -0.34572,0.19294 -0.81104,0.28939 -1.39382,0.28939 -0.58844,0 -1.04564,-0.17847 -1.37266,-0.53467 -0.32562,-0.35553 -0.48895,-0.85302 -0.48895,-1.49172 0,-0.64287 0.16333,-1.15482 0.48965,-1.53515 0.31644,-0.36657 0.7366,-0.54984 1.26189,-0.54984 0.23248,0 0.4325,0.0255 0.60078,0.0765 v -1.61505 h 0.90311 z m -0.90311,-0.37966 v -2.87803 c -0.11853,-0.0344 -0.25224,-0.0517 -0.4004,-0.0517 -0.70238,0 -1.0534,0.50645 -1.0534,1.52068 0,0.99907 0.32844,1.4986 0.98707,1.4986 0.21732,0 0.37289,-0.0303 0.46673,-0.0896"
         style="fill:#231f20;fill-opacity:1;fill-rule:nonzero;stroke:none;stroke-width:0.0352778"
         id="path58" />
      <path
         d="m 98.68049,142.78733 h 0.961673 v 4.29948 c 0,0.47269 0.255058,0.70968 0.764117,0.70968 0.242,0 0.46284,-0.0399 0.66146,-0.1185 v -4.89066 h 0.96273 v 5.30821 c -0.43639,0.20465 -0.99095,0.30731 -1.66335,0.30731 -0.593724,0 -1.032932,-0.13162 -1.316566,-0.39413 -0.246591,-0.22048 -0.370064,-0.52295 -0.370064,-0.90674 v -4.31465"
         style="fill:#231f20;fill-opacity:1;fill-rule:nonzero;stroke:none;stroke-width:0.0352778"
         id="path60" />
      <path
         d="m 80.55371,164.36975 h -1.041752 v 1.04662 h 0.926747 v 0.41963 h -0.926747 v 1.56284 h -0.636412 v -3.4531 h 1.678164 v 0.42401"
         style="fill:#231f20;fill-opacity:1;fill-rule:nonzero;stroke:none;stroke-width:0.0352778"
         id="path62" />
      <path
         d="m 82.757513,167.26503 c -0.224719,0.11987 -0.523875,0.17981 -0.899231,0.17981 -0.675922,0 -1.014236,-0.25217 -1.014236,-0.75611 0,-0.3229 0.161573,-0.56088 0.484011,-0.71452 0.200025,-0.0951 0.500945,-0.16287 0.903817,-0.20298 v -0.13367 c 0,-0.27355 -0.164394,-0.41025 -0.493536,-0.41025 -0.205669,0 -0.413456,0.0506 -0.6223,0.15226 l -0.129117,-0.32286 c 0.258234,-0.12608 0.542573,-0.18905 0.853017,-0.18905 0.611717,0 0.917575,0.28592 0.917575,0.85739 z m -0.525639,-0.20285 v -1.02362 c -0.274814,0.0342 -0.469547,0.0817 -0.5842,0.14305 -0.185208,0.0985 -0.277989,0.26141 -0.277989,0.48878 0,0.3073 0.174272,0.46097 0.523875,0.46097 0.132645,0 0.245534,-0.023 0.338314,-0.0692"
         style="fill:#231f20;fill-opacity:1;fill-rule:nonzero;stroke:none;stroke-width:0.0352778"
         id="path64" />
      <path
         d="m 84.82726,167.27438 c -0.125941,0.1137 -0.321028,0.17046 -0.585611,0.17046 -0.331611,0 -0.585258,-0.13988 -0.760236,-0.4196 -0.147814,-0.23357 -0.221544,-0.52532 -0.221544,-0.87573 0,-0.35031 0.07549,-0.64107 0.225777,-0.87161 0.174978,-0.27354 0.428625,-0.41024 0.760589,-0.41024 0.249061,0 0.440972,0.0572 0.576439,0.17085 l -0.119592,0.31792 c -0.0896,-0.0675 -0.200025,-0.10157 -0.332316,-0.10157 -0.362656,0 -0.543984,0.29588 -0.543984,0.88745 0,0.22698 0.03387,0.41868 0.1016,0.57492 0.09207,0.21471 0.236362,0.32177 0.433212,0.32177 0.135466,0 0.247297,-0.0368 0.33655,-0.11049 l 0.129116,0.34587"
         style="fill:#231f20;fill-opacity:1;fill-rule:nonzero;stroke:none;stroke-width:0.0352778"
         id="path66" />
      <path
         d="m 87.187696,167.25123 c -0.249061,0.13201 -0.566914,0.19816 -0.954264,0.19816 -0.642408,0 -0.963436,-0.27947 -0.963436,-0.83894 v -1.69665 h 0.566914 v 1.72875 c 0,0.27975 0.138289,0.41963 0.414514,0.41963 0.152047,0 0.274814,-0.0276 0.369358,-0.0831 v -2.06527 h 0.566914 v 2.33743"
         style="fill:#231f20;fill-opacity:1;fill-rule:nonzero;stroke:none;stroke-width:0.0352778"
         id="path68" />
      <path
         d="m 88.377263,167.39884 h -0.567267 v -3.49003 h 0.567267 v 3.49003"
         style="fill:#231f20;fill-opacity:1;fill-rule:nonzero;stroke:none;stroke-width:0.0352778"
         id="path70" />
      <path
         d="m 90.105874,167.37566 c -0.07373,0.0338 -0.168981,0.0506 -0.286103,0.0506 -0.211666,0 -0.37853,-0.0589 -0.499886,-0.17734 -0.121355,-0.11826 -0.182033,-0.2836 -0.182033,-0.49541 v -1.48001 h -0.276578 v -0.35969 h 0.276578 v -0.82956 l 0.566914,-0.15684 v 0.9864 h 0.401108 v 0.35969 h -0.401108 v 1.45203 c 0,0.21538 0.0896,0.32287 0.268816,0.32287 0.03634,0 0.08043,-0.008 0.132292,-0.0232 v 0.35042"
         style="fill:#231f20;fill-opacity:1;fill-rule:nonzero;stroke:none;stroke-width:0.0352778"
         id="path72" />
      <path
         d="m 92.374235,167.26503 c -0.224719,0.11987 -0.524228,0.17981 -0.899231,0.17981 -0.675922,0 -1.014236,-0.25217 -1.014236,-0.75611 0,-0.3229 0.161573,-0.56088 0.484011,-0.71452 0.199673,-0.0951 0.500945,-0.16287 0.903464,-0.20298 v -0.13367 c 0,-0.27355 -0.164041,-0.41025 -0.493183,-0.41025 -0.205669,0 -0.413456,0.0506 -0.6223,0.15226 l -0.129117,-0.32286 c 0.257881,-0.12608 0.542573,-0.18905 0.853017,-0.18905 0.611717,0 0.917575,0.28592 0.917575,0.85739 z m -0.525992,-0.20285 v -1.02362 c -0.274814,0.0342 -0.469547,0.0817 -0.583847,0.14305 -0.185208,0.0985 -0.277989,0.26141 -0.277989,0.48878 0,0.3073 0.174272,0.46097 0.523522,0.46097 0.132998,0 0.245887,-0.023 0.338314,-0.0692"
         style="fill:#231f20;fill-opacity:1;fill-rule:nonzero;stroke:none;stroke-width:0.0352778"
         id="path74" />
      <path
         d="m 94.886718,167.2464 c -0.215194,0.11991 -0.504472,0.17985 -0.866775,0.17985 -0.381,0 -0.671336,-0.11674 -0.871361,-0.35098 -0.190853,-0.22162 -0.286103,-0.52476 -0.286103,-0.90992 0,-0.36932 0.08749,-0.67113 0.261762,-0.90498 0.193322,-0.2618 0.46743,-0.39271 0.822677,-0.39271 0.144286,0 0.268111,0.0154 0.372534,0.0461 v -1.02359 h 0.567266 z m -0.567266,-0.23495 v -1.7931 c -0.07338,-0.0218 -0.155928,-0.0324 -0.24765,-0.0324 -0.43427,0 -0.651228,0.31556 -0.651228,0.94742 0,0.62216 0.2032,0.93359 0.609953,0.93359 0.134408,0 0.230716,-0.0186 0.288925,-0.0555"
         style="fill:#231f20;fill-opacity:1;fill-rule:nonzero;stroke:none;stroke-width:0.0352778"
         id="path76" />
      <path
         d="m 98.671671,167.2464 c -0.215194,0.11991 -0.504472,0.17985 -0.866775,0.17985 -0.381,0 -0.671336,-0.11674 -0.871361,-0.35098 -0.190853,-0.22162 -0.28575,-0.52476 -0.28575,-0.90992 0,-0.36932 0.08714,-0.67113 0.261761,-0.90498 0.193322,-0.2618 0.467078,-0.39271 0.822678,-0.39271 0.143933,0 0.268111,0.0154 0.372533,0.0461 v -1.02359 h 0.566914 z m -0.566914,-0.23495 v -1.7931 c -0.07338,-0.0218 -0.15628,-0.0324 -0.24765,-0.0324 -0.434622,0 -0.65158,0.31556 -0.65158,0.94742 0,0.62216 0.2032,0.93359 0.609952,0.93359 0.134409,0 0.23107,-0.0186 0.289278,-0.0555"
         style="fill:#231f20;fill-opacity:1;fill-rule:nonzero;stroke:none;stroke-width:0.0352778"
         id="path78" />
      <path
         d="m 101.24907,166.14207 -1.521888,0.21759 c 0.04621,0.46549 0.271992,0.69797 0.677688,0.69797 0.23989,0 0.44908,-0.0476 0.62724,-0.14291 l 0.1337,0.35486 c -0.21202,0.1167 -0.48542,0.17526 -0.82021,0.17526 -0.381704,0 -0.673451,-0.12291 -0.876298,-0.3689 -0.184503,-0.22737 -0.276578,-0.53605 -0.276578,-0.92643 0,-0.37208 0.08114,-0.67003 0.244122,-0.89465 0.184856,-0.25809 0.456494,-0.3872 0.815974,-0.3872 0.36618,0 0.63218,0.12636 0.79834,0.37853 0.14428,0.21882 0.21025,0.51717 0.19791,0.89588 z m -0.52564,-0.22338 c 0,-0.47297 -0.16299,-0.70972 -0.48895,-0.70972 -0.20885,0 -0.358073,0.099 -0.447326,0.29672 -0.06738,0.14813 -0.09807,0.33828 -0.09172,0.56981 l 1.027996,-0.15681"
         style="fill:#231f20;fill-opacity:1;fill-rule:nonzero;stroke:none;stroke-width:0.0352778"
         id="path80" />
      <path
         d="m 105.6101,167.39429 h -0.65934 l -0.2674,-0.88541 h -1.1109 l -0.27693,0.88541 h -0.57115 l 1.143,-3.4531 h 0.60396 z m -1.01423,-1.25886 -0.35525,-1.21239 c -0.0519,-0.18122 -0.0829,-0.3211 -0.0921,-0.41963 h -0.009 c -0.0215,0.14168 -0.0536,0.28155 -0.0967,0.41963 l -0.369,1.21239 h 0.92216"
         style="fill:#231f20;fill-opacity:1;fill-rule:nonzero;stroke:none;stroke-width:0.0352778"
         id="path82" />
      <path
         d="m 107.34789,164.87245 -0.11007,0.41025 c -0.0822,-0.0278 -0.16757,-0.0416 -0.25612,-0.0416 -0.10689,0 -0.19543,0.02 -0.26528,0.0599 v 2.0978 h -0.56692 v -2.35137 c 0.2734,-0.13201 0.6731,-0.19057 1.19839,-0.17502"
         style="fill:#231f20;fill-opacity:1;fill-rule:nonzero;stroke:none;stroke-width:0.0352778"
         id="path84" />
      <path
         d="m 108.82814,167.37566 c -0.0741,0.0338 -0.16933,0.0506 -0.2861,0.0506 -0.21202,0 -0.37853,-0.0589 -0.50024,-0.17734 -0.12135,-0.11826 -0.18203,-0.2836 -0.18203,-0.49541 v -1.48001 h -0.27658 v -0.35969 h 0.27658 v -0.82956 l 0.56726,-0.15684 v 0.9864 h 0.40111 v 0.35969 h -0.40111 v 1.45203 c 0,0.21538 0.0896,0.32287 0.26882,0.32287 0.0363,0 0.0804,-0.008 0.13229,-0.0232 v 0.35042"
         style="fill:#231f20;fill-opacity:1;fill-rule:nonzero;stroke:none;stroke-width:0.0352778"
         id="path86" />
      <path
         d="m 111.26231,166.14207 -1.52188,0.21759 c 0.0462,0.46549 0.27199,0.69797 0.67768,0.69797 0.23989,0 0.44909,-0.0476 0.62689,-0.14291 l 0.13405,0.35486 c -0.21202,0.1167 -0.48577,0.17526 -0.82056,0.17526 -0.38135,0 -0.6731,-0.12291 -0.87594,-0.3689 -0.18451,-0.22737 -0.27658,-0.53605 -0.27658,-0.92643 0,-0.37208 0.0811,-0.67003 0.24412,-0.89465 0.1845,-0.25809 0.45649,-0.3872 0.81598,-0.3872 0.36618,0 0.63182,0.12636 0.79798,0.37853 0.14428,0.21882 0.21061,0.51717 0.19826,0.89588 z m -0.52599,-0.22338 c 0,-0.47297 -0.16263,-0.70972 -0.4886,-0.70972 -0.20884,0 -0.35807,0.099 -0.44732,0.29672 -0.0674,0.14813 -0.0981,0.33828 -0.0917,0.56981 l 1.02764,-0.15681"
         style="fill:#231f20;fill-opacity:1;fill-rule:nonzero;stroke:none;stroke-width:0.0352778"
         id="path88" />
      <path
         d="m 113.19835,166.68418 c 0,0.23357 -0.0907,0.42097 -0.27199,0.56222 -0.16898,0.12926 -0.37359,0.19364 -0.61348,0.19364 -0.28257,0 -0.51153,-0.06 -0.6865,-0.17942 l 0.14746,-0.35969 c 0.11994,0.0951 0.27481,0.14291 0.46531,0.14291 0.10795,0 0.19862,-0.0317 0.27235,-0.0947 0.0737,-0.0627 0.11042,-0.14817 0.11042,-0.25566 0,-0.18161 -0.12136,-0.31831 -0.36407,-0.41035 -0.37783,-0.14471 -0.56727,-0.37649 -0.56727,-0.69621 0,-0.21498 0.0783,-0.39038 0.23495,-0.52571 0.14817,-0.12883 0.33232,-0.1936 0.55351,-0.1936 0.25224,0 0.46708,0.0586 0.64558,0.17526 l -0.13864,0.32744 c -0.11359,-0.0925 -0.24588,-0.13821 -0.39652,-0.13821 -0.10125,0 -0.18556,0.0289 -0.25329,0.0875 -0.0677,0.0582 -0.10125,0.13808 -0.10125,0.23979 0,0.16288 0.12276,0.29351 0.36865,0.39165 0.39652,0.15985 0.59478,0.40418 0.59478,0.73311"
         style="fill:#231f20;fill-opacity:1;fill-rule:nonzero;stroke:none;stroke-width:0.0352778"
         id="path90" />
      <path
         d="m 116.88206,164.9138 -1.13453,3.4761 h -0.59479 l 0.4057,-0.99106 -0.82056,-2.48504 h 0.59937 l 0.42862,1.60888 c 0.0307,0.11712 0.0476,0.23523 0.0508,0.3551 h 0.009 c 0.006,-0.0643 0.0293,-0.18288 0.0692,-0.3551 l 0.46108,-1.60888 h 0.52599"
         style="fill:#231f20;fill-opacity:1;fill-rule:nonzero;stroke:none;stroke-width:0.0352778"
         id="path92" />
      <path
         d="m 120.82329,167.39884 h -0.64064 v -1.57209 h -1.09255 v 1.57209 h -0.64065 v -3.47624 h 0.64065 v 1.48001 h 1.09255 v -1.48001 h 0.64064 v 3.47624"
         style="fill:#231f20;fill-opacity:1;fill-rule:nonzero;stroke:none;stroke-width:0.0352778"
         id="path94" />
      <path
         d="m 123.26698,167.25123 c -0.24906,0.13201 -0.56726,0.19816 -0.95426,0.19816 -0.64241,0 -0.96379,-0.27947 -0.96379,-0.83894 v -1.69665 h 0.56727 v 1.72875 c 0,0.27975 0.13829,0.41963 0.41451,0.41963 0.1517,0 0.27482,-0.0276 0.36901,-0.0831 v -2.06527 h 0.56726 v 2.33743"
         style="fill:#231f20;fill-opacity:1;fill-rule:nonzero;stroke:none;stroke-width:0.0352778"
         id="path96" />
      <path
         d="m 127.22233,167.39884 h -0.56268 v -1.76569 c 0,-0.27051 -0.1397,-0.40584 -0.41945,-0.40584 -0.16299,0 -0.30128,0.0568 -0.41487,0.17047 v 2.00106 h -0.56268 v -1.77575 c 0,-0.26391 -0.15487,-0.39578 -0.46532,-0.39578 -0.13546,0 -0.25823,0.023 -0.369,0.0692 v 2.10235 H 123.866 v -2.35137 c 0.24871,-0.11988 0.55915,-0.17981 0.93133,-0.17981 0.35031,0 0.60855,0.0909 0.77435,0.27213 0.19685,-0.18119 0.46285,-0.27213 0.79763,-0.27213 0.24589,0 0.44944,0.0661 0.61101,0.19843 0.16122,0.1323 0.24201,0.31969 0.24201,0.56223 v 1.77052"
         style="fill:#231f20;fill-opacity:1;fill-rule:nonzero;stroke:none;stroke-width:0.0352778"
         id="path98" />
      <path
         d="m 129.61945,167.26503 c -0.22472,0.11987 -0.52387,0.17981 -0.89923,0.17981 -0.67592,0 -1.01423,-0.25217 -1.01423,-0.75611 0,-0.3229 0.16157,-0.56088 0.48401,-0.71452 0.20002,-0.0951 0.50094,-0.16287 0.90381,-0.20298 v -0.13367 c 0,-0.27355 -0.16439,-0.41025 -0.49353,-0.41025 -0.20567,0 -0.41346,0.0506 -0.6223,0.15226 l -0.12912,-0.32286 c 0.25824,-0.12608 0.54257,-0.18905 0.85302,-0.18905 0.61172,0 0.91757,0.28592 0.91757,0.85739 z m -0.52564,-0.20285 v -1.02362 c -0.27516,0.0342 -0.4699,0.0817 -0.5842,0.14305 -0.1852,0.0985 -0.27798,0.26141 -0.27798,0.48878 0,0.3073 0.17427,0.46097 0.52387,0.46097 0.133,0 0.24553,-0.023 0.33831,-0.0692"
         style="fill:#231f20;fill-opacity:1;fill-rule:nonzero;stroke:none;stroke-width:0.0352778"
         id="path100" />
      <path
         d="m 132.17321,167.39884 h -0.56726 v -1.76128 c 0,-0.27658 -0.14711,-0.4148 -0.44204,-0.4148 -0.14005,0 -0.2674,0.0231 -0.38276,0.0693 v 2.10676 h -0.56727 v -2.35137 c 0.25506,-0.11988 0.57927,-0.17981 0.97261,-0.17981 0.28293,0 0.50906,0.054 0.67769,0.1615 0.20602,0.13201 0.30903,0.33182 0.30903,0.59916 v 1.77052"
         style="fill:#231f20;fill-opacity:1;fill-rule:nonzero;stroke:none;stroke-width:0.0352778"
         id="path102" />
      <path
         d="m 133.38112,164.20853 c 0,0.0799 -0.0307,0.14608 -0.0921,0.19815 -0.0617,0.0524 -0.13406,0.0786 -0.21661,0.0786 -0.0829,0 -0.15557,-0.0262 -0.2166,-0.0786 -0.0617,-0.0521 -0.0924,-0.11821 -0.0924,-0.19815 0,-0.0799 0.0307,-0.14676 0.0924,-0.20052 0.061,-0.0537 0.1337,-0.0806 0.2166,-0.0806 0.0825,0 0.15487,0.0259 0.21661,0.0783 0.0614,0.0523 0.0921,0.11987 0.0921,0.20285 z m -0.0275,3.19031 h -0.56727 v -2.48504 h 0.56727 v 2.48504"
         style="fill:#231f20;fill-opacity:1;fill-rule:nonzero;stroke:none;stroke-width:0.0352778"
         id="path104" />
      <path
         d="m 135.88902,167.2464 c -0.21519,0.11991 -0.50412,0.17985 -0.86677,0.17985 -0.381,0 -0.67134,-0.11674 -0.87101,-0.35098 -0.19086,-0.22162 -0.28611,-0.52476 -0.28611,-0.90992 0,-0.36932 0.0871,-0.67113 0.26177,-0.90498 0.19332,-0.2618 0.46707,-0.39271 0.82267,-0.39271 0.14394,0 0.26811,0.0154 0.37254,0.0461 v -1.02359 h 0.56691 z m -0.56691,-0.23495 v -1.7931 c -0.0734,-0.0218 -0.15628,-0.0324 -0.24765,-0.0324 -0.43463,0 -0.65158,0.31556 -0.65158,0.94742 0,0.62216 0.2032,0.93359 0.6103,0.93359 0.13406,0 0.23072,-0.0186 0.28893,-0.0555"
         style="fill:#231f20;fill-opacity:1;fill-rule:nonzero;stroke:none;stroke-width:0.0352778"
         id="path106" />
      <path
         d="m 138.30026,167.26503 c -0.22437,0.11987 -0.52388,0.17981 -0.89923,0.17981 -0.67593,0 -1.01424,-0.25217 -1.01424,-0.75611 0,-0.3229 0.16192,-0.56088 0.48436,-0.71452 0.19968,-0.0951 0.50095,-0.16287 0.90347,-0.20298 v -0.13367 c 0,-0.27355 -0.1644,-0.41025 -0.49319,-0.41025 -0.20602,0 -0.41345,0.0506 -0.6223,0.15226 l -0.12911,-0.32286 c 0.25788,-0.12608 0.54257,-0.18905 0.85266,-0.18905 0.61172,0 0.91758,0.28592 0.91758,0.85739 z m -0.52564,-0.20285 v -1.02362 c -0.27482,0.0342 -0.46955,0.0817 -0.58385,0.14305 -0.18556,0.0985 -0.27799,0.26141 -0.27799,0.48878 0,0.3073 0.17427,0.46097 0.52352,0.46097 0.133,0 0.24589,-0.023 0.33832,-0.0692"
         style="fill:#231f20;fill-opacity:1;fill-rule:nonzero;stroke:none;stroke-width:0.0352778"
         id="path108" />
      <path
         d="m 140.81309,167.2464 c -0.21554,0.11991 -0.50447,0.17985 -0.86713,0.17985 -0.381,0 -0.67133,-0.11674 -0.871,-0.35098 -0.19086,-0.22162 -0.28611,-0.52476 -0.28611,-0.90992 0,-0.36932 0.0871,-0.67113 0.26176,-0.90498 0.19333,-0.2618 0.46708,-0.39271 0.82268,-0.39271 0.14394,0 0.26811,0.0154 0.37254,0.0461 v -1.02359 h 0.56726 z m -0.56726,-0.23495 v -1.7931 c -0.0734,-0.0218 -0.15593,-0.0324 -0.24765,-0.0324 -0.43427,0 -0.65158,0.31556 -0.65158,0.94742 0,0.62216 0.2032,0.93359 0.6103,0.93359 0.13406,0 0.23072,-0.0186 0.28893,-0.0555"
         style="fill:#231f20;fill-opacity:1;fill-rule:nonzero;stroke:none;stroke-width:0.0352778"
         id="path110" />
      <path
         d="m 143.39013,166.14207 -1.52153,0.21759 c 0.0459,0.46549 0.27164,0.69797 0.67734,0.69797 0.23989,0 0.44908,-0.0476 0.62724,-0.14291 l 0.13405,0.35486 c -0.21237,0.1167 -0.48577,0.17526 -0.82091,0.17526 -0.38136,0 -0.6731,-0.12291 -0.87595,-0.3689 -0.18415,-0.22737 -0.27658,-0.53605 -0.27658,-0.92643 0,-0.37208 0.0811,-0.67003 0.24412,-0.89465 0.18486,-0.25809 0.4565,-0.3872 0.81633,-0.3872 0.36583,0 0.63183,0.12636 0.79763,0.37853 0.14464,0.21882 0.21061,0.51717 0.19826,0.89588 z m -0.52563,-0.22338 c 0,-0.47297 -0.16299,-0.70972 -0.48895,-0.70972 -0.20885,0 -0.35807,0.099 -0.44697,0.29672 -0.0677,0.14813 -0.0984,0.33828 -0.0921,0.56981 l 1.028,-0.15681"
         style="fill:#231f20;fill-opacity:1;fill-rule:nonzero;stroke:none;stroke-width:0.0352778"
         id="path112" />
      <path
         d="m 145.32618,166.68418 c 0,0.23357 -0.0903,0.42097 -0.27199,0.56222 -0.16898,0.12926 -0.3736,0.19364 -0.61313,0.19364 -0.28258,0 -0.51153,-0.06 -0.68686,-0.17942 l 0.14746,-0.35969 c 0.11995,0.0951 0.27517,0.14291 0.46567,0.14291 0.1076,0 0.19826,-0.0317 0.27199,-0.0947 0.0737,-0.0627 0.11077,-0.14817 0.11077,-0.25566 0,-0.18161 -0.12135,-0.31831 -0.36442,-0.41035 -0.37782,-0.14471 -0.56691,-0.37649 -0.56691,-0.69621 0,-0.21498 0.0783,-0.39038 0.23495,-0.52571 0.14781,-0.12883 0.33196,-0.1936 0.55315,-0.1936 0.25224,0 0.46708,0.0586 0.64559,0.17526 l -0.13829,0.32744 c -0.11395,-0.0925 -0.24624,-0.13821 -0.39652,-0.13821 -0.1016,0 -0.18592,0.0289 -0.25365,0.0875 -0.0674,0.0582 -0.10125,0.13808 -0.10125,0.23979 0,0.16288 0.12277,0.29351 0.36901,0.39165 0.39617,0.15985 0.59443,0.40418 0.59443,0.73311"
         style="fill:#231f20;fill-opacity:1;fill-rule:nonzero;stroke:none;stroke-width:0.0352778"
         id="path114" />
    </g>
  </g>
</svg>
