<?xml version="1.0" encoding="UTF-8" standalone="no"?>
<!-- Created with Inkscape (http://www.inkscape.org/) -->

<svg
   width="300"
   height="90"
   viewBox="0 0 79.374998 23.8125"
   version="1.1"
   id="svg617"
   xmlns="http://www.w3.org/2000/svg"
   xmlns:svg="http://www.w3.org/2000/svg">
  <defs
     id="defs614" />
  <g
     id="layer1">
    <g
       id="g527"
       transform="matrix(0.4225733,0,0,-0.42288773,-6.8734077,79.969338)">
      <path
         d="m 60.4102,138.765 c -9.7313,-6.31 -19.836,-5.968 -19.836,-5.968 0,0 -0.2781,1.289 -0.1672,3.512 0.1106,2.224 1.3243,1.597 2.2024,3.354 0.3183,0.637 0.5926,1.078 1.091,2.572 0.0203,0.062 -0.5832,10.712 -0.7356,15.232 -0.082,2.435 -0.5398,6.499 -1.0761,10.451 -0.3164,2.341 -1.0285,4.196 -1.3574,6.42 -0.4766,3.21 -1.0293,6.832 -1.0293,6.832 -0.3957,-1.023 -0.9629,-4.848 -1.5325,-9.166 -0.273,-2.071 -0.5476,-4.256 -0.8035,-6.299 -0.5422,-4.325 -1.8926,-15.904 -2.0969,-16.532 -0.3086,-0.953 -0.3418,0.252 -0.3418,0.252 0,0 0.8012,12.146 1.0422,17.472 0.1172,2.605 0.3145,5.466 0.6387,8.211 0.2441,2.062 0.5606,4.058 0.9688,5.832 0,0 1.3906,4.201 1.8339,4.284 0.4434,0.084 2.0481,-2.647 2.5899,-5.078 1.2277,-5.487 1.9519,-6.189 2.8867,-11.955 0.8895,-5.478 1.7012,-10.06 1.8105,-10.81 0.3985,-2.718 0.2012,-11.198 -0.4843,-14.575 -0.1621,-0.922 -0.2121,-1.261 -0.8133,-1.87 -1.4106,-1.427 -2.4133,-3.127 -2.4133,-4.239 0,-1.113 -0.1855,-1.091 0.0781,-1.736 0,0 1.8602,-2.784 12.5508,3.588 0,0 3.3406,1.75 3.3406,5.613 v 39.071 c 0,0 -10.6003,3.584 -18.7644,3.584 -8.1652,0 -18.3887,-3.576 -18.3887,-3.576 v -38.903 c 0,-2.394 0.3485,-6.884 3.7676,-8.417 0,0 -9.1055,3.117 -9.1055,8.465 v 42.159 c 0,0 13.9004,2.558 23.7324,2.558 9.8321,0 23.9774,-2.558 23.9774,-2.558 0,0 0,-38.574 0,-42.209 0,-3.635 -3.5652,-5.571 -3.5652,-5.571"
         style="fill:#231f20;fill-opacity:1;fill-rule:nonzero;stroke:none;stroke-width:0.1"
         id="path64" />
      <path
         d="m 192.5,171.418 c -0.971,-0.541 -2.278,-0.812 -3.918,-0.812 -1.655,0 -2.94,0.5 -3.856,1.502 -0.918,1.001 -1.375,2.397 -1.375,4.191 0,1.808 0.457,3.246 1.375,4.317 0.891,1.029 2.072,1.544 3.547,1.544 0.652,0 1.217,-0.072 1.69,-0.215 v 4.538 h 2.537 z m -2.537,1.068 v 8.088 c -0.334,0.096 -0.709,0.146 -1.127,0.146 -1.973,0 -2.961,-1.425 -2.961,-4.273 0,-2.809 0.923,-4.212 2.773,-4.212 0.611,0 1.049,0.083 1.315,0.251"
         style="fill:#231f20;fill-opacity:1;fill-rule:nonzero;stroke:none;stroke-width:0.1"
         id="path66" />
      <path
         d="m 204.097,176.507 -6.881,-0.999 c 0.209,-2.083 1.233,-3.124 3.067,-3.124 1.084,0 2.029,0.205 2.836,0.614 l 0.603,-1.601 c -0.959,-0.527 -2.195,-0.791 -3.711,-0.791 -1.611,0 -2.884,0.507 -3.816,1.521 -0.93,1.014 -1.397,2.459 -1.397,4.334 0,1.821 0.428,3.242 1.282,4.262 0.855,1.021 2.027,1.531 3.513,1.531 1.502,0 2.641,-0.489 3.42,-1.468 0.78,-0.979 1.141,-2.405 1.084,-4.279 z m -2.375,0.997 c 0,2.125 -0.738,3.189 -2.215,3.189 -0.779,0 -1.377,-0.313 -1.794,-0.939 -0.459,-0.68 -0.676,-1.668 -0.647,-2.959 l 4.656,0.709"
         style="fill:#231f20;fill-opacity:1;fill-rule:nonzero;stroke:none;stroke-width:0.1"
         id="path68" />
      <path
         d="m 76.2195,140.838 h -3.9882 v 24.656 h 3.9882 v -24.656"
         style="fill:#231f20;fill-opacity:1;fill-rule:nonzero;stroke:none;stroke-width:0.1"
         id="path70" />
      <path
         d="m 94.6164,149.63 c 0,-2.722 -0.5996,-4.889 -1.798,-6.501 -1.3079,-1.742 -3.1485,-2.612 -5.5223,-2.612 -2.375,0 -4.216,0.87 -5.5227,2.612 -1.1992,1.612 -1.798,3.779 -1.798,6.501 0,2.743 0.5988,4.922 1.798,6.534 1.3067,1.742 3.1477,2.613 5.5227,2.613 2.3953,0 4.2371,-0.871 5.5223,-2.613 1.1984,-1.612 1.798,-3.791 1.798,-6.534 z m -3.9574,0.031 c 0,4.4 -1.1211,6.601 -3.3629,6.601 -2.2434,0 -3.3645,-2.201 -3.3645,-6.601 0,-4.291 1.1211,-6.437 3.3645,-6.437 2.2418,0 3.3629,2.146 3.3629,6.437"
         style="fill:#231f20;fill-opacity:1;fill-rule:nonzero;stroke:none;stroke-width:0.1"
         id="path72" />
      <path
         d="m 108.287,145.907 c 0,-1.482 -0.578,-2.745 -1.733,-3.79 -1.154,-1.045 -2.669,-1.569 -4.544,-1.569 -2.005,0 -3.6291,0.424 -4.8713,1.273 l 1.0457,2.545 c 0.8508,-0.677 1.9516,-1.014 3.3036,-1.014 0.807,0 1.46,0.234 1.962,0.702 0.501,0.468 0.752,1.063 0.752,1.782 0,0.74 -0.196,1.323 -0.588,1.748 -0.391,0.424 -1.056,0.812 -1.993,1.16 -2.6788,1.024 -4.0175,2.669 -4.0175,4.934 0,1.439 0.5168,2.648 1.5508,3.628 1.0337,0.981 2.3777,1.471 4.0317,1.471 1.785,0 3.309,-0.414 4.572,-1.242 l -0.978,-2.321 c -0.805,0.656 -1.74,0.984 -2.805,0.984 -0.784,0 -1.398,-0.223 -1.842,-0.67 -0.447,-0.446 -0.67,-0.997 -0.67,-1.649 0,-1.156 0.871,-2.081 2.612,-2.778 2.808,-1.133 4.212,-2.863 4.212,-5.194"
         style="fill:#231f20;fill-opacity:1;fill-rule:nonzero;stroke:none;stroke-width:0.1"
         id="path74" />
      <path
         d="m 137.703,140.838 h -4.653 l -1.882,6.283 h -7.883 l -1.953,-6.283 h -4.051 l 8.099,24.442 h 4.26 z m -7.174,8.912 -2.522,8.608 c -0.355,1.208 -0.568,2.193 -0.64,2.951 h -0.071 c -0.117,-0.639 -0.343,-1.623 -0.673,-2.951 l -2.629,-8.608 h 6.535"
         style="fill:#231f20;fill-opacity:1;fill-rule:nonzero;stroke:none;stroke-width:0.1"
         id="path76" />
      <path
         d="m 154.103,140.838 h -3.988 v 12.483 c 0,1.961 -1.055,2.941 -3.166,2.941 -1.002,0 -1.916,-0.163 -2.744,-0.49 v -14.934 h -3.989 v 16.664 c 1.809,0.849 4.106,1.275 6.895,1.275 2.461,0 4.281,-0.544 5.457,-1.634 1.023,-0.915 1.535,-2.168 1.535,-3.759 v -12.546"
         style="fill:#231f20;fill-opacity:1;fill-rule:nonzero;stroke:none;stroke-width:0.1"
         id="path78" />
      <path
         d="m 172.08,141.791 c -1.526,-0.849 -3.576,-1.274 -6.147,-1.274 -2.594,0 -4.609,0.783 -6.049,2.352 -1.437,1.568 -2.156,3.758 -2.156,6.566 0,2.832 0.719,5.086 2.156,6.764 1.397,1.612 3.248,2.419 5.559,2.419 1.023,0 1.906,-0.111 2.648,-0.332 v 7.128 h 3.989 z m -3.989,1.664 v 12.674 c -0.523,0.153 -1.113,0.229 -1.765,0.229 -3.096,0 -4.643,-2.233 -4.643,-6.696 0,-4.4 1.449,-6.598 4.348,-6.598 0.959,0 1.644,0.13 2.06,0.391"
         style="fill:#231f20;fill-opacity:1;fill-rule:nonzero;stroke:none;stroke-width:0.1"
         id="path80" />
      <path
         d="m 190.226,149.758 -10.785,-1.569 c 0.326,-3.268 1.928,-4.901 4.803,-4.901 1.699,0 3.181,0.326 4.445,0.979 l 0.947,-2.511 c -1.504,-0.827 -3.441,-1.239 -5.816,-1.239 -2.527,0 -4.522,0.795 -5.981,2.384 -1.459,1.59 -2.189,3.854 -2.189,6.795 0,2.852 0.67,5.079 2.01,6.679 1.34,1.601 3.176,2.402 5.506,2.402 2.355,0 4.14,-0.769 5.361,-2.304 1.221,-1.536 1.787,-3.775 1.699,-6.715 z m -3.732,1.568 c 0,3.334 -1.155,5.001 -3.465,5.001 -1.219,0 -2.156,-0.491 -2.811,-1.472 -0.718,-1.067 -1.054,-2.614 -1.011,-4.64 l 7.287,1.111"
         style="fill:#231f20;fill-opacity:1;fill-rule:nonzero;stroke:none;stroke-width:0.1"
         id="path82" />
      <path
         d="m 203.929,145.907 c 0,-1.482 -0.578,-2.745 -1.732,-3.79 -1.156,-1.045 -2.67,-1.569 -4.545,-1.569 -2.004,0 -3.629,0.424 -4.871,1.273 l 1.045,2.545 c 0.851,-0.677 1.953,-1.014 3.304,-1.014 0.807,0 1.461,0.234 1.961,0.702 0.502,0.468 0.752,1.063 0.752,1.782 0,0.74 -0.195,1.323 -0.586,1.748 -0.392,0.424 -1.056,0.812 -1.994,1.16 -2.679,1.024 -4.019,2.669 -4.019,4.934 0,1.439 0.517,2.648 1.552,3.628 1.034,0.981 2.379,1.471 4.034,1.471 1.785,0 3.308,-0.414 4.57,-1.242 l -0.979,-2.321 c -0.804,0.656 -1.74,0.984 -2.804,0.984 -0.783,0 -1.397,-0.223 -1.844,-0.67 -0.445,-0.446 -0.668,-0.997 -0.668,-1.649 0,-1.156 0.871,-2.081 2.611,-2.778 2.809,-1.133 4.213,-2.863 4.213,-5.194"
         style="fill:#231f20;fill-opacity:1;fill-rule:nonzero;stroke:none;stroke-width:0.1"
         id="path84" />
      <path
         d="m 93.2707,170.776 h -2.5394 v 7.965 c 0,1.252 -0.6735,1.878 -2.0223,1.878 -0.6387,0 -1.2227,-0.105 -1.7508,-0.314 v -9.529 h -2.5394 v 10.631 c 1.1535,0.541 2.6183,0.813 4.3945,0.813 1.5695,0 2.7289,-0.349 3.4777,-1.043 0.6531,-0.583 0.9797,-1.382 0.9797,-2.397 v -8.004"
         style="fill:#231f20;fill-opacity:1;fill-rule:nonzero;stroke:none;stroke-width:0.1"
         id="path86" />
      <path
         d="m 98.7461,185.211 c 0,-0.348 -0.1359,-0.645 -0.4074,-0.888 -0.2715,-0.244 -0.6012,-0.366 -0.9903,-0.366 -0.3894,0 -0.7195,0.122 -0.991,0.366 -0.2703,0.243 -0.4062,0.54 -0.4062,0.888 0,0.347 0.1359,0.646 0.4062,0.896 0.2715,0.25 0.6016,0.376 0.991,0.376 0.3891,0 0.7188,-0.122 0.9903,-0.365 0.2715,-0.245 0.4074,-0.546 0.4074,-0.907 z M 98.6125,170.776 H 96.073 v 11.24 h 2.5395 v -11.24"
         style="fill:#231f20;fill-opacity:1;fill-rule:nonzero;stroke:none;stroke-width:0.1"
         id="path88" />
      <path
         d="m 110.187,182.016 -3.607,-11.24 h -2.419 l -3.671,11.24 h 2.711 l 1.982,-7.255 c 0.153,-0.542 0.243,-1.056 0.271,-1.542 h 0.041 c 0.069,0.404 0.167,0.917 0.292,1.542 l 2.022,7.255 h 2.378"
         style="fill:#231f20;fill-opacity:1;fill-rule:nonzero;stroke:none;stroke-width:0.1"
         id="path90" />
      <path
         d="m 120.838,176.473 -6.881,-0.999 c 0.209,-2.083 1.23,-3.124 3.064,-3.124 1.084,0 2.029,0.205 2.836,0.614 l 0.606,-1.601 c -0.959,-0.529 -2.198,-0.791 -3.711,-0.791 -1.614,0 -2.885,0.508 -3.817,1.521 -0.931,1.014 -1.398,2.458 -1.398,4.334 0,1.821 0.427,3.241 1.283,4.261 0.855,1.021 2.025,1.532 3.514,1.532 1.5,0 2.64,-0.489 3.418,-1.468 0.779,-0.979 1.14,-2.405 1.086,-4.279 z m -2.375,0.996 c 0,2.126 -0.739,3.19 -2.215,3.19 -0.78,0 -1.379,-0.313 -1.797,-0.939 -0.459,-0.681 -0.674,-1.668 -0.647,-2.96 l 4.659,0.709"
         style="fill:#231f20;fill-opacity:1;fill-rule:nonzero;stroke:none;stroke-width:0.1"
         id="path92" />
      <path
         d="m 128.564,182.207 -0.502,-1.86 c -0.375,0.125 -0.766,0.188 -1.17,0.188 -0.486,0 -0.89,-0.091 -1.211,-0.272 v -9.487 h -2.539 v 10.638 c 1.238,0.597 3.045,0.862 5.422,0.793"
         style="fill:#231f20;fill-opacity:1;fill-rule:nonzero;stroke:none;stroke-width:0.1"
         id="path94" />
      <path
         d="m 136.668,174.006 c 0,-0.945 -0.37,-1.752 -1.106,-2.42 -0.738,-0.668 -1.703,-1 -2.898,-1 -1.282,0 -2.317,0.271 -3.11,0.814 l 0.668,1.627 c 0.541,-0.433 1.244,-0.65 2.108,-0.65 0.513,0 0.931,0.15 1.252,0.45 0.318,0.296 0.478,0.677 0.478,1.136 0,0.472 -0.125,0.844 -0.373,1.115 -0.252,0.27 -0.676,0.517 -1.271,0.74 -1.709,0.653 -2.565,1.703 -2.565,3.149 0,0.917 0.33,1.689 0.99,2.315 0.661,0.626 1.518,0.938 2.573,0.938 1.138,0 2.111,-0.265 2.916,-0.791 l -0.625,-1.478 c -0.514,0.418 -1.11,0.627 -1.791,0.627 -0.5,0 -0.893,-0.143 -1.178,-0.428 -0.283,-0.285 -0.426,-0.637 -0.426,-1.054 0,-0.737 0.555,-1.328 1.668,-1.772 1.793,-0.725 2.69,-1.829 2.69,-3.318"
         style="fill:#231f20;fill-opacity:1;fill-rule:nonzero;stroke:none;stroke-width:0.1"
         id="path96" />
      <path
         d="m 141.64,185.211 c 0,-0.348 -0.136,-0.645 -0.406,-0.888 -0.271,-0.244 -0.602,-0.366 -0.99,-0.366 -0.391,0 -0.721,0.122 -0.992,0.366 -0.27,0.243 -0.407,0.54 -0.407,0.888 0,0.347 0.137,0.646 0.407,0.896 0.271,0.25 0.601,0.376 0.992,0.376 0.388,0 0.719,-0.122 0.99,-0.365 0.27,-0.245 0.406,-0.546 0.406,-0.907 z m -0.133,-14.435 h -2.539 v 11.24 h 2.539 v -11.24"
         style="fill:#231f20;fill-opacity:1;fill-rule:nonzero;stroke:none;stroke-width:0.1"
         id="path98" />
      <path
         d="m 153.05,171.384 c -0.972,-0.542 -2.277,-0.812 -3.918,-0.812 -1.652,0 -2.939,0.501 -3.855,1.502 -0.918,1 -1.375,2.397 -1.375,4.191 0,1.808 0.457,3.247 1.375,4.317 0.891,1.029 2.072,1.543 3.547,1.543 0.652,0 1.217,-0.071 1.689,-0.213 v 4.537 h 2.537 z m -2.537,1.067 v 8.088 c -0.334,0.097 -0.709,0.147 -1.127,0.147 -1.974,0 -2.961,-1.425 -2.961,-4.273 0,-2.809 0.926,-4.212 2.774,-4.212 0.611,0 1.051,0.083 1.314,0.25"
         style="fill:#231f20;fill-opacity:1;fill-rule:nonzero;stroke:none;stroke-width:0.1"
         id="path100" />
      <path
         d="m 163.875,171.384 c -1.014,-0.542 -2.368,-0.812 -4.065,-0.812 -3.056,0 -4.584,1.139 -4.584,3.416 0,1.36 0.619,2.382 1.856,3.062 0.972,0.527 2.443,0.889 4.418,1.082 v 0.605 c 0,1.236 -0.745,1.853 -2.231,1.853 -0.931,0 -1.867,-0.227 -2.812,-0.681 l -0.584,1.458 c 1.168,0.568 2.451,0.853 3.855,0.853 2.764,0 4.147,-1.293 4.147,-3.876 z m -2.375,0.912 v 4.631 c -1.332,-0.167 -2.276,-0.423 -2.83,-0.772 -0.694,-0.431 -1.041,-1.126 -1.041,-2.086 0,-1.39 0.785,-2.086 2.351,-2.086 0.596,0 1.102,0.105 1.52,0.313"
         style="fill:#231f20;fill-opacity:1;fill-rule:nonzero;stroke:none;stroke-width:0.1"
         id="path102" />
      <path
         d="m 175.322,171.384 c -0.973,-0.542 -2.279,-0.812 -3.918,-0.812 -1.654,0 -2.94,0.501 -3.858,1.502 -0.916,1 -1.375,2.397 -1.375,4.191 0,1.808 0.459,3.247 1.377,4.317 0.889,1.029 2.071,1.543 3.545,1.543 0.655,0 1.217,-0.071 1.69,-0.213 v 4.537 h 2.539 z m -2.539,1.067 v 8.088 c -0.334,0.097 -0.709,0.147 -1.125,0.147 -1.975,0 -2.961,-1.425 -2.961,-4.273 0,-2.809 0.924,-4.212 2.773,-4.212 0.612,0 1.049,0.083 1.313,0.25"
         style="fill:#231f20;fill-opacity:1;fill-rule:nonzero;stroke:none;stroke-width:0.1"
         id="path104" />
      <path
         d="m 72.2004,186.423 h 2.7039 v -12.084 c 0,-1.328 0.7148,-1.993 2.1465,-1.993 0.6797,0 1.2988,0.111 1.8594,0.332 v 13.745 h 2.7039 v -14.919 c -1.2254,-0.575 -2.7832,-0.863 -4.6739,-0.863 -1.6687,0 -2.9023,0.369 -3.6988,1.107 -0.6945,0.621 -1.041,1.47 -1.041,2.548 v 12.127"
         style="fill:#231f20;fill-opacity:1;fill-rule:nonzero;stroke:none;stroke-width:0.1"
         id="path106" />
    </g>
  </g>
</svg>
